<svg width="155" height="126" viewBox="0 0 155 126" fill="none" xmlns="http://www.w3.org/2000/svg">
<g clip-path="url(#clip0_4939_4199)">
<path d="M153.641 48.1849C153.586 48.185 153.532 48.1696 153.486 48.1408L78.2816 0.712176C78.0527 0.568514 77.7808 0.491738 77.5023 0.492168C77.2239 0.492598 76.9522 0.570213 76.7239 0.714581L2.06098 48.1403C2.00192 48.1778 1.92883 48.1926 1.85778 48.1813C1.78674 48.17 1.72355 48.1336 1.68213 48.0801C1.64071 48.0266 1.62444 47.9605 1.63691 47.8961C1.64938 47.8318 1.68956 47.7746 1.74862 47.7371L76.4116 0.311298C76.7313 0.109213 77.1116 0.000582535 77.5014 2.33632e-06C77.8913 -0.000577862 78.272 0.106919 78.5924 0.308052L153.797 47.7366C153.845 47.7665 153.88 47.8095 153.899 47.8591C153.918 47.9087 153.918 47.9625 153.901 48.0125C153.884 48.0625 153.849 48.1062 153.802 48.1372C153.756 48.1683 153.699 48.185 153.641 48.1849Z" fill="#3F3D56"/>
<path d="M6.32812 49.8662L77.577 2.04858L149.366 53.2686L81.248 89.8368L44.2656 82.203L6.32812 49.8662Z" fill="#E6E6E6"/>
<path d="M47.3843 112.423H12.1856C11.9695 112.424 11.7554 112.385 11.5557 112.311C11.3559 112.236 11.1744 112.126 11.0215 111.988C10.8685 111.85 10.7472 111.685 10.6644 111.505C10.5817 111.324 10.5391 111.13 10.5391 110.934C10.5391 110.739 10.5817 110.545 10.6644 110.364C10.7472 110.183 10.8685 110.019 11.0215 109.881C11.1744 109.742 11.3559 109.633 11.5557 109.558C11.7554 109.483 11.9695 109.445 12.1856 109.445H47.3843C47.6004 109.445 47.8145 109.483 48.0143 109.558C48.214 109.633 48.3956 109.742 48.5485 109.881C48.7014 110.019 48.8227 110.183 48.9055 110.364C48.9883 110.545 49.0309 110.739 49.0309 110.934C49.0309 111.13 48.9883 111.324 48.9055 111.505C48.8227 111.685 48.7014 111.85 48.5485 111.988C48.3956 112.126 48.214 112.236 48.0143 112.311C47.8145 112.385 47.6004 112.424 47.3843 112.423Z" fill="#E60000"/>
<path d="M24.8141 106.021H12.1856C11.9695 106.021 11.7554 105.983 11.5557 105.908C11.3559 105.833 11.1744 105.724 11.0215 105.585C10.8685 105.447 10.7472 105.283 10.6644 105.102C10.5817 104.921 10.5391 104.727 10.5391 104.532C10.5391 104.336 10.5817 104.142 10.6644 103.961C10.7472 103.781 10.8685 103.616 11.0215 103.478C11.1744 103.34 11.3559 103.23 11.5557 103.155C11.7554 103.081 11.9695 103.042 12.1856 103.042H24.8141C25.0303 103.042 25.2443 103.081 25.4441 103.155C25.6439 103.23 25.8254 103.34 25.9783 103.478C26.1312 103.616 26.2526 103.781 26.3353 103.961C26.4181 104.142 26.4607 104.336 26.4607 104.532C26.4607 104.727 26.4181 104.921 26.3353 105.102C26.2526 105.283 26.1312 105.447 25.9783 105.585C25.8254 105.724 25.6439 105.833 25.4441 105.908C25.2443 105.983 25.0303 106.021 24.8141 106.021Z" fill="#E60000"/>
<path d="M78.577 76.5C78.3095 76.5003 78.0445 76.4532 77.7968 76.3616L33.8555 59.8508V8.16931C33.8561 7.7123 34.0568 7.27417 34.4136 6.95102C34.7705 6.62787 35.2543 6.44609 35.759 6.44556H120.057C120.562 6.44609 121.046 6.62787 121.403 6.95102C121.759 7.27417 121.96 7.7123 121.961 8.16931V59.8869L121.878 59.9189L79.3809 76.3535C79.1264 76.4504 78.8531 76.5002 78.577 76.5Z" fill="white"/>
<path d="M78.5763 76.6228C78.291 76.6231 78.0084 76.5731 77.7443 76.4754L33.7188 59.9329V8.16914C33.7194 7.67949 33.9344 7.21005 34.3168 6.86382C34.6991 6.51758 35.2175 6.32282 35.7582 6.32227H120.056C120.597 6.32282 121.116 6.51758 121.498 6.86382C121.88 7.21005 122.095 7.67949 122.096 8.16914V59.968L79.4335 76.4665C79.1621 76.5699 78.8707 76.6231 78.5763 76.6228ZM34.2626 59.6039L77.9517 76.0201C78.3592 76.1698 78.8156 76.1673 79.221 76.0132L121.552 59.6429V8.16914C121.552 7.81007 121.394 7.46583 121.114 7.21192C120.833 6.95802 120.453 6.81519 120.056 6.81477H35.7582C35.3617 6.81519 34.9816 6.95802 34.7012 7.21192C34.4208 7.46583 34.2631 7.81007 34.2626 8.16914L34.2626 59.6039Z" fill="#3F3D56"/>
<path d="M153.096 47.6924H153.042L121.825 59.7636L79.1126 76.2796C78.9457 76.3431 78.7666 76.3763 78.5855 76.3771C78.4045 76.378 78.225 76.3465 78.0574 76.2845L33.9912 59.7291L2.00681 47.7121L1.95795 47.6924H1.90351C1.39884 47.6929 0.914997 47.8747 0.558142 48.1978C0.201286 48.521 0.000559972 48.9591 0 49.4161V124.276C0.00056069 124.733 0.201286 125.171 0.558142 125.494C0.914997 125.818 1.39884 125.999 1.90351 126H153.096C153.601 125.999 154.085 125.818 154.442 125.494C154.799 125.171 154.999 124.733 155 124.276V49.4161C154.999 48.9591 154.799 48.521 154.442 48.1978C154.085 47.8747 153.601 47.6929 153.096 47.6924ZM154.456 124.276C154.456 124.603 154.313 124.916 154.058 125.147C153.803 125.378 153.457 125.507 153.096 125.507H1.90351C1.54295 125.507 1.1972 125.378 0.942252 125.147C0.6873 124.916 0.544004 124.603 0.54386 124.276V49.4161C0.544353 49.0977 0.680738 48.7918 0.924502 48.5624C1.16826 48.3329 1.50054 48.1977 1.85186 48.1849L33.9912 60.261L77.8481 76.74C78.3229 76.915 78.8548 76.9123 79.3274 76.7327L121.825 60.2979L153.151 48.1849C153.502 48.1986 153.833 48.3342 154.076 48.5636C154.319 48.7929 154.455 49.0982 154.456 49.4161V124.276Z" fill="#3F3D56"/>
<path d="M78.1375 61.845C76.5153 61.8477 74.9361 61.3727 73.6382 60.4916L73.5577 60.4369L56.6135 48.6889C55.8288 48.1444 55.1702 47.4653 54.6753 46.6903C54.1804 45.9153 53.8589 45.0597 53.7292 44.1722C53.5994 43.2847 53.664 42.3828 53.9192 41.5179C54.1744 40.653 54.6152 39.8421 55.2164 39.1315C55.8177 38.4209 56.5676 37.8245 57.4234 37.3763C58.2792 36.9282 59.2241 36.637 60.2041 36.5195C61.1842 36.4021 62.1801 36.4605 63.1352 36.6916C64.0903 36.9227 64.9858 37.3219 65.7705 37.8664L76.7457 45.4873L102.682 14.857C103.283 14.1466 104.033 13.5504 104.889 13.1025C105.745 12.6546 106.69 12.3638 107.67 12.2466C108.651 12.1295 109.646 12.1883 110.601 12.4197C111.556 12.6511 112.452 13.0506 113.236 13.5953L113.075 13.7936L113.24 13.5982C114.823 14.6996 115.858 16.3244 116.12 18.1163C116.381 19.9081 115.846 21.7206 114.634 23.156L84.1266 59.1846C83.421 60.0148 82.5137 60.6867 81.4751 61.148C80.4364 61.6094 79.2944 61.8479 78.1375 61.845Z" fill="#E60000"/>
</g>
<defs>
<clipPath id="clip0_4939_4199">
<rect width="155" height="126" fill="white"/>
</clipPath>
</defs>
</svg>
