<svg width="224" height="224" viewBox="0 0 224 224" fill="none" xmlns="http://www.w3.org/2000/svg">
<path d="M58.8833 66.2727L54.457 59.0823C56.8731 54.8051 57.6023 49.7788 56.5011 44.9914C55.4 40.2039 52.5483 36.0013 48.5062 33.2094C44.4642 30.4175 39.5242 29.2382 34.6569 29.9033C29.7897 30.5683 25.3471 33.0296 22.2022 36.8035C19.0573 40.5774 17.4375 45.391 17.661 50.2984C17.8846 55.2058 19.9354 59.8521 23.4104 63.3244C26.8854 66.7968 31.5333 68.8439 36.4409 69.0637C41.3484 69.2834 46.1608 67.6599 49.9322 64.5121L58.8833 66.2727Z" fill="#F5F5F5"/>
<path d="M46.9322 56.8064C46.8174 56.8162 46.702 56.8162 46.5872 56.8064L45.6016 56.8288L41.9728 56.8647L30.0157 56.9184H29.0391V56.8064C29.0391 52.3264 29.0391 48.3258 29.0704 45.4093C29.0704 43.9757 29.0973 42.8154 29.1063 41.9821C29.1063 41.5968 29.1063 41.2877 29.1063 41.0547C29.0939 40.9476 29.0939 40.8393 29.1063 40.7322C29.1129 40.8396 29.1129 40.9473 29.1063 41.0547C29.1063 41.2877 29.1063 41.5968 29.1063 41.9821C29.1063 42.8154 29.1063 43.9757 29.1421 45.4093C29.1421 48.3258 29.1421 52.3354 29.1779 56.8064L29.0659 56.6944H30.0157L41.9818 56.7258L45.6106 56.7616H46.5962C46.7095 56.7644 46.8221 56.7794 46.9322 56.8064Z" fill="#263238"/>
<path d="M30.0183 57.0305H29.0417C29.0133 57.0297 28.9862 57.0185 28.9655 56.9991C28.9544 56.9888 28.9455 56.9764 28.9393 56.9625C28.9332 56.9486 28.9299 56.9337 28.9297 56.9185L28.9655 45.4094L29.0238 41.0548C29.0238 40.6785 29.0238 40.6068 29.1582 40.6068C29.2926 40.6068 29.2791 40.6651 29.2926 41.0548L29.3194 42.9409L29.3463 45.4139L29.3822 56.587H30.0183L41.9844 56.6183L46.6033 56.6766C47.002 56.6766 47.0513 56.6766 47.0513 56.811C47.0513 56.9454 46.9975 56.9319 46.6033 56.9454L45.6177 56.9678L41.9889 57.0036L30.0183 57.0305ZM29.1671 56.5198V56.5825V56.5198Z" fill="#E0E0E0"/>
<path d="M44.9592 44.6343C44.7943 44.8145 44.6177 44.9836 44.4306 45.1405L42.9298 46.4576C41.653 47.5597 39.8834 49.0784 37.9211 50.7405L37.6254 50.9914L37.5493 51.0541L37.4731 50.9869L35.2331 48.9172H35.3944L32.124 51.6052L31.1742 52.3623C31.0664 52.4607 30.9477 52.5463 30.8203 52.6176C30.915 52.5064 31.02 52.4044 31.1339 52.313L32.0299 51.5066L35.2466 48.7469L35.3182 48.6887L35.3854 48.7514L37.6254 50.8077H37.4776L37.7733 50.5568C39.74 48.8948 41.523 47.3984 42.8267 46.3277L44.3544 45.0733C44.5425 44.9092 44.7449 44.7623 44.9592 44.6343Z" fill="#263238"/>
<path d="M30.8064 52.752C30.7795 52.752 30.7571 52.752 30.7302 52.7027C30.7033 52.6534 30.6944 52.5638 31.0528 52.2547L31.9488 51.4483L35.2371 48.6304C35.2582 48.6121 35.2853 48.6021 35.3132 48.6021C35.3412 48.6021 35.3682 48.6121 35.3894 48.6304L37.5622 50.624L37.7056 50.4986C39.6096 48.8903 41.4016 47.3626 42.759 46.265L44.3046 45.0016C44.9497 44.4864 44.9632 44.4819 45.0483 44.5536C45.1334 44.6522 45.12 44.6611 44.5062 45.2122L43.0054 46.5562C41.6614 47.703 39.9008 49.2442 37.9968 50.8391L37.6249 51.1526C37.6045 51.1706 37.5782 51.1805 37.551 51.1805C37.5238 51.1805 37.4975 51.1706 37.4771 51.1526L35.3132 49.1456L31.2409 52.4832C30.9811 52.6669 30.8736 52.752 30.8064 52.752ZM37.7235 50.7584L37.8489 50.6509L38.8166 49.8266L37.8489 50.6464L37.7235 50.7584ZM37.3113 50.6778L37.392 50.7539L37.3113 50.6778Z" fill="#E0E0E0"/>
<path d="M44.9622 48.3571C44.8985 47.9904 44.8729 47.618 44.8861 47.2461C44.8637 46.5606 44.8502 45.6064 44.8502 44.5581L44.9622 44.6701H44.7696C43.663 44.6701 42.664 44.6701 41.9382 44.6387C41.5479 44.644 41.1579 44.6125 40.7734 44.5446C41.1613 44.4806 41.5543 44.4536 41.9472 44.464C42.673 44.464 43.672 44.4326 44.7786 44.4326H45.0832V44.5446C45.0832 45.6064 45.0832 46.5606 45.0474 47.2326C45.0585 47.6094 45.03 47.9863 44.9622 48.3571Z" fill="#263238"/>
<path d="M44.9582 48.4692C44.8328 48.4692 44.8059 48.4692 44.77 47.2506C44.7476 46.5876 44.7387 45.714 44.7342 44.7687C43.6769 44.7687 42.6824 44.7687 41.9297 44.7373C40.6484 44.7015 40.6484 44.6746 40.6484 44.5447C40.6484 44.4148 40.6484 44.3879 41.9297 44.352C42.6913 44.352 43.7217 44.3207 44.7656 44.3207H45.0702C45.0999 44.3216 45.1283 44.3327 45.1508 44.352C45.1614 44.3626 45.1696 44.3752 45.175 44.3891C45.1804 44.4029 45.1828 44.4178 45.1822 44.4327V44.5447C45.1822 45.5751 45.1822 46.5338 45.1464 47.2327C45.115 48.4692 45.0881 48.4692 44.9582 48.4692Z" fill="#E0E0E0"/>
<path d="M113.651 36.1402L138.193 32.3904C138.977 37.5195 138.134 42.7653 135.784 47.391C133.433 52.0168 129.693 55.7901 125.088 58.181C120.483 60.572 115.245 61.4604 110.109 60.7216C104.973 59.9828 100.198 57.6538 96.4539 54.0618C92.7097 50.4698 90.1846 45.7952 89.2334 40.6945C88.2822 35.5938 88.9526 30.3233 91.1504 25.6231C93.3483 20.923 96.9632 17.0293 101.487 14.4891C106.012 11.9488 111.218 10.8895 116.375 11.4599L113.651 36.1402Z" fill="#EBEBEB"/>
<path d="M121.612 11.5405L118.633 30.5671L137.31 27.0592C137.31 27.0592 134.564 16.3968 121.612 11.5405Z" fill="#E0E0E0"/>
<path d="M170.173 46.9415C170.131 43.5349 171.099 40.1921 172.956 37.3354C174.812 34.4786 177.473 32.236 180.603 30.8906C183.734 29.5453 187.192 29.1576 190.542 29.7764C193.893 30.3953 196.984 31.9929 199.427 34.3677C201.87 36.7425 203.555 39.7878 204.268 43.1193C204.981 46.4507 204.691 49.9188 203.435 53.0856C202.179 56.2524 200.012 58.976 197.209 60.9124C194.406 62.8488 191.092 63.9113 187.686 63.9655C183.108 64.023 178.694 62.2634 175.411 59.0723C172.129 55.8813 170.245 51.519 170.173 46.9415ZM195.651 46.5294C195.617 44.901 195.102 43.3192 194.17 41.9835C193.238 40.6478 191.931 39.6182 190.414 39.0246C188.897 38.4309 187.239 38.2998 185.648 38.6479C184.057 38.996 182.604 39.8076 181.474 40.9803C180.344 42.153 179.586 43.6342 179.297 45.2371C179.008 46.8399 179.2 48.4925 179.849 49.9862C180.499 51.4799 181.576 52.7479 182.945 53.6301C184.314 54.5122 185.914 54.969 187.542 54.9428C189.732 54.8992 191.815 53.9891 193.335 52.412C194.855 50.8349 195.688 48.7194 195.651 46.5294Z" fill="#F5F5F5"/>
<path d="M170.175 46.9414C170.094 42.3606 171.834 37.9349 175.014 34.6358C178.193 31.3366 182.551 29.4335 187.131 29.344L187.266 38.3802C185.068 38.4152 182.973 39.322 181.444 40.9011C179.914 42.4802 179.075 44.6022 179.11 46.8003C179.145 48.9984 180.052 51.0926 181.631 52.6221C183.21 54.1516 185.332 54.9912 187.53 54.9562L187.673 63.9923C183.093 64.0473 178.678 62.2829 175.397 59.0861C172.117 55.8894 170.238 51.5216 170.175 46.9414Z" fill="#E0E0E0"/>
<path d="M185.586 27.9553C196.705 27.7761 205.576 36.4045 205.746 47.5777L195.222 47.7479C195.137 42.4033 191.074 39.0433 185.756 39.1284L185.586 27.9553Z" fill="#EBEBEB"/>
<path d="M29.2114 139.418H17.3125V166.844H29.2114V139.418Z" fill="#EBEBEB"/>
<path d="M46.352 114.455H34.4531V166.844H46.352V114.455Z" fill="#F5F5F5"/>
<path d="M106.672 115.956H94.7734V166.844H106.672V115.956Z" fill="#EBEBEB"/>
<path d="M124.5 97.3862H112.602V166.302H124.5V97.3862Z" fill="#F5F5F5"/>
<path d="M188.516 96.8396H176.617V166.84H188.516V96.8396Z" fill="#F5F5F5"/>
<path d="M210.907 107.565H199.008V166.84H210.907V107.565Z" fill="#EBEBEB"/>
<path d="M212.562 112.86C212.562 112.86 212.455 112.681 212.258 112.318C212.061 111.955 211.783 111.422 211.389 110.705C210.596 109.307 209.404 107.251 207.652 104.747C206.779 103.497 205.744 102.144 204.539 100.715C203.239 99.1741 201.832 97.7279 200.327 96.3871C198.61 94.8329 196.736 93.4607 194.736 92.2924C194.203 91.9878 193.661 91.6831 193.092 91.3964C192.523 91.1097 191.936 90.8588 191.345 90.6034C190.113 90.1021 188.84 89.705 187.542 89.4162C186.179 89.1238 184.791 88.9617 183.398 88.9324C181.943 88.9255 180.492 89.0757 179.07 89.3804C177.587 89.6974 176.146 90.1876 174.778 90.8409C173.389 91.5039 172.032 92.3282 170.598 93.0809C167.68 94.6837 164.6 95.9722 161.41 96.9247C157.993 97.8442 154.458 98.2444 150.922 98.1119C150.474 98.1119 150.026 98.0761 149.578 98.0582C149.12 98.0483 148.662 98.0139 148.207 97.9551C147.979 97.9237 147.759 97.9103 147.522 97.8655L146.841 97.7266C146.393 97.646 145.945 97.4937 145.497 97.3682C143.711 96.7899 141.973 96.0724 140.3 95.2223L135.175 92.6508C133.441 91.7642 131.628 91.0427 129.759 90.4959C125.968 89.5462 121.959 88.8876 117.931 89.3132C115.902 89.526 113.923 90.0772 112.076 90.9439C110.232 91.8524 108.543 93.0469 107.072 94.4831C104.07 97.3682 101.812 100.858 99.5678 104.227C97.3233 107.596 95.1684 110.992 92.8478 114.173C90.6072 117.329 88.0672 120.262 85.2632 122.931C83.8883 124.209 82.4191 125.382 80.8683 126.439C79.3446 127.464 77.7399 128.363 76.0702 129.127C74.444 129.879 72.7465 130.465 71.0033 130.879C70.1477 131.107 69.2741 131.228 68.4139 131.371C67.5541 131.47 66.6898 131.523 65.8244 131.533C62.4725 131.555 59.1648 130.767 56.1835 129.234C53.2849 127.823 50.6731 126.13 47.9985 124.817C42.8574 122.157 36.9449 121.388 31.2945 122.645C25.644 123.902 20.6151 127.105 17.0865 131.694C15.6443 133.545 14.4681 135.588 13.5921 137.764L13.2158 138.759C13.1128 139.046 13.0411 139.292 12.9784 139.485L12.7812 140.081C12.7812 140.081 12.835 139.874 12.956 139.48C13.0142 139.283 13.0814 139.032 13.18 138.746C13.2785 138.459 13.4084 138.123 13.5473 137.746C15.7917 132.04 20.0376 127.347 25.491 124.544C29.9439 122.346 34.9464 121.511 39.8718 122.143C42.726 122.502 45.4966 123.353 48.0612 124.656C50.7492 125.969 53.3611 127.662 56.2507 129.06C59.2054 130.574 62.4821 131.351 65.8021 131.327C66.6599 131.317 67.5168 131.264 68.3691 131.165C69.2248 131.022 70.0849 130.901 70.9361 130.677C72.6655 130.263 74.3494 129.678 75.9627 128.93C77.6202 128.164 79.2128 127.265 80.7249 126.242C82.2656 125.189 83.7257 124.022 85.0929 122.752C87.884 120.089 90.4133 117.166 92.6462 114.02C94.9579 110.844 97.1262 107.475 99.3662 104.084C101.606 100.692 103.864 97.2159 106.893 94.3129C108.387 92.8559 110.103 91.6461 111.977 90.7289C113.849 89.863 115.852 89.3178 117.904 89.1161C121.981 88.6681 126.009 89.349 129.817 90.3078C131.696 90.8585 133.518 91.586 135.26 92.4805L140.381 95.0521C142.045 95.8982 143.771 96.6142 145.546 97.1935C145.994 97.3145 146.442 97.4668 146.89 97.543L147.562 97.6818C147.786 97.7266 148.01 97.7401 148.234 97.7714C148.682 97.8342 149.13 97.8521 149.578 97.8745C150.026 97.8969 150.474 97.9327 150.922 97.9282C154.437 98.0663 157.953 97.6752 161.351 96.7679C164.53 95.8227 167.6 94.5433 170.509 92.951C171.938 92.2162 173.291 91.4009 174.697 90.711C177.418 89.4273 180.394 88.7749 183.402 88.8025C184.806 88.8325 186.205 88.9975 187.577 89.2953C188.884 89.5885 190.164 89.9901 191.403 90.4959C191.999 90.7602 192.599 91.0021 193.159 91.2978C193.719 91.5935 194.275 91.8802 194.813 92.1938C196.818 93.3701 198.697 94.7513 200.417 96.3154C201.92 97.6663 203.326 99.1215 204.624 100.67C205.829 102.09 206.864 103.448 207.724 104.702C209.063 106.631 210.299 108.629 211.429 110.687C211.814 111.395 212.087 111.946 212.28 112.309L212.562 112.86Z" fill="#263238"/>
<path d="M118.091 92.1939C119.781 92.1939 121.151 90.824 121.151 89.1341C121.151 87.4442 119.781 86.0742 118.091 86.0742C116.401 86.0742 115.031 87.4442 115.031 89.1341C115.031 90.824 116.401 92.1939 118.091 92.1939Z" fill="#B3B5B5"/>
<path d="M118.091 94.8058C116.991 94.8058 115.916 94.4796 115.002 93.8685C114.087 93.2574 113.375 92.3888 112.954 91.3726C112.533 90.3565 112.424 89.2384 112.638 88.1598C112.853 87.0812 113.383 86.0906 114.161 85.3132C114.939 84.5359 115.93 84.0067 117.009 83.7927C118.088 83.5787 119.206 83.6894 120.222 84.1109C121.237 84.5324 122.105 85.2457 122.716 86.1606C123.326 87.0754 123.651 88.1508 123.651 89.2506C123.648 90.7239 123.062 92.1362 122.019 93.1776C120.977 94.2191 119.564 94.8046 118.091 94.8058ZM118.091 84.1389C117.08 84.1389 116.092 84.4387 115.251 85.0004C114.41 85.562 113.755 86.3604 113.368 87.2944C112.981 88.2284 112.88 89.2562 113.077 90.2478C113.275 91.2394 113.762 92.1502 114.476 92.8651C115.191 93.58 116.102 94.0668 117.094 94.264C118.085 94.4613 119.113 94.36 120.047 93.9731C120.981 93.5862 121.779 92.9311 122.341 92.0905C122.903 91.2498 123.203 90.2616 123.203 89.2506C123.201 87.8952 122.662 86.5957 121.704 85.6374C120.746 84.679 119.446 84.1401 118.091 84.1389Z" fill="#B3B5B5"/>
<path d="M119.557 78.5791L119.396 72.3116L120.959 72.3385L118.038 68.7679L115.117 72.3699L116.734 72.3788L116.896 78.5612L119.557 78.5791Z" fill="#EBEBEB"/>
<path d="M113.647 81.9347V83.0861H112.616V81.984C111.705 81.9544 110.821 81.6704 110.062 81.1641L110.627 79.9097C111.215 80.3223 111.901 80.5741 112.616 80.64V78.9241C111.478 78.6464 110.206 78.2656 110.206 76.8006C110.206 75.712 110.994 74.7757 112.616 74.592V73.4496H113.647V74.5696C114.381 74.6122 115.094 74.827 115.73 75.1968L115.214 76.4601C114.732 76.1816 114.199 76.0005 113.647 75.927V77.6697C114.784 77.9385 116.039 78.3193 116.039 79.7664C116.03 80.8147 115.255 81.7421 113.647 81.9347ZM112.616 77.3965V75.9405C112.074 76.0614 111.859 76.3616 111.859 76.6976C111.859 77.0336 112.168 77.2531 112.616 77.3965ZM114.408 79.8694C114.408 79.511 114.108 79.3184 113.669 79.1616V80.5817C114.157 80.4653 114.386 80.192 114.386 79.8694H114.408Z" fill="#E0E0E0"/>
<path d="M127.062 62.2989C127.062 63.0918 126.479 63.7773 125.202 63.7773C124.601 63.7878 124.009 63.6227 123.5 63.3024L123.908 62.5094C124.279 62.7745 124.724 62.9156 125.18 62.9126C125.695 62.9126 126.013 62.6931 126.013 62.3302C126.013 61.9673 125.785 61.7523 124.974 61.7523H123.832L124.064 59.239H126.784V60.0678H124.92L124.848 60.9145H125.211C126.537 60.928 127.062 61.5104 127.062 62.2989Z" fill="#B3B5B5"/>
<path d="M127.484 61.47C127.484 59.9961 128.3 59.1628 129.397 59.1628C130.495 59.1628 131.31 59.9961 131.31 61.47C131.31 62.944 130.499 63.7772 129.397 63.7772C128.295 63.7772 127.484 62.944 127.484 61.47ZM130.271 61.47C130.271 60.4576 129.913 60.0364 129.397 60.0364C128.882 60.0364 128.533 60.4576 128.533 61.47C128.533 62.4825 128.887 62.9036 129.397 62.9036C129.908 62.9036 130.271 62.4825 130.271 61.47Z" fill="#B3B5B5"/>
<path d="M131.741 60.4173C131.727 60.2636 131.745 60.1087 131.795 59.9625C131.844 59.8163 131.923 59.6819 132.027 59.568C132.132 59.4541 132.258 59.3632 132.399 59.3009C132.541 59.2387 132.693 59.2065 132.848 59.2065C133.002 59.2065 133.154 59.2387 133.296 59.3009C133.437 59.3632 133.564 59.4541 133.668 59.568C133.772 59.6819 133.851 59.8163 133.9 59.9625C133.95 60.1087 133.968 60.2636 133.954 60.4173C133.973 60.5725 133.958 60.7299 133.911 60.879C133.864 61.0281 133.785 61.1655 133.681 61.282C133.577 61.3985 133.449 61.4915 133.306 61.5548C133.163 61.6182 133.008 61.6503 132.852 61.6493C132.695 61.6502 132.54 61.618 132.397 61.5547C132.254 61.4915 132.125 61.3987 132.02 61.2823C131.915 61.166 131.836 61.0287 131.788 60.8797C131.74 60.7306 131.724 60.573 131.741 60.4173ZM133.318 60.4173C133.318 59.9379 133.13 59.7094 132.87 59.7094C132.61 59.7094 132.422 59.9469 132.422 60.4173C132.422 60.8877 132.615 61.1251 132.87 61.1251C133.125 61.1251 133.318 60.8966 133.318 60.4173ZM135.509 59.239H136.27L133.219 63.719H132.462L135.509 59.239ZM134.778 62.5229C134.802 62.3094 134.886 62.1074 135.022 61.9411C135.158 61.7748 135.339 61.6514 135.544 61.5859C135.748 61.5203 135.967 61.5154 136.174 61.5717C136.381 61.6279 136.568 61.7431 136.711 61.9031C136.854 62.0631 136.948 62.2611 136.981 62.4733C137.014 62.6854 136.984 62.9026 136.897 63.0984C136.809 63.2943 136.666 63.4606 136.486 63.5771C136.305 63.6936 136.095 63.7553 135.88 63.7549C135.725 63.7545 135.57 63.7214 135.428 63.6576C135.286 63.5938 135.159 63.5008 135.055 63.3846C134.951 63.2684 134.873 63.1316 134.825 62.9831C134.777 62.8347 134.761 62.6778 134.778 62.5229ZM136.346 62.5229C136.346 62.0525 136.163 61.815 135.898 61.815C135.634 61.815 135.45 62.0435 135.45 62.5229C135.45 63.0022 135.643 63.2307 135.898 63.2307C136.154 63.2307 136.346 62.9933 136.346 62.5229Z" fill="#B3B5B5"/>
<path d="M23.5833 129.947C25.2732 129.947 26.6431 128.577 26.6431 126.887C26.6431 125.197 25.2732 123.827 23.5833 123.827C21.8934 123.827 20.5234 125.197 20.5234 126.887C20.5234 128.577 21.8934 129.947 23.5833 129.947Z" fill="#B3B5B5"/>
<path d="M23.5831 132.559C22.4835 132.559 21.4086 132.233 20.4943 131.622C19.58 131.011 18.8674 130.143 18.4466 129.127C18.0258 128.111 17.9157 126.993 18.1303 125.914C18.3448 124.836 18.8743 123.845 19.6518 123.068C20.4294 122.29 21.42 121.761 22.4985 121.546C23.577 121.332 24.6948 121.442 25.7107 121.863C26.7266 122.283 27.5949 122.996 28.2058 123.91C28.8167 124.825 29.1428 125.899 29.1428 126.999C29.1416 128.473 28.5555 129.887 27.5131 130.929C26.4707 131.971 25.0573 132.558 23.5831 132.559ZM23.5831 121.892C22.5719 121.892 21.5835 122.192 20.7428 122.754C19.902 123.315 19.2469 124.114 18.8601 125.048C18.4734 125.983 18.3724 127.011 18.57 128.002C18.7676 128.994 19.2549 129.905 19.9702 130.62C20.6855 131.334 21.5968 131.821 22.5886 132.018C23.5805 132.214 24.6084 132.112 25.5424 131.725C26.4763 131.337 27.2744 130.681 27.8355 129.84C28.3966 128.999 28.6957 128.01 28.6948 126.999C28.6924 125.644 28.153 124.346 27.1947 123.389C26.2365 122.431 24.9377 121.893 23.5831 121.892Z" fill="#B3B5B5"/>
<path d="M22.0618 109.088L22.2276 115.351L20.6641 115.324L23.585 118.895L26.506 115.293L24.8842 115.284L24.7229 109.101L22.0618 109.088Z" fill="#EBEBEB"/>
<path d="M18.4545 120.476V121.628H17.4286V120.512C16.5172 120.484 15.6322 120.2 14.875 119.692L15.4395 118.438C16.0276 118.85 16.7133 119.102 17.4286 119.168V117.452C16.2907 117.179 15.0184 116.798 15.0184 115.329C15.0184 114.24 15.8068 113.304 17.4286 113.12V112H18.4545V113.12C19.1901 113.158 19.9058 113.372 20.5422 113.743L20.027 115.006C19.5429 114.727 19.0086 114.546 18.4545 114.473V116.22C19.5969 116.484 20.8468 116.865 20.8468 118.312C20.8468 119.361 20.0673 120.284 18.4545 120.476ZM17.4286 115.938V114.482C16.8865 114.603 16.6715 114.903 16.6715 115.244C16.6715 115.584 16.9761 115.795 17.4286 115.938ZM19.1937 118.415C19.1937 118.057 18.898 117.86 18.4545 117.708V119.123C18.9697 119.011 19.1937 118.742 19.1937 118.415Z" fill="#E0E0E0"/>
<path d="M198.529 87.2569V88.4083H197.503V87.2883C196.59 87.2594 195.704 86.9737 194.945 86.464L195.51 85.214C196.1 85.6261 196.787 85.8777 197.503 85.9443V84.224C196.365 83.9462 195.089 83.5654 195.089 82.096C195.089 81.0118 195.882 80.0755 197.503 79.8918V78.7494H198.529V79.8694C199.263 79.9113 199.977 80.1262 200.613 80.4966L200.102 81.76C199.619 81.4768 199.084 81.2954 198.529 81.2268V82.9695C199.667 83.2383 200.922 83.6192 200.922 85.0662C200.922 86.1369 200.142 87.0598 198.529 87.2569ZM197.503 82.7187V81.2627C196.957 81.3836 196.742 81.6793 196.742 82.0198C196.742 82.3603 197.051 82.5753 197.503 82.7187ZM199.269 85.1916C199.269 84.8332 198.973 84.6406 198.529 84.4838V85.8995C199.045 85.7875 199.269 85.5232 199.269 85.1916Z" fill="#E0E0E0"/>
<path d="M204.9 88.1888C205.368 87.9834 205.765 87.645 206.042 87.2157C206.319 86.7863 206.464 86.2851 206.459 85.7741C206.481 85.44 206.434 85.1049 206.322 84.7894C206.21 84.474 206.034 84.1849 205.806 83.9399C205.578 83.6948 205.302 83.4991 204.995 83.3646C204.688 83.2301 204.357 83.1598 204.023 83.158C203.688 83.1562 203.356 83.2228 203.048 83.3539C202.74 83.485 202.462 83.6777 202.231 83.9203C202 84.1628 201.821 84.45 201.706 84.7641C201.59 85.0783 201.539 85.4129 201.558 85.7472C201.547 86.2627 201.689 86.7698 201.967 87.2044C202.244 87.639 202.645 87.9816 203.117 88.1888C199.345 88.7578 199.533 92.857 199.533 92.857L208.457 92.9017C208.457 92.9017 208.641 88.7533 204.9 88.1888Z" fill="#EBEBEB"/>
<path d="M132.298 49.3964C132.169 49.3951 132.045 49.35 131.946 49.2685C131.846 49.1871 131.778 49.0741 131.751 48.9484L130.492 43.6441H126.985L125.77 48.702C125.734 48.8469 125.643 48.9719 125.515 49.0498C125.388 49.1278 125.235 49.1525 125.09 49.1187C125.017 49.1018 124.949 49.0708 124.889 49.0273C124.828 48.9839 124.777 48.9288 124.739 48.8654C124.7 48.8021 124.674 48.7316 124.663 48.6582C124.651 48.5847 124.655 48.5098 124.673 48.4377L125.887 43.4559C125.899 43.2222 125.997 43.0011 126.163 42.8356C126.328 42.6701 126.549 42.5718 126.783 42.5599H130.681C130.914 42.5738 131.134 42.6726 131.299 42.8377C131.464 43.0029 131.563 43.2228 131.577 43.4559L132.826 48.7155C132.844 48.7875 132.847 48.8623 132.835 48.9355C132.824 49.0088 132.798 49.079 132.759 49.1422C132.721 49.2055 132.67 49.2605 132.61 49.3041C132.55 49.3477 132.482 49.3791 132.41 49.3964C132.373 49.3995 132.335 49.3995 132.298 49.3964Z" fill="#B3B5B5"/>
<path d="M130.434 42.5958H127.016V48.832H130.434V42.5958Z" fill="#B3B5B5"/>
<path d="M127.704 56.2464C127.525 56.2452 127.353 56.173 127.226 56.0454C127.099 55.9178 127.028 55.7453 127.028 55.5655V48.1959C127.017 48.1011 127.026 48.0051 127.055 47.9141C127.084 47.8232 127.131 47.7393 127.195 47.6681C127.258 47.5969 127.336 47.5399 127.423 47.5009C127.51 47.4618 127.605 47.4417 127.7 47.4417C127.795 47.4417 127.89 47.4618 127.977 47.5009C128.064 47.5399 128.142 47.5969 128.205 47.6681C128.268 47.7393 128.316 47.8232 128.345 47.9141C128.374 48.0051 128.383 48.1011 128.372 48.1959V55.552C128.374 55.6416 128.359 55.7308 128.326 55.8143C128.294 55.8979 128.245 55.9742 128.183 56.0388C128.121 56.1034 128.047 56.155 127.965 56.1907C127.882 56.2263 127.794 56.2453 127.704 56.2464Z" fill="#B3B5B5"/>
<path d="M129.747 56.2464C129.567 56.2452 129.395 56.173 129.268 56.0454C129.141 55.9178 129.07 55.7453 129.07 55.5655V48.1959C129.096 48.0365 129.178 47.8915 129.301 47.787C129.425 47.6824 129.581 47.625 129.742 47.625C129.904 47.625 130.06 47.6824 130.183 47.787C130.306 47.8915 130.388 48.0365 130.414 48.1959V55.552C130.416 55.6414 130.4 55.7304 130.368 55.8137C130.335 55.897 130.286 55.973 130.224 56.0375C130.162 56.102 130.088 56.1536 130.006 56.1895C129.924 56.2253 129.836 56.2447 129.747 56.2464Z" fill="#B3B5B5"/>
<path d="M130.369 40.526C130.369 40.853 130.272 41.1726 130.09 41.4445C129.908 41.7163 129.65 41.9282 129.348 42.0533C129.046 42.1785 128.714 42.2112 128.393 42.1474C128.072 42.0836 127.778 41.9262 127.547 41.695C127.316 41.4638 127.158 41.1692 127.094 40.8486C127.03 40.5279 127.063 40.1955 127.188 39.8934C127.313 39.5914 127.525 39.3332 127.797 39.1515C128.069 38.9699 128.389 38.8729 128.716 38.8729C129.154 38.8729 129.575 39.0471 129.885 39.3571C130.195 39.6671 130.369 40.0876 130.369 40.526Z" fill="#B3B5B5"/>
<path d="M125.773 50.6956L127.073 45.7139H130.379L131.647 50.6956H125.773Z" fill="#B3B5B5"/>
<path d="M98.899 68.6021C98.899 69.2697 98.4062 69.8565 97.3265 69.8565C96.8122 69.8636 96.3073 69.7187 95.875 69.4399L96.2244 68.7724C96.538 68.9964 96.9143 69.1155 97.2996 69.1129C97.7476 69.1129 98.003 68.9292 98.003 68.6201C98.003 68.3109 97.8104 68.1273 97.107 68.1273H96.1393L96.3364 65.9993H98.6392V66.7026H97.0622L97.004 67.4194H97.3131C98.4555 67.4284 98.899 67.9301 98.899 68.6021Z" fill="#B3B5B5"/>
<path d="M99.2578 67.8988C99.2578 66.6534 99.9477 65.9456 100.875 65.9456C101.802 65.9456 102.497 66.6534 102.497 67.8988C102.497 69.1443 101.811 69.8566 100.875 69.8566C99.9388 69.8566 99.2578 69.1488 99.2578 67.8988ZM101.614 67.8988C101.614 67.0432 101.314 66.6848 100.875 66.6848C100.436 66.6848 100.14 67.0432 100.14 67.8988C100.14 68.7545 100.445 69.1129 100.875 69.1129C101.305 69.1129 101.614 68.759 101.614 67.8988Z" fill="#B3B5B5"/>
<path d="M102.858 67.0073C102.878 66.8268 102.949 66.6559 103.064 66.5152C103.179 66.3746 103.332 66.2702 103.505 66.2146C103.678 66.1591 103.864 66.1548 104.039 66.2023C104.214 66.2498 104.372 66.347 104.493 66.4822C104.615 66.6174 104.694 66.7848 104.722 66.9642C104.75 67.1437 104.726 67.3274 104.652 67.4933C104.578 67.6592 104.458 67.8002 104.306 67.8992C104.153 67.9982 103.976 68.051 103.794 68.0512C103.662 68.0521 103.53 68.0248 103.409 67.9712C103.288 67.9175 103.179 67.8388 103.091 67.7401C103.002 67.6414 102.936 67.5251 102.896 67.3988C102.855 67.2724 102.843 67.139 102.858 67.0073ZM104.202 67.0073C104.202 66.6041 104.045 66.4115 103.808 66.4115C103.57 66.4115 103.413 66.6086 103.413 67.0073C103.413 67.4061 103.579 67.6077 103.808 67.6077C104.036 67.6077 104.188 67.415 104.188 67.0073H104.202ZM106.061 66.0083H106.706L104.121 69.7894H103.489L106.061 66.0083ZM105.438 68.7904C105.457 68.6085 105.529 68.436 105.644 68.2939C105.759 68.1517 105.913 68.0461 106.087 67.9897C106.261 67.9333 106.448 67.9286 106.624 67.9762C106.801 68.0238 106.96 68.1216 107.082 68.2578C107.204 68.3939 107.284 68.5626 107.312 68.7433C107.341 68.9241 107.316 69.1091 107.241 69.276C107.166 69.4429 107.044 69.5844 106.89 69.6835C106.737 69.7826 106.557 69.835 106.375 69.8342C106.241 69.8363 106.109 69.8099 105.986 69.7569C105.864 69.7039 105.754 69.6254 105.664 69.5267C105.574 69.428 105.506 69.3112 105.465 69.1843C105.424 69.0573 105.41 68.9231 105.425 68.7904H105.438ZM106.782 68.7904C106.782 68.3917 106.625 68.1901 106.388 68.1901C106.151 68.1901 105.994 68.3872 105.994 68.7904C105.994 69.1936 106.155 69.3907 106.388 69.3907C106.621 69.3907 106.755 69.1891 106.755 68.7904H106.782Z" fill="#B3B5B5"/>
<path d="M102.616 57.8412C102.47 57.8412 102.33 57.7831 102.226 57.6798C102.123 57.5765 102.065 57.4363 102.065 57.2902V52.2367H97.9928V57.2902C97.9928 57.4363 97.9347 57.5765 97.8314 57.6798C97.728 57.7831 97.5879 57.8412 97.4417 57.8412C97.2956 57.8412 97.1554 57.7831 97.0521 57.6798C96.9487 57.5765 96.8907 57.4363 96.8907 57.2902V52.0978C96.8895 51.9725 96.913 51.8482 96.9599 51.732C97.0067 51.6158 97.076 51.5099 97.1638 51.4205C97.2516 51.331 97.3561 51.2597 97.4714 51.2107C97.5868 51.1617 97.7106 51.1358 97.8359 51.1346H102.222C102.475 51.1382 102.716 51.2414 102.893 51.4217C103.07 51.6021 103.168 51.8451 103.167 52.0978V57.2902C103.167 57.3625 103.153 57.4342 103.125 57.501C103.098 57.5679 103.057 57.6286 103.006 57.6798C102.955 57.731 102.894 57.7716 102.827 57.7993C102.76 57.827 102.688 57.8412 102.616 57.8412Z" fill="#B3B5B5"/>
<path d="M101.701 51.1974H98.3594V57.2902H101.701V51.1974Z" fill="#B3B5B5"/>
<path d="M99.038 63.3337C98.8754 63.3461 98.7145 63.2938 98.5903 63.188C98.4661 63.0823 98.3887 62.9318 98.375 62.7692V56.5734C98.3977 56.4144 98.4771 56.2688 98.5985 56.1636C98.7199 56.0583 98.8751 56.0004 99.0358 56.0004C99.1965 56.0004 99.3517 56.0583 99.4731 56.1636C99.5945 56.2688 99.6739 56.4144 99.6966 56.5734V62.7692C99.6829 62.9309 99.6061 63.0807 99.4829 63.1864C99.3597 63.292 99.1999 63.3449 99.038 63.3337Z" fill="#B3B5B5"/>
<path d="M101.034 63.3337C100.872 63.3449 100.712 63.292 100.589 63.1864C100.465 63.0807 100.389 62.9309 100.375 62.7692V56.5734C100.398 56.4144 100.477 56.2688 100.598 56.1636C100.72 56.0583 100.875 56.0004 101.036 56.0004C101.196 56.0004 101.352 56.0583 101.473 56.1636C101.595 56.2688 101.674 56.4144 101.697 56.5734V62.7692C101.683 62.9318 101.606 63.0823 101.481 63.188C101.357 63.2938 101.196 63.3461 101.034 63.3337Z" fill="#B3B5B5"/>
<path d="M101.647 49.1725C101.647 49.4915 101.553 49.8033 101.376 50.0685C101.198 50.3337 100.947 50.5405 100.652 50.6625C100.357 50.7846 100.033 50.8165 99.72 50.7543C99.4072 50.6921 99.1198 50.5385 98.8943 50.3129C98.6687 50.0874 98.5151 49.8 98.4529 49.4871C98.3906 49.1743 98.4226 48.85 98.5446 48.5553C98.6667 48.2606 98.8734 48.0087 99.1387 47.8315C99.4039 47.6543 99.7157 47.5597 100.035 47.5597C100.462 47.5597 100.873 47.7296 101.175 48.0321C101.478 48.3345 101.647 48.7448 101.647 49.1725Z" fill="#B3B5B5"/>
<path d="M207.042 99.8771C207.042 100.482 206.862 101.074 206.526 101.577C206.19 102.08 205.712 102.472 205.153 102.704C204.594 102.936 203.978 102.996 203.385 102.878C202.791 102.76 202.246 102.469 201.818 102.041C201.39 101.613 201.099 101.068 200.981 100.474C200.863 99.8805 200.923 99.2653 201.155 98.7062C201.386 98.147 201.779 97.6692 202.282 97.3329C202.785 96.9967 203.377 96.8173 203.982 96.8173C204.793 96.8173 205.572 97.1396 206.145 97.7135C206.719 98.2873 207.042 99.0656 207.042 99.8771Z" fill="#B3B5B5"/>
<path d="M203.982 105.549C202.882 105.549 201.807 105.223 200.892 104.612C199.978 104 199.265 103.132 198.845 102.116C198.424 101.1 198.314 99.9814 198.529 98.9028C198.744 97.8242 199.274 96.8336 200.052 96.0563C200.83 95.2789 201.821 94.7497 202.9 94.5357C203.978 94.3217 205.096 94.4324 206.112 94.8539C207.128 95.2754 207.996 95.9887 208.606 96.9036C209.217 97.8185 209.542 98.8938 209.541 99.9936C209.539 101.467 208.952 102.879 207.91 103.921C206.868 104.962 205.455 105.548 203.982 105.549ZM203.982 94.8819C202.971 94.8819 201.982 95.1817 201.142 95.7434C200.301 96.3051 199.646 97.1034 199.259 98.0375C198.872 98.9715 198.771 99.9993 198.968 100.991C199.165 101.982 199.652 102.893 200.367 103.608C201.082 104.323 201.993 104.81 202.984 105.007C203.976 105.204 205.004 105.103 205.938 104.716C206.872 104.329 207.67 103.674 208.232 102.834C208.793 101.993 209.093 101.005 209.093 99.9936C209.092 98.6383 208.553 97.3388 207.595 96.3804C206.636 95.422 205.337 94.8831 203.982 94.8819Z" fill="#B3B5B5"/>
<path d="M134.095 181.283C134.095 181.283 133.812 196.887 133.812 202.675H183.039V186.216L181.48 181.888L180.92 178.376L134.095 181.283Z" fill="#B3B5B5"/>
<path d="M147.079 202.048C146.91 200.674 146.819 199.292 146.805 197.908C146.716 196.526 146.703 195.14 146.765 193.755C146.933 195.131 147.024 196.514 147.038 197.899C147.127 199.281 147.141 200.665 147.079 202.048Z" fill="#B3B5B5"/>
<path d="M148.762 186.744C148.762 186.744 148.851 186.677 149.049 186.65C149.33 186.616 149.615 186.664 149.868 186.789C150.066 186.879 150.237 187.017 150.368 187.189C150.498 187.362 150.584 187.565 150.617 187.779C150.654 188.042 150.612 188.31 150.497 188.549C150.383 188.788 150.2 188.988 149.971 189.123C149.727 189.242 149.45 189.278 149.183 189.225C148.917 189.173 148.674 189.035 148.493 188.832C148.331 188.654 148.242 188.423 148.242 188.182C148.242 187.978 148.303 187.778 148.417 187.609C148.492 187.486 148.592 187.38 148.71 187.298C148.827 187.215 148.961 187.158 149.102 187.13C149.304 187.103 149.411 187.152 149.407 187.161C149.402 187.17 149.295 187.161 149.125 187.219C148.883 187.301 148.68 187.47 148.556 187.694C148.461 187.848 148.419 188.028 148.437 188.208C148.455 188.388 148.531 188.556 148.654 188.689C148.805 188.849 149.003 188.957 149.22 188.999C149.436 189.04 149.66 189.011 149.859 188.917C150.033 188.811 150.176 188.66 150.272 188.481C150.369 188.302 150.416 188.1 150.409 187.896C150.403 187.693 150.342 187.494 150.233 187.322C150.125 187.15 149.973 187.009 149.792 186.915C149.471 186.764 149.114 186.706 148.762 186.744Z" fill="#B3B5B5"/>
<path d="M175.865 187.802C175.527 187.657 175.208 187.472 174.915 187.251C174.351 186.879 173.571 186.332 172.783 185.687C171.995 185.042 171.282 184.41 170.798 183.94C170.518 183.703 170.268 183.432 170.055 183.133C170.361 183.334 170.648 183.563 170.91 183.819C171.421 184.267 172.129 184.863 172.926 185.503C173.724 186.144 174.472 186.708 175.01 187.116C175.315 187.318 175.602 187.547 175.865 187.802Z" fill="#B3B5B5"/>
<path d="M180.915 192.927C180.849 192.977 180.777 193.017 180.7 193.048L180.055 193.357L179.607 193.576C179.437 193.652 179.239 193.72 179.033 193.796C178.621 193.944 178.137 194.141 177.618 194.28L176.775 194.517C176.484 194.598 176.171 194.647 175.853 194.719C175.216 194.871 174.509 194.947 173.792 195.046C170.598 195.377 167.371 195.015 164.33 193.984C163.671 193.76 163.023 193.503 162.39 193.213C162.094 193.079 161.799 192.958 161.53 192.819L160.764 192.403C160.324 192.165 159.898 191.903 159.487 191.619C159.303 191.498 159.129 191.39 158.972 191.283C158.815 191.175 158.69 191.063 158.564 190.964L158.004 190.516C157.879 190.413 157.816 190.36 157.821 190.351C157.895 190.387 157.965 190.431 158.031 190.481L158.618 190.888L159.035 191.184C159.191 191.287 159.371 191.39 159.559 191.507C159.935 191.731 160.347 192.013 160.845 192.25L161.611 192.653C161.879 192.788 162.171 192.9 162.466 193.034C163.053 193.312 163.712 193.527 164.397 193.773C167.407 194.768 170.592 195.121 173.747 194.808C174.473 194.719 175.163 194.652 175.794 194.508C176.112 194.441 176.422 194.396 176.713 194.32L177.55 194.096C178.088 193.971 178.55 193.787 178.966 193.648C179.172 193.576 179.369 193.514 179.544 193.446L180.019 193.249L180.678 192.98C180.754 192.953 180.834 192.935 180.915 192.927Z" fill="#B3B5B5"/>
<path d="M142.973 76.3571C142.202 76.3978 141.444 76.1528 140.842 75.6689C140.241 75.1851 139.839 74.4964 139.714 73.7348C139.588 72.9732 139.748 72.192 140.163 71.541C140.577 70.8899 141.218 70.4146 141.961 70.2061C141.507 69.6929 141.226 69.0497 141.159 68.3679C141.091 67.686 141.241 67.0003 141.586 66.4083C141.931 65.8163 142.453 65.3481 143.08 65.0704C143.706 64.7927 144.404 64.7195 145.074 64.8614C145.137 64.1897 145.372 63.5456 145.757 62.9919C146.143 62.4382 146.665 61.994 147.273 61.7024C147.882 61.4109 148.555 61.282 149.228 61.3285C149.901 61.3749 150.551 61.595 151.113 61.9673C151.902 61.3879 152.863 61.0895 153.841 61.1195C154.82 61.1495 155.76 61.5064 156.512 62.1331C157.17 62.0568 157.835 62.1909 158.412 62.5162C158.99 62.8414 159.449 63.3411 159.725 63.9436C160 64.5461 160.078 65.2204 159.947 65.8698C159.815 66.5192 159.482 67.1103 158.994 67.5584" fill="#263238"/>
<path d="M142.502 76.7692C142.936 73.4543 144.603 70.4247 147.171 68.2842C149.739 66.1437 153.02 65.0495 156.358 65.2198L157.048 65.2556C164.44 66.0531 167.89 72.782 166.882 80.1471L164.584 104.787L164.458 105.983L147.183 108.564L147.519 102.292C147.519 102.292 140.427 100.8 140.678 93.6723C140.822 90.2271 141.664 83.1577 142.502 76.7692Z" fill="#937263"/>
<path d="M147.441 102.252C150.75 102.419 154.037 101.632 156.912 99.9846C156.912 99.9846 154.461 105.002 147.383 104.017L147.441 102.252Z" fill="#5E483F"/>
<path d="M143.681 82.3692C143.666 82.6337 143.755 82.8937 143.928 83.0943C144.101 83.2949 144.345 83.4205 144.609 83.4444C144.738 83.4613 144.869 83.4522 144.994 83.4176C145.12 83.3831 145.237 83.3238 145.34 83.2432C145.442 83.1627 145.527 83.0625 145.59 82.9485C145.653 82.8346 145.692 82.7092 145.706 82.5798C145.721 82.3141 145.633 82.053 145.459 81.8516C145.285 81.6501 145.039 81.5241 144.774 81.5001C144.645 81.4845 144.515 81.4947 144.39 81.5301C144.265 81.5655 144.148 81.6253 144.046 81.7062C143.945 81.787 143.86 81.8873 143.797 82.0011C143.735 82.1149 143.695 82.2401 143.681 82.3692Z" fill="#263238"/>
<path d="M143.853 80.3353C143.974 80.4742 144.749 79.9411 145.869 79.9993C146.989 80.0576 147.737 80.64 147.863 80.5145C147.925 80.4563 147.809 80.2099 147.468 79.9411C147.013 79.5883 146.458 79.3863 145.883 79.3632C145.311 79.337 144.746 79.494 144.27 79.8112C143.92 80.0352 143.808 80.2726 143.853 80.3353Z" fill="#263238"/>
<path d="M154.018 83.3549C154 83.6199 154.088 83.8812 154.261 84.0823C154.435 84.2834 154.68 84.4083 154.945 84.4301C155.074 84.4463 155.205 84.4368 155.33 84.402C155.456 84.3672 155.573 84.3078 155.675 84.2274C155.777 84.1469 155.862 84.047 155.925 83.9333C155.988 83.8197 156.028 83.6947 156.043 83.5655C156.059 83.3 155.97 83.0388 155.796 82.8378C155.622 82.6368 155.376 82.512 155.111 82.4903C154.982 82.4734 154.851 82.4826 154.726 82.5172C154.601 82.5518 154.484 82.6111 154.382 82.6917C154.28 82.7724 154.195 82.8726 154.133 82.9865C154.07 83.1004 154.031 83.2256 154.018 83.3549Z" fill="#263238"/>
<path d="M154.611 81.0879C154.732 81.2268 155.534 80.6982 156.627 80.7564C157.72 80.8146 158.495 81.397 158.62 81.2716C158.683 81.2134 158.567 80.967 158.231 80.6982C157.773 80.3453 157.217 80.1434 156.64 80.1202C156.069 80.096 155.504 80.2528 155.027 80.5682C154.682 80.7743 154.566 81.0118 154.611 81.0879Z" fill="#263238"/>
<path d="M150.23 88.9952C150.23 88.9324 149.563 88.7801 148.469 88.5875C148.192 88.5427 147.927 88.4755 147.892 88.2828C147.881 87.9925 147.961 87.706 148.12 87.463C148.416 86.8 148.725 86.119 149.052 85.3753C150.351 82.4006 151.292 79.95 151.184 79.8963C151.077 79.8425 149.916 82.2169 148.617 85.1872L147.721 87.2928C147.528 87.6206 147.458 88.0066 147.524 88.3814C147.557 88.487 147.614 88.583 147.692 88.6611C147.771 88.7392 147.867 88.797 147.972 88.8294C148.124 88.8819 148.282 88.9121 148.443 88.919C149.536 89.0176 150.226 89.0579 150.23 88.9952Z" fill="#263238"/>
<path d="M153.415 89.9136C153.24 89.9136 153.177 91.0829 152.115 91.8759C151.054 92.6688 149.799 92.4762 149.781 92.6419C149.781 92.7136 150.055 92.8839 150.588 92.9242C151.283 92.9698 151.971 92.7683 152.532 92.3552C153.07 91.9575 153.433 91.3665 153.544 90.7066C153.616 90.2093 153.495 89.9091 153.415 89.9136Z" fill="#263238"/>
<path d="M154.564 76.7692C154.658 77.0694 155.756 76.9843 157.033 77.2172C158.309 77.4502 159.331 77.8355 159.515 77.5756C159.6 77.4547 159.434 77.1635 159.026 76.8543C158.485 76.4725 157.864 76.2195 157.21 76.1147C156.556 76.0099 155.887 76.056 155.254 76.2495C154.752 76.4019 154.501 76.6079 154.564 76.7692Z" fill="#263238"/>
<path d="M144.413 77.1859C144.592 77.4413 145.363 77.2218 146.268 77.2532C147.173 77.2845 147.934 77.504 148.127 77.2532C148.208 77.1322 148.1 76.8768 147.778 76.6259C147.341 76.3207 146.823 76.1521 146.29 76.1417C145.757 76.1314 145.233 76.2796 144.785 76.5677C144.453 76.8096 144.337 77.056 144.413 77.1859Z" fill="#263238"/>
<path d="M143.36 73.5391C143.36 73.5391 145.461 69.1666 147.665 68.2348C150.33 67.1014 151.312 70.0268 153.829 69.4489C156.347 68.871 158.892 67.7913 161.333 69.8342C164.021 72.0742 162.632 73.4809 162.646 76.6527C162.704 89.5058 164.864 93.2287 165.831 87.2434C165.939 86.5849 167.798 86.1503 168.21 83.3682C168.743 79.7618 169.106 75.367 168.421 72.7551C167.847 70.5554 166.682 68.9964 164.55 67.2358C161.181 64.4537 156.378 64.158 153.099 64.3282C149.82 64.4985 143.324 67.9346 143.36 73.5391Z" fill="#263238"/>
<path d="M165.373 87.0239C165.395 86.7626 165.469 86.5084 165.592 86.2767C165.714 86.045 165.883 85.8406 166.087 85.6759C166.291 85.5113 166.526 85.3898 166.779 85.3189C167.031 85.248 167.295 85.229 167.555 85.2633C168.877 85.4559 170.319 86.2847 170.095 89.0265C169.697 93.8918 164.894 92.4895 164.898 92.3507C164.903 92.2118 165.19 89.0579 165.373 87.0239Z" fill="#937263"/>
<path d="M166.107 90.6035C166.13 90.6035 166.188 90.6707 166.327 90.7469C166.521 90.8495 166.747 90.8736 166.958 90.8141C167.487 90.6663 167.989 89.8867 168.083 89.0221C168.131 88.6062 168.083 88.185 167.944 87.7901C167.912 87.6343 167.842 87.4887 167.74 87.3662C167.639 87.2436 167.509 87.1477 167.362 87.0867C167.266 87.0559 167.163 87.0581 167.068 87.0931C166.974 87.128 166.894 87.1936 166.842 87.2794C166.766 87.4093 166.788 87.5079 166.761 87.5123C166.734 87.5168 166.663 87.4227 166.721 87.2256C166.757 87.1077 166.833 87.0062 166.936 86.9389C167.078 86.8481 167.251 86.8175 167.415 86.8538C167.612 86.9091 167.791 87.0139 167.935 87.1583C168.08 87.3026 168.184 87.4816 168.24 87.6781C168.413 88.1161 168.475 88.5902 168.419 89.0579C168.311 90.0346 167.734 90.9127 167.012 91.056C166.879 91.0839 166.741 91.081 166.609 91.0476C166.477 91.0142 166.355 90.9512 166.251 90.8634C166.107 90.7245 166.089 90.6125 166.107 90.6035Z" fill="#5E483F"/>
<path d="M165.761 77.5846C165.139 78.0381 164.414 78.3291 163.651 78.4313C162.885 78.4716 162.034 77.9833 161.944 77.2262C161.904 76.8857 162.007 76.496 161.796 76.2227C161.586 75.9494 161.048 75.9718 160.641 75.9942C159.923 76.0146 159.22 75.7882 158.649 75.3528C158.079 74.9174 157.675 74.2993 157.505 73.6019C157.115 74.126 156.277 74.0499 155.744 73.6825C155.258 73.248 154.836 72.7473 154.49 72.1952C154.086 71.6844 153.509 71.2185 152.859 71.2768C152.51 71.3791 152.151 71.4408 151.788 71.4604C151.152 71.3708 150.892 70.6048 150.812 69.9641C150.731 69.3235 150.709 68.5798 150.184 68.208C149.66 67.8361 149.037 68.0153 148.442 68.0736C147.846 68.1318 147.098 67.9571 146.977 67.3702C146.958 67.2153 146.972 67.0582 147.017 66.9087C147.061 66.7593 147.136 66.6205 147.236 66.5011C147.662 65.9314 148.267 65.5217 148.954 65.338C149.64 65.1543 150.369 65.2073 151.022 65.4886C151.301 64.6894 151.811 63.9909 152.486 63.4815C153.162 62.972 153.974 62.6745 154.819 62.6265C155.664 62.5785 156.505 62.7823 157.234 63.212C157.963 63.6418 158.548 64.2781 158.916 65.0406C159.458 64.6012 160.097 64.2985 160.78 64.1581C161.464 64.0177 162.171 64.0437 162.842 64.2339C163.513 64.4241 164.129 64.7729 164.637 65.2509C165.145 65.7289 165.531 66.3221 165.761 66.9804C166.367 66.8468 166.998 66.8957 167.576 67.121C168.154 67.3463 168.652 67.7378 169.007 68.246C169.363 68.7543 169.559 69.3565 169.572 69.9765C169.585 70.5965 169.414 71.2064 169.081 71.7292C169.932 72.2758 170.64 73.1808 170.609 74.1932C170.577 75.2057 169.542 76.1555 168.584 75.8419C168.754 76.2479 168.765 76.7034 168.615 77.1171C168.464 77.5309 168.162 77.8725 167.771 78.0736C167.379 78.2746 166.925 78.3202 166.501 78.2013C166.077 78.0824 165.714 77.8077 165.484 77.4323" fill="#263238"/>
<path d="M150.59 66.9043C150.585 66.934 150.585 66.9642 150.59 66.9939C150.59 67.0521 150.59 67.1417 150.59 67.2582C150.64 67.591 150.744 67.9133 150.899 68.2125C151.142 68.6872 151.492 69.0996 151.92 69.4176C152.485 69.8485 153.176 70.0829 153.887 70.0851L153.811 69.9731C153.646 70.4082 153.658 70.8901 153.842 71.3171C154.039 71.7649 154.3 72.1815 154.617 72.5536C154.767 72.7673 154.94 72.964 155.132 73.1405C155.359 73.3129 155.626 73.4267 155.907 73.472C156.192 73.5266 156.487 73.511 156.764 73.4268C157.042 73.3425 157.295 73.1919 157.502 72.9881L157.323 72.9254C157.365 73.4348 157.514 73.9297 157.759 74.3781C158.004 74.8265 158.341 75.2183 158.748 75.5283C159.195 75.8941 159.748 76.1062 160.325 76.1331C160.866 76.1342 161.404 76.0433 161.915 75.8643L161.79 75.8016C162.014 76.4042 162.385 76.9415 162.869 77.3651C163.09 77.5746 163.354 77.7323 163.643 77.8269C163.932 77.9214 164.239 77.9504 164.54 77.9117C165.058 77.8269 165.539 77.5926 165.925 77.2376C166.312 76.8825 166.585 76.4223 166.713 75.9136L166.601 75.9584C167.098 76.2575 167.685 76.3732 168.259 76.2854C168.688 76.2344 169.098 76.0807 169.455 75.8374C169.678 75.6836 169.873 75.4909 170.028 75.2685C170.084 75.1928 170.129 75.1099 170.163 75.0221C169.961 75.3162 169.705 75.57 169.41 75.7702C169.059 75.9962 168.66 76.1373 168.245 76.1824C167.7 76.2523 167.146 76.1337 166.677 75.8464L166.592 75.7881L166.565 75.8912C166.439 76.3652 166.178 76.7925 165.814 77.1209C165.45 77.4494 164.998 77.665 164.513 77.7414C164.238 77.774 163.958 77.7447 163.696 77.6555C163.433 77.5664 163.193 77.4197 162.995 77.2262C162.54 76.8247 162.192 76.3167 161.982 75.7478L161.951 75.6537L161.857 75.6806C161.367 75.8505 160.852 75.9368 160.334 75.936C159.8 75.9132 159.289 75.7165 158.878 75.376C158.495 75.0828 158.178 74.713 157.946 74.2903C157.715 73.8675 157.574 73.4011 157.534 72.9209L157.511 72.688L157.35 72.8582C157.075 73.1224 156.717 73.2818 156.337 73.3089C155.957 73.3359 155.58 73.2287 155.271 73.0061C155.09 72.8394 154.926 72.6548 154.783 72.455C154.475 72.0976 154.22 71.6978 154.026 71.2678C153.937 71.0773 153.887 70.8709 153.879 70.6608C153.872 70.4508 153.906 70.2413 153.981 70.0448L154.026 69.9328H153.9C153.222 69.9389 152.56 69.7252 152.014 69.3235C151.594 69.0231 151.247 68.6328 150.997 68.1811C150.787 67.783 150.649 67.3507 150.59 66.9043Z" fill="#B3B5B5"/>
<path d="M174.308 140.255L180.777 146.496L178.685 134.575L191.811 130.426C191.811 130.426 195.296 146.783 195.906 150.653C196.99 157.597 195.655 167.467 189.186 168.161C182.188 168.909 176.902 162.006 173.537 157.477C170.952 153.996 166.781 147.907 166.781 147.907L174.308 140.264" fill="#E0E0E0"/>
<path d="M124.305 129.656C122.199 136.286 119.256 137.272 118.091 156.289C117.863 159.994 120.645 164.743 123.956 166.419C127.266 168.094 133.041 166.038 134.914 162.835L136.773 148.781L124.305 129.656Z" fill="#E0E0E0"/>
<path d="M133.004 157.405C132.624 156.452 132.194 155.52 131.714 154.614C131.162 153.746 130.564 152.909 129.922 152.105C130.178 152.273 130.406 152.48 130.598 152.719C131.599 153.809 132.351 155.104 132.803 156.513C132.917 156.798 132.985 157.099 133.004 157.405Z" fill="#263238"/>
<path d="M121.133 137.299C121.245 136.909 127.723 119.276 129.788 115.414C132.261 110.795 137.458 108.756 140.684 108.555C143.909 108.353 178.441 111.104 178.441 111.104C178.441 111.104 188.113 113.532 190.067 122.304C192.522 133.276 194.497 144.099 194.497 144.099L177.191 147.84L175.171 142.692L142.65 149.95L134.712 138.204L121.133 137.299Z" fill="#E0E0E0"/>
<path d="M180.921 178.353L180.097 148.96L180.738 112.112L167.235 106.176L165.721 100.352L149.978 107.793L146.681 104.151L145.301 108.255L141.851 109.384L135.064 122.752L134.768 146.227C134.768 146.227 133.124 173.896 134.096 181.265C134.096 181.265 136.641 185.485 144.463 185.674C160.322 186.054 180.921 178.335 180.921 178.335" fill="#E0E0E0"/>
<path d="M167.221 138.136C167.221 138.199 166.424 138.136 165.151 138.047L160.192 137.63L155.228 137.263C153.956 137.164 153.172 137.088 153.172 137.025C153.857 136.922 154.551 136.895 155.242 136.945C156.518 136.945 158.284 137.03 160.228 137.186C162.172 137.343 163.924 137.545 165.187 137.729C166.451 137.912 167.226 138.074 167.221 138.136Z" fill="white"/>
<path d="M167.002 140.551C167.002 140.614 166.205 140.551 164.933 140.461L159.973 140.049L155.009 139.677C153.737 139.579 152.953 139.507 152.953 139.44C153.638 139.337 154.332 139.309 155.023 139.359C156.3 139.359 158.065 139.449 160.009 139.601C161.953 139.754 163.705 139.96 164.968 140.143C165.66 140.203 166.342 140.34 167.002 140.551Z" fill="white"/>
<path d="M166.784 142.966C166.784 143.028 165.986 142.966 164.714 142.876L159.755 142.464L154.791 142.092C153.518 141.998 152.734 141.922 152.734 141.859C152.734 141.796 153.527 141.761 154.804 141.774C156.081 141.787 157.846 141.864 159.79 142.016C161.735 142.168 163.486 142.374 164.75 142.563C165.441 142.619 166.123 142.754 166.784 142.966Z" fill="white"/>
<path d="M166.566 145.38C166.566 145.443 165.769 145.38 164.496 145.291L159.537 144.879L154.564 144.507C153.292 144.413 152.508 144.337 152.508 144.274C152.508 144.211 153.301 144.175 154.578 144.193C155.854 144.211 157.619 144.278 159.564 144.431C161.508 144.583 163.26 144.789 164.523 144.977C165.217 145.033 165.903 145.168 166.566 145.38Z" fill="white"/>
<path d="M144.454 186.444C144.436 186.383 144.427 186.32 144.427 186.256C144.427 186.104 144.4 185.92 144.382 185.696C144.356 185.163 144.315 184.446 144.261 183.537C144.176 181.624 144.06 178.922 143.912 175.602C143.661 168.882 143.343 159.631 143.464 149.386C143.527 144.26 143.697 139.373 144.19 134.946C144.683 130.52 145.458 126.6 146.143 123.298C146.828 119.997 147.487 117.38 147.935 115.557C148.155 114.661 148.334 113.98 148.459 113.465C148.522 113.245 148.567 113.071 148.607 112.923C148.619 112.858 148.642 112.796 148.674 112.739C148.68 112.803 148.68 112.868 148.674 112.932C148.643 113.084 148.607 113.263 148.567 113.483C148.455 114.002 148.302 114.706 148.119 115.597C147.724 117.43 147.133 120.077 146.475 123.361C145.816 126.645 145.099 130.579 144.615 134.978C144.132 139.377 143.988 144.26 143.925 149.372C143.818 159.604 144.091 168.869 144.266 175.576C144.356 178.9 144.432 181.601 144.481 183.514C144.503 184.41 144.517 185.145 144.526 185.678V186.238C144.516 186.311 144.492 186.381 144.454 186.444Z" fill="#263238"/>
<path d="M154.595 128.8C154.894 128.789 155.194 128.798 155.491 128.827L158.152 128.988L167.861 129.651H168.044V129.835C167.708 134.283 167.31 139.606 166.875 145.358V145.461L166.794 145.519C166.346 145.851 165.849 146.182 165.343 146.509C164.463 147.086 163.552 147.614 162.614 148.091C161.699 148.599 160.693 148.923 159.653 149.045C158.633 149.075 157.622 148.84 156.719 148.364C155.871 147.925 155.075 147.393 154.344 146.778C153.99 146.483 153.646 146.182 153.318 145.882C153.135 145.727 152.983 145.539 152.87 145.327C152.758 145.12 152.67 144.9 152.611 144.673C152.423 143.833 152.344 142.974 152.373 142.115C152.417 140.596 152.553 139.082 152.781 137.581C153.184 134.83 153.677 132.653 154.004 131.125C154.174 130.368 154.322 129.781 154.425 129.391C154.469 129.187 154.532 128.988 154.613 128.795C154.597 129.002 154.564 129.208 154.515 129.409C154.43 129.857 154.313 130.435 154.174 131.161C153.883 132.68 153.457 134.884 153.099 137.626C152.892 139.11 152.773 140.606 152.745 142.106C152.723 142.93 152.806 143.753 152.991 144.556C153.081 144.953 153.296 145.309 153.605 145.573C153.928 145.873 154.268 146.164 154.622 146.469C155.329 147.061 156.1 147.572 156.92 147.992C157.757 148.433 158.694 148.649 159.64 148.619C160.618 148.503 161.564 148.198 162.426 147.723C163.351 147.255 164.248 146.734 165.114 146.164C165.612 145.842 166.104 145.51 166.548 145.188L166.454 145.354C166.902 139.606 167.35 134.283 167.704 129.839L167.874 130.036L158.287 129.194L155.599 128.939L154.882 128.858C154.784 128.851 154.688 128.832 154.595 128.8Z" fill="#263238"/>
<path d="M165.726 100.352C165.726 100.352 163.965 100.863 159.454 103.273C155.028 105.634 149.992 107.793 149.992 107.793L150.377 114.903L167.11 106.494" fill="#E0E0E0"/>
<path d="M146.683 104.151L149.981 107.793L148.22 115.414L145.281 108.528" fill="#E0E0E0"/>
<path d="M167.762 133.858C167.762 133.983 164.604 133.835 160.729 133.535C156.854 133.235 153.718 132.886 153.727 132.765C153.736 132.644 156.885 132.765 160.76 133.087C164.635 133.41 167.771 133.737 167.762 133.858Z" fill="#263238"/>
<g opacity="0.3">
<path d="M153.055 145.291C153.812 146.541 154.52 148.252 155.555 149.283C156.561 150.36 157.923 151.039 159.389 151.196C160.685 151.219 161.956 150.84 163.027 150.111C164.788 149.009 165.872 147.276 166.656 145.354C166.768 145.21 164.138 146.966 162.709 147.728C161.497 148.451 160.08 148.755 158.677 148.593C156.563 148.422 154.667 146.68 153.064 145.291" fill="black"/>
</g>
<g opacity="0.3">
<path d="M149.921 108.582C149.773 108.689 148.859 117.376 148.859 117.376L165.65 107.229L150.365 114.903L149.921 108.582Z" fill="black"/>
</g>
<path d="M147.052 117.053C144.264 129.116 142.386 141.37 141.434 153.713C140.789 162.279 140.305 173.631 140.305 173.631L144.126 178.362L149.981 173.179C149.981 173.179 149.731 149.068 150.035 140.995C150.286 134.351 149.238 117.403 149.238 117.403L147.052 117.053Z" fill="#B3B5B5"/>
<path d="M176.734 127.774C176.805 127.998 176.857 128.227 176.891 128.459C176.976 128.948 177.093 129.584 177.232 130.346C177.514 131.981 177.886 134.163 178.302 136.573C178.719 138.983 179.086 141.214 179.324 142.813C179.445 143.611 179.534 144.26 179.593 144.708C179.634 144.941 179.656 145.176 179.66 145.412C179.586 145.187 179.534 144.956 179.503 144.722C179.413 144.238 179.301 143.602 179.163 142.84C178.876 141.205 178.495 139.023 178.069 136.613C177.644 134.203 177.308 131.972 177.07 130.372C176.958 129.602 176.869 128.966 176.802 128.477C176.758 128.246 176.735 128.01 176.734 127.774Z" fill="#263238"/>
<path d="M181.726 113.142C181.753 113.174 181.278 113.55 180.593 114.249C178.808 116.082 177.568 118.374 177.009 120.87C176.803 121.825 176.753 122.429 176.713 122.429C176.689 122.281 176.689 122.13 176.713 121.981C176.733 121.592 176.78 121.204 176.852 120.821C177.086 119.55 177.517 118.322 178.129 117.183C178.739 116.044 179.525 115.008 180.458 114.114C180.739 113.842 181.039 113.589 181.354 113.357C181.467 113.268 181.593 113.196 181.726 113.142Z" fill="#263238"/>
<path d="M150.036 111.194L148.535 110.607L147.115 113.048L146.859 117.053L148.862 117.376L150.367 114.903L150.036 111.194Z" fill="#B3B5B5"/>
<path d="M133.82 123.11C133.882 123.11 133.936 132.966 133.936 145.152C133.936 157.338 133.882 167.198 133.82 167.198C133.757 167.198 133.703 157.342 133.703 145.152C133.703 132.962 133.752 123.11 133.82 123.11Z" fill="#263238"/>
<path d="M150.142 107.731C150.169 107.753 149.815 108.291 149.287 109.182C148.59 110.344 147.953 111.54 147.378 112.766L147.221 113.107L147.114 113.335L147.006 113.111C146.459 111.961 145.992 110.774 145.609 109.558C145.461 109.11 145.358 108.721 145.295 108.461C145.246 108.329 145.22 108.189 145.219 108.049C145.25 108.049 145.429 108.604 145.756 109.509C146.083 110.414 146.572 111.66 147.217 113.008H147.006L147.168 112.663C147.744 111.425 148.404 110.228 149.143 109.079C149.43 108.631 149.672 108.3 149.847 108.067C149.929 107.942 150.029 107.829 150.142 107.731Z" fill="#263238"/>
<path d="M167.236 106.176C167.164 106.23 167.086 106.277 167.003 106.315L166.327 106.669L163.823 107.968C161.713 109.066 158.818 110.629 155.615 112.341C153.662 113.38 151.816 114.343 150.208 115.149L150.06 115.226V115.06C150.06 112.972 150.024 111.216 150.011 109.944C150.011 109.348 150.011 108.869 150.011 108.506C150.003 108.334 150.011 108.161 150.033 107.99C150.061 108.159 150.074 108.33 150.073 108.501C150.073 108.864 150.105 109.348 150.127 109.944C150.163 111.216 150.208 112.972 150.262 115.055L150.114 114.966C151.713 114.146 153.554 113.174 155.49 112.134C158.693 110.423 161.601 108.882 163.733 107.82C164.799 107.287 165.668 106.87 166.273 106.588L166.972 106.275C167.057 106.233 167.145 106.2 167.236 106.176Z" fill="#263238"/>
<path d="M135.845 111.646C135.876 111.646 135.617 112.094 135.276 112.874C134.836 113.863 134.513 114.9 134.313 115.965C134.124 117.03 134.056 118.114 134.111 119.195C134.161 120.024 134.246 120.539 134.21 120.539C134.155 120.428 134.118 120.308 134.102 120.185C134.032 119.86 133.982 119.531 133.95 119.199C133.839 118.104 133.884 116.998 134.084 115.915C134.283 114.826 134.634 113.77 135.128 112.779C135.273 112.48 135.437 112.192 135.621 111.915C135.751 111.74 135.832 111.637 135.845 111.646Z" fill="#263238"/>
<path d="M148.494 117.631C148.458 117.69 148.077 117.51 147.643 117.233C147.208 116.955 146.881 116.69 146.917 116.637C146.953 116.583 147.333 116.762 147.768 117.035C148.203 117.309 148.53 117.578 148.494 117.631Z" fill="#263238"/>
<path d="M149.214 116.655C148.804 116.016 148.461 115.335 148.193 114.625C147.853 113.948 147.585 113.238 147.391 112.506C147.798 113.146 148.139 113.826 148.408 114.536C148.747 115.213 149.017 115.923 149.214 116.655Z" fill="#263238"/>
<path d="M191.236 157.069C191.21 157.038 191.188 157.003 191.173 156.966C191.133 156.89 191.084 156.787 191.017 156.661C190.949 156.536 190.864 156.356 190.766 156.164C190.667 155.971 190.501 155.761 190.34 155.523C189.354 154.189 188.228 152.965 186.98 151.872C185.412 150.434 183.428 148.812 181.192 146.944C180.081 146.008 178.898 145.031 177.716 143.938C176.46 142.819 175.292 141.606 174.221 140.309H174.391L167.649 147.392C167.34 147.715 167.031 148.033 166.753 148.333V148.185C169.302 151.912 171.623 155.519 174.06 158.543C175.205 159.977 176.43 161.346 177.729 162.642C178.837 163.794 180.036 164.857 181.313 165.818C183.643 167.579 185.981 168.331 187.607 168.291C187.813 168.291 188.006 168.291 188.185 168.291L188.683 168.237L189.131 168.193L189.48 168.112L189.955 168.009L190.116 167.982C190.066 168.004 190.013 168.02 189.959 168.031L189.489 168.157L189.14 168.246L188.692 168.305L188.19 168.367C188.006 168.367 187.813 168.367 187.607 168.367C185.963 168.439 183.575 167.691 181.214 165.935C179.938 164.974 178.739 163.913 177.63 162.763C176.322 161.467 175.088 160.099 173.934 158.664C171.479 155.635 169.15 152.024 166.601 148.301L166.547 148.225L166.614 148.158L167.51 147.217L174.23 140.179L174.32 140.085L174.4 140.188C175.461 141.48 176.617 142.69 177.859 143.808C179.037 144.897 180.215 145.882 181.322 146.819C183.562 148.678 185.524 150.317 187.079 151.773C188.326 152.881 189.442 154.127 190.407 155.487C190.564 155.729 190.699 155.935 190.82 156.137L191.057 156.652L191.196 156.966C191.211 156.999 191.224 157.034 191.236 157.069Z" fill="#263238"/>
<g opacity="0.3">
<path d="M158.698 152.123C158.654 151.742 158.468 151.392 158.178 151.142C157.623 150.779 156.924 151.258 156.355 151.59C154.854 152.486 153 152.454 151.252 152.378C145.988 152.204 140.739 151.706 135.536 150.886C132.996 150.461 130.429 149.905 128.158 148.687C125.887 147.468 123.902 145.51 123.172 143.037L121.953 142.379C122.898 144.39 122.8 150.08 123.136 152.271C123.472 154.461 124.448 156.029 126.559 156.71C127.424 156.932 128.323 156.996 129.211 156.899C137.871 156.451 146.607 156.858 155.266 156.451C156.507 156.388 157.954 156.218 158.604 155.174C159.164 154.282 158.94 153.135 158.698 152.123Z" fill="black"/>
</g>
<path d="M164.166 132.465C164.166 132.465 160.063 127.77 159.328 128.289C158.593 128.809 157.536 129.091 158.553 130.977C159.57 132.863 161.286 133.947 161.608 135.565C161.931 137.182 161.568 141.08 163.373 142.401C165.179 143.723 167.692 147.154 167.692 147.154L173.964 140.614L171.482 138.746C171.482 138.746 172.983 135 172.969 133.042C172.956 131.085 171.625 128.639 171.625 128.639C171.464 127.665 170.992 126.77 170.281 126.085C170.168 125.244 170.002 124.41 169.784 123.59C169.448 122.349 164.95 118.012 164.95 118.012C164.543 118.298 164.262 118.731 164.168 119.22C164.074 119.709 164.172 120.216 164.444 120.633C165.061 121.633 165.748 122.589 166.5 123.491L162.392 122.998C162.321 123.286 162.31 123.586 162.36 123.879C162.409 124.171 162.519 124.45 162.682 124.698C162.845 124.947 163.057 125.158 163.305 125.321C163.554 125.483 163.833 125.592 164.126 125.642C166.388 126.219 166.921 127.048 166.921 127.048L164.121 127.976C164.121 127.976 164.251 129.629 165.465 129.669L166.689 129.705L164.166 132.465Z" fill="#937263"/>
<path d="M165.229 129.656L167.944 129.566H168.003L168.029 129.597C168.568 130.214 168.938 130.959 169.105 131.761C169.251 132.744 169.055 133.747 168.549 134.602C167.955 135.465 167.231 136.231 166.403 136.873C165.754 137.399 165.209 138.042 164.795 138.768C164.533 139.264 164.41 139.821 164.437 140.381C164.463 140.779 164.562 140.986 164.54 140.995C164.517 141.003 164.508 140.945 164.463 140.847C164.406 140.703 164.367 140.552 164.347 140.399C164.282 139.817 164.386 139.229 164.647 138.705C165.05 137.946 165.598 137.274 166.26 136.725C167.061 136.084 167.765 135.33 168.348 134.485C168.825 133.676 169.016 132.729 168.89 131.797C168.739 131.029 168.397 130.311 167.895 129.709L167.967 129.741C166.273 129.754 165.225 129.718 165.229 129.656Z" fill="#5E483F"/>
<path d="M170.953 128.576C170.917 128.576 170.801 128.356 170.536 128.038C170.182 127.632 169.714 127.342 169.192 127.205C168.668 127.074 168.128 127.023 167.588 127.053C167.359 127.084 167.127 127.084 166.898 127.053C167.111 126.954 167.341 126.897 167.575 126.887C168.136 126.807 168.707 126.839 169.255 126.981C169.561 127.068 169.85 127.206 170.111 127.389C170.32 127.541 170.501 127.727 170.648 127.94C170.806 128.12 170.912 128.34 170.953 128.576Z" fill="#5E483F"/>
<path d="M169.839 125.498C169.79 125.548 169.18 124.934 168.275 124.405C167.37 123.877 166.537 123.635 166.555 123.567C167.203 123.655 167.827 123.871 168.391 124.203C168.955 124.534 169.447 124.975 169.839 125.498Z" fill="#5E483F"/>
<path d="M119.677 131.712L125.075 152.105C125.221 152.654 125.546 153.138 125.999 153.48C126.453 153.822 127.007 154.002 127.575 153.991L155.526 153.44C155.899 153.433 156.265 153.343 156.6 153.178C156.934 153.013 157.228 152.776 157.46 152.484C157.693 152.192 157.858 151.853 157.944 151.49C158.03 151.127 158.035 150.75 157.958 150.385L153.841 130.852C153.721 130.283 153.409 129.772 152.957 129.406C152.505 129.04 151.941 128.84 151.359 128.84H121.89C121.54 128.84 121.194 128.921 120.88 129.076C120.566 129.23 120.291 129.455 120.078 129.732C119.864 130.01 119.717 130.332 119.647 130.676C119.578 131.019 119.588 131.373 119.677 131.712Z" fill="#B3B5B5"/>
<path d="M117.33 136.313C117.045 135.952 116.891 135.507 116.891 135.047C116.891 134.588 117.045 134.142 117.33 133.782C117.622 133.429 117.989 133.145 118.403 132.949C118.817 132.753 119.269 132.651 119.727 132.648C120.651 132.652 121.565 132.841 122.415 133.204C123.469 133.608 124.482 134.114 125.439 134.714C126.115 135.139 126.814 135.69 126.944 136.474C127.074 137.258 126.223 138.159 125.528 137.764C126.015 137.97 126.445 138.288 126.785 138.692C127.124 139.096 127.363 139.575 127.482 140.09C127.629 141.089 127.096 141.622 126.138 141.908C126.493 142.058 126.778 142.338 126.932 142.692C127.087 143.046 127.099 143.446 126.966 143.808C126.612 144.556 125.582 144.762 124.811 144.467C124.063 144.105 123.417 143.563 122.93 142.89C123.482 143.844 123.673 144.965 123.467 146.048C122.406 145.668 121.469 145.004 120.759 144.129C120.048 143.254 119.59 142.201 119.435 141.084C118.923 140.677 118.566 140.105 118.424 139.466C118.282 138.827 118.364 138.158 118.656 137.572C117.8 137.308 116.828 135.995 116.895 135.099" fill="#937263"/>
<path d="M126.08 141.917C125.755 141.707 125.446 141.472 125.157 141.214C124.452 140.625 123.624 140.201 122.734 139.973C122.247 139.865 121.742 139.865 121.255 139.973C120.861 140.071 120.493 140.257 120.18 140.515C119.897 140.773 119.659 141.075 119.477 141.411C119.482 141.303 119.511 141.198 119.562 141.102C119.681 140.836 119.855 140.598 120.072 140.403C120.393 140.108 120.781 139.895 121.201 139.78C121.719 139.647 122.261 139.639 122.783 139.758C123.709 139.99 124.561 140.452 125.26 141.102C125.568 141.337 125.843 141.611 126.08 141.917Z" fill="#5E483F"/>
<path d="M125.848 137.863C125.46 137.757 125.086 137.607 124.733 137.415C124.345 137.22 123.948 137.046 123.541 136.895C123.042 136.721 122.529 136.588 122.009 136.497C121.496 136.403 120.971 136.403 120.459 136.497C120.042 136.574 119.649 136.744 119.307 136.994C118.998 137.239 118.742 137.543 118.555 137.89C118.555 137.89 118.555 137.764 118.644 137.572C118.774 137.295 118.966 137.051 119.204 136.86C119.555 136.572 119.97 136.373 120.414 136.282C120.954 136.176 121.509 136.176 122.049 136.282C122.584 136.375 123.109 136.518 123.617 136.707C124.026 136.871 124.422 137.062 124.804 137.281C125.166 137.448 125.515 137.643 125.848 137.863Z" fill="#5E483F"/>
<g opacity="0.3">
<path d="M180.469 166.065C180.245 165.258 180.536 165.254 179.896 164.721C177.531 162.655 175.364 160.374 173.422 157.907C171.433 155.416 168.328 150.362 168.328 150.362L167.594 150.138C168.23 153.78 170.062 157.082 171.868 160.312C172.785 162.106 173.891 163.795 175.169 165.352C176.513 166.862 178.243 168.103 180.223 168.488C180.422 168.121 180.547 167.717 180.589 167.301C180.631 166.885 180.591 166.465 180.469 166.065Z" fill="black"/>
</g>
<path d="M41.9367 118.635C41.9602 118.783 41.9707 118.933 41.968 119.083C41.968 119.411 41.977 119.842 41.9949 120.373C41.9949 120.655 41.9949 120.969 41.9949 121.305C41.9949 121.641 42.0487 122.013 42.0756 122.412C42.1428 123.2 42.1786 124.105 42.3309 125.1C42.3981 125.597 42.4653 126.116 42.537 126.659C42.6087 127.201 42.7252 127.756 42.8237 128.334C43.0119 129.499 43.2986 130.722 43.5764 132.017C44.1767 134.593 44.9204 137.393 45.7312 140.363C46.5421 143.333 47.2589 146.142 47.8189 148.736C48.0743 150.044 48.3431 151.276 48.4999 152.45C48.585 153.032 48.6836 153.597 48.7463 154.139C48.809 154.681 48.8538 155.21 48.9031 155.711C49.024 156.706 49.024 157.62 49.0554 158.399C49.0554 158.798 49.0868 159.17 49.0823 159.51C49.0778 159.851 49.0554 160.16 49.042 160.447C49.0151 160.981 48.9927 161.411 48.9748 161.737C48.9704 161.887 48.9554 162.037 48.93 162.185C48.915 162.036 48.915 161.886 48.93 161.737C48.93 161.41 48.93 160.98 48.93 160.447C48.93 160.164 48.93 159.855 48.93 159.515C48.93 159.174 48.8941 158.807 48.8762 158.408C48.8269 157.615 48.8135 156.71 48.6746 155.72C48.6208 155.222 48.5626 154.702 48.4999 154.161C48.4327 153.619 48.3252 153.064 48.2356 152.481C48.0698 151.316 47.7876 150.089 47.5322 148.79C46.9543 146.209 46.224 143.387 45.4221 140.435C44.6202 137.482 43.9034 134.669 43.2986 132.079C43.0298 130.78 42.7476 129.548 42.5728 128.379C42.4788 127.796 42.3712 127.236 42.2996 126.694C42.2279 126.152 42.1741 125.628 42.1159 125.126C41.9725 124.132 41.9546 123.222 41.9053 122.438C41.9053 122.04 41.856 121.668 41.8516 121.327V120.391C41.8516 119.853 41.874 119.428 41.8829 119.101C41.8845 118.944 41.9025 118.788 41.9367 118.635Z" fill="#263238"/>
<path d="M103.539 140.103L109.878 117.555L117.678 118.975C117.678 118.975 115.81 121.103 115.81 123.061C115.81 125.019 114.511 143.472 114.511 143.472C114.511 143.472 106.756 145.748 103.62 140.497" fill="#FFBE9D"/>
<path d="M109.885 117.555C109.885 117.555 109.015 115.203 109.701 113.169C110.386 111.135 112.729 109.558 112.581 108.335C112.434 107.112 113.679 104.187 114.822 104.415C115.964 104.644 116.766 105.759 115.821 107.632C115.214 108.862 114.713 110.142 114.324 111.458C114.324 111.458 125.972 105.388 126.926 105.258C127.881 105.128 128.83 104.993 129.077 105.755C129.323 106.516 126.998 107.484 126.998 107.484L123.862 111.556C123.342 113.11 122.611 114.584 121.689 115.938C120.345 117.757 117.698 118.975 117.698 118.975L114.302 123.061C114.302 123.061 109.136 121.305 109.885 117.555Z" fill="#FFBE9D"/>
<path d="M126.781 107.645C126.781 107.645 126.678 107.578 126.494 107.489C126.235 107.372 125.945 107.337 125.665 107.39C124.737 107.662 123.918 108.219 123.322 108.981C122.7 109.741 122.171 110.574 121.75 111.462C121.591 111.846 121.387 112.208 121.141 112.542C121.22 112.133 121.356 111.736 121.544 111.364C121.918 110.425 122.437 109.55 123.08 108.77C123.86 107.874 124.819 107.256 125.639 107.166C125.961 107.127 126.286 107.203 126.557 107.381C126.736 107.52 126.781 107.637 126.781 107.645Z" fill="#EB996E"/>
<path d="M122.506 109.173C122.551 109.249 121.799 109.76 120.831 110.316C119.863 110.871 119.039 111.261 118.994 111.185C118.949 111.109 119.697 110.593 120.67 110.038C121.642 109.482 122.462 109.093 122.506 109.173Z" fill="#EB996E"/>
<path d="M116.329 111.789C116.289 111.713 117.225 111.404 118.287 111.789C119.349 112.175 119.913 112.95 119.837 112.986C119.761 113.021 119.17 112.412 118.184 112.09C117.198 111.767 116.343 111.884 116.329 111.789Z" fill="#EB996E"/>
<path d="M91.9925 141.407C91.9343 141.743 100.818 153.731 103.699 155.98C110.768 161.495 115.965 154.036 115.445 147.724C114.926 141.411 96.5621 111.745 96.5621 111.745L90.6172 125.754L91.9925 141.407Z" fill="#B3B5B5"/>
<path d="M45.5 108.568L61.6549 104.774L63.1781 102.198L79.3822 102.458L83.1454 106.485L93.9422 111.789L84.8792 149.838L54.469 151.402L45.5 108.568Z" fill="#263238"/>
<path d="M63.9848 101.696L57.9412 105.446L45.2494 108.21L49.2814 159.201C49.2814 159.201 37.3736 182.376 35.5547 202.496H67.6046C67.6046 202.496 70.6376 176.902 70.3195 166.656C70.0014 156.41 70.1985 138.432 70.1985 138.432L61.9284 107.52L63.9848 101.696Z" fill="#B3B5B5"/>
<path d="M80.5084 105.473L79.3795 101.992L83.5996 106.239C83.5996 106.239 86.0995 107.108 86.6371 107.305C90.8348 108.873 96.5603 111.745 96.5603 111.745L89.3923 157.069C89.3923 157.069 99.0064 182.659 98.2224 202.496C98.2224 202.496 76.2704 202.859 67.6016 202.496L69.9446 137.424C69.9446 137.424 77.5606 128.433 78.8284 119.383C80.0963 110.333 80.5084 105.473 80.5084 105.473Z" fill="#B3B5B5"/>
<path d="M69.5553 144.592C69.4532 144.508 69.3587 144.415 69.273 144.314L68.5069 143.485L65.6801 140.349L56.1332 129.597L56.0705 129.53L56.0973 129.445C56.5812 127.693 57.0919 125.861 57.6161 123.975C57.8401 123.16 58.0641 122.353 58.2881 121.556L58.4404 121.766L52.1057 121.524H51.8906L51.9668 121.323C53.6826 116.695 55.1565 112.735 56.2093 109.894C56.7335 108.515 57.1546 107.412 57.4593 106.62C57.5981 106.261 57.7146 105.974 57.7997 105.75C57.8348 105.647 57.8814 105.548 57.9386 105.455C57.918 105.562 57.8881 105.667 57.849 105.768L57.5533 106.664L56.393 109.971C55.3626 112.824 53.929 116.803 52.258 121.444L52.1191 121.233L58.4538 121.457H58.6644L58.6061 121.659C58.3866 122.452 58.1581 123.263 57.9341 124.078C57.41 125.96 56.8993 127.796 56.4109 129.544L56.3751 129.396L65.8548 140.224C67.0061 141.568 67.938 142.648 68.6055 143.418L69.3313 144.287C69.4165 144.381 69.4915 144.483 69.5553 144.592Z" fill="#263238"/>
<path d="M67.6448 202.496C67.5552 202.496 67.9763 187.806 68.5901 169.698C69.2039 151.59 69.7728 136.904 69.8624 136.909C69.952 136.913 69.5309 151.594 68.9216 169.707C68.3123 187.82 67.7389 202.496 67.6448 202.496Z" fill="#263238"/>
<path d="M83.5592 106.068C83.5928 106.187 83.6168 106.309 83.6309 106.431C83.6712 106.7 83.7205 107.05 83.7832 107.489C83.9087 108.443 84.0834 109.773 84.3029 111.422C84.7195 114.809 85.2975 119.486 85.9605 124.862L85.9874 125.077L85.7723 125.041L82.26 124.436L82.4437 124.204L83.1112 125.7L84.4283 128.648L84.4687 128.742L84.4015 128.822L74.6664 140.112L71.7499 143.436C71.4229 143.804 71.1586 144.099 70.9525 144.332C70.7464 144.565 69.5637 145.439 69.5547 145.434C69.5458 145.43 70.7375 144.507 70.8987 144.292L71.6783 143.36L74.5186 139.969L84.1685 128.607L84.1416 128.782L82.8245 125.839L82.157 124.338L82.0271 124.056L82.3362 124.109L85.8485 124.719L85.6559 124.898C85.0376 119.522 84.5 114.827 84.1103 111.458C83.9355 109.8 83.7922 108.465 83.6891 107.507C83.6488 107.059 83.6175 106.718 83.5906 106.449C83.5646 106.324 83.554 106.196 83.5592 106.068Z" fill="#263238"/>
<path d="M65.6347 181.776C64.9896 180.92 63.6859 180.392 63.0184 181.229H63.0408C62.71 181.487 62.4662 181.84 62.342 182.24C62.2179 182.641 62.2194 183.07 62.3464 183.469C62.4462 183.715 62.5942 183.938 62.7816 184.125C62.969 184.313 63.1921 184.461 63.4376 184.561C63.6831 184.66 63.9461 184.71 64.2112 184.706C64.4762 184.703 64.7378 184.646 64.9806 184.54C65.2159 184.412 65.4215 184.235 65.5841 184.022C65.7467 183.81 65.8626 183.565 65.9243 183.304C65.986 183.043 65.9921 182.772 65.9422 182.509C65.8923 182.246 65.7875 181.996 65.6347 181.776Z" fill="#263238"/>
<path d="M66.6284 164.541C65.9832 163.69 64.6751 163.162 64.0076 163.999H64.0344C63.7027 164.256 63.458 164.609 63.3338 165.01C63.2096 165.411 63.2117 165.84 63.34 166.239C63.4394 166.485 63.5869 166.708 63.7739 166.895C63.9609 167.082 64.1836 167.23 64.4287 167.33C64.6739 167.43 64.9366 167.48 65.2013 167.476C65.466 167.473 65.7273 167.416 65.9698 167.31C66.2055 167.182 66.4117 167.005 66.5747 166.792C66.7378 166.579 66.8542 166.334 66.9163 166.073C66.9784 165.811 66.9849 165.54 66.9353 165.276C66.8856 165.013 66.7811 164.762 66.6284 164.541Z" fill="#263238"/>
<g opacity="0.3">
<path d="M52.1094 121.372C52.2169 121.717 54.4927 122.066 54.8915 123.025C55.2902 123.984 55.0931 125.082 54.8108 126.085C54.5286 127.089 54.1612 128.092 54.2329 129.131C54.3583 130.991 55.8233 132.442 57.1987 133.706C61.0335 137.231 65.7107 141.062 69.5545 144.592C66.1542 140.255 61.7235 135.766 57.9647 131.739C57.3707 131.184 56.911 130.5 56.6207 129.741C56.3251 128.76 56.6207 127.711 56.9075 126.735L58.0633 122.842C58.1619 122.506 58.3769 121.946 58.4262 121.762C57.9573 121.662 57.4806 121.604 57.0015 121.587C57.0015 121.587 53.6191 121.229 52.1318 121.372" fill="black"/>
</g>
<path d="M95.9616 119.419C95.9667 119.548 95.9547 119.678 95.9258 119.804C95.881 120.091 95.8228 120.454 95.7556 120.906C95.5853 121.901 95.3568 123.272 95.0791 124.938C94.5012 128.388 93.7351 133.078 92.8391 138.266C91.9431 143.454 91.1412 148.176 90.5095 151.576C90.1914 153.279 89.9271 154.65 89.73 155.608C89.6374 156.053 89.5612 156.416 89.5015 156.697C89.4836 156.826 89.449 156.953 89.3984 157.073C89.3996 156.942 89.4131 156.812 89.4388 156.683C89.4836 156.401 89.5373 156.034 89.609 155.586C89.7748 154.591 90.0032 153.22 90.2855 151.554L92.5255 138.23C93.3991 133.025 94.2234 128.321 94.8551 124.92C95.1732 123.218 95.4375 121.843 95.6301 120.888C95.7242 120.44 95.8004 120.082 95.8631 119.8C95.8819 119.669 95.9149 119.542 95.9616 119.419Z" fill="#263238"/>
<path d="M45.4727 108.161C43.0874 108.965 41.0382 110.542 39.6487 112.641C36.9607 116.61 32.3194 155.116 32.4807 157.786C32.6419 160.456 34.9895 167.229 41.2167 166.338C47.4439 165.446 64.0109 153.875 64.0109 153.875L58.3123 142.836L46.2163 148.534L47.8605 129.472L45.4727 108.161Z" fill="#B3B5B5"/>
<g opacity="0.3">
<path d="M82.1882 162.624C81.7939 160.89 79.648 160.335 77.8874 160.111L49.1706 156.446L46.6797 164.51C46.935 166.36 47.1949 168.246 47.9834 169.94C48.7718 171.633 50.1741 173.143 51.9885 173.587C53.5923 173.976 55.2678 173.506 56.8493 173.035L77.968 166.763C79.0394 166.518 80.0548 166.073 80.9606 165.451C81.8208 164.828 82.4301 163.708 82.1882 162.624Z" fill="black"/>
</g>
<g opacity="0.3">
<path d="M46.831 129.32C46.486 127.976 45.9619 126.408 44.6492 125.892C43.2515 125.346 41.6297 126.363 41.007 127.729C40.3843 129.096 40.5187 130.677 40.7382 132.16C41.4998 137.321 43.3187 143.046 45.0031 147.983L50.8943 145.82C50.1148 140.354 48.1884 134.673 46.831 129.32Z" fill="black"/>
</g>
<path d="M107.688 124.62L101.891 142.092L109.417 147.558L115.483 149.995C115.483 149.963 116.616 141.268 116.33 144.305L117.674 126.363L107.688 124.62Z" fill="#B3B5B5"/>
<path d="M107.688 124.62C107.665 124.882 107.619 125.142 107.549 125.395C107.45 125.892 107.28 126.605 107.052 127.478C106.604 129.235 105.833 131.618 104.901 134.198C103.969 136.779 103.181 139.162 102.688 140.918C102.442 141.787 102.24 142.491 102.119 142.984C102.065 143.241 101.989 143.493 101.891 143.736C101.919 143.475 101.966 143.216 102.03 142.961C102.133 142.464 102.303 141.752 102.531 140.874C102.979 139.122 103.75 136.739 104.682 134.154C105.614 131.569 106.398 129.19 106.895 127.434C107.141 126.564 107.343 125.857 107.464 125.368C107.52 125.114 107.595 124.864 107.688 124.62Z" fill="#263238"/>
<path d="M105.799 150.936C105.523 150.656 105.281 150.345 105.078 150.008C104.544 149.229 104.055 148.419 103.613 147.585C103.171 146.751 102.775 145.894 102.425 145.018C102.265 144.66 102.143 144.286 102.062 143.902C102.264 144.236 102.437 144.587 102.578 144.95C102.878 145.604 103.303 146.505 103.819 147.477C104.334 148.449 104.84 149.305 105.216 149.919C105.438 150.242 105.632 150.582 105.799 150.936Z" fill="#263238"/>
<path d="M45.4759 147.392C44.8488 147.245 44.2357 147.045 43.6436 146.792C43.0268 146.616 42.4271 146.385 41.8516 146.102C42.4989 146.162 43.1334 146.321 43.7332 146.572C44.3521 146.756 44.9397 147.032 45.4759 147.392Z" fill="#263238"/>
<path d="M47.2984 122.618C47.2187 122.499 47.1582 122.369 47.1192 122.232C47.0162 121.977 46.8818 121.605 46.734 121.135C45.968 118.689 45.5782 116.14 45.5781 113.577C45.5781 113.089 45.5781 112.681 45.614 112.417C45.6121 112.274 45.6317 112.132 45.6722 111.995C45.708 111.995 45.7036 112.6 45.7439 113.577C45.8366 116.117 46.223 118.638 46.8952 121.09C47.1461 122.031 47.3343 122.609 47.2984 122.618Z" fill="#263238"/>
<g opacity="0.3">
<path d="M84.3037 126.175L86.4228 126.318C85.9665 125.719 85.3502 125.26 84.6448 124.995C83.9394 124.731 83.1736 124.67 82.4356 124.822C82.4848 126.099 83.8154 127.093 83.7348 128.37C83.6143 129.047 83.2909 129.672 82.8074 130.162L78.8516 135.032L79.1293 137.469C80.7466 135.162 82.3773 132.989 83.9946 130.704C84.5351 130.032 84.9303 129.256 85.1549 128.424C85.3341 127.577 85.0564 126.587 84.3037 126.175Z" fill="black"/>
</g>
<g opacity="0.3">
<path d="M105.332 132.648L105.973 130.762C104.893 134.001 101.229 136.488 100.023 139.682C99.5344 141.036 99.4012 142.493 99.6366 143.914C99.8719 145.334 100.468 146.671 101.367 147.795C101.784 148.306 102.501 148.799 103.047 148.427C103.253 148.306 103.414 148.122 103.508 147.903C103.601 147.684 103.622 147.44 103.567 147.208C103.397 146.76 102.138 144.148 101.914 143.736C101.748 143.423 102.125 142.522 102.626 140.838C103.491 137.863 104.445 135.619 105.332 132.648Z" fill="black"/>
</g>
<path d="M58.685 81.424C58.6194 84.3014 59.1649 87.16 60.2854 89.8112C61.406 92.4623 63.076 94.8456 65.1854 96.8038L68.093 88.3859" fill="#263238"/>
<path d="M80.5769 64.6822C78.0815 63.3382 75.071 63.1232 72.2844 63.6787C69.4978 64.2342 66.9084 65.5021 64.4399 66.9222C63.0556 67.7241 61.6802 68.6022 60.6902 69.8477C58.8758 72.128 57.1062 75.8688 56.9135 78.7763C56.7702 81.1238 57.6706 87.0061 58.6652 89.1385C59.5612 91.0963 63.8396 92.5881 65.9452 93.072L85.263 70.6093C84.9135 69.3601 84.3193 68.1929 83.5148 67.1754C82.7104 66.1579 81.7117 65.3104 80.5769 64.6822Z" fill="#263238"/>
<path d="M83.9068 67.7108L79.2969 66.882C81.8281 72.912 82.5135 86.697 83.9606 93.072C85.6674 90.5946 89.6322 83.0503 89.4217 80.0532C89.2111 77.056 89.4082 67.2 83.9068 67.7108Z" fill="#263238"/>
<path d="M86.5567 77.5398C86.2565 72.912 83.1788 67.2358 78.5688 67.7421L67.9065 70.4614C66.2662 70.88 64.8034 71.8133 63.7326 73.1243C62.6618 74.4354 62.0395 76.0551 61.957 77.7459C61.957 77.9206 61.9256 77.7056 61.9301 77.84L64.309 105.45L72.3148 121.336L79.3797 104.675C79.3797 102.435 79.3797 100.643 79.3797 100.643C79.3797 100.643 85.2888 99.6486 86.494 91.9341C87.0988 88.0992 86.9151 82.6784 86.5567 77.5398Z" fill="#FFBE9D"/>
<path d="M84.6945 83.3638C84.6982 83.6221 84.6002 83.8716 84.4218 84.0585C84.2433 84.2453 83.9986 84.3546 83.7403 84.3628C83.6141 84.3725 83.4872 84.3569 83.3671 84.3169C83.247 84.2769 83.1361 84.2133 83.0409 84.1299C82.9458 84.0464 82.8683 83.9447 82.8129 83.8309C82.7576 83.717 82.7256 83.5932 82.7189 83.4668C82.7152 83.2092 82.8125 82.9604 82.99 82.7736C83.1676 82.5869 83.4111 82.4771 83.6686 82.4678C83.7952 82.4574 83.9225 82.4725 84.0432 82.5122C84.1638 82.552 84.2752 82.6155 84.3709 82.699C84.4665 82.7826 84.5445 82.8844 84.6 82.9986C84.6556 83.1128 84.6878 83.237 84.6945 83.3638Z" fill="#263238"/>
<path d="M85.402 80.5594C85.2811 80.6893 84.506 80.1382 83.4667 80.1427C82.4273 80.1472 81.6209 80.6803 81.5044 80.5504C81.4507 80.4922 81.5716 80.2592 81.9121 80.0128C82.3725 79.6934 82.9198 79.5229 83.4801 79.5245C84.0332 79.5205 84.5731 79.6932 85.0212 80.0173C85.3483 80.2682 85.4603 80.5011 85.402 80.5594Z" fill="#263238"/>
<path d="M75.4602 83.3638C75.4638 83.6221 75.3659 83.8716 75.1874 84.0585C75.0089 84.2453 74.7642 84.3546 74.5059 84.3628C74.3797 84.3725 74.2528 84.3569 74.1327 84.3169C74.0126 84.2769 73.9017 84.2133 73.8066 84.1299C73.7114 84.0464 73.6339 83.9447 73.5786 83.8309C73.5233 83.717 73.4913 83.5932 73.4845 83.4668C73.4808 83.2092 73.5781 82.9604 73.7557 82.7736C73.9332 82.5869 74.1768 82.4771 74.4342 82.4678C74.5608 82.4574 74.6882 82.4725 74.8088 82.5122C74.9294 82.552 75.0409 82.6155 75.1365 82.699C75.2322 82.7826 75.3101 82.8844 75.3657 82.9986C75.4213 83.1128 75.4534 83.237 75.4602 83.3638Z" fill="#263238"/>
<path d="M75.2927 80.5593C75.1717 80.6892 74.4191 80.1382 73.3573 80.1427C72.2955 80.1471 71.5115 80.6803 71.3951 80.5504C71.3413 80.4921 71.4623 80.2592 71.8027 80.0128C72.2631 79.6933 72.8104 79.5229 73.3707 79.5244C73.9235 79.5227 74.4627 79.6951 74.9119 80.0172C75.2389 80.2681 75.3509 80.5011 75.2927 80.5593Z" fill="#263238"/>
<path d="M78.6174 88.919C78.6174 88.8562 79.2715 88.7398 80.3422 88.6009C80.6155 88.574 80.8708 88.5202 80.9156 88.3321C80.9411 88.0526 80.8784 87.7722 80.7364 87.5302C80.4766 86.8731 80.2063 86.1832 79.9255 85.4604C78.8055 82.517 77.9902 80.0844 78.1335 80.053C78.2769 80.0217 79.258 82.3602 80.3735 85.3036C80.6468 86.0294 80.9022 86.7193 81.1486 87.3823C81.3206 87.7097 81.3714 88.0874 81.292 88.4486C81.2524 88.5446 81.1915 88.6304 81.1139 88.6995C81.0363 88.7686 80.944 88.8191 80.844 88.8473C80.6977 88.8864 80.5473 88.9075 80.396 88.91C79.8059 88.9885 79.2082 88.9915 78.6174 88.919Z" fill="#263238"/>
<path d="M69.1562 97.9014C69.1562 97.9014 71.665 103.197 79.3796 102.458V100.666C75.7815 100.71 72.242 99.7525 69.1562 97.9014Z" fill="#EB996E"/>
<path d="M74.9556 76.7155C74.8526 77.0022 73.7908 76.8678 72.5409 77.0246C71.291 77.1814 70.3009 77.5174 70.1172 77.2576C70.0456 77.1366 70.2203 76.8634 70.628 76.5811C71.1709 76.2372 71.7849 76.021 72.4236 75.9489C73.0622 75.8767 73.709 75.9504 74.315 76.1645C74.772 76.3482 75.0004 76.5766 74.9556 76.7155Z" fill="#263238"/>
<path d="M85.0497 77.3068C84.866 77.5488 84.1313 77.3068 83.2577 77.3068C82.3841 77.3068 81.6314 77.4726 81.4657 77.2172C81.394 77.0963 81.5105 76.8544 81.833 76.6259C82.271 76.3516 82.7802 76.213 83.2967 76.2273C83.8133 76.2417 84.314 76.4084 84.7361 76.7065C85.0318 76.9395 85.1214 77.1859 85.0497 77.3068Z" fill="#263238"/>
<path d="M84.4646 70.4973C84.1915 69.9312 83.7668 69.4519 83.2377 69.1127C82.7086 68.7734 82.0959 68.5874 81.4675 68.5753C80.2068 68.5744 78.9723 68.9351 77.9104 69.6147C73.3184 72.2669 70.9574 78.6777 66.4192 81.424C65.3037 82.1005 63.8521 81.4822 62.9024 82.3782C61.9526 83.2742 61.3389 84.6989 61.863 85.895C61.2142 85.0878 60.6846 84.1916 60.2905 83.2339C60.095 82.7531 60.0049 82.2358 60.0266 81.7172C60.0482 81.1986 60.181 80.6907 60.416 80.2278C60.8102 79.5469 61.5001 79.0272 61.6928 78.2656C61.8585 77.5936 61.5942 76.8947 61.6256 76.2048C61.7008 75.5027 61.9419 74.8286 62.3289 74.2381C64.1209 71.1021 66.5536 68.2483 69.703 66.4832C71.7564 65.2943 74.0955 64.6887 76.4678 64.7315C78.8499 64.7863 81.1336 65.6921 82.9056 67.2851C83.9225 68.2349 84.9888 69.2115 84.4646 70.4973Z" fill="#263238"/>
<path d="M63.0095 83.328C62.9289 83.1085 58.9058 81.6569 58.8521 85.9309C58.7983 90.0838 62.9916 89.264 63.0006 89.1475C63.0095 89.031 63.0095 83.328 63.0095 83.328Z" fill="#FFBE9D"/>
<path d="M61.7333 87.5661C61.7333 87.5661 61.6616 87.6154 61.5362 87.6691C61.3637 87.7384 61.1711 87.7384 60.9986 87.6691C60.5506 87.5034 60.1967 86.8045 60.1832 86.0518C60.1757 85.697 60.2476 85.3449 60.3938 85.0214C60.4341 84.8918 60.5054 84.7739 60.6014 84.6779C60.6973 84.582 60.8152 84.5107 60.9448 84.4704C61.0312 84.4428 61.1248 84.4481 61.2075 84.4853C61.2902 84.5225 61.3562 84.589 61.3928 84.672C61.4466 84.7885 61.4197 84.8691 61.4421 84.8781C61.4645 84.887 61.5317 84.8109 61.5004 84.6362C61.4787 84.5333 61.4217 84.4413 61.3391 84.3763C61.2256 84.2893 61.0823 84.2506 60.9404 84.2688C60.7692 84.2997 60.609 84.3746 60.4754 84.4861C60.3419 84.5977 60.2397 84.742 60.1788 84.905C59.9981 85.263 59.9073 85.6598 59.9145 86.0608C59.9369 86.8941 60.3624 87.6826 60.9538 87.8528C61.0649 87.8874 61.1824 87.8961 61.2973 87.8782C61.4122 87.8604 61.5215 87.8164 61.6168 87.7498C61.7244 87.6646 61.7468 87.575 61.7333 87.5661Z" fill="#EB996E"/>
<path d="M61.375 81.1955C61.4641 81.1599 61.5484 81.1132 61.6259 81.0566C61.7827 80.958 62.0291 80.8236 62.3203 80.6086C63.1381 80.0117 63.8891 79.3283 64.5603 78.5702C65.5401 77.4352 66.4554 76.2461 67.302 75.0086C68.3238 73.4927 69.4702 72.0646 70.7292 70.7391C71.4014 70.0782 72.1435 69.4923 72.9424 68.992C73.6903 68.533 74.4924 68.1688 75.3302 67.9078C76.7495 67.4521 78.2421 67.2682 79.7296 67.3657C80.7334 67.4271 81.7247 67.6215 82.6774 67.9436C83.0179 68.0467 83.2732 68.1632 83.448 68.2304C83.5342 68.2706 83.6243 68.3021 83.7168 68.3244C83.6352 68.2745 83.5498 68.231 83.4614 68.1945C83.2158 68.073 82.9629 67.9668 82.7043 67.8764C81.7509 67.5233 80.7525 67.3061 79.7385 67.2313C78.2262 67.1109 76.7049 67.2843 75.2585 67.742C74.4058 68.0031 73.5887 68.3688 72.8259 68.8307C72.0164 69.345 71.2653 69.9459 70.5859 70.6227C69.3175 71.9536 68.1678 73.3926 67.1497 74.9235C66.3183 76.1652 65.421 77.3616 64.4617 78.5075C63.8023 79.2671 63.07 79.9603 62.2755 80.5772C61.9888 80.7923 61.7513 80.9356 61.599 81.0476C61.5209 81.0914 61.446 81.1408 61.375 81.1955Z" fill="#B3B5B5"/>
<path d="M61.2625 88.3008C61.0565 88.2609 60.843 88.301 60.6656 88.413C60.4881 88.525 60.3601 88.7005 60.3075 88.9036C60.255 89.1068 60.2819 89.3223 60.3827 89.5063C60.4836 89.6903 60.6508 89.8289 60.8504 89.8939C61.0499 89.9589 61.2667 89.9453 61.4566 89.8559C61.6464 89.7666 61.7951 89.6082 61.8722 89.4131C61.9493 89.2179 61.9491 89.0007 61.8716 88.8057C61.7941 88.6107 61.6452 88.4526 61.4552 88.3636" fill="white"/>
<path d="M61.4542 88.3635C61.6329 88.5055 61.7628 88.6997 61.826 88.919C61.8556 89.0329 61.8563 89.1523 61.8282 89.2665C61.8 89.3807 61.7438 89.4861 61.6647 89.5731C61.572 89.6825 61.449 89.762 61.3112 89.8015C61.1734 89.841 61.0269 89.8388 60.8903 89.7952C60.7537 89.7516 60.6331 89.6685 60.5437 89.5564C60.4543 89.4443 60.4001 89.3083 60.3879 89.1654C60.3728 89.0486 60.3875 88.9298 60.4306 88.8202C60.4736 88.7105 60.5437 88.6135 60.6343 88.5382C60.8132 88.395 61.0327 88.312 61.2615 88.3008C61.2615 88.3008 61.1943 88.256 61.0644 88.256C60.9465 88.2575 60.8302 88.2831 60.7226 88.3313C60.615 88.3794 60.5183 88.449 60.4386 88.5359C60.3589 88.6227 60.2977 88.725 60.259 88.8363C60.2202 88.9477 60.2047 89.0658 60.2132 89.1833C60.2267 89.3611 60.2929 89.5309 60.4034 89.6708C60.5139 89.8108 60.6637 89.9146 60.8335 89.9689C61.0033 90.0233 61.1855 90.0258 61.3567 89.976C61.5279 89.9262 61.6804 89.8265 61.7947 89.6896C61.8894 89.5808 61.9541 89.4492 61.9824 89.3078C62.0107 89.1664 62.0015 89.02 61.9559 88.8832C61.9014 88.7032 61.7898 88.546 61.6379 88.4352C61.5303 88.3635 61.4587 88.3501 61.4542 88.3635Z" fill="#263238"/>
<path d="M62.406 82.3738C62.3433 83.5072 62.2895 84.7034 62.8137 85.7114C63.3379 86.7194 64.6595 87.4093 65.6451 86.8448C66.4515 86.3968 66.6934 85.353 66.8278 84.4346C67.222 81.7914 67.4012 79.1168 67.8178 76.4736L62.406 82.3738Z" fill="#263238"/>
<path d="M76.0031 90.944C75.8011 91.2068 75.6658 91.5146 75.6088 91.841C75.5517 92.1675 75.5746 92.5029 75.6754 92.8186C75.7762 93.1343 75.952 93.4209 76.1877 93.6538C76.4235 93.8868 76.7121 94.0591 77.029 94.1562C77.2803 94.2412 77.5527 94.2412 77.804 94.1562C78.0064 94.0424 78.1838 93.8889 78.3254 93.7049C78.4671 93.5209 78.5701 93.3102 78.6283 93.0855L79.0763 92.0103C79.1184 91.9551 79.1438 91.889 79.1495 91.8198C79.1552 91.7507 79.1409 91.6813 79.1084 91.62C79.0758 91.5587 79.0264 91.5081 78.9659 91.474C78.9055 91.4399 78.8365 91.4239 78.7672 91.4279L76.1016 90.7872" fill="#EB996E"/>
<path d="M77.7488 94.0352C77.3393 94.0903 76.9224 94.0378 76.5393 93.8829C76.0899 93.737 75.7113 93.4287 75.4775 93.0182C75.3411 92.7662 75.2834 92.4791 75.3117 92.1939C75.3318 91.8996 75.4046 91.6112 75.5268 91.3427C75.6452 91.0807 75.8142 90.8447 76.0241 90.6483L76.0957 90.5856L76.1853 90.6169C77.9505 91.2397 79.3213 91.5533 79.3213 91.6294C79.3213 91.7056 77.8877 91.5129 76.0868 90.9126L76.2436 90.8768C76.0662 91.0491 75.9219 91.2526 75.818 91.4771C75.7064 91.6928 75.642 91.9298 75.6289 92.1723C75.6157 92.4148 75.6542 92.6573 75.7418 92.8838C75.9387 93.2437 76.2559 93.5228 76.6378 93.6723C77.2829 93.9411 77.7623 93.9769 77.7488 94.0352Z" fill="#263238"/>
<path d="M83.4396 68.5439C83.4396 68.5663 83.0768 68.4723 82.4092 68.4543C81.4681 68.4369 80.5329 68.6075 79.6585 68.9561C79.0541 69.191 78.4772 69.4915 77.9382 69.8521C77.3135 70.2624 76.715 70.7113 76.1462 71.1961C74.8434 72.3044 73.6765 73.5631 72.6697 74.9458C72.1411 75.6895 71.6752 76.4511 71.1689 77.1545C70.6911 77.8437 70.1315 78.4725 69.5024 79.0271C68.4263 79.9407 67.2494 80.7283 65.9945 81.3746C64.9328 81.9391 64.0412 82.3289 63.432 82.6022L62.7241 82.8799C62.6426 82.9193 62.557 82.9493 62.4688 82.9695C62.543 82.9165 62.6226 82.8715 62.7062 82.8351L63.3961 82.4946C63.9964 82.1945 64.8745 81.7823 65.9184 81.2044C67.1516 80.545 68.3084 79.7517 69.368 78.839C69.9788 78.2892 70.5231 77.6697 70.9897 76.9932C71.487 76.2988 71.9529 75.5327 72.486 74.7846C73.5009 73.385 74.6852 72.1165 76.0118 71.0079C76.5815 70.5242 77.1799 70.0754 77.8038 69.6639C78.366 69.2996 78.967 68.9991 79.5958 68.7679C80.4907 68.4245 81.4474 68.2719 82.4047 68.3199C82.6626 68.335 82.9188 68.371 83.1708 68.4275C83.2662 68.4513 83.357 68.4906 83.4396 68.5439Z" fill="#B3B5B5"/>
<path d="M62.2689 79.8068C62.1561 79.9023 62.0329 79.985 61.9016 80.0532L60.8488 80.6714L60.4949 80.8775C60.3577 80.9579 60.205 81.0083 60.0469 81.0253C59.9479 81.0348 59.8487 81.0112 59.7646 80.9581C59.7195 80.9278 59.6822 80.8872 59.6557 80.8397C59.6292 80.7922 59.6144 80.7392 59.6123 80.6848C59.6221 80.4939 59.691 80.3108 59.8094 80.1607L61.028 78.2074L61.1938 78.3597C60.7874 78.6577 60.3327 78.8835 59.8498 79.0272C59.3673 79.1685 58.8645 79.2276 58.3624 79.2019C58.2343 79.1984 58.1075 79.1758 57.9861 79.1348C57.9147 79.1147 57.8486 79.079 57.7928 79.0302C57.737 78.9813 57.6928 78.9206 57.6635 78.8525C57.6402 78.7825 57.6346 78.7079 57.6471 78.6352C57.6596 78.5625 57.6899 78.4941 57.7352 78.4359C57.8037 78.3415 57.8818 78.2544 57.9681 78.176C58.5171 77.6438 58.9931 77.0412 59.3838 76.384C59.7262 75.7678 60.0256 75.1286 60.2798 74.4711C60.2604 74.661 60.2167 74.8477 60.1499 75.0266C59.9897 75.5258 59.7796 76.0076 59.5227 76.4647C59.1424 77.1454 58.669 77.7697 58.116 78.3194C57.9592 78.4672 57.8069 78.6375 57.8696 78.7674C57.9323 78.8973 58.1518 78.96 58.3714 78.9645C59.3323 79.0146 60.2812 78.7331 61.0594 78.1671L61.5521 77.8042L61.2206 78.3194L59.9752 80.2592C59.881 80.375 59.8205 80.5145 59.8005 80.6624C59.8005 80.7834 59.9035 80.8506 60.0379 80.8416C60.3049 80.7879 60.559 80.683 60.7861 80.5325L61.8702 79.977C61.996 79.9047 62.1298 79.8476 62.2689 79.8068Z" fill="#B3B5B5"/>
<path d="M41.5759 128.128L49.1292 167.843C49.2006 168.221 49.3461 168.582 49.5573 168.903C49.7684 169.225 50.041 169.502 50.3595 169.718C50.678 169.934 51.036 170.085 51.413 170.162C51.79 170.24 52.1786 170.242 52.5564 170.168L81.5644 164.586C81.943 164.513 82.3034 164.366 82.6251 164.154C82.9468 163.941 83.2233 163.667 83.4389 163.348C83.6545 163.028 83.8049 162.669 83.8814 162.291C83.958 161.913 83.9592 161.524 83.885 161.146L75.8927 120.736C75.8165 120.354 75.6651 119.991 75.4473 119.668C75.2294 119.346 74.9495 119.07 74.6239 118.856C74.2982 118.643 73.9333 118.496 73.5504 118.425C73.1676 118.354 72.7744 118.36 72.3938 118.442L43.8249 124.714C43.0791 124.878 42.4267 125.326 42.0067 125.964C41.5866 126.602 41.4321 127.378 41.5759 128.128Z" fill="#E0E0E0"/>
<path d="M60.9297 142.786L63.3444 141.59C63.3444 141.59 64.1284 137.451 65.4007 135.99C66.673 134.53 68.5367 132.854 68.5367 132.456C68.5367 132.057 69.1281 129.32 69.1281 129.32C69.1281 129.32 70.2526 128.339 70.4721 130.301C70.6092 131.441 70.6092 132.593 70.4721 133.732L78.0254 131.851C78.8094 131.654 79.7905 131.73 79.6919 132.514C79.5934 133.298 79.1723 133.706 78.5719 134.194C78.3565 134.373 78.1127 134.516 77.8507 134.615C77.8507 134.615 79.1095 135.775 79.1095 136.913C79.1095 138.051 80.3998 140.694 79.226 141.967C78.0522 143.239 72.6583 147.065 69.818 147.553C66.9777 148.042 66.2788 148.897 64.9617 150.573L60.9297 142.786Z" fill="#FFBE9D"/>
<path d="M71.091 133.598C71.1224 133.661 70.2264 134.185 69.2139 134.964C68.2014 135.744 67.4577 136.461 67.4219 136.416C68.3987 135.186 69.6656 134.218 71.1089 133.598H71.091Z" fill="#EB996E"/>
<path d="M78.2898 134.4C77.7265 134.739 77.1146 134.99 76.4753 135.144C75.8642 135.369 75.2346 135.542 74.5938 135.659C75.1578 135.322 75.7695 135.073 76.4082 134.92C77.0204 134.696 77.6497 134.523 78.2898 134.4Z" fill="#EB996E"/>
<path d="M44.0859 148.454L60.7202 141.402L66.9608 153.843L44.0859 165.509V148.454Z" fill="#B3B5B5"/>
<path d="M60.4068 141.788C60.4336 141.85 55.9268 143.701 50.3671 145.927C44.8074 148.154 40.2647 149.905 40.2423 149.847C40.2199 149.789 44.7223 147.934 50.282 145.708C55.8416 143.481 60.3844 141.729 60.4068 141.788Z" fill="#263238"/>
<g opacity="0.3">
<path d="M45.1843 147.688C43.1614 148.093 41.1825 148.693 39.2752 149.48C38.4842 149.765 37.7445 150.177 37.0845 150.698C36.7558 150.961 36.4824 151.286 36.2802 151.655C36.0779 152.025 35.9508 152.43 35.9062 152.849C36.4521 152.615 36.9668 152.314 37.4384 151.953C39.329 150.058 42.5859 148.955 45.3456 147.921L45.1843 147.688Z" fill="black"/>
</g>
<path d="M209.065 202.675C209.065 202.738 165.609 202.792 112.006 202.792C58.4025 202.792 14.9375 202.738 14.9375 202.675C14.9375 202.612 58.3935 202.559 112.006 202.559C165.618 202.559 209.065 202.608 209.065 202.675Z" fill="#263238"/>
</svg>
