<svg width="16" height="18" viewBox="0 0 16 18" fill="none" xmlns="http://www.w3.org/2000/svg">
<path d="M8 10.6667C7.76389 10.6667 7.56597 10.5868 7.40625 10.4271C7.24653 10.2674 7.16667 10.0694 7.16667 9.83332C7.16667 9.59721 7.24653 9.3993 7.40625 9.23957C7.56597 9.07985 7.76389 8.99999 8 8.99999C8.23611 8.99999 8.43403 9.07985 8.59375 9.23957C8.75347 9.3993 8.83333 9.59721 8.83333 9.83332C8.83333 10.0694 8.75347 10.2674 8.59375 10.4271C8.43403 10.5868 8.23611 10.6667 8 10.6667ZM4.66667 10.6667C4.43056 10.6667 4.23264 10.5868 4.07292 10.4271C3.91319 10.2674 3.83333 10.0694 3.83333 9.83332C3.83333 9.59721 3.91319 9.3993 4.07292 9.23957C4.23264 9.07985 4.43056 8.99999 4.66667 8.99999C4.90278 8.99999 5.10069 9.07985 5.26042 9.23957C5.42014 9.3993 5.5 9.59721 5.5 9.83332C5.5 10.0694 5.42014 10.2674 5.26042 10.4271C5.10069 10.5868 4.90278 10.6667 4.66667 10.6667ZM11.3333 10.6667C11.0972 10.6667 10.8993 10.5868 10.7396 10.4271C10.5799 10.2674 10.5 10.0694 10.5 9.83332C10.5 9.59721 10.5799 9.3993 10.7396 9.23957C10.8993 9.07985 11.0972 8.99999 11.3333 8.99999C11.5694 8.99999 11.7674 9.07985 11.9271 9.23957C12.0868 9.3993 12.1667 9.59721 12.1667 9.83332C12.1667 10.0694 12.0868 10.2674 11.9271 10.4271C11.7674 10.5868 11.5694 10.6667 11.3333 10.6667ZM8 14C7.76389 14 7.56597 13.9201 7.40625 13.7604C7.24653 13.6007 7.16667 13.4028 7.16667 13.1667C7.16667 12.9305 7.24653 12.7326 7.40625 12.5729C7.56597 12.4132 7.76389 12.3333 8 12.3333C8.23611 12.3333 8.43403 12.4132 8.59375 12.5729C8.75347 12.7326 8.83333 12.9305 8.83333 13.1667C8.83333 13.4028 8.75347 13.6007 8.59375 13.7604C8.43403 13.9201 8.23611 14 8 14ZM4.66667 14C4.43056 14 4.23264 13.9201 4.07292 13.7604C3.91319 13.6007 3.83333 13.4028 3.83333 13.1667C3.83333 12.9305 3.91319 12.7326 4.07292 12.5729C4.23264 12.4132 4.43056 12.3333 4.66667 12.3333C4.90278 12.3333 5.10069 12.4132 5.26042 12.5729C5.42014 12.7326 5.5 12.9305 5.5 13.1667C5.5 13.4028 5.42014 13.6007 5.26042 13.7604C5.10069 13.9201 4.90278 14 4.66667 14ZM11.3333 14C11.0972 14 10.8993 13.9201 10.7396 13.7604C10.5799 13.6007 10.5 13.4028 10.5 13.1667C10.5 12.9305 10.5799 12.7326 10.7396 12.5729C10.8993 12.4132 11.0972 12.3333 11.3333 12.3333C11.5694 12.3333 11.7674 12.4132 11.9271 12.5729C12.0868 12.7326 12.1667 12.9305 12.1667 13.1667C12.1667 13.4028 12.0868 13.6007 11.9271 13.7604C11.7674 13.9201 11.5694 14 11.3333 14ZM1.75 17.3333C1.41667 17.3333 1.125 17.2083 0.875 16.9583C0.625 16.7083 0.5 16.4167 0.5 16.0833V3.16666C0.5 2.83332 0.625 2.54166 0.875 2.29166C1.125 2.04166 1.41667 1.91666 1.75 1.91666H3.10417V0.666656H4.45833V1.91666H11.5417V0.666656H12.8958V1.91666H14.25C14.5833 1.91666 14.875 2.04166 15.125 2.29166C15.375 2.54166 15.5 2.83332 15.5 3.16666V16.0833C15.5 16.4167 15.375 16.7083 15.125 16.9583C14.875 17.2083 14.5833 17.3333 14.25 17.3333H1.75ZM1.75 16.0833H14.25V7.12499H1.75V16.0833Z" fill="#6D7070"/>
</svg>
