<svg width="23" height="23" viewBox="0 0 23 23" fill="none" xmlns="http://www.w3.org/2000/svg">
<path d="M11.5 0.25C5.27875 0.25 0.25 5.27875 0.25 11.5C0.25 17.7213 5.27875 22.75 11.5 22.75C17.7213 22.75 22.75 17.7213 22.75 11.5C22.75 5.27875 17.7213 0.25 11.5 0.25ZM16.3375 16.3375C16.2334 16.4418 16.1098 16.5245 15.9737 16.581C15.8376 16.6374 15.6917 16.6665 15.5444 16.6665C15.397 16.6665 15.2511 16.6374 15.115 16.581C14.979 16.5245 14.8553 16.4418 14.7513 16.3375L11.5 13.0863L8.24875 16.3375C8.0384 16.5478 7.7531 16.666 7.45562 16.666C7.15814 16.666 6.87285 16.5478 6.6625 16.3375C6.45215 16.1271 6.33398 15.8419 6.33398 15.5444C6.33398 15.3971 6.36299 15.2512 6.41936 15.1151C6.47573 14.9791 6.55835 14.8554 6.6625 14.7513L9.91375 11.5L6.6625 8.24875C6.45215 8.0384 6.33398 7.7531 6.33398 7.45562C6.33398 7.15814 6.45215 6.87285 6.6625 6.6625C6.87285 6.45215 7.15814 6.33398 7.45562 6.33398C7.7531 6.33398 8.0384 6.45215 8.24875 6.6625L11.5 9.91375L14.7513 6.6625C14.8554 6.55835 14.9791 6.47573 15.1151 6.41936C15.2512 6.36299 15.3971 6.33398 15.5444 6.33398C15.6917 6.33398 15.8375 6.36299 15.9736 6.41936C16.1097 6.47573 16.2333 6.55835 16.3375 6.6625C16.4417 6.76665 16.5243 6.8903 16.5806 7.02639C16.637 7.16247 16.666 7.30833 16.666 7.45562C16.666 7.60292 16.637 7.74878 16.5806 7.88486C16.5243 8.02095 16.4417 8.1446 16.3375 8.24875L13.0863 11.5L16.3375 14.7513C16.765 15.1788 16.765 15.8987 16.3375 16.3375Z" fill="#E60000"/>
</svg>
