<svg width="16" height="16" viewBox="0 0 16 16" fill="none" xmlns="http://www.w3.org/2000/svg">
<path d="M2.25 13.75H3.479L10.479 6.75L9.25 5.521L2.25 12.521V13.75ZM14.188 5.542L10.458 1.812L11.479 0.791996C11.8263 0.444663 12.2397 0.270996 12.719 0.270996C13.1983 0.270996 13.6113 0.444663 13.958 0.791996L15.208 2.042C15.5413 2.37533 15.708 2.78833 15.708 3.281C15.708 3.77433 15.5413 4.18766 15.208 4.521L14.188 5.542ZM12.958 6.771L4.229 15.5H0.5V11.771L9.229 3.042L12.958 6.771ZM9.875 6.146L9.25 5.521L10.479 6.75L9.875 6.146Z" fill="#E60000"/>
</svg>
