<svg width="16" height="16" viewBox="0 0 16 16" fill="none" xmlns="http://www.w3.org/2000/svg">
<path d="M11.0999 16C11.2855 16 11.4636 15.9263 11.5949 15.795C11.7261 15.6637 11.7999 15.4857 11.7999 15.3C11.7999 15.1143 11.7261 14.9363 11.5949 14.805C11.4636 14.6737 11.2855 14.6 11.0999 14.6L5.26663 14.6C4.77157 14.6 4.29678 14.4033 3.94671 14.0533C3.59665 13.7032 3.39998 13.2284 3.39998 12.7333L3.39998 5.26667C3.39998 4.7716 3.59665 4.2968 3.94671 3.94673C4.29678 3.59667 4.77157 3.4 5.26663 3.4L11.0999 3.4C11.2855 3.4 11.4636 3.32625 11.5949 3.19497C11.7261 3.0637 11.7999 2.88565 11.7999 2.7C11.7999 2.51435 11.7261 2.3363 11.5949 2.20503C11.4636 2.07375 11.2855 2 11.0999 2L5.26663 2C4.40027 2 3.56939 2.34417 2.95677 2.95678C2.34416 3.5694 2 4.40029 2 5.26667L2 12.7333C2 13.5997 2.34416 14.4306 2.95677 15.0432C3.56939 15.6558 4.40027 16 5.26663 16H11.0999ZM12.0248 5.4524C12.0923 5.39 12.1715 5.34151 12.2578 5.30971C12.344 5.27791 12.4357 5.26342 12.5276 5.26706C12.6195 5.2707 12.7097 5.2924 12.7932 5.33093C12.8767 5.36946 12.9518 5.42405 13.0141 5.4916L15.8141 8.52493C15.9336 8.65427 16 8.8239 16 9C16 9.1761 15.9336 9.34573 15.8141 9.47507L13.0141 12.5084C12.888 12.6447 12.7129 12.7253 12.5274 12.7324C12.3419 12.7396 12.1611 12.6728 12.0248 12.5467C11.8886 12.4205 11.808 12.2455 11.8008 12.0599C11.7936 11.8744 11.8604 11.6936 11.9866 11.5573L13.702 9.69907L6.43328 9.69907C6.24763 9.69907 6.06959 9.62532 5.93831 9.49404C5.80704 9.36277 5.73329 9.18472 5.73329 8.99907C5.73329 8.81341 5.80704 8.63537 5.93831 8.50409C6.06959 8.37282 6.24763 8.29907 6.43328 8.29907L13.7011 8.29907L11.9856 6.4408C11.9232 6.37327 11.8747 6.29411 11.8429 6.20784C11.8111 6.12157 11.7966 6.02988 11.8003 5.93801C11.8039 5.84614 11.8256 5.75589 11.8642 5.6724C11.9027 5.58892 11.9573 5.51385 12.0248 5.45147V5.4524Z" fill="#E60000"/>
</svg>
