<svg width="227" height="222" viewBox="0 0 227 222" fill="none" xmlns="http://www.w3.org/2000/svg">
<path d="M144.108 49.9246H82.9409C81.547 49.9263 80.2107 50.4818 79.225 51.4694C78.2394 52.4569 77.6849 53.7957 77.6832 55.1922V191.395L76.9822 191.609L61.9769 196.213C61.2658 196.431 60.4977 196.356 59.8412 196.007C59.1847 195.657 58.6935 195.061 58.4754 194.349L13.8415 48.2776C13.6243 47.5651 13.6984 46.7954 14.0474 46.1375C14.3964 45.4797 14.9918 44.9876 15.7028 44.7694L38.8259 37.6757L105.861 17.1179L128.984 10.0242C129.336 9.9157 129.705 9.87779 130.072 9.91263C130.438 9.94747 130.794 10.0544 131.12 10.2273C131.445 10.4001 131.733 10.6356 131.967 10.9201C132.202 11.2046 132.378 11.5327 132.485 11.8854L143.894 49.2223L144.108 49.9246Z" fill="#F2F2F2"/>
<path d="M157.456 49.2226L143.705 4.22311C143.476 3.47334 143.102 2.77607 142.605 2.17117C142.107 1.56626 141.495 1.06557 140.804 0.697701C140.113 0.329831 139.356 0.10199 138.577 0.0272083C137.798 -0.0475738 137.012 0.0321675 136.264 0.261867L103.754 10.2317L36.723 30.793L4.21334 40.7663C2.70311 41.2309 1.43857 42.2769 0.697296 43.6747C-0.0439806 45.0724 -0.201438 46.7078 0.259492 48.2217L47.2557 202.011C47.6302 203.234 48.3857 204.303 49.4114 205.064C50.4372 205.824 51.6791 206.235 52.9551 206.236C53.5456 206.236 54.1329 206.148 54.697 205.973L76.9824 199.139L77.6834 198.921V198.187L76.9824 198.401L54.4903 205.302C53.1572 205.709 51.7174 205.57 50.4867 204.915C49.256 204.26 48.3348 203.142 47.9253 201.808L0.932613 48.0146C0.729699 47.3533 0.658979 46.6584 0.724498 45.9696C0.790017 45.2809 0.990483 44.6119 1.31443 44.0009C1.63838 43.39 2.07944 42.849 2.61235 42.4091C3.14527 41.9691 3.75956 41.6388 4.42007 41.437L36.9298 31.4637L103.961 10.906L136.471 0.932617C136.972 0.779434 137.493 0.70133 138.016 0.700841C139.141 0.703369 140.234 1.06647 141.138 1.73695C142.041 2.40744 142.706 3.35008 143.036 4.4268L156.723 49.2226L156.94 49.9249H157.67L157.456 49.2226Z" fill="#3F3D56"/>
<path d="M42.9985 44.8842C42.323 44.8838 41.6653 44.6664 41.1221 44.264C40.5789 43.8616 40.1787 43.2954 39.9802 42.6484L35.4655 27.8739C35.3442 27.477 35.3021 27.0601 35.3416 26.6469C35.3811 26.2338 35.5015 25.8324 35.6959 25.4659C35.8902 25.0993 36.1548 24.7747 36.4743 24.5106C36.7939 24.2465 37.1623 24.0481 37.5584 23.9266L99.2266 5.01104C100.027 4.76646 100.891 4.84987 101.629 5.24298C102.368 5.63608 102.921 6.30675 103.167 7.1078L107.681 21.8825C107.925 22.684 107.842 23.5497 107.45 24.2898C107.057 25.0298 106.388 25.5837 105.588 25.8299L43.9201 44.7455C43.6215 44.8373 43.3109 44.8841 42.9985 44.8842Z" fill="#E60000"/>
<path d="M66.6482 15.7838C70.5198 15.7838 73.6584 12.6392 73.6584 8.76027C73.6584 4.88131 70.5198 1.73679 66.6482 1.73679C62.7766 1.73679 59.6381 4.88131 59.6381 8.76027C59.6381 12.6392 62.7766 15.7838 66.6482 15.7838Z" fill="#E60000"/>
<path d="M66.6482 13.2078C69.0998 13.2078 71.0873 11.2166 71.0873 8.76029C71.0873 6.30401 69.0998 4.31281 66.6482 4.31281C64.1966 4.31281 62.2092 6.30401 62.2092 8.76029C62.2092 11.2166 64.1966 13.2078 66.6482 13.2078Z" fill="white"/>
<path d="M211.227 204.441H92.7552C91.9653 204.44 91.208 204.126 90.6495 203.566C90.091 203.006 89.7768 202.248 89.7759 201.456V59.2308C89.7768 58.4394 90.0909 57.6806 90.6495 57.121C91.208 56.5614 91.9653 56.2467 92.7552 56.2458H211.227C212.017 56.2467 212.774 56.5615 213.333 57.1211C213.891 57.6807 214.206 58.4394 214.206 59.2308V201.456C214.206 202.248 213.891 203.006 213.333 203.566C212.774 204.126 212.017 204.44 211.227 204.441Z" fill="#E6E6E6"/>
<path d="M156.723 49.2223H82.9408C81.3612 49.2245 79.8469 49.8542 78.7299 50.9733C77.6129 52.0924 76.9844 53.6096 76.9822 55.1922V198.401L77.6832 198.187V55.1922C77.6849 53.7957 78.2394 52.4568 79.225 51.4693C80.2106 50.4818 81.5469 49.9263 82.9408 49.9246H156.94L156.723 49.2223ZM221.041 49.2223H82.9408C81.3612 49.2245 79.8469 49.8542 78.7299 50.9733C77.6129 52.0924 76.9844 53.6096 76.9822 55.1922V216.03C76.9844 217.613 77.6129 219.13 78.7299 220.249C79.8469 221.368 81.3612 221.998 82.9408 222H221.041C222.621 221.998 224.135 221.368 225.252 220.249C226.369 219.13 226.998 217.613 227 216.03V55.1922C226.998 53.6096 226.369 52.0924 225.252 50.9733C224.135 49.8542 222.621 49.2245 221.041 49.2223ZM226.299 216.03C226.297 217.427 225.743 218.765 224.757 219.753C223.771 220.74 222.435 221.296 221.041 221.298H82.9408C81.5469 221.296 80.2106 220.74 79.225 219.753C78.2394 218.765 77.6849 217.427 77.6832 216.03V55.1922C77.6849 53.7957 78.2394 52.4568 79.225 51.4693C80.2106 50.4818 81.5469 49.9263 82.9408 49.9246H221.041C222.435 49.9263 223.771 50.4818 224.757 51.4693C225.743 52.4568 226.297 53.7957 226.299 55.1922V216.03Z" fill="#3F3D56"/>
<path d="M184.238 64.674H119.744C118.908 64.673 118.106 64.3397 117.515 63.7472C116.923 63.1547 116.591 62.3513 116.59 61.5134V46.0617C116.591 45.2238 116.923 44.4204 117.515 43.8279C118.106 43.2354 118.908 42.9021 119.744 42.9012H184.238C185.074 42.9021 185.876 43.2354 186.468 43.8279C187.059 44.4204 187.392 45.2238 187.393 46.0617V61.5134C187.392 62.3513 187.059 63.1547 186.468 63.7472C185.876 64.3397 185.074 64.673 184.238 64.674Z" fill="#E60000"/>
<path d="M151.991 43.9547C155.863 43.9547 159.001 40.8102 159.001 36.9312C159.001 33.0522 155.863 29.9077 151.991 29.9077C148.119 29.9077 144.981 33.0522 144.981 36.9312C144.981 40.8102 148.119 43.9547 151.991 43.9547Z" fill="#E60000"/>
<path d="M151.991 41.2092C154.349 41.2092 156.261 39.2939 156.261 36.9312C156.261 34.5686 154.349 32.6533 151.991 32.6533C149.633 32.6533 147.721 34.5686 147.721 36.9312C147.721 39.2939 149.633 41.2092 151.991 41.2092Z" fill="white"/>
</svg>
