<svg width="20" height="20" viewBox="0 0 20 20" fill="none" xmlns="http://www.w3.org/2000/svg">
<path d="M9.375 14.2292H10.75V10.7709H14.2292V9.39591H10.75V5.77092H9.375V9.39591H5.77083V10.7709H9.375V14.2292ZM10 18.6251C8.80556 18.6251 7.6875 18.3994 6.64583 17.948C5.60417 17.4966 4.69097 16.8786 3.90625 16.0938C3.12153 15.3091 2.50347 14.3959 2.05208 13.3542C1.60069 12.3126 1.375 11.1945 1.375 10.0001C1.375 8.79175 1.60069 7.66675 2.05208 6.62508C2.50347 5.58341 3.11806 4.67369 3.89583 3.89591C4.67361 3.11814 5.58681 2.50008 6.63542 2.04175C7.68403 1.58341 8.80556 1.35425 10 1.35425C11.2083 1.35425 12.3368 1.58341 13.3854 2.04175C14.434 2.50008 15.3438 3.11466 16.1146 3.8855C16.8854 4.65633 17.5 5.56605 17.9583 6.61466C18.4167 7.66328 18.6458 8.79175 18.6458 10.0001C18.6458 11.1945 18.4167 12.3161 17.9583 13.3647C17.5 14.4133 16.8819 15.3265 16.1042 16.1042C15.3264 16.882 14.4167 17.4966 13.375 17.948C12.3333 18.3994 11.2083 18.6251 10 18.6251Z" fill="white"/>
</svg>
