<svg width="19" height="18" viewBox="0 0 19 18" fill="none" xmlns="http://www.w3.org/2000/svg">
<path d="M14.104 1.50005C14.3373 1.28118 14.6144 1.10756 14.9193 0.98911C15.2242 0.870658 15.551 0.809692 15.881 0.809692C16.211 0.809692 16.5378 0.870658 16.8427 0.98911C17.1476 1.10756 17.4246 1.28118 17.658 1.50005C17.8914 1.71892 18.0765 1.97875 18.2028 2.26472C18.3291 2.55069 18.3941 2.85719 18.3941 3.16671C18.3941 3.47624 18.3291 3.78274 18.2028 4.06871C18.0765 4.35468 17.8914 4.61451 17.658 4.83338L5.66315 16.0834L0.776367 17.3334L2.10913 12.75L14.104 1.50005Z" stroke="#E60000" stroke-width="1.01641" stroke-linecap="round" stroke-linejoin="round"/>
</svg>
