<svg width="24" height="24" viewBox="0 0 24 24" fill="none" xmlns="http://www.w3.org/2000/svg">
<path d="M10.3766 17.1462L18.2036 9.31908L16.6599 7.77533L10.3766 14.0587L7.26198 10.9441L5.74531 12.4878L10.3766 17.1462ZM12.0016 23.2128C10.4668 23.2128 9.01788 22.9194 7.65469 22.3326C6.29149 21.7458 5.09983 20.9423 4.07969 19.9222C3.05955 18.9021 2.25608 17.7149 1.66927 16.3607C1.08247 15.0066 0.789062 13.5531 0.789062 12.0003C0.789062 10.4475 1.08247 8.98956 1.66927 7.62637C2.25608 6.26317 3.05503 5.07602 4.06615 4.06491C5.07726 3.0538 6.26441 2.25033 7.6276 1.65449C8.9908 1.05866 10.4488 0.760742 12.0016 0.760742C13.5543 0.760742 15.0168 1.05866 16.3891 1.65449C17.7613 2.25033 18.9484 3.04928 19.9505 4.05137C20.9526 5.05345 21.7516 6.23609 22.3474 7.59928C22.9432 8.96248 23.2411 10.4295 23.2411 12.0003C23.2411 13.5531 22.9432 15.0111 22.3474 16.3743C21.7516 17.7375 20.9481 18.9246 19.937 19.9357C18.9259 20.9469 17.7432 21.7458 16.3891 22.3326C15.0349 22.9194 13.5724 23.2128 12.0016 23.2128Z" fill="#A8B400"/>
</svg>
