<svg width="385" height="385" viewBox="0 0 385 385" fill="none" xmlns="http://www.w3.org/2000/svg">
<path d="M52.5584 62.293H75.0039V52.8066H52.5584V62.293Z" fill="#EBEBEB"/>
<path d="M65.0818 50.3273H87.5273V40.8409H65.0818V50.3273Z" fill="#EBEBEB"/>
<path d="M40.0399 40.8486L51.1741 40.633L56.8105 40.5483C58.697 40.5483 60.5912 40.5483 62.4854 40.5021H62.8242V40.8486L62.8704 50.335V50.72H62.4854L51.2665 50.6661C47.5243 50.6661 43.7898 50.5814 40.0476 50.5429H39.832V50.335C39.832 48.7257 39.9013 47.1241 39.9398 45.5456L40.0399 40.8486ZM40.0399 40.8486L40.1477 45.638C40.1477 47.178 40.2324 48.7796 40.2478 50.335L40.0399 50.1194C43.7821 50.1194 47.5166 49.9962 51.2588 49.9962L62.4854 49.95L62.1004 50.335V40.8486L62.4469 41.1874C60.5912 41.1874 58.7432 41.1874 56.8875 41.1489L51.3127 41.0642L40.0399 40.8486Z" fill="#EBEBEB"/>
<path d="M291.059 48.0634L302.194 47.8478L307.838 47.7631C309.724 47.7246 311.618 47.7631 313.505 47.7246H313.851V48.0711L313.89 57.5575V57.9425H313.505L302.286 57.8963C298.544 57.8963 294.802 57.8039 291.059 57.7654H290.852V57.5575C290.852 55.9482 290.921 54.3543 290.952 52.7681L291.059 48.0634ZM291.059 48.0634L291.175 52.8528C291.175 54.3928 291.26 55.9944 291.275 57.5498L291.059 57.3419C294.802 57.2957 298.544 57.2187 302.286 57.211L313.505 57.1648L313.12 57.5498L313.166 48.0634L313.505 48.4099C311.657 48.4099 309.809 48.4099 307.953 48.3637L302.371 48.279L291.059 48.0634Z" fill="#EBEBEB"/>
<path d="M40.0389 242.334H62.4844V232.848H40.0389V242.334Z" fill="#EBEBEB"/>
<path d="M322.515 246.539H344.961V237.052H322.515V246.539Z" fill="#EBEBEB"/>
<path d="M309.985 225.094L321.119 224.886L326.764 224.794C328.65 224.794 330.544 224.794 332.431 224.755H332.777V225.102L332.816 234.588V234.973H332.431L321.212 234.927C317.47 234.927 313.727 234.842 309.985 234.796H309.777V234.588C309.777 232.979 309.847 231.385 309.877 229.799L309.985 225.094ZM309.985 225.094L310.101 229.884C310.101 231.462 310.185 233.025 310.201 234.581L309.985 234.373C313.727 234.334 317.47 234.249 321.212 234.242L332.431 234.196L332.046 234.581L332.092 225.094L332.431 225.441C330.583 225.441 328.735 225.441 326.879 225.394L321.297 225.31L309.985 225.094Z" fill="#EBEBEB"/>
<path d="M195.863 93.1084H218.309V83.622H195.863V93.1084Z" fill="#EBEBEB"/>
<path d="M183.345 105.066L194.656 104.851L200.238 104.766C202.094 104.728 203.942 104.766 205.79 104.72L205.451 105.066L205.405 95.5801L205.79 95.9651L194.571 95.9189C190.829 95.9189 187.087 95.8342 183.345 95.7957L183.56 95.5801C183.56 97.1201 183.491 98.6986 183.46 100.277L183.345 105.066ZM183.345 105.066L183.237 100.369C183.237 98.8295 183.152 97.1894 183.137 95.5801V95.3722H183.345C187.087 95.3722 190.829 95.249 194.571 95.249L205.79 95.1951H206.183V95.5801L206.144 105.066V105.413H205.798C203.911 105.413 202.017 105.413 200.131 105.367L194.487 105.282L183.345 105.066Z" fill="#EBEBEB"/>
<path d="M174.29 277.97L185.601 277.754L191.184 277.67C193.039 277.67 194.88 277.67 196.735 277.631L196.389 277.97L196.35 268.46L196.735 268.845L185.509 268.792C181.774 268.792 178.032 268.707 174.29 268.668L174.498 268.46C174.498 270 174.436 271.579 174.398 273.158L174.29 277.97ZM174.29 277.97L174.182 273.273C174.144 271.694 174.097 270.093 174.082 268.491V268.283H174.298C178.04 268.245 181.782 268.16 185.517 268.16L196.743 268.114H197.128V268.507L197.074 277.97V278.317H196.735C194.841 278.317 192.947 278.317 191.068 278.27L185.424 278.186L174.29 277.97Z" fill="#EBEBEB"/>
<path d="M252.184 291.045L323.478 297.205L327.543 249.526L256.257 243.359L252.184 291.045Z" fill="white"/>
<path d="M252.93 291.399L251.875 291.306L251.967 290.252L252.545 290.298L252.499 290.783L252.976 290.821L252.93 291.399Z" fill="#DBDBDB"/>
<path d="M321.138 297.297L319.598 297.158L319.652 296.581L321.192 296.72L321.138 297.297ZM318.058 297.028L316.518 296.889L316.564 296.319L318.104 296.45L318.058 297.028ZM314.978 296.758L313.438 296.627L313.492 296.05L315.032 296.181L314.978 296.758ZM311.898 296.489L310.358 296.358L310.404 295.78L311.944 295.911L311.898 296.489ZM308.818 296.219L307.278 296.088L307.324 295.511L308.864 295.649L308.818 296.219ZM305.738 295.957L304.198 295.819L304.252 295.241L305.792 295.38L305.738 295.957ZM302.658 295.688L301.118 295.549L301.164 294.972L302.704 295.11L302.658 295.688ZM299.578 295.418L298.038 295.287L298.084 294.71L299.624 294.841L299.578 295.418ZM296.498 295.149L294.958 295.018L295.012 294.44L296.552 294.571L296.498 295.149ZM293.418 294.879L291.878 294.748L291.924 294.171L293.464 294.302L293.418 294.879ZM290.338 294.617L288.798 294.479L288.852 293.901L290.392 294.04L290.338 294.617ZM287.258 294.348L285.718 294.209L285.772 293.632L287.312 293.77L287.258 294.348ZM284.178 294.078L282.638 293.948L282.684 293.37L284.224 293.501L284.178 294.078ZM281.098 293.809L279.558 293.678L279.612 293.101L281.152 293.231L281.098 293.809ZM278.018 293.539L276.478 293.409L276.524 292.831L278.064 292.962L278.018 293.539ZM274.938 293.278L273.398 293.139L273.444 292.562L274.984 292.7L274.938 293.278ZM271.858 293.008L270.318 292.87L270.372 292.292L271.912 292.431L271.858 293.008ZM268.778 292.739L267.238 292.6L267.284 292.03L268.824 292.161L268.778 292.739ZM265.698 292.469L264.158 292.338L264.212 291.761L265.752 291.892L265.698 292.469ZM262.618 292.2L261.078 292.069L261.132 291.491L262.672 291.622L262.618 292.2ZM259.538 291.93L257.998 291.799L258.044 291.222L259.584 291.36L259.538 291.93ZM256.458 291.668L254.918 291.53L254.972 290.952L256.512 291.091L256.458 291.668Z" fill="#DBDBDB"/>
<path d="M323.738 297.52L322.684 297.428L322.737 296.85L323.215 296.897L323.253 296.411L323.831 296.465L323.738 297.52Z" fill="#DBDBDB"/>
<path d="M323.953 294.972L323.398 294.91L323.522 293.424L324.099 293.47L323.953 294.972ZM324.207 291.999L323.637 291.945L323.76 290.459L324.338 290.513L324.207 291.999ZM324.461 289.019L323.891 288.973L324.014 287.479L324.592 287.533L324.461 289.019ZM324.715 286.04L324.145 285.993L324.269 284.507L324.846 284.553L324.715 286.04ZM324.969 283.067L324.399 283.013L324.523 281.527L325.1 281.574L324.969 283.067ZM325.223 280.087L324.646 280.041L324.777 278.547L325.354 278.601L325.223 280.087ZM325.477 277.108L324.908 277.061L325.031 275.575L325.608 275.621L325.477 277.108ZM325.708 274.12L325.139 274.066L325.262 272.58L325.839 272.626L325.708 274.12ZM325.963 271.14L325.393 271.094L325.516 269.6L326.093 269.654L325.963 271.14ZM326.217 268.16L325.647 268.114L325.77 266.628L326.348 266.674L326.217 268.16ZM326.471 265.188L325.901 265.134L326.024 263.648L326.602 263.694L326.471 265.188ZM326.725 262.208L326.155 262.162L326.278 260.668L326.856 260.722L326.725 262.208ZM326.979 259.228L326.409 259.182L326.532 257.696L327.11 257.742L326.979 259.228ZM327.233 256.256L326.663 256.202L326.786 254.716L327.364 254.762L327.233 256.256ZM327.487 253.276L326.917 253.23L327.041 251.736L327.618 251.79L327.487 253.276Z" fill="#DBDBDB"/>
<path d="M327.767 250.312L327.197 250.265L327.235 249.788L326.758 249.742L326.804 249.172L327.859 249.257L327.767 250.312Z" fill="#DBDBDB"/>
<path d="M325.2 249.611L323.66 249.48L323.707 248.903L325.247 249.033L325.2 249.611ZM322.12 249.341L320.58 249.21L320.634 248.633L322.174 248.764L322.12 249.341ZM319.04 249.072L317.5 248.941L317.547 248.363L319.087 248.494L319.04 249.072ZM315.96 248.802L314.42 248.672L314.474 248.094L316.014 248.233L315.96 248.802ZM312.88 248.541L311.34 248.402L311.394 247.825L312.934 247.963L312.88 248.541ZM309.8 248.271L308.26 248.133L308.307 247.563L309.847 247.694L309.8 248.271ZM306.72 248.002L305.18 247.871L305.234 247.293L306.774 247.424L306.72 248.002ZM303.64 247.732L302.1 247.601L302.147 247.024L303.687 247.155L303.64 247.732ZM300.56 247.463L299.02 247.332L299.067 246.754L300.607 246.893L300.56 247.463ZM297.48 247.201L295.94 247.062L295.994 246.485L297.534 246.623L297.48 247.201ZM294.4 246.931L292.86 246.793L292.907 246.223L294.447 246.354L294.4 246.931ZM291.32 246.662L289.78 246.531L289.827 245.953L291.367 246.084L291.32 246.662ZM288.24 246.392L286.7 246.261L286.754 245.684L288.294 245.815L288.24 246.392ZM285.16 246.123L283.62 245.992L283.667 245.414L285.207 245.553L285.16 246.123ZM282.08 245.861L280.54 245.722L280.594 245.145L282.134 245.283L282.08 245.861ZM279 245.592L277.46 245.453L277.199 244.86L278.739 244.991L279 245.592ZM275.92 245.322L274.38 245.183L274.427 244.614L275.967 244.745L275.92 245.322ZM272.84 245.053L271.3 244.922L271.354 244.344L272.894 244.475L272.84 245.053ZM269.76 244.783L268.22 244.652L268.267 244.075L269.807 244.213L269.76 244.783ZM266.68 244.513L265.14 244.383L265.187 243.805L266.727 243.944L266.68 244.513ZM263.6 244.252L262.06 244.113L262.114 243.543L263.654 243.674L263.6 244.252ZM260.52 243.982L258.98 243.844L259.027 243.274L260.567 243.405L260.52 243.982Z" fill="#DBDBDB"/>
<path d="M256.48 244.152L255.902 244.098L255.995 243.043L257.05 243.135L256.996 243.713L256.518 243.674L256.48 244.152Z" fill="#DBDBDB"/>
<path d="M252.667 288.812L252.09 288.765L252.221 287.272L252.791 287.326L252.667 288.812ZM252.921 285.832L252.344 285.786L252.475 284.292L253.045 284.346L252.921 285.832ZM253.176 282.86L252.598 282.806L252.729 281.32L253.299 281.366L253.176 282.86ZM253.43 279.88L252.852 279.833L252.983 278.34L253.553 278.394L253.43 279.88ZM253.684 276.9L253.106 276.854L253.237 275.367L253.807 275.414L253.684 276.9ZM253.938 273.928L253.36 273.874L253.491 272.388L254.061 272.434L253.938 273.928ZM254.192 270.948L253.614 270.894L253.745 269.408L254.315 269.462L254.192 270.948ZM254.446 267.968L253.869 267.922L253.999 266.428L254.569 266.482L254.446 267.968ZM254.7 264.996L254.123 264.942L254.254 263.456L254.823 263.502L254.7 264.996ZM254.954 262.016L254.377 261.962L254.508 260.476L255.077 260.53L254.954 262.016ZM255.208 259.036L254.631 258.99L254.762 257.496L255.332 257.55L255.208 259.036ZM255.462 256.056L254.885 256.01L255.016 254.524L255.586 254.57L255.462 256.056ZM255.717 253.084L255.139 253.03L255.27 251.544L255.84 251.598L255.717 253.084ZM255.971 250.104L255.393 250.058L255.524 248.564L256.094 248.618L255.971 250.104ZM256.225 247.132L255.647 247.078L255.778 245.592L256.348 245.638L256.225 247.132Z" fill="#DBDBDB"/>
<path d="M255.402 288.327L320.775 293.978L324.333 252.237L258.96 246.585L255.402 288.327Z" fill="#EBEBEB"/>
<path d="M288.92 275.506C287.822 275.422 286.773 275.014 285.907 274.334C285.041 273.654 284.395 272.732 284.053 271.686C283.711 270.639 283.687 269.514 283.984 268.454C284.281 267.393 284.886 266.445 285.722 265.728C286.558 265.011 287.588 264.559 288.682 264.428C289.775 264.297 290.883 264.493 291.865 264.991C292.847 265.49 293.659 266.269 294.198 267.229C294.738 268.189 294.98 269.288 294.895 270.386C294.781 271.857 294.087 273.222 292.967 274.182C291.847 275.143 290.391 275.619 288.92 275.506ZM289.651 265.973C288.864 265.921 288.08 266.103 287.396 266.495C286.712 266.888 286.16 267.474 285.808 268.18C285.457 268.886 285.322 269.68 285.421 270.462C285.52 271.245 285.848 271.98 286.364 272.576C286.88 273.173 287.561 273.603 288.321 273.813C289.081 274.023 289.887 274.003 290.636 273.757C291.385 273.51 292.044 273.048 292.53 272.427C293.017 271.807 293.309 271.056 293.37 270.27C293.411 269.743 293.347 269.213 293.182 268.711C293.017 268.209 292.753 267.745 292.408 267.345C292.062 266.946 291.64 266.619 291.167 266.383C290.694 266.148 290.179 266.009 289.651 265.973Z" fill="#DBDBDB"/>
<path d="M288.859 277.677C283.8 277.285 279.026 274.497 274.661 269.377L274.152 268.784L274.745 268.268C280.135 263.648 285.525 261.646 290.854 262.331C299.008 263.371 303.882 270.301 304.082 270.593L304.444 271.117L304.005 271.587C303.759 271.841 297.884 277.939 289.668 277.747L288.859 277.677ZM276.378 268.953C280.528 273.573 285.009 276.022 289.714 276.153C295.966 276.314 300.879 272.341 302.388 270.963C301.102 269.369 296.844 264.672 290.646 263.887C285.987 263.294 281.19 264.995 276.378 268.953Z" fill="#DBDBDB"/>
<path d="M300.609 259.301L277.059 279.472L278.08 280.665L301.631 260.494L300.609 259.301Z" fill="#DBDBDB"/>
<path d="M116.153 128.775L208.699 108.231L191.089 45.022L98.5508 65.5579L116.153 128.775Z" fill="#DBDBDB"/>
<path d="M156.573 45.7303L189.275 38.4769L191.093 45.0219L156.52 52.6911L156.573 45.7303Z" fill="#DBDBDB"/>
<path d="M116.233 128.759L208.772 108.216L202.543 46.4233L110.004 66.9592L116.233 128.759Z" fill="#EBEBEB"/>
<path d="M169.201 47.2781L201.903 40.0247L202.542 46.4234L167.969 54.0926L169.201 47.2781Z" fill="#EBEBEB"/>
<path d="M159.221 93.324C158.146 93.563 157.024 93.4778 155.997 93.0792C154.971 92.6805 154.085 91.9864 153.453 91.0845C152.821 90.1826 152.471 89.1135 152.447 88.0124C152.422 86.9114 152.725 85.8279 153.317 84.899C153.908 83.9701 154.762 83.2375 155.77 82.794C156.778 82.3504 157.895 82.2158 158.98 82.4072C160.064 82.5986 161.068 83.1073 161.863 83.8691C162.658 84.6308 163.21 85.6113 163.448 86.6866C163.767 88.1273 163.501 89.6356 162.708 90.8802C161.915 92.1248 160.661 93.0038 159.221 93.324ZM157.149 83.9916C156.378 84.1628 155.674 84.559 155.127 85.1301C154.581 85.7012 154.216 86.4216 154.079 87.2001C153.942 87.9786 154.039 88.7803 154.357 89.5038C154.676 90.2272 155.202 90.8399 155.869 91.2644C156.536 91.6889 157.313 91.906 158.104 91.8884C158.894 91.8708 159.661 91.6192 160.309 91.1654C160.956 90.7117 161.454 90.0761 161.74 89.3392C162.026 88.6023 162.087 87.797 161.916 87.0254C161.684 85.9923 161.052 85.093 160.159 84.5245C159.266 83.9559 158.184 83.7643 157.149 83.9916Z" fill="white"/>
<path d="M159.8 95.4261C154.841 96.5272 149.466 95.249 143.799 91.5761L143.137 91.1603L143.56 90.4981C147.349 84.5075 151.953 81.0117 157.243 80.1185C165.344 78.7479 172.019 83.9685 172.304 84.1764L172.805 84.5768L172.52 85.1466C172.358 85.4623 168.508 93.0083 160.585 95.1951L159.8 95.4261ZM145.316 90.7137C150.644 93.9554 155.634 94.9641 160.169 93.7167C166.198 92.0535 169.74 86.7867 170.787 85.0619C169.093 83.9146 163.65 80.6575 157.49 81.7124C152.862 82.4978 148.765 85.5239 145.316 90.7137Z" fill="white"/>
<path d="M165.687 74.4041L149.031 100.559L150.356 101.403L167.012 75.2479L165.687 74.4041Z" fill="white"/>
<path d="M314.854 244.467L259.145 222.892L286.841 151.374L328.206 167.398L337.276 186.579L314.854 244.467Z" fill="white"/>
<path d="M314.752 244.737L313.312 244.175L313.52 243.636L314.96 244.198L314.752 244.737ZM315.391 243.874L314.852 243.667L315.407 242.234L315.946 242.442L315.391 243.874ZM311.88 243.62L310.44 243.066L310.648 242.527L312.088 243.081L311.88 243.62ZM309.008 242.55L307.568 241.988L307.776 241.457L309.216 242.011L309.008 242.55ZM306.136 241.434L304.696 240.879L304.904 240.34L306.344 240.895L306.136 241.434ZM316.469 241.01L315.938 240.802L316.493 239.37L317.032 239.578L316.469 241.01ZM303.233 240.294L301.793 239.732L302.001 239.201L303.441 239.755L303.233 240.294ZM300.361 239.177L298.921 238.623L299.129 238.084L300.569 238.638L300.361 239.177ZM317.586 238.138L317.047 237.93L317.601 236.498L318.14 236.706L317.586 238.138ZM297.489 238.069L296.049 237.514L296.257 236.975L297.697 237.53L297.489 238.069ZM294.617 236.952L293.177 236.398L293.385 235.859L294.825 236.413L294.617 236.952ZM291.745 235.843L290.305 235.289L290.513 234.75L291.953 235.304L291.745 235.843ZM318.695 235.266L318.156 235.058L318.718 233.626L319.257 233.834L318.695 235.266ZM288.873 234.727L287.433 234.172L287.641 233.633L289.081 234.188L288.873 234.727ZM286.001 233.618L284.561 233.064L284.769 232.525L286.208 233.079L286.001 233.618ZM283.159 232.54L281.719 231.978L281.927 231.439L283.367 232.001L283.159 232.54ZM319.842 232.425L319.303 232.217L319.857 230.784L320.396 230.992L319.842 232.425ZM280.279 231.385L278.84 230.831L279.047 230.292L280.487 230.846L280.279 231.385ZM277.407 230.276L275.967 229.714L276.175 229.175L277.615 229.737L277.407 230.276ZM320.943 229.506L320.404 229.298L320.966 227.866L321.505 228.074L320.943 229.506ZM274.535 229.152L273.095 228.598L273.303 228.059L274.743 228.613L274.535 229.152ZM271.663 228.043L270.223 227.481L270.431 226.95L271.871 227.504L271.663 228.043ZM268.791 226.927L267.351 226.372L267.559 225.833L268.999 226.388L268.791 226.927ZM322.06 226.634L321.521 226.426L322.075 224.994L322.614 225.202L322.06 226.634ZM265.919 225.818L264.479 225.264L264.687 224.725L266.127 225.279L265.919 225.818ZM263.047 224.701L261.607 224.147L261.815 223.608L263.255 224.162L263.047 224.701ZM323.168 223.762L322.629 223.554L323.192 222.122L323.723 222.33L323.168 223.762ZM260.175 223.593L258.766 223.046L258.981 222.476L259.52 222.692L260.39 223.031L260.175 223.593ZM260.075 221.283L259.543 221.075L260.098 219.635L260.637 219.85L260.075 221.283ZM324.285 220.921L323.746 220.713L324.3 219.281L324.839 219.489L324.285 220.921ZM261.191 218.411L260.652 218.203L261.207 216.763L261.746 216.978L261.191 218.411ZM325.394 218.049L324.855 217.841L325.409 216.409L325.948 216.616L325.394 218.049ZM262.3 215.538L261.761 215.331L262.323 213.891L262.862 214.106L262.3 215.538ZM326.51 215.177L325.971 214.969L326.526 213.536L327.065 213.744L326.51 215.177ZM263.416 212.666L262.877 212.458L263.432 211.019L263.971 211.234L263.416 212.666ZM327.619 212.304L327.08 212.097L327.634 210.664L328.173 210.872L327.619 212.304ZM264.525 209.794L263.986 209.586L264.548 208.146L265.087 208.362L264.525 209.794ZM328.736 209.432L328.197 209.224L328.751 207.792L329.29 208L328.736 209.432ZM265.649 206.899L265.11 206.691L265.665 205.251L266.204 205.467L265.649 206.899ZM329.852 206.537L329.313 206.329L329.867 204.897L330.406 205.105L329.852 206.537ZM266.758 204.05L266.219 203.842L266.774 202.402L267.313 202.618L266.758 204.05ZM330.969 203.688L330.43 203.48L330.984 202.048L331.523 202.256L330.969 203.688ZM267.875 201.178L267.336 200.97L267.89 199.53L268.429 199.746L267.875 201.178ZM332.077 200.816L331.538 200.608L332.093 199.176L332.632 199.384L332.077 200.816ZM268.984 198.306L268.445 198.098L268.999 196.658L269.538 196.874L268.984 198.306ZM333.186 197.944L332.647 197.736L333.209 196.304L333.748 196.512L333.186 197.944ZM270.1 195.434L269.561 195.226L270.115 193.786L270.654 194.002L270.1 195.434ZM334.303 195.072L333.764 194.864L334.318 193.432L334.857 193.64L334.303 195.072ZM271.209 192.562L270.67 192.354L271.224 190.914L271.763 191.129L271.209 192.562ZM335.411 192.2L334.872 191.992L335.435 190.56L335.974 190.768L335.411 192.2ZM272.325 189.69L271.786 189.482L272.341 188.042L272.88 188.257L272.325 189.69ZM336.528 189.328L335.989 189.12L336.543 187.688L337.082 187.895L336.528 189.328ZM273.434 186.817L272.895 186.61L273.45 185.17L273.989 185.385L273.434 186.817ZM336.898 186.486L336.243 185.093L336.767 184.846L337.421 186.24L336.898 186.486ZM274.528 183.945L273.996 183.737L274.551 182.298L275.09 182.505L274.528 183.945ZM335.565 183.699L334.911 182.305L335.435 182.059L336.089 183.453L335.565 183.699ZM275.659 181.05L275.12 180.842L275.659 179.41L276.198 179.618L275.659 181.05ZM334.264 180.888L333.61 179.502L334.133 179.256L334.788 180.642L334.264 180.888ZM276.768 178.178L276.229 177.97L276.791 176.53L277.33 176.738L276.768 178.178ZM332.978 178.109L332.324 176.715L332.847 176.469L333.502 177.862L332.978 178.109ZM331.662 175.321L331.007 173.928L331.531 173.681L332.185 175.075L331.662 175.321ZM277.916 175.321L277.377 175.113L277.931 173.674L278.47 173.881L277.916 175.321ZM330.329 172.542L329.675 171.148L330.199 170.902L330.853 172.295L330.329 172.542ZM279.009 172.434L278.47 172.226L279.032 170.786L279.563 170.994L279.009 172.434ZM329.013 169.754L328.358 168.361L328.882 168.114L329.536 169.508L329.013 169.754ZM280.125 169.562L279.586 169.354L280.141 167.914L280.68 168.122L280.125 169.562ZM327.55 167.444L326.11 166.89L326.325 166.351L327.758 166.905L327.55 167.444ZM281.234 166.674L280.695 166.466L281.257 165.026L281.789 165.234L281.234 166.674ZM324.678 166.32L323.238 165.758L323.453 165.227L324.886 165.781L324.678 166.32ZM321.806 165.204L320.366 164.649L320.581 164.11L322.013 164.665L321.806 165.204ZM318.933 164.095L317.494 163.54L317.709 163.001L319.141 163.556L318.933 164.095ZM282.351 163.802L281.812 163.594L282.366 162.154L282.905 162.362L282.351 163.802ZM316.061 162.978L314.621 162.424L314.837 161.885L316.269 162.439L316.061 162.978ZM313.189 161.869L311.749 161.315L311.965 160.776L313.397 161.33L313.189 161.869ZM283.444 160.93L282.905 160.722L283.46 159.282L283.999 159.49L283.444 160.93ZM310.302 160.753L308.862 160.199L309.077 159.66L310.51 160.214L310.302 160.753ZM307.43 159.644L305.99 159.09L306.205 158.551L307.638 159.105L307.43 159.644ZM304.558 158.528L303.118 157.973L303.333 157.434L304.765 157.996L304.558 158.528ZM284.538 158.058L283.999 157.85L284.553 156.41L285.092 156.626L284.538 158.058ZM301.662 157.419L300.222 156.864L300.438 156.325L301.87 156.88L301.662 157.419ZM298.813 156.31L297.373 155.748L297.589 155.209L299.021 155.771L298.813 156.31ZM295.941 155.194L294.501 154.639L294.717 154.1L296.149 154.655L295.941 155.194ZM285.669 155.194L285.13 154.986L285.685 153.546L286.224 153.761L285.669 155.194ZM293.069 154.092L291.629 153.53L291.845 152.991L293.277 153.553L293.069 154.092ZM290.197 152.976L288.749 152.46L288.965 151.921L290.397 152.475L290.197 152.976ZM286.786 152.321L286.247 152.114L286.678 150.997L287.533 151.328L287.325 151.867L287.009 151.744L286.786 152.321Z" fill="#DBDBDB"/>
<path d="M328.204 167.398L337.275 186.579L322.93 181.019L328.204 167.398Z" fill="#DBDBDB"/>
<path d="M297.813 203.318C296.783 202.928 295.892 202.241 295.253 201.344C294.613 200.447 294.254 199.381 294.221 198.28C294.188 197.179 294.482 196.094 295.066 195.16C295.651 194.226 296.499 193.487 297.503 193.035C298.508 192.584 299.624 192.44 300.71 192.623C301.796 192.806 302.803 193.306 303.605 194.062C304.406 194.817 304.965 195.794 305.212 196.867C305.458 197.94 305.381 199.063 304.989 200.092C304.463 201.47 303.412 202.583 302.067 203.187C300.722 203.792 299.192 203.839 297.813 203.318ZM301.208 194.379C300.47 194.097 299.664 194.04 298.893 194.216C298.122 194.392 297.421 194.792 296.878 195.367C296.334 195.942 295.974 196.665 295.842 197.445C295.71 198.224 295.812 199.026 296.136 199.747C296.459 200.469 296.99 201.078 297.66 201.498C298.33 201.918 299.109 202.13 299.9 202.106C300.69 202.083 301.456 201.826 302.1 201.367C302.744 200.909 303.238 200.269 303.518 199.53C303.894 198.541 303.862 197.442 303.429 196.477C302.996 195.511 302.197 194.757 301.208 194.379Z" fill="#DBDBDB"/>
<path d="M297.143 205.382C292.392 203.58 288.604 199.561 285.863 193.416L285.547 192.7L286.255 192.377C292.716 189.458 298.483 189.066 303.388 191.222C310.911 194.525 313.636 202.548 313.744 202.887L313.944 203.496L313.39 203.811C313.082 203.996 305.69 208.185 297.905 205.652C297.651 205.59 297.389 205.482 297.143 205.382ZM287.626 193.493C290.298 199.122 293.917 202.733 298.406 204.158C304.358 206.083 310.195 203.657 312.027 202.764C311.257 200.87 308.485 195.164 302.787 192.654C298.444 190.775 293.37 191.052 287.626 193.493Z" fill="#DBDBDB"/>
<path d="M313.609 191.046L285.324 203.752L285.968 205.185L314.253 192.479L313.609 191.046Z" fill="#DBDBDB"/>
<path d="M192.501 358.489C266.275 358.489 326.081 354.362 326.081 349.272C326.081 344.182 266.275 340.055 192.501 340.055C118.728 340.055 58.9219 344.182 58.9219 349.272C58.9219 354.362 118.728 358.489 192.501 358.489Z" fill="#EBEBEB"/>
<path d="M333.732 67.6445V93.2624H326.479V67.6445C326.479 57.904 319.079 49.9807 309.97 49.9807C300.861 49.9807 293.484 57.904 293.484 67.6445V93.2624H286.246V67.6445C286.246 53.6921 296.895 42.3423 309.985 42.3423C323.075 42.3423 333.732 53.6921 333.732 67.6445Z" fill="#DBDBDB"/>
<path d="M286.246 77.385L293.484 77.6776V93.2624H286.246V77.385Z" fill="#A6A6A6"/>
<path d="M333.734 79.3178V93.2625H326.488V79.0251L333.734 79.3178Z" fill="#A6A6A6"/>
<path d="M343.012 82.1359H276.969V134.881H343.012V82.1359Z" fill="#455A64"/>
<path d="M343.014 82.1359H309.988V134.881H343.014V82.1359Z" fill="#37474F"/>
<path d="M312.783 109.24L315.547 122.33H303.812L306.577 109.24C305.495 108.566 304.662 107.558 304.204 106.368C303.746 105.178 303.688 103.872 304.039 102.646C304.389 101.421 305.13 100.343 306.147 99.5754C307.165 98.808 308.405 98.3928 309.68 98.3928C310.955 98.3928 312.195 98.808 313.212 99.5754C314.23 100.343 314.97 101.421 315.321 102.646C315.672 103.872 315.614 105.178 315.156 106.368C314.698 107.558 313.865 108.566 312.783 109.24Z" fill="#263238"/>
<path d="M73.041 111.65C67.8358 118.064 47.7388 146.454 49.9872 155.879C51.3578 161.677 57.7873 160.668 61.4371 159.205C65.7106 157.488 77.0142 123.677 78.4464 116.801C79.817 110.249 78.1461 105.367 73.041 111.65Z" fill="#F7A9A0"/>
<path d="M73.041 111.65C67.8358 118.064 47.7388 146.454 49.9872 155.879C51.3578 161.677 57.7873 160.668 61.4371 159.205C65.7106 157.488 77.0142 123.677 78.4464 116.801C79.817 110.249 78.1461 105.367 73.041 111.65Z" fill="#455A64"/>
<path d="M78.9001 113.236C78.855 114.436 78.703 115.629 78.4458 116.801C77.0136 123.677 65.71 157.488 61.4288 159.205C59.2651 160.083 56.1004 160.791 53.6133 159.975L73.5101 111.065L74.9654 107.507L75.9741 108.978L78.9001 113.236Z" fill="#37474F"/>
<path d="M74.92 140.602C74.92 140.602 75.0355 148.24 76.3753 150.289C76.8527 151.012 79.3167 152.121 79.3167 152.121H121.22C121.22 152.121 122.537 147.293 121.089 144.991C116.693 137.984 107.037 125.687 89.8426 112.451C83.3823 107.477 75.2126 106.522 73.0258 111.481C71.7861 114.314 66.296 127.874 67.297 133.595C68.1825 138.638 74.92 140.602 74.92 140.602Z" fill="#455A64"/>
<path d="M80.6036 137.591C82.4633 137.403 84.3341 137.349 86.2015 137.43C87.1332 137.483 88.0495 137.576 88.9735 137.691C89.4278 137.753 89.8898 137.791 90.3518 137.838C90.8326 137.895 91.3186 137.895 91.7994 137.838C91.7994 137.838 91.8533 137.899 91.7994 137.907C91.3563 138.018 90.9061 138.097 90.4519 138.146C90.0084 138.177 89.5633 138.177 89.1198 138.146C88.1804 138.099 87.241 138.007 86.3016 137.953C84.3997 137.845 82.5055 137.73 80.6036 137.761C80.5266 137.753 80.5189 137.599 80.6036 137.591Z" fill="#263238"/>
<path d="M76.4085 140.094C77.8827 139.642 79.3815 139.274 80.8976 138.993C81.6676 138.854 82.4376 138.762 83.2076 138.685C83.5695 138.646 83.9776 138.623 84.3087 138.6C84.6398 138.577 85.1249 138.6 85.5253 138.562C85.5253 138.562 85.5792 138.623 85.5253 138.631C85.148 138.669 84.7553 138.777 84.4011 138.839L83.2615 139.031L80.9515 139.424C79.4115 139.663 77.9177 139.924 76.4085 140.194C76.4006 140.188 76.3941 140.181 76.3896 140.172C76.3851 140.163 76.3828 140.154 76.3828 140.144C76.3828 140.134 76.3851 140.124 76.3896 140.116C76.3941 140.107 76.4006 140.1 76.4085 140.094Z" fill="#263238"/>
<path d="M90.4205 119.35C97.3505 127.504 114.252 149.38 123.299 150.019C130.999 150.581 145.329 144.329 149.287 141.842C151.597 140.41 143.658 125.371 140.817 124.902C137.976 124.432 126.618 129.137 124.493 129.422C122.368 129.707 104.758 117.225 95.5872 112.343C84.0295 106.137 84.9843 112.921 90.4205 119.35Z" fill="#F7A9A0"/>
<path d="M136.914 126.788C136.914 126.788 140.764 122.376 142.897 120.813C145.03 119.25 155.078 116.339 155.833 118.503C156.803 121.26 151.328 124.086 148.464 125.125C148.464 125.125 150.72 131.501 147.232 134.365C143.744 137.229 136.914 126.788 136.914 126.788Z" fill="#F7A9A0"/>
<path d="M146.608 142.889C148.841 142.658 158.99 140.671 161.693 139.493C164.395 138.315 171.918 134.342 171.218 132.178C170.517 130.015 168.23 131 168.23 131C168.23 131 171.141 128.821 170.24 126.711C169.339 124.601 165.82 126.257 165.82 126.257C165.82 126.257 168.646 123.801 167.599 121.752C166.551 119.704 163.294 121.968 163.294 121.968C163.294 121.968 165.982 119.843 164.411 118.526C162.524 116.94 158.004 121.414 154.924 122.499C154.224 122.746 140.395 126.473 140.395 126.473L146.608 142.889Z" fill="#F7A9A0"/>
<path d="M163.572 121.783C160.246 125.063 158.182 125.926 153.724 126.911C153.631 126.911 153.647 127.065 153.724 127.05C158.213 126.488 160.908 125.78 163.734 121.93C163.88 121.745 163.734 121.66 163.572 121.783Z" fill="#263238"/>
<path d="M166.079 125.987C162.322 129.067 160.135 130.053 155.5 131.431C155.43 131.431 155.5 131.562 155.5 131.547C160.12 130.577 162.83 129.799 166.172 126.203C166.357 126.041 166.249 125.849 166.079 125.987Z" fill="#263238"/>
<path d="M167.989 131.069C164.139 133.811 161.783 134.966 157.109 135.689C157.09 135.695 157.073 135.707 157.061 135.723C157.049 135.739 157.043 135.758 157.043 135.778C157.043 135.798 157.049 135.817 157.061 135.833C157.073 135.849 157.09 135.861 157.109 135.867C161.952 135.551 164.894 134.142 168.043 131.162C168.274 130.985 168.228 130.9 167.989 131.069Z" fill="#263238"/>
<path d="M155.848 119.35C154.916 122.507 151.074 123.623 148.371 124.832C148.33 124.848 148.295 124.874 148.266 124.907C148.238 124.94 148.218 124.979 148.208 125.022C148.198 125.064 148.199 125.108 148.21 125.15C148.221 125.192 148.242 125.231 148.271 125.264C149.041 127.997 149.326 132.086 147.416 134.396C147.406 134.409 147.402 134.425 147.402 134.441C147.403 134.457 147.41 134.472 147.421 134.484C147.432 134.496 147.446 134.504 147.462 134.506C147.479 134.508 147.495 134.504 147.508 134.496C149.895 132.286 149.942 128.251 148.91 125.31C151.705 124.116 155.509 122.823 155.878 119.358L155.848 119.35Z" fill="#263238"/>
<path d="M146.007 146.785L133.51 125.079C133.51 125.079 124.948 128.521 123.985 128.159C115.146 124.763 101.124 114.229 95.1951 111.111C85.2775 105.898 83.2524 110.48 90.9447 122.276C95.2336 128.852 106.499 144.136 121.237 150.342C126.326 152.46 146.007 146.785 146.007 146.785Z" fill="#455A64"/>
<path d="M137.575 144.521C137.321 143.952 137.052 143.397 136.805 142.835C136.259 141.695 135.704 140.571 135.15 139.439C134.049 137.191 132.84 134.981 131.67 132.779C130.992 131.524 130.353 130.246 129.614 129.021C129.605 129.01 129.593 129.003 129.579 128.999C129.565 128.996 129.551 128.998 129.538 129.005C129.525 129.011 129.515 129.021 129.509 129.034C129.504 129.047 129.502 129.062 129.506 129.075C129.983 130.23 130.568 131.385 131.1 132.494C131.631 133.603 132.162 134.804 132.717 135.905C133.826 138.153 134.981 140.371 136.159 142.589C136.49 143.205 136.798 143.844 137.16 144.452C137.345 144.76 137.499 145.083 137.691 145.391C137.884 145.699 138.099 146 138.276 146.315C138.276 146.315 138.353 146.315 138.338 146.315C138.053 145.699 137.83 145.099 137.575 144.521Z" fill="#263238"/>
<path d="M92.5469 124.64C93.5325 125.926 94.5335 127.196 95.6269 128.428C96.7203 129.66 97.7213 130.892 98.8147 132.093C100.986 134.488 103.234 136.814 105.606 139.023C107.962 141.233 110.443 143.305 113.037 145.23C114.353 146.161 115.662 147.116 117.056 147.932C118.45 148.749 119.866 149.534 121.276 150.342C118.305 149.036 115.469 147.445 112.806 145.592C110.15 143.706 107.622 141.648 105.236 139.432C102.872 137.199 100.623 134.848 98.499 132.386C96.3563 129.93 94.3684 127.343 92.5469 124.64Z" fill="#263238"/>
<path d="M92.5781 126.465C93.1787 126.888 93.7177 127.335 94.2798 127.774L95.1114 128.444C95.3809 128.667 95.6658 128.883 95.9353 129.129C95.2465 128.892 94.6052 128.535 94.0411 128.074C93.4644 127.626 92.9694 127.082 92.5781 126.465Z" fill="#263238"/>
<path d="M69.1705 105.49C71.1032 108.316 73.2592 109.063 74.1832 110.88C74.831 112.338 75.3015 113.868 75.5846 115.438C75.5846 115.438 77.4557 113.028 78.911 111.419C80.1122 110.095 84.4011 109.194 86.8112 107.892C88.074 107.215 91.2695 104.397 91.7931 102.564C92.0626 101.625 92.925 90.6444 89.5986 88.1111C86.5186 85.7472 82.376 85.4238 78.218 85.8011C76.6577 85.8557 75.147 86.3631 73.87 87.2613C72.593 88.1596 71.6049 89.41 71.0262 90.86C69.0858 95.3106 67.3071 102.749 69.1705 105.49Z" fill="#37474F"/>
<path d="M83.4146 109.479C83.2144 110.249 79.3336 115.454 75.6684 115.238C74.4749 115.169 74.5673 108.632 74.5673 108.632L74.4672 108.154L73.0273 101.378L81.0199 96.3656L82.1749 95.7034C82.1749 95.7034 82.4444 97.5822 82.7601 99.9307L82.8063 100.262C82.8063 100.393 82.8063 100.516 82.8602 100.639C82.9141 100.993 82.9603 101.347 83.0065 101.709C83.0527 102.071 83.0758 102.241 83.0989 102.526C83.122 102.81 83.1605 103.095 83.1913 103.38C83.4064 105.405 83.4811 107.443 83.4146 109.479Z" fill="#F7A9A0"/>
<path d="M73.0273 101.378L74.2131 106.961C77.2497 107.622 80.3994 107.559 83.4069 106.776C83.4069 105.76 83.3068 104.558 83.1913 103.38C83.1913 103.088 83.1374 102.81 83.1066 102.526C83.0758 102.241 83.0373 101.979 83.0065 101.709C82.9757 101.44 82.9064 100.993 82.8602 100.647C82.8602 100.516 82.8602 100.393 82.8063 100.262C82.7524 100.131 82.8063 100.038 82.7524 99.923C82.4444 97.613 82.1749 95.7034 82.1749 95.7034L81.0199 96.3656L73.0273 101.378Z" fill="#263238"/>
<path d="M91.6308 91.4222C93.7483 103.396 86.8183 106.052 84.2311 106.468C81.9211 106.876 73.8592 108.008 70.5174 96.2963C67.1756 84.5846 72.0574 79.8414 77.3781 78.5863C82.6988 77.3312 89.5133 79.4564 91.6308 91.4222Z" fill="#F7A9A0"/>
<path d="M87.3944 89.5818C87.1421 89.6727 86.8851 89.7498 86.6244 89.8128C86.3506 89.9321 86.046 89.9617 85.7543 89.8975C85.6659 89.859 85.5933 89.7914 85.5485 89.706C85.5037 89.6206 85.4894 89.5225 85.5079 89.4278C85.568 89.2459 85.6751 89.0831 85.8185 88.956C85.9619 88.8288 86.1363 88.7419 86.3241 88.704C86.69 88.5583 87.0978 88.5583 87.4637 88.704C87.5545 88.741 87.6312 88.8059 87.6827 88.8894C87.7342 88.9728 87.7577 89.0705 87.75 89.1683C87.7423 89.266 87.7037 89.3588 87.6398 89.4331C87.5758 89.5075 87.4899 89.5595 87.3944 89.5818Z" fill="#263238"/>
<path d="M79.0727 93.2856C79.3576 93.2856 79.6271 93.2394 79.912 93.2163C80.2097 93.2354 80.5053 93.1541 80.7513 92.9853C80.8205 92.9188 80.865 92.8307 80.8776 92.7356C80.8902 92.6405 80.8701 92.5439 80.8206 92.4617C80.7021 92.3113 80.5449 92.196 80.3658 92.1282C80.1867 92.0604 79.9926 92.0426 79.8042 92.0767C79.4114 92.0782 79.0341 92.2297 78.7493 92.5002C78.686 92.5648 78.643 92.6465 78.6257 92.7353C78.6084 92.824 78.6176 92.9159 78.652 92.9995C78.6864 93.0832 78.7446 93.1548 78.8194 93.2057C78.8942 93.2565 78.9823 93.2843 79.0727 93.2856Z" fill="#263238"/>
<path d="M80.7802 94.1479C80.7802 94.1479 80.7263 94.1942 80.7263 94.225C80.8649 95.0489 80.8803 96.0114 80.1719 96.381C80.1719 96.381 80.1719 96.4349 80.1719 96.4272C81.0805 96.1808 81.042 94.9025 80.7802 94.1479Z" fill="#263238"/>
<path d="M79.9349 93.3779C78.5951 93.4549 78.8415 96.1268 80.0812 96.0575C81.3209 95.9882 81.0591 93.3163 79.9349 93.3779Z" fill="#263238"/>
<path d="M79.427 93.5704C79.2037 93.7398 79.0035 94.0324 78.7186 94.0863C78.4337 94.1402 78.1257 93.8938 77.887 93.6397C77.887 93.6397 77.8408 93.6397 77.8485 93.6397C77.887 94.1479 78.1334 94.6561 78.6878 94.6869C79.2422 94.7177 79.5117 94.2172 79.5964 93.6936C79.6118 93.632 79.5117 93.5011 79.427 93.5704Z" fill="#263238"/>
<path d="M85.9871 93.2855C85.9871 93.247 86.0487 93.2855 86.0487 93.3548C86.0487 94.1864 86.2335 95.1335 86.9958 95.3722V95.4184C86.0641 95.3337 85.8716 94.0709 85.9871 93.2855Z" fill="#263238"/>
<path d="M86.6777 92.4001C88.0098 92.2307 88.2562 94.9026 87.0242 95.0566C85.7922 95.2106 85.5612 92.5233 86.6777 92.4001Z" fill="#263238"/>
<path d="M87.2477 92.5002C87.4787 92.6234 87.7097 92.8621 87.9638 92.8544C88.2179 92.8467 88.449 92.5387 88.6107 92.2461C88.6723 92.7543 88.5567 93.301 88.0716 93.4473C87.5865 93.5936 87.2631 93.1701 87.0938 92.6773C87.1014 92.6003 87.163 92.454 87.2477 92.5002Z" fill="#263238"/>
<path d="M82.3892 99.7228C83.4847 99.8189 84.5884 99.7462 85.6617 99.5072C85.7541 99.5072 85.808 99.2839 85.8157 99.1915L85.5078 97.5129C85.7465 97.5899 86.9553 97.9287 86.886 97.613C86.3875 94.8827 85.6135 92.21 84.576 89.6358C84.5699 89.6174 84.5567 89.6022 84.5394 89.5935C84.5221 89.5849 84.502 89.5834 84.4837 89.5896C84.4653 89.5957 84.4501 89.6089 84.4414 89.6262C84.4327 89.6435 84.4313 89.6636 84.4375 89.682C84.8687 92.1999 85.7465 94.6331 86.2239 97.1664C85.7913 97.0389 85.3427 96.9741 84.8917 96.9739C84.8147 96.9739 85.2537 98.8065 85.2614 99.0837C84.2741 99.2363 83.2794 99.3366 82.2814 99.384C81.9118 99.3994 81.8656 99.6843 82.3892 99.7228Z" fill="#263238"/>
<path d="M70.8378 95.6263C72.8167 95.7341 73.1478 91.5838 73.1478 91.5838C73.1478 91.5838 77.1672 91.4991 78.3607 85.6933C78.2864 87.4287 77.7056 89.1044 76.6898 90.5135C76.6898 90.5135 83.7584 89.5972 86.5997 83.5835C86.5997 83.5835 85.4832 86.6635 84.3898 87.7261C86.1748 87.1375 87.7064 85.959 88.7326 84.3843C88.7326 84.3843 90.057 87.78 91.0426 88.6963C91.0426 88.6963 90.4651 76.3147 79.0152 77.9163C79.0152 77.9163 71.8388 78.5631 69.3902 84.3073C66.9416 90.0515 70.8378 95.6263 70.8378 95.6263Z" fill="#263238"/>
<path d="M73.4186 96.8199C73.4186 96.8199 70.4387 93.2779 68.7986 94.3713C67.1585 95.4647 69.6379 100.77 71.7169 101.34C71.979 101.432 72.257 101.469 72.5341 101.451C72.8112 101.432 73.0817 101.358 73.3292 101.232C73.5768 101.106 73.7962 100.931 73.9744 100.718C74.1525 100.505 74.2856 100.258 74.3657 99.9923L73.4186 96.8199Z" fill="#F7A9A0"/>
<path d="M69.5547 95.8727V95.9266C71.0177 96.3732 71.8647 97.6206 72.5192 98.9296C72.4251 98.7952 72.303 98.6829 72.1612 98.6003C72.0194 98.5178 71.8613 98.4671 71.698 98.4518C71.5347 98.4364 71.37 98.4567 71.2153 98.5113C71.0606 98.5659 70.9196 98.6534 70.8021 98.7679C70.8021 98.7679 70.8021 98.8526 70.8483 98.8449C71.089 98.7425 71.3557 98.7179 71.6111 98.7745C71.8665 98.8311 72.0979 98.9661 72.2728 99.1606C72.5663 99.4865 72.8244 99.8427 73.0428 100.223C73.1198 100.339 73.3431 100.223 73.2815 100.115C73.1506 98.2751 71.5028 95.8804 69.5547 95.8727Z" fill="#263238"/>
<path d="M64.8413 108.886C67.1513 111.45 72.0023 109.864 72.8262 111.003C73.319 111.681 75.5135 115.369 75.3903 116.439C77.2295 115.736 78.9629 114.783 80.5416 113.606C82.9816 111.616 85.7414 110.053 88.7036 108.986C90.0203 108.547 94.0936 108.293 94.9329 104.635C96.188 99.0451 93.8934 79.0559 82.6668 77.0462C75.2671 75.7218 69.8078 79.9337 67.3361 86.625C66.5661 88.6578 65.9424 92.1536 65.1185 95.095C63.5631 100.616 62.2695 106.052 64.8413 108.886ZM71.0013 95.0257C71.6019 92.9082 73.0649 91.1757 76.5376 89.6973C78.9785 88.6732 85.8623 86.5326 89.6276 89.9283C92.1378 92.1844 91.5218 100.832 91.2754 101.771C90.8519 103.357 89.0963 105.444 86.4244 107.038C85.0076 107.885 80.5416 110.056 79.3635 110.988C77.9132 112.31 76.6212 113.796 75.5135 115.415C75.5135 115.415 76.0217 112.212 75.1054 110.403C74.1891 108.593 71.4479 106.861 70.1081 105.09C69.2996 103.95 70.0696 98.3136 71.0244 95.0334L71.0013 95.0257Z" fill="#455A64"/>
<path d="M88.8656 108.886L87.1177 109.725C86.5402 110.018 85.9319 110.249 85.3929 110.587C84.3072 111.265 83.2523 112.004 82.2051 112.759C81.6815 113.136 81.1425 113.529 80.5958 113.852L78.9249 114.838C77.8431 115.563 76.6489 116.104 75.3906 116.439C76.0029 116.239 76.5875 115.962 77.1308 115.616C77.6852 115.284 78.2242 114.938 78.7555 114.576C79.2868 114.214 79.872 113.891 80.4033 113.552C80.9346 113.213 81.4505 112.782 81.9895 112.451C83.041 111.693 84.1335 110.994 85.262 110.356C86.4401 109.771 87.6567 109.34 88.8656 108.886Z" fill="#263238"/>
<path d="M74.9739 114.907C74.5313 113.931 74.0166 112.989 73.4339 112.089C73.1505 111.643 72.842 111.214 72.5099 110.803C72.1891 110.381 71.7823 110.032 71.3164 109.779C71.8609 109.904 72.3548 110.192 72.7332 110.603C73.1209 110.99 73.4644 111.418 73.7573 111.881C74.0547 112.343 74.3123 112.83 74.5273 113.336C74.7452 113.838 74.8954 114.366 74.9739 114.907Z" fill="#263238"/>
<path d="M87.9787 110.11C87.6119 110.118 87.2475 110.17 86.8929 110.264C86.5429 110.348 86.2148 110.505 85.9304 110.726C85.3067 111.146 84.591 111.41 83.8438 111.496C84.1962 111.396 84.539 111.265 84.8679 111.103C85.199 110.953 85.5181 110.778 85.8226 110.58C86.1303 110.355 86.4862 110.204 86.8621 110.141C87.2296 110.065 87.6076 110.055 87.9787 110.11Z" fill="#263238"/>
<path d="M91.4606 100.308C91.5412 100.87 91.5177 101.441 91.3913 101.994C91.3021 102.57 91.0836 103.117 90.7522 103.596C90.4078 104.048 90.0125 104.459 89.5741 104.82C89.155 105.19 88.7041 105.523 88.2266 105.813C89.0459 105.077 89.7936 104.265 90.4596 103.388C90.7336 102.928 90.9361 102.43 91.0602 101.91C91.2297 101.385 91.3635 100.85 91.4606 100.308Z" fill="#263238"/>
<path d="M69.0317 99.9075C68.8999 100.6 68.8791 101.31 68.9701 102.01C68.9701 102.356 69.0548 102.703 69.101 103.057C69.1517 103.383 69.2697 103.695 69.4475 103.973C69.8355 104.551 70.2876 105.083 70.795 105.559C71.3149 106.05 71.7867 106.589 72.2041 107.169C71.7036 106.668 71.1569 106.221 70.6102 105.752C70.0387 105.303 69.5377 104.771 69.1241 104.173C68.9121 103.851 68.7752 103.485 68.7237 103.103C68.6758 102.745 68.6475 102.386 68.639 102.025C68.6013 101.298 68.7358 100.573 69.0317 99.9075Z" fill="#263238"/>
<path d="M79.0404 112.628C79.6913 115.248 80.1163 117.92 80.3109 120.613C80.4572 122.492 80.1184 129.268 78.0009 129.144C75.8834 129.021 79.0481 124.478 79.4485 120.89C79.8489 117.302 78.7401 114.73 78.4937 112.628H79.0404Z" fill="#263238"/>
<path d="M74.2501 111.989C73.3235 114.397 72.6072 116.88 72.1095 119.412C71.7476 121.175 71.2701 127.651 73.2798 127.781C75.2895 127.912 72.8333 123.231 72.8795 119.773C72.9257 116.316 74.2731 114.037 74.7582 112.073L74.2501 111.989Z" fill="#263238"/>
<path d="M54.0982 160.299C48.1153 159.529 50.3483 148.14 53.6747 145.553C61.4825 139.478 69.6753 133.641 78.4918 132.147C81.3254 131.662 91.2815 142.85 87.7318 146.539C82.0569 152.46 63.908 161.592 54.0982 160.299Z" fill="#F7A9A0"/>
<path d="M71.2083 142.204C70.5915 137.735 70.853 133.189 71.9783 128.821C72.7483 125.741 75.6974 120.621 77.1142 118.811C79.224 116.093 89.7961 106.06 92.2832 108.57C94.5393 110.88 84.3599 118.311 84.3599 118.311C84.3599 118.311 93.9618 109.841 96.1717 113.105C98.3816 116.37 85.7536 123.246 85.7536 123.246C85.7536 123.246 95.8175 114.776 97.5654 118.495C98.8898 121.283 87.8095 128.182 87.8095 128.182C87.8095 128.182 96.5105 120.982 97.9889 123.793C99.629 126.873 89.8038 133.911 89.8038 133.911C90.7432 138.053 90.8356 144.313 87.7479 146.546C87.0087 147.07 71.2083 142.204 71.2083 142.204Z" fill="#F7A9A0"/>
<path d="M80.8516 121.006C81.945 119.974 83.0461 118.927 84.2242 117.995C85.4023 117.063 86.6189 116.17 87.8817 115.354C89.5091 114.25 91.2582 113.338 93.0946 112.636C89.9222 114.122 85.6487 117.394 84.4706 118.326C83.2925 119.258 82.0682 120.128 80.8824 121.052C80.8516 121.075 80.8516 121.029 80.8516 121.006Z" fill="#263238"/>
<path d="M84.1385 125.333C85.5861 124.07 86.9875 122.769 88.489 121.575C89.9905 120.382 91.5228 119.396 93.109 118.311C93.2245 118.226 93.2322 118.311 93.109 118.411C91.569 119.55 90.2446 120.721 88.72 121.891C87.1954 123.061 85.64 124.155 84.1616 125.364C84.1385 125.387 84.1154 125.348 84.1385 125.333Z" fill="#263238"/>
<path d="M86.2876 129.545C88.4833 127.514 90.8771 125.708 93.4332 124.155C93.5564 124.078 93.5487 124.201 93.4332 124.286C91.0385 125.98 89.1135 127.458 86.3723 129.629C86.3184 129.653 86.2414 129.591 86.2876 129.545Z" fill="#263238"/>
<path d="M88.7344 115.146C89.3403 114.651 89.9754 114.194 90.6363 113.775C91.2921 113.34 91.9822 112.959 92.6999 112.636C93.4242 112.251 94.2541 112.113 95.0638 112.243C95.4731 112.332 95.8429 112.551 96.1187 112.867C96.3721 113.186 96.4884 113.593 96.4421 113.998C96.4105 113.625 96.2505 113.275 95.9893 113.007C95.7281 112.738 95.3819 112.569 95.0099 112.528C94.263 112.477 93.5167 112.634 92.8539 112.982C91.4525 113.613 90.0896 114.414 88.7344 115.146Z" fill="#263238"/>
<path d="M69.8021 134.226L83.8469 152.599C83.8469 152.599 57.613 163.24 52.8467 160.16C49.3817 157.919 48.9967 152.144 52.0767 147.147C54.225 143.697 69.8021 134.226 69.8021 134.226Z" fill="#455A64"/>
<path d="M76.5858 151.836C76.247 151.323 75.9005 150.81 75.5463 150.296C74.8379 149.27 74.1244 148.243 73.4057 147.216C71.9812 145.16 70.4874 143.143 68.9705 141.149C68.1158 140.017 67.2919 138.839 66.3756 137.745C66.3294 137.691 66.2447 137.745 66.2832 137.807C66.93 138.885 67.6692 139.909 68.3699 140.956C69.0706 142.003 69.7559 143.058 70.4797 144.09C71.9119 146.143 73.3775 148.174 74.8764 150.181C75.2922 150.743 75.6926 151.328 76.1392 151.875C76.3702 152.152 76.5704 152.452 76.8091 152.729C77.0478 153.007 77.3019 153.261 77.5252 153.546C77.5252 153.546 77.6022 153.546 77.5791 153.546C77.2403 152.937 76.94 152.375 76.5858 151.836Z" fill="#263238"/>
<path d="M70.2228 134.75L69.7608 134.234H69.8224L66.034 136.775L62.2302 139.293C59.6969 140.964 57.179 142.65 54.7227 144.452C55.8188 143.389 56.9785 142.394 58.1954 141.472C59.3966 140.533 60.6517 139.663 61.9145 138.808C63.1773 137.953 64.4709 137.152 65.7645 136.375C67.0581 135.597 68.3979 134.835 69.7608 134.149V134.188L70.2228 134.75Z" fill="#263238"/>
<path d="M55.1484 142.966C55.3392 142.721 55.5775 142.516 55.8491 142.365C56.1105 142.208 56.3864 142.077 56.673 141.973C56.9533 141.863 57.2417 141.776 57.5354 141.711C57.834 141.643 58.1381 141.602 58.444 141.588C57.92 141.89 57.3714 142.148 56.8039 142.358L55.98 142.666C55.6971 142.749 55.4195 142.85 55.1484 142.966Z" fill="#263238"/>
<path d="M38.6769 348.248C40.4556 348.802 90.9676 347.601 92.8541 346.331C93.6241 345.861 93.8397 338.492 93.8859 329.575V329.298C93.8859 327.466 92.7001 296.666 92.7001 296.666L59.6825 297.359L61.2918 329.699V330.245C61.2918 330.245 42.165 339.354 40.2323 340.971C38.2996 342.588 36.8982 347.709 38.6769 348.248Z" fill="#F7A9A0"/>
<path d="M93.8479 334.011C93.7401 340.825 93.4629 345.946 92.8546 346.331C90.9604 347.601 40.4561 348.802 38.6774 348.248C36.8987 347.694 38.3309 342.596 40.2559 340.987C41.434 340.001 48.9954 336.236 54.7319 333.441C50.8819 335.535 44.7681 341.141 66.8132 338.384C80.4114 336.675 89.0123 335.058 93.8479 334.011Z" fill="#263238"/>
<path d="M54.7305 333.41C54.7305 333.41 65.4335 329.745 74.6273 337.306L54.7305 333.41Z" fill="#263238"/>
<path d="M111.375 152.144C111.375 152.144 94.1034 238.862 92.8945 245.26C92.6943 246.292 97.245 281.058 97.5145 300.416C97.636 305.088 96.3685 309.692 93.8724 313.644L59.6382 315.184C59.6382 315.184 55.8883 310.11 55.7882 304.897C55.5264 288.157 58.8143 253.499 59.9924 243.751C61.5324 230.954 81.0981 152.121 81.0981 152.121L111.375 152.144Z" fill="#263238"/>
<path d="M92.0073 307.292C86.5403 307.369 88.1111 307.292 82.6518 307.399C79.9799 307.469 62.4239 307.908 59.9445 308.408C59.9302 308.408 59.9165 308.414 59.9064 308.424C59.8963 308.434 59.8906 308.448 59.8906 308.462C59.8906 308.476 59.8963 308.49 59.9064 308.5C59.9165 308.51 59.9302 308.516 59.9445 308.516C62.4547 308.847 80.003 308.1 82.6672 307.985C88.1265 307.746 86.5172 307.754 92.0073 307.453C92.0246 307.448 92.0396 307.437 92.0503 307.423C92.061 307.408 92.0668 307.391 92.0668 307.372C92.0668 307.354 92.061 307.337 92.0503 307.322C92.0396 307.308 92.0246 307.297 92.0073 307.292Z" fill="#37474F"/>
<path d="M88.419 245.522C88.7963 240.748 89.8897 236.02 90.7906 231.323C91.7043 226.503 92.6181 221.686 93.5318 216.87C95.3413 207.33 97.12 197.79 98.9218 188.25C100.993 177.47 103.942 166.936 106.121 156.179C106.175 155.933 106.537 156.048 106.499 156.295C103.118 175.421 98.6292 194.263 95.0102 213.352C94.0965 218.172 93.1827 222.989 92.269 227.804C91.3835 232.501 90.3825 237.191 89.6202 241.911C89.2085 244.36 89.0306 246.843 89.0889 249.326C89.1505 251.636 89.3969 253.984 89.6048 256.318C90.0514 261.199 90.5057 266.089 90.9292 270.948C91.3963 276.322 91.8609 281.697 92.3229 287.071C92.7849 292.538 93.3008 298.013 93.5703 303.488C93.5703 303.557 93.4548 303.572 93.4471 303.488C92.1612 293.847 91.3989 284.115 90.4826 274.428C90.0206 269.546 89.5663 264.67 89.1197 259.798C88.7116 255.086 88.034 250.25 88.419 245.522Z" fill="#37474F"/>
<path d="M84.6992 152.144L95.4792 232.109C100.615 206.214 111.38 152.144 111.38 152.144H84.6992Z" fill="#37474F"/>
<path d="M97.9669 352.267C99.7995 352.598 149.796 345.337 151.52 343.797C152.19 343.243 151.52 335.897 150.527 327.042L150.489 326.765C150.281 324.94 145.368 294.517 145.368 294.517L112.682 299.191L118.179 331.1L118.272 331.647C118.272 331.647 100.385 342.997 98.6599 344.837C96.9351 346.677 96.142 351.944 97.9669 352.267Z" fill="#F7A9A0"/>
<path d="M151.019 331.462C151.735 338.246 152.081 343.358 151.519 343.782C149.795 345.268 99.7984 352.56 97.9658 352.252C96.1332 351.944 96.9494 346.677 98.6588 344.845C99.7137 343.736 106.759 339.077 112.118 335.605C108.515 338.146 103.163 344.452 124.708 339.046C138.006 335.72 146.345 333.094 151.019 331.462Z" fill="#263238"/>
<path d="M112.121 335.628C112.121 335.628 122.308 330.7 132.349 337.091L112.121 335.628Z" fill="#263238"/>
<path d="M115.501 318.187L148.749 314.491C148.749 314.491 151.991 305.759 149.997 297.459C145.785 279.957 133.827 253.053 132.956 249.973C131.647 245.268 128.745 207.376 125.926 183.953C125.926 183.953 131.278 171.271 121.26 152.121H81.0508C81.0508 152.121 83.7381 170.347 88.3504 181.905C88.3504 181.905 87.4957 181.25 92.9165 184.215C92.9165 184.215 96.2429 243.728 98.6761 254.993C100.678 264.295 104.182 294.102 108.332 309.163C109.795 314.522 115.501 318.187 115.501 318.187Z" fill="#263238"/>
<path d="M146.475 307.176C141.031 307.677 142.625 307.453 137.158 308.023C134.502 308.3 117.031 310.133 114.597 310.826C114.543 310.826 114.559 310.934 114.597 310.934C117.123 311.065 134.556 308.924 137.205 308.624C142.595 307.954 141.055 308.085 146.445 307.353C146.591 307.315 146.575 307.161 146.475 307.176Z" fill="#37474F"/>
<path d="M86.8249 181.112C90.4451 182.43 93.9438 184.061 97.2815 185.986C97.3101 185.999 97.3323 186.023 97.3431 186.053C97.3539 186.082 97.3526 186.115 97.3393 186.144C97.326 186.172 97.3019 186.194 97.2723 186.205C97.2427 186.216 97.21 186.215 97.1814 186.201C93.6625 184.661 90.0666 183.237 86.6324 181.535C86.5763 181.51 86.5326 181.463 86.5109 181.405C86.4892 181.347 86.4914 181.283 86.5169 181.227C86.5425 181.171 86.5893 181.127 86.647 181.106C86.7048 181.084 86.7688 181.086 86.8249 181.112Z" fill="#37474F"/>
<path d="M85.6992 156.941C85.6992 156.818 85.9225 156.795 85.9225 156.941C85.9225 161.123 86.1612 164.803 86.5154 168.707C86.6771 170.524 88.1401 180.55 91.2817 179.818C91.813 179.695 92.0517 179.179 92.1672 178.386C92.1524 177.346 92.0102 176.311 91.7437 175.306C91.3972 173.204 91.1123 171.094 90.9352 168.977C90.5667 165.03 90.6106 161.056 91.0661 157.119C91.0661 157.092 91.0767 157.067 91.0954 157.048C91.1142 157.029 91.1397 157.018 91.1662 157.018C91.1928 157.018 91.2182 157.029 91.237 157.048C91.2558 157.067 91.2663 157.092 91.2663 157.119C91.172 162.594 91.4912 168.069 92.2211 173.496C92.6215 176.099 93.9305 180.026 91.2047 180.426C88.4789 180.827 86.6309 174.266 86.2921 172.465C85.4252 167.338 85.2259 162.12 85.6992 156.941Z" fill="#37474F"/>
<path d="M91.2076 180.072C91.4859 180.749 91.7199 181.444 91.9083 182.151C92.1141 182.697 92.216 183.277 92.2086 183.861C92.2042 183.885 92.1926 183.907 92.1755 183.924C92.1584 183.942 92.1364 183.954 92.1125 183.959C92.0886 183.964 92.0637 183.961 92.041 183.952C92.0184 183.943 91.999 183.927 91.9853 183.907C91.6595 183.392 91.4129 182.832 91.2538 182.244C91.0151 181.605 90.761 180.965 90.5454 180.319C90.5204 180.233 90.5287 180.141 90.5689 180.061C90.6091 179.981 90.678 179.919 90.7619 179.887C90.8458 179.856 90.9384 179.858 91.0211 179.892C91.1038 179.927 91.1705 179.991 91.2076 180.072Z" fill="#37474F"/>
<path d="M118.58 154.069C120.824 157.807 122.322 161.943 122.992 166.251C123.614 170.585 123.471 174.995 122.569 179.279C122.036 181.791 121.839 184.362 121.984 186.925C122.168 189.536 122.523 192.146 122.815 194.748C123.385 199.856 123.952 204.964 124.517 210.071C125.649 220.243 126.681 230.438 128.02 240.579C128.655 245.556 129.588 250.49 130.816 255.355C132.055 260.16 133.518 264.903 134.989 269.639C138.015 279.41 141.064 289.181 143.975 298.983C144.344 300.215 144.699 301.44 145.045 302.672C145.045 302.772 144.922 302.803 144.891 302.71C141.588 293.077 138.677 283.298 135.651 273.581C132.671 264.087 129.637 254.616 128.09 244.76C127.32 239.747 126.765 234.688 126.188 229.645L124.455 214.33C123.886 209.278 123.3 204.219 122.738 199.168C122.461 196.612 122.176 194.055 121.899 191.468C121.553 189.03 121.375 186.57 121.368 184.107C121.567 181.679 121.922 179.267 122.43 176.884C122.781 174.672 122.91 172.431 122.815 170.193C122.625 165.702 121.566 161.291 119.697 157.203C119.242 156.195 118.988 155.155 118.442 154.193C118.288 154 118.449 153.8 118.58 154.069Z" fill="#37474F"/>
<path d="M106.751 155.771C107.398 157.473 108.129 159.144 108.915 160.784C109.534 162.299 110.444 163.677 111.594 164.842C112.773 165.833 114.164 166.539 115.66 166.905C116.526 167.148 117.405 167.341 118.293 167.483C119.195 167.578 120.088 167.74 120.965 167.968C121 167.981 121.031 168.005 121.052 168.036C121.074 168.067 121.086 168.103 121.086 168.141C121.086 168.179 121.074 168.216 121.052 168.247C121.031 168.278 121 168.301 120.965 168.314C120.012 168.455 119.045 168.481 118.085 168.391C117.16 168.339 116.241 168.213 115.336 168.014C113.682 167.651 112.15 166.869 110.886 165.743C109.661 164.483 108.73 162.969 108.16 161.307C107.439 159.541 106.894 157.707 106.535 155.833C106.534 155.807 106.542 155.781 106.557 155.761C106.572 155.74 106.594 155.725 106.619 155.717C106.644 155.71 106.67 155.712 106.694 155.721C106.718 155.731 106.738 155.749 106.751 155.771Z" fill="#37474F"/>
<path d="M95.0954 256.564H280.796L273.959 128.197H88.2578L95.0954 256.564Z" fill="#E60000"/>
<path d="M207.639 114.907H273.251L273.959 128.197H204.574L207.639 114.907Z" fill="#E60000"/>
<g opacity="0.1">
<path d="M95.0954 256.564H280.796L273.959 128.197H88.2578L95.0954 256.564Z" fill="black"/>
<path d="M207.639 114.907H273.251L273.959 128.197H204.574L207.639 114.907Z" fill="black"/>
</g>
<path d="M303.456 167.929L224.269 250.827L117.848 149.18L176.645 87.626L217.316 85.6471L303.456 167.929Z" fill="#E60000"/>
<path opacity="0.6" d="M303.456 167.929L224.269 250.827L117.848 149.18L176.645 87.626L217.316 85.6471L303.456 167.929Z" fill="white"/>
<path d="M176.645 87.626L217.316 85.6471L196.926 106.991L176.645 87.626Z" fill="#E60000"/>
<path opacity="0.4" d="M176.645 87.626L217.316 85.6471L196.926 106.991L176.645 87.626Z" fill="white"/>
<path d="M146.162 160.74L190.191 114.65L187.458 112.038L143.428 158.128L146.162 160.74Z" fill="white"/>
<path d="M153.061 167.333L197.09 121.243L194.356 118.632L150.327 164.722L153.061 167.333Z" fill="white"/>
<path d="M159.951 173.921L203.98 127.831L201.247 125.22L157.217 171.31L159.951 173.921Z" fill="white"/>
<path d="M166.851 180.509L231.363 112.977L228.63 110.366L164.118 177.897L166.851 180.509Z" fill="white"/>
<path d="M173.754 187.097L238.266 119.565L235.532 116.954L171.02 184.485L173.754 187.097Z" fill="white"/>
<path d="M180.656 193.685L245.168 126.153L242.434 123.542L177.922 191.073L180.656 193.685Z" fill="white"/>
<path d="M187.547 200.273L252.059 132.741L249.325 130.13L184.813 197.661L187.547 200.273Z" fill="white"/>
<path d="M194.441 206.861L258.953 139.329L256.219 136.718L191.707 204.249L194.441 206.861Z" fill="white"/>
<path d="M201.34 213.454L265.852 145.923L263.118 143.311L198.606 210.843L201.34 213.454Z" fill="white"/>
<path d="M208.242 220.037L272.754 152.505L270.02 149.894L205.508 217.425L208.242 220.037Z" fill="white"/>
<path d="M215.136 226.625L279.648 159.093L276.915 156.482L212.403 224.013L215.136 226.625Z" fill="white"/>
<path d="M222.035 233.211L286.547 165.679L283.813 163.068L219.301 230.599L222.035 233.211Z" fill="white"/>
<path d="M98.4307 196.743L211.813 183.368L202.789 107.554L89.4062 120.921L98.4307 196.743Z" fill="#EBEBEB"/>
<path d="M102.58 191.468L206.545 179.202L198.637 112.828L94.6641 125.087L102.58 191.468Z" fill="white"/>
<path d="M106.559 144.668C106.822 146.903 107.742 149.011 109.202 150.724C110.662 152.438 112.597 153.68 114.763 154.294C116.928 154.908 119.228 154.867 121.37 154.175C123.512 153.483 125.401 152.172 126.798 150.407C128.196 148.642 129.039 146.503 129.221 144.259C129.403 142.015 128.916 139.768 127.821 137.801C126.726 135.833 125.073 134.235 123.071 133.207C121.068 132.179 118.806 131.767 116.569 132.024C115.081 132.194 113.64 132.657 112.331 133.385C111.021 134.113 109.868 135.092 108.938 136.267C108.008 137.442 107.319 138.788 106.911 140.23C106.503 141.672 106.383 143.18 106.559 144.668Z" fill="#DBDBDB"/>
<path d="M134.875 187.765L206.493 179.318L164.959 135.004L134.875 187.765Z" fill="#EBEBEB"/>
<path d="M106.809 191.099L165.929 184.122L132.642 156.002L106.809 191.099Z" fill="#DBDBDB"/>
<path d="M95.2344 256.564H280.943L295.265 135.736H109.556L95.2344 256.564Z" fill="#E60000"/>
<path d="M231.13 123.223H296.742L295.264 135.736H225.879L231.13 123.223Z" fill="#E60000"/>
<path d="M192.501 207.061C190.342 207.062 188.232 206.424 186.437 205.226C184.641 204.028 183.242 202.324 182.415 200.331C181.588 198.337 181.371 196.143 181.791 194.026C182.211 191.909 183.249 189.964 184.775 188.437C186.301 186.911 188.245 185.871 190.361 185.449C192.478 185.027 194.672 185.243 196.667 186.069C198.661 186.894 200.365 188.293 201.564 190.087C202.764 191.882 203.404 193.992 203.404 196.15C203.402 199.042 202.253 201.814 200.209 203.86C198.164 205.906 195.392 207.057 192.501 207.061ZM192.501 188.327C190.951 188.325 189.436 188.783 188.147 189.643C186.858 190.503 185.853 191.726 185.26 193.157C184.666 194.588 184.51 196.164 184.812 197.683C185.114 199.203 185.86 200.599 186.956 201.695C188.051 202.79 189.447 203.536 190.967 203.838C192.487 204.14 194.062 203.984 195.493 203.391C196.924 202.797 198.147 201.792 199.007 200.503C199.867 199.214 200.325 197.699 200.324 196.15C200.322 194.076 199.497 192.087 198.03 190.62C196.564 189.154 194.575 188.329 192.501 188.327Z" fill="white"/>
<path d="M192.709 211.319C182.769 211.319 173.028 206.583 163.726 197.243L162.648 196.157L163.726 195.072C173.521 185.223 183.808 180.496 194.295 181.027C210.373 181.843 220.937 194.641 221.376 195.187L222.146 196.157L221.376 197.128C220.937 197.667 210.373 210.464 194.295 211.273C193.772 211.303 193.271 211.319 192.709 211.319ZM167.014 196.157C175.823 204.627 184.948 208.67 194.141 208.2C206.384 207.584 215.378 199.076 218.119 196.157C215.37 193.27 206.361 184.708 194.118 184.107C184.925 183.653 175.815 187.703 167.014 196.157Z" fill="white"/>
<path d="M212.883 173.596L169.93 216.549L172.108 218.727L215.061 175.774L212.883 173.596Z" fill="white"/>
</svg>
