<svg width="20" height="20" viewBox="0 0 20 20" fill="none" xmlns="http://www.w3.org/2000/svg">
<path d="M5.56103 17.5C5.18603 17.5 4.8632 17.3612 4.59253 17.0835C4.32153 16.8055 4.18603 16.479 4.18603 16.104V4.5835H3.33203V3.1875H7.33203V2.5H12.665V3.1875H16.665V4.5835H15.811V16.104C15.811 16.479 15.6755 16.8055 15.4045 17.0835C15.1339 17.3612 14.811 17.5 14.436 17.5H5.56103ZM14.436 4.5835H5.56103V16.104H14.436V4.5835ZM7.60253 14.354H8.97753V6.3125H7.60253V14.354ZM11.0195 14.354H12.3945V6.3125H11.0195V14.354ZM5.56103 4.5835V16.104V4.5835Z" fill="black"/>
</svg>
