<svg width="266" height="210" viewBox="0 0 266 210" fill="none" xmlns="http://www.w3.org/2000/svg">
<g clip-path="url(#clip0_207_1847)">
<path d="M48.4984 24.7409C47.9986 24.7961 47.517 24.9601 47.0874 25.2216C46.6579 25.483 46.2909 25.8354 46.0124 26.254C45.7338 26.6726 45.5504 27.1472 45.475 27.6443C45.3997 28.1415 45.4343 28.6491 45.5764 29.1314L35.6318 36.2376L41.5595 38.5188L50.0943 31.4209C50.8887 31.1285 51.5483 30.5548 51.9481 29.8086C52.3479 29.0624 52.4601 28.1955 52.2633 27.3721C52.0666 26.5487 51.5747 25.8261 50.8808 25.3411C50.1869 24.8562 49.3392 24.6426 48.4984 24.7409L48.4984 24.7409Z" fill="#FFB8B8"/>
<path d="M47.5733 35.4447L35.2381 47.8562C33.5476 49.5462 31.3184 50.5906 28.938 50.8078L13.6957 52.1985C13.1369 52.2518 12.5731 52.1926 12.0376 52.0243C11.5021 51.856 11.0058 51.5821 10.5779 51.2187C9.98599 50.7233 9.54584 50.071 9.30801 49.3366C9.07018 48.6023 9.04432 47.8158 9.2334 47.0674C9.42248 46.3191 9.81883 45.6392 10.3769 45.106C10.935 44.5727 11.6322 44.2077 12.3884 44.0529L27.9601 40.7373L42.1369 30.2871C42.334 30.1761 42.5567 30.1187 42.7828 30.1204C43.009 30.1221 43.2308 30.1828 43.4262 30.2967L47.2815 33.4549C47.5135 33.582 47.6998 33.7786 47.8144 34.017C47.929 34.2554 47.966 34.5237 47.9204 34.7842C47.8754 35.0348 47.7542 35.2655 47.5733 35.4447Z" fill="#2F2E41"/>
<path d="M195.466 42.1148C195.558 41.2675 195.386 40.4125 194.975 39.666C194.564 38.9195 193.933 38.3177 193.168 37.9423L116.401 0.42199C115.913 0.183155 115.382 0.0428114 114.84 0.00897504C114.298 -0.0248613 113.754 0.0484698 113.24 0.224783C112.726 0.401096 112.251 0.676939 111.844 1.03656C111.436 1.39618 111.104 1.83253 110.865 2.32071L110.863 2.32359L82.0709 61.2336C81.5903 62.2204 81.5206 63.3574 81.8771 64.3954C82.2336 65.4334 82.9871 66.2878 83.9725 66.7711L160.739 104.291C161.726 104.772 162.863 104.842 163.901 104.485C164.939 104.129 165.794 103.375 166.277 102.39L195.07 43.4798C195.28 43.0513 195.414 42.5894 195.466 42.1148Z" fill="#F2F2F2"/>
<path d="M150.493 172.866H50.8834C49.6293 172.865 48.427 172.366 47.5403 171.479C46.6535 170.592 46.1547 169.39 46.1533 168.136V32.9123C46.1547 31.6582 46.6535 30.4559 47.5403 29.5692C48.427 28.6824 49.6293 28.1836 50.8834 28.1822H150.493C151.747 28.1836 152.949 28.6824 153.836 29.5692C154.722 30.4559 155.221 31.6582 155.223 32.9123V168.136C155.221 169.39 154.722 170.592 153.836 171.479C152.949 172.366 151.747 172.865 150.493 172.866Z" fill="white"/>
<path d="M77.3034 68.5046C80.8925 68.5046 83.802 65.5951 83.802 62.0059C83.802 58.4168 80.8925 55.5073 77.3034 55.5073C73.7142 55.5073 70.8047 58.4168 70.8047 62.0059C70.8047 65.5951 73.7142 68.5046 77.3034 68.5046Z" fill="#E6E6E6"/>
<path d="M67.3984 79.7676C68.3167 80.2896 69.2778 80.7325 70.2712 81.0915L70.4467 81.1523C72.4476 81.8548 74.5533 82.2125 76.674 82.21C77.1007 82.21 77.5117 82.1951 77.8957 82.166C78.8302 82.1088 79.759 81.9807 80.6741 81.7829C81.1763 81.6732 81.6769 81.5419 82.1613 81.3933C82.2785 81.3587 82.3869 81.3248 82.5057 81.2876C84.4798 80.6475 86.3348 79.6863 87.996 78.4426C87.8627 78.1904 87.7167 77.9451 87.5586 77.7076C86.7044 76.4024 85.5382 75.3309 84.1656 74.59C82.793 73.8491 81.2573 73.4621 79.6975 73.4642H76.2772C74.4731 73.4645 72.7071 73.9834 71.1896 74.9589C69.672 75.9345 68.4669 77.3257 67.7176 78.9668C67.5978 79.2282 67.4913 79.4955 67.3984 79.7676Z" fill="#E6E6E6"/>
<path d="M79.5083 81.6212C79.29 81.6373 79.0799 81.711 78.8994 81.8348C79.8164 81.7777 80.7278 81.6512 81.6257 81.4564L79.5083 81.6212Z" fill="#2F2E41"/>
<path d="M77.6969 44.3706C73.5114 44.371 69.4431 45.7531 66.1234 48.3023C62.8038 50.8515 60.4185 54.4253 59.3378 58.4689C58.2571 62.5125 58.5415 66.7997 60.1467 70.6652C61.752 74.5306 64.5884 77.7581 68.2156 79.8465C69.1785 80.4041 70.1892 80.8746 71.2358 81.2523L71.4137 81.3139C73.4326 82.0227 75.5572 82.3835 77.6969 82.381C78.1108 82.381 78.5246 82.3674 78.9316 82.3366C79.8738 82.2787 80.8102 82.1494 81.7329 81.9501C82.2494 81.8372 82.7556 81.7038 83.2345 81.5567C83.3507 81.5225 83.4601 81.4883 83.5798 81.4507C87.8816 80.0495 91.5425 77.1599 93.9045 73.3012C96.2664 69.4426 97.1746 64.8679 96.4657 60.3996C95.7568 55.9313 93.4773 51.8624 90.0369 48.9243C86.5966 45.9861 82.2211 44.3715 77.6969 44.3706L77.6969 44.3706ZM88.724 77.613C87.0844 78.8783 85.2389 79.8514 83.2687 80.4896C83.1626 80.5238 83.0531 80.558 82.9437 80.5922C82.4887 80.7324 82.0099 80.8555 81.5174 80.9616C80.6445 81.1521 79.7584 81.2756 78.8666 81.331C78.4802 81.3583 78.0867 81.372 77.6969 81.372C75.6715 81.3732 73.6605 81.0321 71.7489 80.363L71.5814 80.3048C70.5403 79.9307 69.5371 79.4589 68.585 78.8957C65.2692 76.9436 62.667 73.9794 61.1607 70.4387C59.6544 66.898 59.3235 62.9676 60.2166 59.2249C61.1096 55.4822 63.1797 52.1247 66.1224 49.6456C69.0651 47.1666 72.7254 45.6968 76.5654 45.4523C80.4054 45.2077 84.2226 46.2012 87.456 48.2869C90.6895 50.3726 93.1687 53.4404 94.5294 57.0395C95.8901 60.6387 96.0605 64.5794 95.0155 68.2825C93.9706 71.9857 91.7654 75.256 88.724 77.613V77.613Z" fill="#CCCCCC"/>
<path d="M150.493 172.866H50.8834C49.6293 172.865 48.427 172.366 47.5403 171.479C46.6535 170.592 46.1547 169.39 46.1533 168.136V32.9123C46.1547 31.6582 46.6535 30.4559 47.5403 29.5692C48.427 28.6824 49.6293 28.1836 50.8834 28.1822H150.493C151.747 28.1836 152.949 28.6824 153.836 29.5692C154.722 30.4559 155.221 31.6582 155.223 32.9123V168.136C155.221 169.39 154.722 170.592 153.836 171.479C152.949 172.366 151.747 172.865 150.493 172.866ZM50.8834 28.7387C49.7769 28.7399 48.716 29.1801 47.9336 29.9625C47.1512 30.7449 46.711 31.8058 46.7098 32.9123V168.136C46.711 169.242 47.1512 170.303 47.9336 171.086C48.716 171.868 49.7769 172.308 50.8834 172.309H150.493C151.599 172.308 152.66 171.868 153.442 171.086C154.225 170.303 154.665 169.242 154.666 168.136V32.9123C154.665 31.8058 154.225 30.7449 153.442 29.9625C152.66 29.1801 151.599 28.74 150.493 28.7387L50.8834 28.7387Z" fill="#CCCCCC"/>
<path d="M131.209 63.3025H103.023C102.431 63.3025 101.864 63.0676 101.446 62.6494C101.028 62.2312 100.793 61.6641 100.793 61.0727C100.793 60.4813 101.028 59.9141 101.446 59.4959C101.864 59.0778 102.431 58.8428 103.023 58.8428H131.209C131.8 58.8428 132.367 59.0778 132.785 59.4959C133.204 59.9141 133.439 60.4813 133.439 61.0727C133.439 61.6641 133.204 62.2312 132.785 62.6494C132.367 63.0676 131.8 63.3025 131.209 63.3025Z" fill="#E6E6E6"/>
<path d="M140.407 70.8282H103.023C102.431 70.8282 101.864 70.5933 101.446 70.1751C101.028 69.7569 100.793 69.1898 100.793 68.5984C100.793 68.007 101.028 67.4398 101.446 67.0217C101.864 66.6035 102.431 66.3686 103.023 66.3686H140.407C140.998 66.3686 141.565 66.6035 141.984 67.0217C142.402 67.4398 142.637 68.007 142.637 68.5984C142.637 69.1898 142.402 69.7569 141.984 70.1751C141.565 70.5933 140.998 70.8282 140.407 70.8282Z" fill="#E6E6E6"/>
<path d="M131.168 99.6923H60.9681C60.3767 99.6923 59.8096 99.4574 59.3914 99.0392C58.9732 98.621 58.7383 98.0539 58.7383 97.4625C58.7383 96.8711 58.9732 96.3039 59.3914 95.8858C59.8096 95.4676 60.3767 95.2327 60.9681 95.2327H131.168C131.759 95.2327 132.327 95.4676 132.745 95.8858C133.163 96.3039 133.398 96.8711 133.398 97.4625C133.398 98.0539 133.163 98.621 132.745 99.0392C132.327 99.4574 131.759 99.6923 131.168 99.6923Z" fill="#E6E6E6"/>
<path d="M140.366 107.218H60.9681C60.3767 107.218 59.8096 106.983 59.3914 106.565C58.9732 106.147 58.7383 105.579 58.7383 104.988C58.7383 104.397 58.9732 103.83 59.3914 103.411C59.8096 102.993 60.3767 102.758 60.9681 102.758H140.366C140.957 102.758 141.525 102.993 141.943 103.411C142.361 103.83 142.596 104.397 142.596 104.988C142.596 105.579 142.361 106.147 141.943 106.565C141.525 106.983 140.957 107.218 140.366 107.218Z" fill="#E6E6E6"/>
<path d="M131.168 124.515H60.9681C60.3767 124.515 59.8096 124.28 59.3914 123.862C58.9732 123.443 58.7383 122.876 58.7383 122.285C58.7383 121.694 58.9732 121.126 59.3914 120.708C59.8096 120.29 60.3767 120.055 60.9681 120.055H131.168C131.759 120.055 132.327 120.29 132.745 120.708C133.163 121.126 133.398 121.694 133.398 122.285C133.398 122.876 133.163 123.443 132.745 123.862C132.327 124.28 131.759 124.515 131.168 124.515Z" fill="#E6E6E6"/>
<path d="M140.366 132.04H60.9681C60.3767 132.04 59.8096 131.806 59.3914 131.387C58.9732 130.969 58.7383 130.402 58.7383 129.811C58.7383 129.219 58.9732 128.652 59.3914 128.234C59.8096 127.816 60.3767 127.581 60.9681 127.581H140.366C140.957 127.581 141.525 127.816 141.943 128.234C142.361 128.652 142.596 129.219 142.596 129.811C142.596 130.402 142.361 130.969 141.943 131.387C141.525 131.806 140.957 132.04 140.366 132.04Z" fill="#E6E6E6"/>
<path d="M131.168 149.337H60.9681C60.3767 149.337 59.8096 149.102 59.3914 148.684C58.9732 148.266 58.7383 147.699 58.7383 147.108C58.7383 146.516 58.9732 145.949 59.3914 145.531C59.8096 145.113 60.3767 144.878 60.9681 144.878H131.168C131.759 144.878 132.327 145.113 132.745 145.531C133.163 145.949 133.398 146.516 133.398 147.108C133.398 147.699 133.163 148.266 132.745 148.684C132.327 149.102 131.759 149.337 131.168 149.337Z" fill="#E6E6E6"/>
<path d="M140.366 156.863H60.9681C60.3767 156.863 59.8096 156.628 59.3914 156.21C58.9732 155.792 58.7383 155.225 58.7383 154.633C58.7383 154.042 58.9732 153.475 59.3914 153.057C59.8096 152.638 60.3767 152.403 60.9681 152.403H140.366C140.957 152.404 141.523 152.639 141.941 153.058C142.359 153.476 142.593 154.042 142.593 154.633C142.593 155.224 142.359 155.791 141.941 156.209C141.523 156.627 140.957 156.862 140.366 156.863Z" fill="#E6E6E6"/>
<path d="M192.045 80.7648C192.137 79.9175 191.965 79.0625 191.554 78.316C191.143 77.5695 190.512 76.9676 189.747 76.5923L112.98 39.072C112.492 38.8331 111.961 38.6928 111.419 38.6589C110.877 38.6251 110.333 38.6984 109.819 38.8747C109.305 39.0511 108.83 39.3269 108.423 39.6865C108.015 40.0461 107.683 40.4825 107.444 40.9707L107.443 40.9736L78.65 99.8836C78.1694 100.87 78.0997 102.007 78.4562 103.045C78.8127 104.083 79.5662 104.938 80.5516 105.421L157.319 142.941C158.305 143.422 159.442 143.492 160.48 143.135C161.518 142.779 162.373 142.025 162.856 141.04L191.649 82.1298C191.859 81.7012 191.993 81.2393 192.045 80.7648Z" fill="white"/>
<path d="M192.045 80.7648C192.137 79.9175 191.965 79.0625 191.554 78.316C191.143 77.5695 190.512 76.9676 189.747 76.5923L112.98 39.072C112.492 38.8331 111.961 38.6928 111.419 38.6589C110.877 38.6251 110.333 38.6984 109.819 38.8747C109.305 39.0511 108.83 39.3269 108.423 39.6865C108.015 40.0461 107.683 40.4825 107.444 40.9707L107.443 40.9736L78.65 99.8836C78.1694 100.87 78.0997 102.007 78.4562 103.045C78.8127 104.083 79.5662 104.938 80.5516 105.421L157.319 142.941C158.305 143.422 159.442 143.492 160.48 143.135C161.518 142.779 162.373 142.025 162.856 141.04L191.649 82.1298C191.859 81.7012 191.993 81.2393 192.045 80.7648ZM162.419 140.826C161.992 141.696 161.238 142.361 160.322 142.675C159.406 142.99 158.403 142.928 157.532 142.504L80.7655 104.984C79.8959 104.557 79.2309 103.803 78.9163 102.887C78.6018 101.971 78.6634 100.968 79.0876 100.097L107.88 41.1874C108.307 40.3179 109.06 39.6528 109.976 39.3383C110.892 39.0238 111.896 39.0853 112.766 39.5095L189.533 77.0299C190.403 77.4562 191.068 78.21 191.382 79.126C191.697 80.042 191.635 81.0453 191.211 81.9159L162.419 140.826Z" fill="#3F3D56"/>
<path d="M183.671 83.4434L163.566 124.578C163.432 124.853 163.195 125.063 162.906 125.163C162.617 125.262 162.3 125.242 162.025 125.108H162.025L92.1953 90.9785C92.1454 90.9546 92.0976 90.9264 92.0525 90.8944C91.8235 90.7385 91.6583 90.5054 91.5873 90.2376C91.5163 89.9699 91.5442 89.6856 91.6658 89.4367L111.771 48.3016C111.837 48.1657 111.93 48.0441 112.043 47.9439C112.156 47.8437 112.288 47.7668 112.432 47.7176C112.575 47.6684 112.726 47.6478 112.877 47.6572C113.028 47.6665 113.176 47.7054 113.312 47.7718L183.142 81.9016C183.417 82.0357 183.627 82.2734 183.726 82.5625C183.825 82.8515 183.806 83.1681 183.672 83.4427V83.4428L183.671 83.4434Z" fill="#E6E6E6"/>
<path d="M122.366 81.3545C127.951 81.3545 132.479 76.8268 132.479 71.2416C132.479 65.6564 127.951 61.1288 122.366 61.1288C116.781 61.1288 112.253 65.6564 112.253 71.2416C112.253 76.8268 116.781 81.3545 122.366 81.3545Z" fill="#E60000"/>
<path d="M137.173 113.166L92.6015 91.3811C92.5453 91.3545 92.4917 91.3228 92.4414 91.2865L131.368 65.0753C131.608 64.9108 131.887 64.8129 132.177 64.7916C132.467 64.7703 132.758 64.8263 133.019 64.954C133.28 65.0817 133.503 65.2765 133.665 65.5184C133.826 65.7604 133.92 66.0408 133.938 66.3311L136.109 97.7497L136.214 99.2535L137.173 113.166Z" fill="#3F3D56"/>
<path opacity="0.2" d="M137.174 113.166L121.956 105.728L134.73 98.5281L135.65 98.0095L136.109 97.7499L136.214 99.2535L137.174 113.166Z" fill="black"/>
<path d="M161.99 125.295L123.439 106.453L136.213 99.2536L137.133 98.7347L153.779 89.3515C154.87 88.7367 156.434 89.4293 156.788 90.6058C156.812 90.6856 156.83 90.7669 156.843 90.8491L161.99 125.295Z" fill="#3F3D56"/>
<path d="M43.043 128.886L47.236 128.886L49.2311 112.711L43.042 112.712L43.043 128.886Z" fill="#FFB8B8"/>
<path d="M41.9736 127.517L50.2317 127.517H50.232C50.9231 127.516 51.6075 127.653 52.246 127.917C52.8845 128.182 53.4646 128.569 53.9533 129.058C54.442 129.547 54.8297 130.127 55.0941 130.765C55.3586 131.404 55.4947 132.088 55.4947 132.779V132.95L41.9739 132.951L41.9736 127.517Z" fill="#2F2E41"/>
<path d="M10.4492 126.216L14.7938 127.066L20.1391 110.713L13.7273 109.459L10.4492 126.216Z" fill="#FFB8B8"/>
<path d="M9.61878 124.581L18.1746 126.254L18.1749 126.254C18.891 126.394 19.5724 126.674 20.1803 127.078C20.7882 127.481 21.3107 128 21.718 128.606C22.1252 129.211 22.4092 129.891 22.5538 130.606C22.6984 131.321 22.7007 132.058 22.5606 132.774L22.5259 132.951L8.51758 130.21L9.61878 124.581Z" fill="#2F2E41"/>
<path d="M49.1437 73.0926C49.0017 72.6102 48.7557 72.1649 48.423 71.7879C48.0903 71.4109 47.679 71.1114 47.218 70.9105C46.757 70.7097 46.2576 70.6124 45.755 70.6254C45.2523 70.6385 44.7586 70.7616 44.3087 70.9861L35.5683 62.4423L34.3623 68.6782L42.8473 75.8355C43.2745 76.5664 43.9549 77.1151 44.7597 77.3778C45.5645 77.6405 46.4377 77.5988 47.2138 77.2607C47.9899 76.9226 48.6151 76.3116 48.9707 75.5434C49.3264 74.7752 49.388 73.9032 49.1437 73.0926Z" fill="#FFB8B8"/>
<path d="M16.7152 29.1163C21.3548 29.1163 25.1159 25.3552 25.1159 20.7156C25.1159 16.076 21.3548 12.3148 16.7152 12.3148C12.0756 12.3148 8.31445 16.076 8.31445 20.7156C8.31445 25.3552 12.0756 29.1163 16.7152 29.1163Z" fill="#FFB8B8"/>
<path d="M14.9517 29.2451C15.398 29.4404 16.3121 25.8838 15.9026 25.1724C15.2937 24.1145 15.3297 24.1221 14.9255 23.4222C14.5213 22.7223 14.4308 21.7643 14.9543 21.1485C15.4777 20.5327 16.6891 20.6144 16.928 21.3865C16.7743 19.9199 18.2249 18.741 19.6619 18.4097C21.0988 18.0784 22.6145 18.2841 24.0593 17.9893C25.7361 17.6471 27.4808 16.2416 26.8117 14.3977C26.6969 14.0907 26.525 13.8082 26.3052 13.5651C25.5322 12.696 24.4509 12.3249 23.3938 11.9661C21.1945 11.2196 18.935 10.4638 16.6139 10.5462C14.7014 10.6462 12.8596 11.3015 11.3138 12.432C9.76802 13.5625 8.58529 15.119 7.91036 16.9112C7.75041 17.3596 7.62649 17.82 7.53979 18.288C6.74311 22.5718 9.2307 26.7972 13.271 28.4284L14.9517 29.2451Z" fill="#2F2E41"/>
<path d="M12.8889 75.3939C12.6746 75.2643 12.5029 75.0749 12.3948 74.8491C12.2868 74.6232 12.2472 74.3707 12.2808 74.1226L8.48998 55.3444L4.64743 40.9328H4.64751C4.22567 39.3536 4.35307 37.678 5.00883 36.1807C5.66458 34.6835 6.80974 33.4536 8.25643 32.6928L10.7967 30.2892L16.3385 32.6768L18.9719 35.3543C20.8606 36.274 22.536 37.5786 23.8904 39.1844C25.2449 40.7902 26.2483 42.6617 26.8363 44.6785L31.0599 59.1311L40.8139 73.6426C40.9767 73.8844 41.0529 74.1743 41.0299 74.4649C41.007 74.7556 40.8863 75.0299 40.6875 75.2432C39.3306 76.7029 12.8889 75.3939 12.8889 75.3939Z" fill="#2F2E41"/>
<path d="M38.444 74.0598L24.0612 64.093C22.1008 62.7251 20.6816 60.7138 20.0502 58.4083L16.0073 43.6463C15.8568 43.1056 15.8162 42.5401 15.888 41.9834C15.9597 41.4266 16.1423 40.89 16.425 40.405C16.8089 39.7354 17.3739 39.1876 18.0551 38.8246C18.7364 38.4617 19.5062 38.2983 20.2761 38.3531C21.046 38.408 21.7849 38.6789 22.4077 39.1348C23.0306 39.5907 23.5122 40.2131 23.7973 40.9304L29.793 55.679L42.5681 67.8029C42.7119 67.9775 42.8075 68.1866 42.8455 68.4096C42.8835 68.6325 42.8626 68.8615 42.7848 69.0739L40.3518 73.4235C40.2673 73.6741 40.1065 73.892 39.8919 74.0467C39.6773 74.2013 39.4197 74.2848 39.1552 74.2856C38.9005 74.2853 38.6522 74.2064 38.444 74.0598Z" fill="#2F2E41"/>
<path d="M8.56334 123.713C8.44575 123.544 8.37045 123.35 8.34381 123.146C8.31717 122.942 8.33997 122.735 8.41027 122.542L15.0641 98.3532L15.5559 74.6519L37.9546 73.1157L38.0633 73.1084L44.8097 85.3358C46.9219 89.1587 48.2149 93.3796 48.6064 97.7296L50.8296 122.093C50.8632 122.424 50.7656 122.755 50.5577 123.015C50.3498 123.275 50.0482 123.443 49.7178 123.483L42.9641 124.125C42.6387 124.165 42.3107 124.076 42.05 123.877C41.7894 123.678 41.6167 123.385 41.5689 123.061L38.8265 98.3035L28.9589 81.6309L25.6466 99.1836L18.7844 123.423C18.6947 123.665 18.5335 123.874 18.3222 124.022C18.1109 124.171 17.8596 124.251 17.6015 124.253L9.59786 124.256C9.39408 124.257 9.19318 124.208 9.01281 124.113C8.83243 124.019 8.67809 123.881 8.56334 123.713Z" fill="#2F2E41"/>
<path d="M180.07 203.267H11.2872C8.29467 203.263 5.42569 202.073 3.30967 199.957C1.19365 197.841 0.00338033 194.972 0 191.979V99.2878C0.00338033 96.2953 1.19365 93.4263 3.30967 91.3103C5.42569 89.1943 8.29467 88.004 11.2872 88.0006H31.9813C34.7891 87.9982 37.4966 89.0448 39.5728 90.9351L62.0142 106.96C63.4773 108.297 65.3881 109.038 67.3701 109.036H181.118C182.614 109.036 184.095 109.333 185.475 109.911C186.855 110.488 188.107 111.335 189.157 112.4C190.207 113.466 191.035 114.73 191.592 116.118C192.15 117.507 192.425 118.992 192.404 120.488L191.356 192.144C191.3 195.105 190.088 197.927 187.979 200.005C185.87 202.084 183.031 203.254 180.07 203.267Z" fill="white"/>
<path d="M178.57 197.794H12.2858C10.8422 197.793 9.45821 197.218 8.43743 196.198C7.41664 195.177 6.84245 193.793 6.84082 192.349V98.1419C6.84246 96.6983 7.41665 95.3142 8.43743 94.2935C9.45822 93.2727 10.8422 92.6985 12.2858 92.6968C13.5627 92.6983 14.7868 93.2061 15.6897 94.109C16.5926 95.0119 17.1005 96.236 17.1019 97.5129V185.85C17.1034 187.203 17.6416 188.5 18.5982 189.457C19.5549 190.414 20.8519 190.952 22.2049 190.953H178.009C178.783 190.945 179.537 191.196 180.152 191.666C180.767 192.136 181.206 192.799 181.4 193.549C181.617 194.259 181.59 195.022 181.323 195.715C181.056 196.409 180.565 196.993 179.927 197.374C179.523 197.637 179.053 197.783 178.57 197.794Z" fill="#F2F2F2"/>
<path d="M96.9416 152.552L96.5038 152.114C96.413 152.029 96.3598 151.912 96.3557 151.788C96.3516 151.663 96.3971 151.543 96.482 151.452C96.489 151.444 96.4963 151.437 96.5038 151.43L100.345 147.586C100.387 147.541 100.437 147.505 100.493 147.479C100.549 147.454 100.61 147.44 100.671 147.438C100.733 147.436 100.794 147.446 100.852 147.467C100.909 147.489 100.962 147.522 101.007 147.564C101.015 147.571 101.022 147.578 101.029 147.586L104.87 151.427C104.915 151.47 104.951 151.522 104.976 151.579C105.001 151.636 105.014 151.698 105.015 151.76C105.016 151.823 105.005 151.885 104.982 151.943C104.959 152.001 104.925 152.054 104.882 152.099L104.87 152.111L104.432 152.549C104.389 152.594 104.337 152.63 104.28 152.654C104.222 152.679 104.161 152.693 104.098 152.694C104.036 152.695 103.974 152.684 103.916 152.661C103.858 152.638 103.805 152.604 103.76 152.56L103.748 152.549L101.477 150.154V155.836C101.477 155.898 101.466 155.959 101.442 156.017C101.419 156.074 101.385 156.126 101.341 156.17C101.298 156.215 101.246 156.25 101.189 156.274C101.132 156.298 101.07 156.311 101.008 156.311L101.005 156.311H100.372C100.246 156.311 100.125 156.261 100.036 156.172C99.9468 156.083 99.8968 155.962 99.8968 155.836V150.161L97.6256 152.556C97.5376 152.646 97.4173 152.697 97.2912 152.699C97.1652 152.701 97.0436 152.652 96.9533 152.564L96.9416 152.552Z" fill="#E60000"/>
<path d="M100.68 144.094C102.221 144.094 103.728 144.551 105.01 145.407C106.292 146.264 107.291 147.481 107.881 148.906C108.471 150.33 108.625 151.897 108.325 153.409C108.024 154.921 107.282 156.31 106.191 157.4C105.101 158.491 103.712 159.233 102.2 159.534C100.688 159.835 99.1208 159.68 97.6965 159.09C96.2721 158.5 95.0547 157.501 94.1982 156.219C93.3417 154.937 92.8845 153.43 92.8845 151.889C92.8863 149.822 93.7082 147.84 95.1696 146.379C96.6311 144.917 98.6127 144.095 100.68 144.094ZM100.68 143.067C98.9349 143.067 97.2294 143.585 95.7788 144.554C94.3281 145.523 93.1975 146.901 92.5299 148.513C91.8622 150.125 91.6875 151.898 92.0279 153.609C92.3683 155.321 93.2084 156.892 94.442 158.126C95.6757 159.36 97.2475 160.2 98.9586 160.54C100.67 160.881 102.443 160.706 104.055 160.038C105.667 159.371 107.045 158.24 108.014 156.789C108.983 155.339 109.501 153.633 109.501 151.889C109.501 149.549 108.571 147.305 106.917 145.651C105.263 143.997 103.019 143.067 100.68 143.067Z" fill="#3F3D56"/>
<path d="M180.07 203.267H11.2872C8.29467 203.263 5.42569 202.073 3.30967 199.957C1.19365 197.841 0.00338033 194.972 0 191.979V99.2878C0.00338033 96.2953 1.19365 93.4263 3.30967 91.3103C5.42569 89.1943 8.29467 88.004 11.2872 88.0006H31.9813C34.7891 87.9982 37.4966 89.0448 39.5728 90.9351L62.0142 106.96C63.4773 108.297 65.3881 109.038 67.3701 109.036H181.118C182.614 109.036 184.095 109.333 185.475 109.911C186.855 110.488 188.107 111.335 189.157 112.4C190.207 113.466 191.035 114.73 191.592 116.118C192.15 117.507 192.425 118.992 192.404 120.488L191.356 192.144C191.3 195.105 190.088 197.927 187.979 200.005C185.87 202.084 183.031 203.254 180.07 203.267ZM11.2872 88.6847C8.47604 88.6879 5.78095 89.806 3.79318 91.7938C1.8054 93.7816 0.687266 96.4767 0.684071 99.2878V191.979C0.687266 194.791 1.8054 197.486 3.79318 199.473C5.78095 201.461 8.47604 202.579 11.2872 202.583H180.07C182.851 202.571 185.518 201.471 187.5 199.519C189.481 197.566 190.62 194.916 190.672 192.134L191.72 120.478C191.74 119.073 191.481 117.677 190.958 116.373C190.434 115.069 189.656 113.881 188.67 112.88C187.683 111.879 186.508 111.084 185.211 110.542C183.915 109.999 182.523 109.72 181.118 109.72H67.3701C65.2246 109.722 63.1557 108.923 61.5684 107.479L39.127 91.4544C37.1749 89.6705 34.6256 88.6824 31.9813 88.6847H11.2872Z" fill="#3F3D56"/>
<path d="M194.374 205.071H190.181L188.87 188.897L194.375 188.897L194.374 205.071Z" fill="#FFB8B8"/>
<path d="M195.443 209.136L181.922 209.136V208.965C181.922 208.274 182.058 207.589 182.322 206.951C182.587 206.312 182.975 205.732 183.463 205.243C183.952 204.755 184.532 204.367 185.171 204.103C185.809 203.838 186.493 203.702 187.185 203.702H187.185L195.443 203.702L195.443 209.136Z" fill="#2F2E41"/>
<path d="M241.233 205.071H237.04L235.045 188.897L241.234 188.897L241.233 205.071Z" fill="#FFB8B8"/>
<path d="M242.302 209.136L228.781 209.136V208.965C228.781 208.274 228.917 207.589 229.182 206.951C229.446 206.312 229.834 205.732 230.323 205.243C230.811 204.755 231.391 204.367 232.03 204.103C232.669 203.838 233.353 203.702 234.044 203.702H234.044L242.302 203.702L242.302 209.136Z" fill="#2F2E41"/>
<path d="M227.445 155.071C228.024 154.392 228.35 153.534 228.368 152.643C228.386 151.751 228.095 150.88 227.544 150.179C227.433 150.045 227.31 149.92 227.178 149.806L230.336 138.145L225.072 139.892L222.88 150.697C222.516 151.363 222.355 152.121 222.417 152.878C222.479 153.635 222.761 154.357 223.228 154.955C223.472 155.278 223.786 155.542 224.146 155.727C224.507 155.913 224.904 156.015 225.309 156.026C225.714 156.037 226.116 155.957 226.485 155.791C226.855 155.626 227.183 155.38 227.445 155.071Z" fill="#FFB8B8"/>
<path d="M227.242 147.898C227.176 147.898 227.11 147.893 227.045 147.883L224.302 147.469C224.088 147.433 223.885 147.35 223.707 147.226C223.529 147.103 223.381 146.942 223.271 146.755C223.034 146.357 222.948 145.887 223.031 145.431L226.453 126.317L224.132 114.038C223.684 111.674 224.839 109.288 226.817 108.486C227.404 108.246 228.043 108.162 228.672 108.242C229.301 108.323 229.899 108.565 230.406 108.945C230.954 109.36 231.408 109.885 231.739 110.487C232.07 111.088 232.271 111.753 232.329 112.437L233.972 128.094L233.952 128.162L228.665 146.717C228.589 147.042 228.409 147.334 228.152 147.547C227.895 147.76 227.575 147.883 227.242 147.898Z" fill="#E60000"/>
<path d="M226.432 101.719C231.072 101.719 234.833 97.9575 234.833 93.3179C234.833 88.6783 231.072 84.9171 226.432 84.9171C221.792 84.9171 218.031 88.6783 218.031 93.3179C218.031 97.9575 221.792 101.719 226.432 101.719Z" fill="#FFB8B8"/>
<path d="M222.131 132.368C221.922 132.368 221.715 132.33 221.519 132.254L208.241 127.147C207.882 127.01 207.579 126.755 207.383 126.425C207.187 126.094 207.108 125.706 207.16 125.325L207.693 121.326C207.377 119.908 207.406 118.435 207.778 117.031C208.15 115.626 208.854 114.332 209.831 113.257L210.154 112.901L214.083 105.738C214.349 105.252 214.708 104.825 215.141 104.479C215.573 104.133 216.069 103.876 216.601 103.724C217.133 103.571 217.69 103.525 218.24 103.588C218.79 103.652 219.322 103.823 219.805 104.093L226.742 107.97C227.656 108.479 228.345 109.312 228.675 110.304C229.609 113.113 229.539 116.159 228.479 118.922L223.729 131.272C223.604 131.594 223.384 131.871 223.099 132.066C222.814 132.262 222.477 132.367 222.131 132.368Z" fill="#E60000"/>
<path d="M187.333 201.1L187.315 201.097C187.088 201.053 186.873 200.964 186.682 200.835C186.491 200.706 186.328 200.54 186.202 200.346C186.077 200.153 185.992 199.936 185.953 199.708C185.913 199.481 185.921 199.248 185.973 199.024L196.149 154.546C197.814 147.495 200.116 140.609 203.024 133.974L207.353 124.104L223.506 131.478L225.812 135.696C227.611 140.394 228.535 145.381 228.541 150.412L244.954 198.513C245.034 198.747 245.062 198.997 245.036 199.244C245.01 199.49 244.931 199.729 244.803 199.942C244.676 200.155 244.504 200.338 244.299 200.477C244.094 200.617 243.861 200.711 243.616 200.752L234.631 200.65C234.547 200.665 234.461 200.673 234.375 200.672C234.034 200.672 233.701 200.57 233.419 200.379C233.137 200.188 232.92 199.916 232.794 199.6L214.032 150.967C214.005 150.902 213.959 150.848 213.9 150.81C213.842 150.772 213.773 150.753 213.703 150.755C213.635 150.756 213.568 150.778 213.513 150.819C213.458 150.859 213.416 150.915 213.394 150.98L195.592 199.855C195.455 200.235 195.188 200.554 194.838 200.755C194.488 200.956 194.078 201.026 193.681 200.952L187.333 201.1Z" fill="#2F2E41"/>
<path d="M199.617 146.403C200.09 146.235 200.521 145.964 200.879 145.611C201.237 145.258 201.513 144.831 201.688 144.359C201.863 143.888 201.933 143.384 201.892 142.883C201.851 142.382 201.701 141.895 201.452 141.459L209.497 132.258L203.204 131.4L196.529 140.269C195.823 140.736 195.312 141.446 195.095 142.264C194.877 143.082 194.967 143.951 195.348 144.707C195.728 145.464 196.373 146.054 197.16 146.366C197.947 146.679 198.821 146.692 199.617 146.403Z" fill="#FFB8B8"/>
<path d="M203.41 139.921C203.13 139.921 202.854 139.852 202.607 139.721L199.775 138.211C199.568 138.1 199.385 137.947 199.239 137.763C199.093 137.578 198.987 137.365 198.927 137.138C198.867 136.91 198.854 136.672 198.89 136.44C198.926 136.207 199.01 135.984 199.136 135.785L209.594 119.307L211.407 106.872C211.501 106.229 211.724 105.612 212.063 105.058C212.402 104.504 212.85 104.025 213.38 103.649C213.91 103.274 214.511 103.009 215.146 102.872C215.78 102.736 216.437 102.729 217.074 102.853C217.712 102.977 218.317 103.229 218.855 103.594C219.392 103.959 219.85 104.429 220.2 104.976C220.55 105.523 220.786 106.136 220.892 106.776C220.999 107.417 220.975 108.073 220.82 108.704L217.077 124.031L204.742 139.287C204.581 139.486 204.378 139.646 204.148 139.756C203.917 139.866 203.665 139.922 203.41 139.921Z" fill="#E60000"/>
<path d="M218.87 86.3867C219.842 83.2001 225.456 81.7785 230.123 83.1006C234.789 84.4227 238.141 87.8891 238.922 91.2782C240.65 98.7833 231.636 104.874 233.269 112.38C234.35 117.346 240.601 122.041 247.642 123.175C239.883 124.799 230.412 123.372 223.217 119.495C218.739 117.083 214.982 113.442 215.039 109.769C215.073 107.546 216.488 105.58 218.217 103.881C219.947 102.182 222.018 100.672 223.605 98.8992C225.193 97.1261 226.292 95.0031 225.829 92.7522C225.366 90.5014 223.012 88.1541 219.846 87.4992L218.87 86.3867Z" fill="#2F2E41"/>
<path d="M265.658 209.765H135.342C135.251 209.765 135.164 209.729 135.1 209.665C135.036 209.601 135 209.514 135 209.423C135 209.333 135.036 209.246 135.1 209.182C135.164 209.117 135.251 209.081 135.342 209.081H265.658C265.748 209.081 265.835 209.117 265.899 209.182C265.964 209.246 266 209.333 266 209.423C266 209.514 265.964 209.601 265.899 209.665C265.835 209.729 265.748 209.765 265.658 209.765Z" fill="#CCCCCC"/>
</g>
<defs>
<clipPath id="clip0_207_1847">
<rect width="266" height="209.765" fill="white"/>
</clipPath>
</defs>
</svg>
