<svg width="257" height="257" viewBox="0 0 257 257" fill="none" xmlns="http://www.w3.org/2000/svg">
<path d="M22.7969 204.69L49.2216 204.567L75.6515 204.521L128.501 204.433L181.35 204.521L207.78 204.562L234.205 204.69L207.78 204.814L181.35 204.86L128.501 204.947L75.6515 204.86L49.2216 204.814L22.7969 204.69Z" fill="#263238"/>
<path d="M65.3694 146.197C63.519 144.383 61.1289 142.193 58.2968 142.974C55.6394 143.709 54.6166 146.613 54.1437 149.034C53.5269 152.154 53.0489 155.305 52.5554 158.446C52.062 161.586 51.584 164.794 51.1265 167.97C50.8695 169.764 50.6125 171.568 50.3658 173.352C50.2373 174.251 50.1139 175.151 49.9906 176.045C49.8672 176.939 49.7233 177.803 49.6719 178.692C49.6719 178.975 50.1036 179.016 50.1859 178.749C50.5251 177.253 50.669 175.695 50.8901 174.174L51.5531 169.594C51.9952 166.557 52.4578 163.529 52.9152 160.496C53.3727 157.464 53.8456 154.431 54.3287 151.399C54.7399 148.829 54.9301 145.637 57.2071 143.946C57.8247 143.522 58.5401 143.263 59.2857 143.193C60.0313 143.123 60.7824 143.244 61.4682 143.545C62.9691 144.115 64.1667 145.19 65.3386 146.254C65.3453 146.254 65.3519 146.252 65.3577 146.249C65.3635 146.246 65.3683 146.241 65.3715 146.235C65.3747 146.229 65.3762 146.222 65.3759 146.216C65.3755 146.209 65.3733 146.202 65.3694 146.197Z" fill="#263238"/>
<path d="M62.8347 144.341C62.8347 144.341 59.0516 142.979 57.1807 145.74C55.3097 148.5 57.5456 155.506 74.7698 159.484C74.264 154.102 72.8656 148.842 70.6321 143.92C66.9364 135.866 60.3623 138.914 62.8347 144.341Z" fill="#E60000"/>
<path d="M73.7887 158.338C73.5296 157.854 73.2412 157.388 72.9251 156.94C72.6373 156.498 72.3443 156.056 72.0513 155.613L71.378 154.627C71.378 154.549 71.378 154.467 71.4088 154.38L71.4705 153.933C71.5116 153.609 71.5579 153.29 71.6042 152.966C71.6504 152.643 71.707 152.324 71.7686 152.005C71.8062 151.655 71.8821 151.311 71.9948 150.977C71.9948 150.926 71.9228 150.9 71.9177 150.977C71.8814 151.171 71.8298 151.362 71.7635 151.548C71.7224 151.692 71.6864 151.836 71.6504 151.979C71.563 152.308 71.4859 152.637 71.4088 152.966C71.3317 153.295 71.2855 153.573 71.2341 153.881C71.2084 154.025 71.1878 154.174 71.1673 154.323C70.8589 153.881 70.5453 153.45 70.2266 153.023C69.3117 151.82 68.3403 150.659 67.3431 149.528C67.3431 149.528 67.3431 149.528 67.3431 149.497C67.4305 147.688 67.3894 145.899 67.7903 144.115C67.7903 144.069 67.7286 144.043 67.7183 144.09C67.2607 145.764 67.0426 147.494 67.0707 149.23C66.716 148.829 66.3511 148.428 65.981 148.032C65.1432 147.132 64.2899 146.243 63.411 145.375C63.375 145.339 63.3185 145.375 63.3545 145.426C64.8091 146.968 66.1866 148.618 67.5281 150.273C66.4765 150.258 65.4249 150.298 64.3773 150.391C63.2105 150.479 62.0489 150.628 60.8924 150.787C60.841 150.787 60.8564 150.869 60.8924 150.864C62.0459 150.698 63.2075 150.593 64.3722 150.551C65.4978 150.504 66.6132 150.551 67.7389 150.551C68.4619 151.452 69.1781 152.358 69.8874 153.27H69.7281C69.4608 153.27 69.2141 153.27 68.9365 153.27C68.4225 153.27 67.9085 153.316 67.3688 153.357C66.2986 153.444 65.2356 153.604 64.1871 153.835C64.1793 153.838 64.1725 153.843 64.1677 153.85C64.1629 153.857 64.1603 153.865 64.1603 153.874C64.1603 153.882 64.1629 153.89 64.1677 153.897C64.1725 153.904 64.1793 153.909 64.1871 153.912C65.246 153.789 66.3048 153.691 67.3688 153.655C67.8828 153.655 68.3968 153.655 68.9108 153.655H69.7024C69.8493 153.673 69.9983 153.659 70.1393 153.614L71.5271 155.423C71.892 155.901 72.2518 156.39 72.6065 156.878C72.9611 157.366 73.2952 157.906 73.6961 158.389C73.7029 158.401 73.7144 158.41 73.7279 158.414C73.7414 158.418 73.7558 158.416 73.7681 158.41C73.7804 158.403 73.7894 158.391 73.7933 158.378C73.7971 158.364 73.7955 158.35 73.7887 158.338Z" fill="#263238"/>
<path d="M64.4837 148.253C63.8736 148.175 63.2583 148.146 62.6436 148.166C62.0268 148.166 61.41 148.166 60.7983 148.207C60.7418 148.207 60.7469 148.284 60.7983 148.284C61.4203 148.238 62.0422 148.227 62.6693 148.238C63.2964 148.248 63.872 148.304 64.4734 148.284C64.4991 148.284 64.5043 148.258 64.4837 148.253Z" fill="#263238"/>
<path d="M69.9088 149.641C69.9756 149.055 70.0527 148.464 70.1761 147.883C70.1784 147.877 70.1791 147.87 70.1783 147.863C70.1775 147.857 70.1751 147.851 70.1713 147.845C70.1675 147.84 70.1624 147.835 70.1566 147.832C70.1507 147.829 70.1442 147.828 70.1375 147.828C70.1309 147.828 70.1243 147.829 70.1185 147.832C70.1126 147.835 70.1075 147.84 70.1038 147.845C70.1 147.851 70.0976 147.857 70.0967 147.863C70.0959 147.87 70.0967 147.877 70.099 147.883C70.0116 148.464 69.8985 149.039 69.8163 149.62C69.77 149.908 69.734 150.196 69.698 150.489C69.6435 150.76 69.6194 151.035 69.6261 151.311C69.6261 151.325 69.6315 151.338 69.6411 151.348C69.6508 151.357 69.6639 151.363 69.6775 151.363C69.6911 151.363 69.7042 151.357 69.7138 151.348C69.7235 151.338 69.7289 151.325 69.7289 151.311C69.7788 151.042 69.8081 150.768 69.8163 150.494C69.8317 150.201 69.8625 149.924 69.9088 149.641Z" fill="#263238"/>
<path d="M68.7623 143.123C68.6133 143.699 68.4642 144.28 68.3563 144.861C68.3049 145.154 68.2586 145.452 68.2175 145.75C68.1654 146.036 68.1465 146.328 68.161 146.618C68.161 146.644 68.1969 146.644 68.2072 146.618C68.2746 146.347 68.3193 146.07 68.3409 145.791C68.382 145.503 68.4231 145.215 68.4745 144.933C68.5773 144.331 68.6852 143.74 68.8343 143.149C68.8497 143.103 68.7778 143.077 68.7623 143.123Z" fill="#263238"/>
<path d="M46.3301 178.055C46.2324 176.97 46.1296 175.891 46.0166 174.806C45.7904 172.665 45.5317 170.523 45.2404 168.381C44.9526 166.248 44.6802 164.115 44.3358 161.992C44.2109 161.006 43.9941 160.034 43.6881 159.088C43.5744 158.684 43.3693 158.31 43.0885 157.998C42.8078 157.685 42.459 157.441 42.069 157.284C40.0439 156.585 38.6766 158.687 37.8594 160.173C37.8594 160.219 37.9005 160.25 37.9262 160.209C38.4402 159.504 39.7715 157.531 41.3083 157.639C42.3363 157.7 43.169 158.43 43.6676 161.01C44.9012 167.435 46.0166 180.476 46.1502 181.329C46.217 181.781 46.5357 181.766 46.5408 181.278C46.546 180.188 46.4226 179.119 46.3301 178.055Z" fill="#263238"/>
<path d="M38.4078 159.34C38.4078 159.34 40.1811 153.09 36.2644 156.215C29.7469 161.422 29.5156 172.745 29.5156 172.745C29.5156 172.745 41.1217 166.022 42.5404 161.596C44.6889 154.986 38.4078 159.34 38.4078 159.34Z" fill="#E60000"/>
<path d="M40.61 162.424C39.7002 162.609 38.7801 162.727 37.8601 162.861L36.5545 163.041C36.2615 163.082 35.9634 163.113 35.6704 163.149C36.534 161.956 37.4026 160.774 38.2404 159.551C38.2713 159.504 38.1993 159.458 38.1633 159.494C37.4756 160.202 36.8286 160.949 36.2256 161.73C36.0559 161.247 35.8863 160.764 35.7116 160.275C35.5368 159.787 35.3055 159.16 35.1616 158.584C35.1616 158.533 35.0742 158.559 35.0896 158.584C35.249 159.16 35.3569 159.741 35.5111 160.317C35.6653 160.892 35.8298 161.422 36.0251 161.961C35.5985 162.511 35.1924 163.077 34.7966 163.647C34.6013 163.082 34.3495 162.532 34.1747 161.961C34.1747 161.915 34.0873 161.936 34.1027 161.961C34.3083 162.599 34.4214 163.257 34.6167 163.894C34.3495 164.285 34.1027 164.67 33.8303 165.066C33.3626 165.786 32.9205 166.526 32.4888 167.266C32.4555 167.28 32.428 167.305 32.4103 167.337C32.3926 167.368 32.3859 167.405 32.3911 167.441C31.6561 168.705 30.9622 170.011 30.2734 171.285C30.2734 171.332 30.3197 171.368 30.3403 171.326C31.029 170.047 31.7949 168.798 32.5916 167.574C32.7158 167.537 32.8431 167.511 32.9719 167.497L33.3729 167.415C33.671 167.348 33.9691 167.271 34.2672 167.194C34.8532 167.05 35.434 166.911 36.0302 166.808C36.0816 166.808 36.0611 166.726 36.0302 166.736C35.3312 166.87 34.627 166.947 33.9177 167.029C33.5836 167.07 33.2495 167.112 32.8897 167.163H32.8434C33.2581 166.526 33.6795 165.897 34.1079 165.277C34.5362 164.656 34.9663 164.052 35.398 163.462C35.7989 163.406 36.1947 163.303 36.5956 163.226L37.9423 162.964C38.8367 162.784 39.731 162.583 40.6305 162.45C40.6768 162.501 40.6562 162.424 40.61 162.424Z" fill="#263238"/>
<path d="M33.635 163.051L33.4808 162.537C33.372 162.2 33.2827 161.857 33.2135 161.509C33.2135 161.458 33.1312 161.509 33.1415 161.509C33.2135 161.864 33.2957 162.213 33.378 162.568C33.4536 162.918 33.555 163.261 33.6812 163.596C33.6895 163.61 33.7021 163.62 33.7172 163.626C33.7322 163.632 33.7488 163.633 33.7642 163.628C33.7796 163.623 33.793 163.613 33.8021 163.6C33.8113 163.587 33.8158 163.571 33.8149 163.555C33.7635 163.401 33.6966 163.226 33.635 163.051Z" fill="#263238"/>
<path d="M41.7881 160.985C41.2741 161.062 40.7241 161.103 40.1947 161.149C39.6652 161.195 39.1307 161.267 38.6013 161.35C38.5704 161.35 38.5704 161.396 38.6013 161.396C39.1153 161.36 39.6652 161.319 40.1947 161.247C40.7241 161.175 41.2535 161.098 41.7881 161.062C41.8395 161.062 41.8343 160.98 41.7881 160.985Z" fill="#263238"/>
<path d="M54.8578 170.134C54.6522 165.508 54.3438 160.933 53.8966 156.348C53.6653 154.061 53.3826 151.779 53.0845 149.507C52.7979 147.275 52.3583 145.064 51.7686 142.892C51.3569 141.203 50.6067 139.615 49.5636 138.225C49.0471 137.55 48.3677 137.018 47.5891 136.678C46.8104 136.338 45.9581 136.202 45.1123 136.282C43.0975 136.529 41.4732 137.798 40.07 139.181C38.492 140.723 37.0528 142.414 35.5931 144.074C35.223 144.49 34.858 144.912 34.4982 145.333C34.4934 145.341 34.4914 145.351 34.4925 145.36C34.4936 145.369 34.4977 145.377 34.5042 145.384C34.5108 145.391 34.5193 145.395 34.5285 145.396C34.5376 145.397 34.5469 145.395 34.5548 145.39C35.9786 143.75 37.4589 142.162 39.0112 140.641C40.4401 139.232 41.9204 137.695 43.9044 137.115C44.8259 136.82 45.8126 136.797 46.7469 137.048C47.4876 137.279 48.1555 137.698 48.6846 138.266C49.7493 139.493 50.5038 140.958 50.8846 142.537C52.1182 146.768 52.5653 151.203 53.0228 155.577C53.4803 159.952 53.8041 164.47 54.0508 168.941C54.2975 173.413 54.4517 177.911 54.8835 182.383C54.9349 182.933 55.0068 183.483 55.0788 184.033C55.1251 184.403 55.6956 184.403 55.6699 184.033C55.2741 179.386 55.0634 174.76 54.8578 170.134Z" fill="#263238"/>
<path d="M39.8206 139.679C39.8206 139.679 42.4471 134.812 39.3425 133.249C36.238 131.687 25.8346 143.298 22.7969 160.27C22.7969 160.27 39.5944 152.838 45.2947 145.436C50.9949 138.035 44.5339 136.4 39.8206 139.679Z" fill="#E60000"/>
<path d="M42.2851 143.637C40.3987 143.637 38.5123 143.493 36.6311 143.509L37.695 142.291C38.2236 141.753 38.7164 141.181 39.1702 140.579C39.1702 140.538 39.1394 140.481 39.1034 140.512C38.5917 140.954 38.1141 141.433 37.6745 141.946C37.2016 142.46 36.7287 142.949 36.261 143.457C35.5414 144.239 34.8304 145.029 34.1279 145.827V144.609C34.1279 143.966 34.1279 143.324 34.1279 142.686C34.1279 141.386 34.1279 140.086 34.2255 138.79C34.2255 138.739 34.1536 138.739 34.1484 138.79C34.0559 140.091 33.9223 141.386 33.8606 142.692C33.8298 143.334 33.8143 143.971 33.8041 144.614C33.8041 144.943 33.8041 145.277 33.8041 145.606C33.8041 145.786 33.8041 145.976 33.8041 146.161L33.47 146.531C31.9639 148.253 30.5299 150.031 29.1369 151.846C29.1369 151.743 29.1369 151.64 29.1369 151.543C29.1369 151.342 29.0907 151.147 29.0701 150.946C29.0239 150.515 28.9622 150.083 28.8954 149.651C28.8285 149.219 28.772 148.839 28.7052 148.438C28.6086 147.985 28.5349 147.527 28.4842 147.066C28.4865 147.059 28.4872 147.053 28.4864 147.046C28.4856 147.04 28.4832 147.033 28.4794 147.028C28.4756 147.022 28.4705 147.018 28.4647 147.015C28.4588 147.012 28.4522 147.01 28.4456 147.01C28.439 147.01 28.4324 147.012 28.4266 147.015C28.4207 147.018 28.4156 147.022 28.4119 147.028C28.4081 147.033 28.4057 147.04 28.4048 147.046C28.404 147.053 28.4048 147.059 28.4071 147.066C28.4858 147.523 28.539 147.985 28.5664 148.448C28.6024 148.865 28.6435 149.281 28.6795 149.697C28.7155 150.114 28.7566 150.525 28.7977 150.941C28.7977 151.142 28.8337 151.342 28.8594 151.543C28.8594 151.64 28.8594 151.743 28.8954 151.841C28.9013 151.925 28.9278 152.006 28.9725 152.077L28.2683 153.028C27.3122 154.287 26.3819 155.562 25.4464 156.832C25.4156 156.873 25.4721 156.929 25.503 156.888C26.387 155.732 27.2968 154.601 28.222 153.475C28.9108 153.506 29.615 153.475 30.3089 153.444C31.0028 153.414 31.7635 153.444 32.4934 153.444C32.5448 153.444 32.5396 153.367 32.4934 153.367C31.7635 153.367 31.0336 153.393 30.3037 153.393C29.5738 153.393 28.9622 153.362 28.2991 153.393C29.1112 152.406 29.9336 151.43 30.756 150.448C31.0542 150.093 31.3574 149.738 31.6555 149.379C31.9348 149.417 32.2172 149.427 32.4985 149.41H33.4957C34.1125 149.41 34.7344 149.41 35.3563 149.384C36.6362 149.384 37.9263 149.322 39.2011 149.322C39.2525 149.322 39.2473 149.245 39.2011 149.24C37.9161 149.24 36.6311 149.173 35.3512 149.137C34.7293 149.137 34.1073 149.101 33.4854 149.096H32.4934C32.3032 149.096 32.113 149.096 31.9177 149.096C32.6202 148.26 33.326 147.424 34.0354 146.588C34.0528 146.576 34.0669 146.56 34.0765 146.541C34.7601 145.729 35.4489 144.917 36.1325 144.115C36.225 144.002 36.3227 143.894 36.4203 143.786C38.3787 143.843 40.3319 143.714 42.2851 143.756C42.3007 143.756 42.3158 143.749 42.3269 143.738C42.3379 143.727 42.3442 143.712 42.3442 143.696C42.3442 143.681 42.3379 143.666 42.3269 143.655C42.3158 143.644 42.3007 143.637 42.2851 143.637Z" fill="#263238"/>
<path d="M41.3238 146.973H40.8664C40.8597 146.976 40.854 146.98 40.8499 146.986C40.8459 146.992 40.8438 146.999 40.8438 147.007C40.8438 147.014 40.8459 147.021 40.8499 147.027C40.854 147.033 40.8597 147.037 40.8664 147.04H41.3238C41.3305 147.037 41.3362 147.033 41.3403 147.027C41.3443 147.021 41.3465 147.014 41.3465 147.007C41.3465 146.999 41.3443 146.992 41.3403 146.986C41.3362 146.98 41.3305 146.976 41.3238 146.973Z" fill="#263238"/>
<path d="M40.3023 147.004L38.4879 146.968L37.5832 146.937C37.3034 146.901 37.0201 146.901 36.7403 146.937C36.7094 146.937 36.7403 146.983 36.7403 146.994C37.0192 147.05 37.3042 147.071 37.5884 147.055H38.493C39.0944 147.055 39.7009 147.055 40.3074 147.055C40.3537 147.055 40.3537 147.004 40.3023 147.004Z" fill="#263238"/>
<path d="M35.0287 152.658C33.8003 152.452 32.558 152.34 31.3125 152.324C31.3125 152.324 31.3125 152.35 31.3125 152.35C32.5461 152.468 33.7797 152.535 35.003 152.73C35.0596 152.73 35.0801 152.658 35.0287 152.658Z" fill="#263238"/>
<path d="M29.9785 147.246C29.9785 147.138 29.9785 147.03 29.9374 146.922C29.9065 146.675 29.8705 146.433 29.8294 146.192C29.7575 145.729 29.6752 145.272 29.5878 144.814C29.5878 144.768 29.5107 144.778 29.5159 144.814C29.5724 145.287 29.6238 145.765 29.6649 146.238C29.6649 146.475 29.7061 146.706 29.7266 146.942C29.7197 147.167 29.7527 147.392 29.8243 147.605C29.8551 147.677 29.9682 147.652 29.9836 147.58C30.0012 147.469 29.9995 147.356 29.9785 147.246Z" fill="#263238"/>
<path d="M54.6931 133.429C54.0917 132.309 53.331 130.859 51.8301 130.926C50.5914 131.003 50.0311 132.268 49.7741 133.311C48.9517 136.544 48.8952 139.952 48.7461 143.267C48.412 150.268 48.1088 157.274 48.0625 164.285C48.0625 166.228 48.0625 168.17 48.0625 170.113C48.0625 172.092 48.0625 174.087 48.2013 176.066C48.2013 176.104 48.2164 176.14 48.2434 176.167C48.2704 176.194 48.307 176.209 48.3452 176.209C48.3834 176.209 48.42 176.194 48.447 176.167C48.474 176.14 48.4891 176.104 48.4891 176.066C48.4891 174.374 48.4429 172.678 48.4326 170.982C48.4223 169.286 48.4326 167.672 48.4686 166.017C48.52 162.669 48.6091 159.321 48.7358 155.973C48.8592 152.643 49.0083 149.317 49.147 145.991C49.219 144.326 49.2858 142.666 49.3629 141C49.44 139.335 49.5068 137.778 49.6867 136.174C49.7947 135.28 49.9232 134.38 50.1134 133.496C50.2064 132.84 50.4725 132.221 50.8844 131.702C51.1715 131.419 51.5502 131.248 51.9524 131.218C52.3546 131.189 52.7541 131.304 53.0791 131.543C53.7581 132.038 54.2908 132.708 54.6211 133.481C54.652 133.511 54.7188 133.47 54.6931 133.429Z" fill="#263238"/>
<path d="M54.287 132.895C54.287 132.895 53.0534 128.536 55.7827 130.715C60.3214 134.344 60.4858 142.229 60.4858 142.229C60.4858 142.229 52.4315 137.541 51.4035 134.452C49.9129 129.847 54.287 132.895 54.287 132.895Z" fill="#E60000"/>
<path d="M58.7845 138.996C58.7125 138.878 58.6354 138.759 58.5583 138.641C58.5686 138.516 58.5686 138.391 58.5583 138.266C58.5583 138.081 58.5583 137.891 58.5583 137.706C58.5583 137.336 58.5583 136.971 58.5994 136.601C58.5994 136.549 58.5223 136.554 58.5223 136.601C58.5223 136.966 58.4863 137.325 58.4761 137.685V138.23C58.4761 138.297 58.4761 138.379 58.4761 138.461C58.1574 137.947 57.8336 137.48 57.4943 137.002L57.1962 136.59C57.1575 136.117 57.1575 135.64 57.1962 135.167C57.1962 134.653 57.1962 134.139 57.227 133.625C57.227 133.573 57.1499 133.578 57.1499 133.625C57.1499 134.139 57.1088 134.678 57.0831 135.208C57.0523 135.582 57.042 135.958 57.0523 136.333C56.271 135.275 55.4435 134.252 54.6108 133.249C54.5799 133.219 54.5234 133.249 54.5491 133.301C55.0631 133.954 55.5771 134.627 56.05 135.311C55.0991 135.084 54.1328 134.961 53.1716 134.822C53.1202 134.822 53.0996 134.889 53.1716 134.894C54.1996 135.048 55.1967 135.305 56.2042 135.526C56.5897 136.071 56.9752 136.616 57.3504 137.166C57.5097 137.387 57.6588 137.613 57.8079 137.839H57.7667L57.4532 137.798C57.2322 137.767 57.006 137.752 56.7799 137.737C56.3173 137.695 55.8495 137.675 55.3869 137.649C55.3355 137.649 55.3355 137.726 55.3869 137.726C55.8444 137.726 56.3018 137.773 56.7593 137.819L57.4789 137.906L57.7924 137.947H57.885C58.1471 138.328 58.399 138.708 58.6611 139.094C59.1186 139.767 59.5246 140.486 60.0129 141.15C60.0184 141.158 60.0268 141.163 60.0365 141.165C60.0461 141.167 60.0561 141.165 60.0643 141.16C60.0725 141.154 60.0782 141.146 60.0801 141.136C60.082 141.127 60.08 141.117 60.0746 141.108C59.688 140.379 59.2571 139.673 58.7845 138.996Z" fill="#263238"/>
<path d="M56.7709 134.077C56.7709 133.907 56.7709 133.738 56.7709 133.563C56.7614 133.206 56.7751 132.849 56.812 132.494C56.812 132.437 56.7349 132.427 56.7349 132.494C56.7349 132.848 56.6989 133.203 56.6835 133.553C56.6835 133.727 56.6835 133.907 56.6835 134.067V134.313C56.668 134.397 56.668 134.482 56.6835 134.565C56.6862 134.572 56.6908 134.578 56.6967 134.582C56.7027 134.586 56.7097 134.588 56.7169 134.588C56.7241 134.588 56.7311 134.586 56.7371 134.582C56.743 134.578 56.7476 134.572 56.7503 134.565C56.7605 134.487 56.7605 134.407 56.7503 134.329C56.7709 134.252 56.7709 134.154 56.7709 134.077Z" fill="#263238"/>
<path d="M55.7749 135.881C55.4768 135.83 55.1683 135.814 54.8651 135.788C54.5618 135.763 54.202 135.732 53.8679 135.686C53.8617 135.683 53.855 135.683 53.8484 135.683C53.8419 135.684 53.8356 135.687 53.8301 135.69C53.8247 135.694 53.8202 135.699 53.8172 135.705C53.8141 135.711 53.8125 135.718 53.8125 135.724C53.8125 135.731 53.8141 135.737 53.8172 135.743C53.8202 135.749 53.8247 135.754 53.8301 135.758C53.8356 135.762 53.8419 135.764 53.8484 135.765C53.855 135.766 53.8617 135.765 53.8679 135.763C54.5053 135.804 55.1426 135.917 55.78 135.943C55.7882 135.942 55.7958 135.938 55.8011 135.932C55.8064 135.926 55.809 135.917 55.8083 135.909C55.8076 135.901 55.8037 135.893 55.7974 135.888C55.7912 135.883 55.783 135.88 55.7749 135.881Z" fill="#263238"/>
<path d="M58.3159 135.907C58.3159 135.938 58.3159 136.035 58.3159 136.076V136.518C58.3159 136.621 58.3159 136.724 58.3159 136.822C58.2978 136.91 58.2978 137.001 58.3159 137.089C58.3159 137.089 58.3159 137.089 58.3468 137.089C58.3572 137.047 58.3572 137.003 58.3468 136.96V136.071C58.3468 136.03 58.3468 135.938 58.3468 135.907C58.3468 135.876 58.2594 135.835 58.3159 135.907Z" fill="#263238"/>
<path d="M54.8807 156.672C53.1845 155.398 51.6579 153.588 49.3757 153.48C47.4894 153.403 46.1684 154.822 45.4179 156.405C45.0358 157.244 44.7263 158.114 44.4927 159.006C44.1535 160.198 43.8297 161.396 43.5316 162.604C42.9405 164.968 42.4316 167.358 42.0204 169.764C41.7891 171.105 41.5784 172.452 41.4087 173.799C41.1915 175.16 41.0576 176.533 41.0078 177.911C41.0118 177.961 41.0332 178.008 41.0682 178.044C41.1031 178.08 41.1496 178.103 41.1994 178.108C41.2493 178.114 41.2996 178.101 41.3415 178.074C41.3835 178.046 41.4145 178.005 41.4293 177.957C41.6606 176.826 41.7583 175.665 41.9433 174.524C42.1283 173.383 42.2877 172.231 42.4573 171.085C42.8479 168.799 43.2985 166.524 43.8091 164.259C44.3231 162.126 44.7754 159.957 45.4642 157.875C45.9782 156.385 46.7492 154.647 48.3632 154.113C50.8098 153.295 53.0354 155.367 54.8293 156.713C54.8653 156.77 54.9218 156.703 54.8807 156.672Z" fill="#263238"/>
<path d="M53.1261 155.454C53.1261 155.454 51.5841 150.987 53.8252 150.114C57.2176 148.798 66.0944 158.795 64.357 174.112C64.357 174.112 57.5003 170.334 52.4322 166.084C47.3642 161.833 46.0741 156.287 48.3202 154.848C50.5664 153.408 53.1261 155.454 53.1261 155.454Z" fill="#E60000"/>
<path d="M63.3281 170.833C63.0937 170.299 62.8187 169.783 62.5057 169.291C62.2179 168.777 61.9198 168.263 61.6216 167.749C61.0305 166.721 60.4446 165.729 59.8432 164.732L59.5451 164.244C59.5451 164.187 59.5451 164.125 59.5811 164.069C59.6171 163.92 59.6479 163.771 59.6839 163.622C59.7558 163.293 59.8175 162.953 59.8792 162.619C60.0025 161.967 60.1156 161.298 60.2904 160.656C60.2904 160.61 60.2236 160.594 60.2133 160.656C60.0745 161.309 59.8689 161.956 59.6993 162.594C59.6068 162.912 59.504 163.226 59.4217 163.545C59.3909 163.652 59.36 163.76 59.3343 163.873C58.6045 162.676 57.8643 161.489 57.0625 160.337C57.1139 160.179 57.1416 160.015 57.1447 159.849C57.1447 159.623 57.1961 159.397 57.2218 159.175C57.2783 158.661 57.34 158.147 57.412 157.664C57.5559 156.677 57.705 155.701 57.926 154.729C57.926 154.683 57.8643 154.668 57.854 154.729C57.6073 155.691 57.34 156.657 57.1601 157.633C57.0676 158.112 56.9854 158.595 56.9186 159.078C56.8877 159.319 56.862 159.592 56.8363 159.808C56.8363 159.88 56.8363 159.952 56.8363 160.029C56.5896 159.679 56.3223 159.33 56.0859 159.001C55.2994 157.973 54.4925 156.945 53.6701 155.963C53.6392 155.927 53.5775 155.963 53.6084 156.009C55.0128 157.81 56.3005 159.698 57.4634 161.663C57.6895 162.023 57.9106 162.383 58.1316 162.743L57.9106 162.717C57.6227 162.681 57.3349 162.666 57.0471 162.635L55.3149 162.486C54.1584 162.393 53.0019 162.321 51.8454 162.198C51.7991 162.198 51.7837 162.27 51.8454 162.275C53.0121 162.409 54.1738 162.599 55.3354 162.763C55.9111 162.845 56.4816 162.923 57.0573 162.995C57.4919 163.084 57.9346 163.129 58.3783 163.128L59.7404 165.344C59.6376 165.344 59.5348 165.344 59.432 165.344H57.7821C57.0368 165.344 56.2966 165.344 55.5513 165.344C55.4999 165.344 55.5102 165.421 55.5513 165.421C56.3069 165.421 57.0573 165.467 57.8129 165.508C58.1676 165.508 58.5274 165.544 58.882 165.57L59.396 165.611C59.5519 165.644 59.7131 165.644 59.8689 165.611L61.0254 167.492C61.3681 168.071 61.7279 168.647 62.1048 169.219C62.4493 169.83 62.8393 170.414 63.2716 170.967C63.287 170.905 63.3487 170.879 63.3281 170.833Z" fill="#263238"/>
<path d="M60.0629 158.451C59.9933 158.942 59.8902 159.428 59.7545 159.905C59.626 160.419 59.4821 160.892 59.3228 161.381C59.3179 161.387 59.3146 161.395 59.3132 161.403C59.3119 161.411 59.3124 161.419 59.3148 161.427C59.3173 161.435 59.3215 161.442 59.3272 161.447C59.3329 161.453 59.3399 161.458 59.3476 161.46C59.3554 161.463 59.3636 161.463 59.3717 161.462C59.3797 161.461 59.3873 161.458 59.394 161.453C59.4006 161.448 59.4059 161.442 59.4097 161.435C59.4134 161.428 59.4153 161.42 59.4153 161.411C59.5644 160.928 59.7031 160.44 59.8214 159.947C59.9396 159.453 60.0167 158.955 60.14 158.461C60.14 158.415 60.0681 158.399 60.0629 158.451Z" fill="#263238"/>
<path d="M55.0012 161.442C54.8988 161.353 54.7672 161.303 54.6311 161.303L53.9835 161.216C53.5825 161.16 53.1765 161.113 52.7756 161.067C51.9377 160.969 51.1051 160.887 50.2672 160.784C50.221 160.784 50.2056 160.856 50.2672 160.861C51.0537 160.954 51.8092 161.077 52.6265 161.18L53.783 161.329L54.3381 161.391C54.5549 161.393 54.77 161.429 54.9755 161.499C55.0012 161.519 55.0526 161.468 55.0012 161.442Z" fill="#263238"/>
<path d="M60.0457 168.181C59.655 168.145 59.2541 168.135 58.8583 168.119H58.2621H57.9743C57.8494 168.13 57.7239 168.13 57.599 168.119C57.5425 168.119 57.5374 168.201 57.599 168.196C57.715 168.181 57.8326 168.181 57.9486 168.196H58.257L58.8583 168.232C59.249 168.258 59.6499 168.284 60.0457 168.284C60.0919 168.263 60.0971 168.181 60.0457 168.181Z" fill="#263238"/>
<path d="M62.4658 166.464C62.512 166.243 62.5531 166.017 62.5943 165.791C62.6765 165.349 62.7536 164.907 62.8358 164.465C62.8358 164.418 62.769 164.403 62.7587 164.465C62.6611 164.891 62.5634 165.323 62.4709 165.755C62.4195 165.971 62.3732 166.181 62.327 166.397L62.2653 166.7C62.2328 166.802 62.2206 166.908 62.2293 167.014C62.2293 167.05 62.291 167.081 62.3167 167.014C62.3992 166.841 62.4497 166.655 62.4658 166.464Z" fill="#263238"/>
<path d="M59.1296 179.669L58.7492 185.996L57.6235 204.69H38.4513L37.3257 185.996L36.9453 179.669H59.1296Z" fill="#37474F"/>
<path d="M59.1296 179.669L58.7492 185.996H37.3257L36.9453 179.669H59.1296Z" fill="#263238"/>
<path d="M60.9002 175.187H35.1797V181.524H60.9002V175.187Z" fill="#37474F"/>
<path d="M128.501 237.057C179.635 237.057 221.088 233.437 221.088 228.972C221.088 224.506 179.635 220.886 128.501 220.886C77.3666 220.886 35.9141 224.506 35.9141 228.972C35.9141 233.437 77.3666 237.057 128.501 237.057Z" fill="#EBEBEB"/>
<path d="M112.195 165.215L113.521 173.187L122.527 221.817H123.981L117.433 173.187L116.467 165.215H112.195Z" fill="#C7C7C7"/>
<path d="M116.467 165.215H112.195L113.521 173.187H117.433L116.467 165.215Z" fill="#A6A6A6"/>
<path d="M83.9141 221.817H85.3687L94.374 173.187L95.7001 165.215H91.4287L90.4624 173.187L83.9141 221.817Z" fill="#C7C7C7"/>
<path d="M91.4273 165.215L90.4609 173.187H94.3725L95.6986 165.215H91.4273Z" fill="#A6A6A6"/>
<path d="M56.9062 221.817H58.3557L67.361 173.187L68.6923 165.215H64.4209L63.4546 173.187L56.9062 221.817Z" fill="#C7C7C7"/>
<path d="M63.4531 173.187H67.3595L68.6908 165.215H64.4194L63.4531 173.187Z" fill="#A6A6A6"/>
<path d="M59.2031 168.962H125.19V162.008H100.488L92.1865 122.682H61.7217L59.2031 168.962Z" fill="#C7C7C7"/>
<path d="M63.0514 162.008H125.194V168.962H62.8047L63.0514 162.008Z" fill="#DBDBDB"/>
<path d="M59.2031 168.962H62.8011L65.145 122.682H61.7217L59.2031 168.962Z" fill="#DBDBDB"/>
<path d="M135.286 230.909C134.006 231.033 99.2287 222.711 98.1339 221.58C98.0002 221.457 98.6838 218.291 99.6759 213.983V213.896C100.308 211.167 110.47 189.065 110.47 189.065L133.014 195.377L122.734 215.88C122.734 215.88 126.974 218.964 130.614 221.858C132.86 223.647 134.797 225.25 135.209 225.775C136.314 227.147 136.561 230.786 135.286 230.909Z" fill="#D3766A"/>
<path d="M135.283 230.909C134.008 231.033 99.2259 222.685 98.126 221.58C97.9923 221.452 98.6811 218.296 99.668 213.983V213.901C99.8993 212.873 101.467 209.167 103.328 204.911C107.039 205.914 120.336 209.537 125.167 211.018L122.777 215.88C122.777 215.88 127.018 218.964 130.652 221.858C132.26 223.072 133.794 224.379 135.247 225.775C136.311 227.147 136.563 230.786 135.283 230.909Z" fill="white"/>
<path d="M135.397 231.079C134.082 231.187 99.2786 222.773 98.1529 221.611C97.7263 221.174 98.5024 215.68 100.415 209.861L122.84 215.315C122.84 215.315 134.292 224.397 135.387 225.805C136.482 227.214 136.718 230.966 135.397 231.079Z" fill="#E60000"/>
<path d="M135.235 229.563C129.437 228.021 105.901 222.29 100.046 221.19C100 221.19 99.9899 221.215 100.046 221.231C105.762 222.896 129.344 228.427 135.225 229.66C135.338 229.686 135.358 229.599 135.235 229.563Z" fill="#263238"/>
<path d="M133.453 224.011C132.808 223.838 132.135 223.799 131.475 223.899C130.815 223.999 130.183 224.235 129.618 224.592C128.6 225.226 127.863 226.227 127.562 227.388C127.562 227.424 127.619 227.44 127.634 227.388C128.118 226.288 128.944 225.373 129.99 224.781C131.036 224.189 132.245 223.952 133.438 224.104C133.45 224.106 133.462 224.103 133.472 224.096C133.483 224.089 133.489 224.078 133.491 224.065C133.494 224.053 133.491 224.041 133.483 224.03C133.476 224.02 133.465 224.014 133.453 224.011Z" fill="#263238"/>
<path d="M124.533 216.343C122.21 215.746 119.301 215.916 117.389 217.473C117.317 217.535 117.389 217.638 117.481 217.623C119.781 217.044 122.137 216.715 124.508 216.641C124.527 216.642 124.547 216.64 124.566 216.634C124.584 216.628 124.602 216.619 124.617 216.606C124.632 216.594 124.644 216.578 124.653 216.561C124.662 216.543 124.668 216.524 124.669 216.505C124.671 216.485 124.669 216.465 124.663 216.447C124.657 216.428 124.648 216.41 124.635 216.395C124.622 216.38 124.607 216.368 124.589 216.359C124.572 216.35 124.553 216.344 124.533 216.343Z" fill="#263238"/>
<path d="M126.168 217.484C123.84 216.888 120.936 217.057 119.024 218.615C118.947 218.676 119.024 218.779 119.111 218.759C121.412 218.185 123.767 217.857 126.138 217.782C126.177 217.786 126.217 217.774 126.248 217.749C126.278 217.724 126.298 217.688 126.302 217.648C126.306 217.609 126.294 217.569 126.269 217.538C126.244 217.508 126.208 217.488 126.168 217.484Z" fill="#263238"/>
<path d="M127.804 218.62C125.476 218.023 122.566 218.193 120.654 219.75C120.582 219.812 120.654 219.915 120.747 219.9C123.047 219.321 125.403 218.992 127.773 218.918C127.807 218.913 127.839 218.897 127.863 218.872C127.887 218.847 127.902 218.815 127.906 218.781C127.909 218.746 127.901 218.712 127.883 218.683C127.864 218.653 127.837 218.631 127.804 218.62Z" fill="#263238"/>
<path d="M129.432 219.761C127.108 219.165 124.199 219.334 122.287 220.892C122.215 220.953 122.287 221.056 122.38 221.035C124.68 220.461 127.036 220.134 129.406 220.059C129.446 220.062 129.485 220.05 129.515 220.024C129.546 219.999 129.565 219.962 129.568 219.923C129.571 219.883 129.559 219.844 129.533 219.814C129.508 219.783 129.471 219.764 129.432 219.761Z" fill="#263238"/>
<path d="M102.872 216.009C100.25 215.382 99.2736 219.458 101.9 220.085C104.527 220.712 105.498 216.636 102.872 216.009Z" fill="#263238"/>
<path d="M128.566 210.74C127.62 209.47 125.898 210.072 124.921 210.91C123.277 212.387 122.049 214.269 121.359 216.368C121.359 216.42 121.359 216.445 121.416 216.456C121.414 216.502 121.423 216.547 121.442 216.589C121.462 216.63 121.491 216.667 121.527 216.695C121.563 216.723 121.605 216.742 121.651 216.751C121.696 216.759 121.742 216.757 121.786 216.744C123.729 215.998 125.898 215.438 127.548 214.117C128.494 213.31 129.46 211.922 128.566 210.74ZM124.5 215.006C123.554 215.402 122.593 215.741 121.663 216.168C122.327 215.085 123.045 214.037 123.816 213.027C124.197 212.544 124.609 212.085 125.05 211.655C125.744 211.007 128.509 209.599 128.134 212.21C127.913 213.624 125.626 214.528 124.5 214.991V215.006Z" fill="#263238"/>
<path d="M115.349 215.818C117.307 216.62 119.543 216.548 121.615 216.723C121.661 216.723 121.707 216.711 121.748 216.69C121.789 216.669 121.825 216.639 121.853 216.601C121.88 216.564 121.899 216.52 121.906 216.475C121.914 216.429 121.911 216.382 121.897 216.338C121.906 216.334 121.914 216.328 121.921 216.321C121.928 216.314 121.933 216.305 121.936 216.296C121.938 216.287 121.939 216.277 121.938 216.267C121.937 216.257 121.933 216.248 121.928 216.24C120.676 214.419 118.967 212.958 116.973 212.005C115.801 211.491 113.982 211.377 113.427 212.858C112.871 214.338 114.208 215.366 115.349 215.818ZM114.259 214.148C113.164 211.763 116.213 212.328 117.061 212.755C117.603 213.043 118.127 213.366 118.628 213.721C119.656 214.451 120.607 215.31 121.574 216.132C120.546 215.988 119.543 215.926 118.531 215.818C117.318 215.685 114.866 215.464 114.259 214.148Z" fill="#263238"/>
<path d="M125.328 214.004L101.17 206.762C101.17 206.762 121.078 165.277 120.45 163.164C120.034 161.756 90.1861 161.658 81.4379 153.804C72.3863 145.673 79.4333 129.703 79.4333 129.703L104.527 129.574C104.527 129.574 104.095 134.812 105.041 135.629C105.673 136.169 139.993 139.191 146.551 151.805C152.534 163.252 125.328 214.004 125.328 214.004Z" fill="#263238"/>
<path d="M120.457 163.164C120.57 163.519 120.082 165.009 119.198 167.24L137.234 189.399C143.669 174.74 149.714 157.829 146.573 151.805C139.999 139.191 105.695 136.169 105.057 135.629C104.106 134.817 104.543 129.574 104.543 129.574L88.6094 129.657L115.08 162.172C118.267 162.522 120.349 162.799 120.457 163.164Z" fill="#263238"/>
<path d="M125.926 208.895C125.288 208.606 124.63 208.362 123.958 208.165C123.259 207.923 122.565 207.687 121.861 207.461C120.483 207.019 119.1 206.592 117.707 206.202C114.901 205.405 112.095 204.629 109.268 203.909C107.797 203.539 104.642 202.722 104.446 202.753C104.424 202.757 104.405 202.768 104.389 202.784C104.374 202.8 104.364 202.82 104.361 202.842C104.357 202.864 104.361 202.886 104.37 202.906C104.38 202.926 104.396 202.942 104.415 202.953C107.145 203.93 109.915 204.767 112.686 205.61C115.456 206.453 118.227 207.291 121.033 207.995C121.809 208.196 122.575 208.365 123.372 208.556C124.185 208.789 125.015 208.961 125.854 209.07C125.926 209.095 126.019 208.941 125.926 208.895Z" fill="#455A64"/>
<path d="M80.7899 134.483C80.867 133.645 80.9647 132.812 81.0572 131.975C81.0572 131.877 81.2217 131.882 81.2114 131.975C80.8773 135.367 80.5329 138.842 81.1549 142.224C81.728 145.346 83.3012 148.196 85.637 150.345C90.6176 154.971 97.5772 156.354 104.064 157.459C107.78 158.091 111.517 158.574 115.269 158.944C117.106 159.122 118.944 159.27 120.784 159.386C122.614 159.499 124.444 159.515 126.269 159.618C126.844 159.648 127.358 159.916 127.266 160.574C127.173 160.975 127.026 161.363 126.829 161.725L126.243 163.056C125.506 164.711 124.769 166.366 124.033 168.021C122.508 171.428 120.966 174.825 119.407 178.214C116.285 184.941 113.049 191.612 109.697 198.229C109.286 199.047 108.865 199.869 108.448 200.691C108.448 200.743 108.345 200.691 108.371 200.64C111.568 193.941 114.729 187.223 117.854 180.486C119.396 177.145 120.938 173.804 122.48 170.448C123.248 168.772 124.009 167.095 124.763 165.415C125.143 164.579 125.52 163.738 125.893 162.892C126.084 162.475 126.269 162.054 126.459 161.632C126.649 161.211 127.184 160.445 126.788 160.09C126.526 159.875 125.986 159.947 125.672 159.941L124.213 159.89C123.293 159.859 122.373 159.823 121.447 159.777C119.583 159.684 117.719 159.558 115.855 159.397C112.206 159.078 108.572 158.615 104.958 158.034C98.5127 157.006 91.5017 155.829 86.3411 151.502C84.0375 149.626 82.3212 147.128 81.3965 144.306C80.3942 141.144 80.4918 137.752 80.7899 134.483Z" fill="#455A64"/>
<path d="M188.349 199.113C187.439 200.023 155.34 215.793 153.777 215.618C153.597 215.618 152.107 212.734 150.138 208.771L150.081 208.684C148.822 206.176 137.406 185.086 137.406 185.086L157.375 174.976L169.11 195.5C169.11 195.5 174.332 195.161 178.994 195.084C181.867 195.032 184.381 195.032 185.028 195.171C186.74 195.557 189.259 198.214 188.349 199.113Z" fill="#D3766A"/>
<path d="M188.354 199.113C187.444 200.018 155.35 215.793 153.782 215.618C153.602 215.618 152.112 212.734 150.143 208.771L150.087 208.684C149.999 208.509 149.912 208.335 149.814 208.17C149.717 208.006 149.686 207.913 149.614 207.785C149.542 207.656 149.419 207.409 149.316 207.219C148.447 205.574 147.018 202.902 145.445 199.982L165.81 189.702L169.115 195.49C169.115 195.49 174.337 195.15 178.999 195.073C181.872 195.022 184.386 195.022 185.034 195.161C186.745 195.556 189.264 198.214 188.354 199.113Z" fill="white"/>
<path d="M188.543 199.17C187.602 200.095 155.426 215.803 153.822 215.618C153.21 215.556 150.306 210.827 148.07 205.127L168.826 195.022C168.826 195.022 183.439 194.719 185.176 195.099C186.913 195.479 189.483 198.245 188.543 199.17Z" fill="#E60000"/>
<path d="M187.453 198.106C181.995 200.609 160.211 211.213 155.01 214.102C154.969 214.102 154.984 214.153 155.01 214.132C160.474 211.773 182.17 200.989 187.484 198.198C187.608 198.137 187.572 198.054 187.453 198.106Z" fill="#263238"/>
<path d="M182.539 194.965C181.935 195.243 181.394 195.643 180.952 196.14C180.509 196.637 180.175 197.221 179.969 197.854C179.587 198.993 179.658 200.236 180.17 201.324C180.17 201.354 180.247 201.324 180.237 201.293C179.896 200.136 179.942 198.899 180.365 197.77C180.789 196.641 181.568 195.68 182.586 195.032C182.611 195.007 182.581 194.945 182.539 194.965Z" fill="#263238"/>
<path d="M170.78 194.749C168.606 195.777 166.478 197.756 166 200.177C166 200.27 166.113 200.296 166.159 200.234C167.562 198.32 169.168 196.564 170.95 194.996C170.966 194.985 170.98 194.971 170.991 194.954C171.001 194.938 171.009 194.919 171.012 194.9C171.016 194.881 171.016 194.861 171.011 194.842C171.007 194.822 171 194.804 170.988 194.788C170.977 194.772 170.963 194.758 170.947 194.747C170.93 194.737 170.912 194.729 170.892 194.726C170.873 194.722 170.853 194.722 170.834 194.726C170.815 194.731 170.796 194.738 170.78 194.749Z" fill="#263238"/>
<path d="M172.765 194.585C170.59 195.613 168.462 197.592 167.984 200.013C167.984 200.105 168.097 200.131 168.144 200.069C169.548 198.157 171.154 196.401 172.934 194.832C172.967 194.809 172.989 194.775 172.997 194.736C173.004 194.697 172.995 194.656 172.973 194.624C172.95 194.591 172.916 194.568 172.877 194.561C172.838 194.554 172.797 194.563 172.765 194.585Z" fill="#263238"/>
<path d="M174.757 194.421C172.583 195.449 170.455 197.427 169.977 199.848C169.977 199.941 170.09 199.967 170.136 199.905C171.541 197.993 173.147 196.237 174.926 194.667C174.959 194.645 174.982 194.61 174.989 194.571C174.996 194.532 174.987 194.492 174.965 194.459C174.942 194.426 174.908 194.404 174.869 194.397C174.83 194.389 174.789 194.398 174.757 194.421Z" fill="#263238"/>
<path d="M176.733 194.256C174.559 195.284 172.431 197.263 171.953 199.684C171.953 199.776 172.066 199.802 172.112 199.74C173.518 197.829 175.124 196.073 176.903 194.503C176.919 194.492 176.933 194.477 176.944 194.461C176.954 194.444 176.962 194.426 176.965 194.407C176.969 194.387 176.969 194.368 176.965 194.348C176.96 194.329 176.953 194.311 176.941 194.295C176.93 194.278 176.916 194.265 176.9 194.254C176.883 194.243 176.865 194.236 176.845 194.232C176.826 194.229 176.806 194.229 176.787 194.233C176.768 194.237 176.75 194.245 176.733 194.256Z" fill="#263238"/>
<path d="M153.886 208.304C151.465 209.496 153.31 213.259 155.731 212.066C158.152 210.874 156.307 207.111 153.886 208.304Z" fill="#263238"/>
<path d="M170.303 187.846C168.761 187.476 167.825 189.034 167.609 190.303C167.279 192.489 167.533 194.724 168.344 196.78C168.344 196.831 168.406 196.831 168.442 196.811C168.469 196.848 168.505 196.878 168.546 196.899C168.587 196.92 168.633 196.931 168.679 196.931C168.725 196.931 168.77 196.92 168.811 196.899C168.852 196.878 168.888 196.848 168.915 196.811C169.943 194.996 171.243 193.182 171.675 191.11C171.927 189.887 171.752 188.201 170.303 187.846ZM169.897 193.732C169.414 194.636 168.869 195.51 168.447 196.43C168.309 195.166 168.118 193.917 168.103 192.637C168.088 192.023 168.113 191.408 168.18 190.797C168.303 189.856 169.542 187.014 170.904 189.255C171.675 190.499 170.467 192.652 169.897 193.732Z" fill="#263238"/>
<path d="M163.365 200.203C165.385 199.571 167.066 198.09 168.772 196.903C168.808 196.874 168.836 196.836 168.854 196.794C168.872 196.751 168.88 196.705 168.877 196.659C168.874 196.613 168.86 196.568 168.837 196.528C168.813 196.489 168.781 196.455 168.741 196.43C168.747 196.421 168.75 196.411 168.75 196.401C168.751 196.391 168.749 196.381 168.745 196.371C168.741 196.362 168.735 196.353 168.727 196.347C168.719 196.34 168.71 196.335 168.7 196.333C166.574 195.728 164.327 195.693 162.183 196.23C160.939 196.564 159.479 197.659 159.998 199.149C160.492 200.558 162.188 200.568 163.365 200.203ZM161.463 199.607C159.099 198.471 161.802 196.965 162.728 196.754C163.331 196.625 163.942 196.539 164.558 196.497C165.826 196.433 167.098 196.433 168.366 196.497C167.487 197.011 166.67 197.633 165.796 198.193C164.799 198.846 162.769 200.239 161.463 199.607Z" fill="#263238"/>
<path d="M169.03 192.19L144.943 204.223C144.943 204.223 126.152 166.022 124.09 163.55C121.341 160.265 85.5405 164.902 77.0955 154.298C68.3575 143.334 75.8465 129.718 75.8465 129.718H103.088C103.088 129.718 103.171 132.741 101.598 137.161C101.598 137.161 132.762 135.305 141.582 143.879C148.362 150.448 169.03 192.19 169.03 192.19Z" fill="#263238"/>
<path d="M96.6297 139.901C98.0242 138.939 99.4708 138.055 100.963 137.253C102.011 136.702 103.111 136.256 104.247 135.922C105.044 135.732 105.388 135.676 104.643 136.025L102.638 136.976C102.782 136.976 102.926 136.976 103.065 136.976C103.579 136.976 104.134 136.93 104.669 136.919C105.697 136.889 106.766 136.919 107.814 136.894C109.942 136.894 112.045 137.079 114.167 137.187C114.176 137.19 114.184 137.196 114.19 137.204C114.195 137.211 114.198 137.221 114.198 137.23C114.198 137.24 114.195 137.249 114.19 137.257C114.184 137.265 114.176 137.271 114.167 137.274C112.05 137.207 109.922 137.315 107.804 137.31C106.776 137.31 105.707 137.336 104.658 137.356L103.116 137.382C102.683 137.405 102.249 137.405 101.816 137.382L101.23 137.66C99.688 138.384 98.146 139.145 96.6708 139.983C96.6297 139.988 96.5989 139.931 96.6297 139.901Z" fill="#455A64"/>
<path d="M103.74 128.685C103.463 129.975 103.226 131.255 102.902 132.545C102.758 133.131 102.609 133.722 102.388 134.293C102.224 134.776 101.962 135.321 101.412 135.449C100.785 135.593 100.584 135.059 100.62 134.534C100.656 134.01 100.79 133.357 100.882 132.782C100.995 132.113 101.108 131.445 101.206 130.777C101.252 130.443 101.304 130.109 101.35 129.749C101.35 129.667 101.401 129.029 101.442 128.844C101.442 128.844 101.442 128.875 101.478 128.87C101.488 128.869 101.496 128.865 101.503 128.858C101.509 128.852 101.513 128.843 101.514 128.834C101.52 128.817 101.52 128.798 101.513 128.781C101.507 128.764 101.494 128.75 101.478 128.742C101.478 128.742 101.442 128.742 101.422 128.742C101.304 128.808 101.299 128.978 101.268 129.101C101.175 129.425 101.078 129.754 100.995 130.078C100.841 130.695 100.687 131.312 100.553 131.928C100.42 132.545 100.291 133.172 100.163 133.789C100.019 134.25 99.9927 134.739 100.086 135.213C100.151 135.436 100.286 135.632 100.471 135.773C100.656 135.914 100.881 135.991 101.114 135.994C101.114 136.035 101.067 136.076 101.052 136.117C101 136.246 100.964 136.38 100.918 136.513C100.872 136.647 100.836 136.781 100.8 136.914C100.795 136.981 100.795 137.048 100.8 137.115C100.8 137.187 100.8 137.259 100.8 137.336C100.794 137.361 100.798 137.387 100.811 137.409C100.824 137.432 100.845 137.448 100.869 137.456C100.894 137.464 100.92 137.462 100.944 137.451C100.967 137.44 100.985 137.421 100.995 137.397C101.031 137.331 101.078 137.279 101.114 137.217C101.149 137.147 101.177 137.073 101.196 136.996C101.232 136.868 101.268 136.739 101.293 136.611C101.329 136.481 101.356 136.349 101.376 136.215C101.383 136.138 101.383 136.061 101.376 135.984C101.643 135.95 101.895 135.844 102.106 135.675C102.455 135.357 102.705 134.945 102.825 134.488C103 133.948 103.134 133.393 103.262 132.843C103.606 131.495 103.831 130.119 103.935 128.731C103.929 128.712 103.918 128.695 103.903 128.682C103.888 128.668 103.87 128.659 103.851 128.654C103.831 128.649 103.811 128.65 103.791 128.655C103.772 128.661 103.754 128.671 103.74 128.685Z" fill="#455A64"/>
<path d="M90.601 132.35C90.5033 132.987 90.4519 133.625 90.3285 134.257C90.2052 134.889 90.0613 135.496 89.8814 136.102C89.718 136.69 89.4741 137.252 89.1566 137.773C88.8224 138.262 88.419 138.7 87.959 139.073C87.0842 139.819 86.0927 140.417 85.0241 140.841C84.4856 141.056 83.9346 141.238 83.3741 141.386C83.0811 141.458 82.7882 141.52 82.49 141.571C82.2433 141.587 82.0022 141.651 81.7807 141.761C81.7594 141.774 81.7418 141.792 81.7296 141.814C81.7174 141.835 81.7109 141.86 81.7109 141.885C81.7109 141.909 81.7174 141.934 81.7296 141.955C81.7418 141.977 81.7594 141.995 81.7807 142.008C82.2152 142.124 82.6724 142.124 83.1068 142.008C83.5831 141.946 84.0539 141.849 84.5152 141.715C85.4472 141.435 86.3349 141.025 87.152 140.497C87.9793 139.991 88.7145 139.348 89.3262 138.595C89.893 137.803 90.271 136.893 90.4313 135.932C90.6885 134.76 90.7802 133.558 90.7038 132.36C90.699 132.351 90.6921 132.343 90.6836 132.338C90.6752 132.332 90.6654 132.328 90.6552 132.327C90.6449 132.326 90.6346 132.328 90.6252 132.332C90.6157 132.336 90.6074 132.342 90.601 132.35Z" fill="#455A64"/>
<path d="M164.142 187.81C163.479 188.038 162.834 188.311 162.209 188.628C161.541 188.936 160.868 189.239 160.204 189.558C158.899 190.18 157.598 190.823 156.319 191.491C153.749 192.843 151.179 194.205 148.609 195.603C147.283 196.338 144.43 197.911 144.306 198.07C144.25 198.142 144.342 198.27 144.425 198.24C147.077 197.073 149.667 195.777 152.263 194.492C154.859 193.207 157.444 191.922 159.973 190.494C160.672 190.103 161.361 189.697 162.029 189.296C162.784 188.91 163.509 188.469 164.198 187.975C164.286 187.949 164.234 187.78 164.142 187.81Z" fill="#455A64"/>
<path d="M75.8633 136.061C75.8633 136.036 75.8731 136.013 75.8904 135.996C75.9078 135.978 75.9313 135.969 75.9558 135.969C75.9804 135.969 76.0039 135.978 76.0213 135.996C76.0386 136.013 76.0484 136.036 76.0484 136.061C75.997 141.977 76.9067 148.592 81.4659 152.838C86.4569 157.495 93.6631 158.05 100.145 157.978C103.871 157.947 107.582 157.855 111.304 157.978C115.025 158.101 118.818 158.276 122.535 158.754C123.98 158.889 125.33 159.534 126.343 160.574C127.321 161.685 128.17 162.904 128.872 164.208C130.743 167.292 132.556 170.427 134.31 173.614C137.802 179.916 141.03 186.349 143.994 192.915C144.364 193.73 144.729 194.547 145.089 195.366C145.115 195.418 145.032 195.464 145.007 195.413C141.995 188.823 138.751 182.348 135.277 175.989C133.543 172.805 131.752 169.656 129.905 166.541C129.037 165.076 128.199 163.575 127.227 162.172C126.374 160.933 125.3 159.772 123.82 159.32C122.91 159.093 121.98 158.959 121.044 158.919C120.095 158.833 119.144 158.754 118.191 158.682C116.337 158.549 114.48 158.447 112.619 158.379C108.867 158.24 105.12 158.286 101.368 158.353C94.8556 158.471 87.7367 158.25 82.35 154.102C80.0417 152.292 78.2992 149.86 77.3282 147.091C76.3728 144.252 75.8833 141.277 75.8787 138.282C75.8428 137.552 75.8479 136.806 75.8633 136.061Z" fill="#455A64"/>
<path d="M114.867 161.982C116.193 161.982 117.524 162.059 118.85 162.105C119.957 162.087 121.063 162.185 122.15 162.398C123.178 162.65 123.954 162.768 124.776 163.894C125.804 165.297 131.397 176.107 133.746 180.892C134.397 182.218 135.039 183.549 135.673 184.886C136.326 186.268 136.902 187.682 137.555 189.065C137.555 189.111 137.503 189.157 137.477 189.106C136.902 187.949 136.259 186.829 135.668 185.683C135.077 184.536 134.491 183.38 133.915 182.223C132.747 179.89 131.58 177.558 130.415 175.228C129.248 172.915 127.845 170.663 126.658 168.366C125.666 166.433 124.314 163.791 123.368 163.401C122.049 162.883 120.666 162.548 119.256 162.403C117.791 162.301 116.326 162.213 114.861 162.085C114.855 162.084 114.848 162.083 114.842 162.08C114.836 162.077 114.83 162.073 114.826 162.068C114.821 162.063 114.818 162.057 114.815 162.051C114.813 162.044 114.812 162.038 114.813 162.031C114.813 162.024 114.815 162.017 114.817 162.011C114.82 162.005 114.824 162 114.829 161.995C114.834 161.991 114.84 161.987 114.847 161.985C114.853 161.983 114.86 161.982 114.867 161.982Z" fill="#455A64"/>
<path d="M93.7234 79.9013C92.818 80.2483 92.0186 80.8252 91.4039 81.575C90.7892 82.3249 90.3805 83.2219 90.2179 84.1778C90.055 85.4144 89.7301 86.6241 89.2516 87.7758C88.6421 88.9116 87.8678 89.9508 86.954 90.8598C85.5662 92.3658 84.5639 93.8924 84.2298 95.9998C83.8264 98.2264 83.8911 100.513 84.42 102.713C84.0125 100.398 84.0843 98.0238 84.6307 95.7377C85.1755 93.4298 86.5942 92.0472 88.0591 90.3612C89.2262 89.0534 90.0198 87.4555 90.3567 85.7352C90.5571 84.6815 90.6137 83.5713 91.1071 82.5998C91.6982 81.4331 92.7622 80.7392 93.8159 80.1275C93.8366 80.11 93.8512 80.0863 93.8576 80.06C93.864 80.0337 93.862 80.0059 93.8517 79.9809C93.8414 79.9558 93.8235 79.9345 93.8004 79.9203C93.7774 79.906 93.7504 79.8994 93.7234 79.9013Z" fill="#263238"/>
<path d="M111.772 93.4144C110.595 91.6616 109.351 90.1556 108.735 88.0328C108.174 86.1002 107.912 84.0801 107.337 82.1475C107.337 82.1167 107.28 82.1475 107.29 82.1475C108.144 85.5656 108.133 88.9631 110.117 91.9135C111.192 93.5172 112.276 94.9975 112.934 96.8993C113.597 98.8739 113.876 100.957 113.756 103.036C113.756 103.108 113.849 103.114 113.864 103.036C114.393 99.6804 113.647 96.2479 111.772 93.4144Z" fill="#263238"/>
<path d="M97.4066 105.509C99.0566 115.403 105.667 127.904 107.25 128.67C110.056 130.027 128.838 131.486 129.573 131.42C131.413 131.245 133.685 118.94 132.143 117.675C131.793 117.393 113.952 117.259 113.197 117.033C112.266 116.755 107.867 110.407 103.302 103.946C100.126 99.4077 96.5328 100.23 97.4066 105.509Z" fill="#D3766A"/>
<path d="M127.305 130.787C129.068 131.527 130.878 132.15 132.722 132.653C134.197 132.987 138.453 133.835 138.983 132.257C139.348 131.178 136.927 130.381 135.184 129.78C134.28 129.466 133.128 128.603 133.365 128.022C133.761 126.994 136.094 127.868 137.636 128.649C140.628 130.16 144.652 132.956 146.333 131.389C146.965 130.792 146.133 129.847 144.94 128.906C146.847 129.934 148.867 130.782 149.597 130.15C149.785 129.988 149.904 129.761 149.93 129.514C149.956 129.268 149.886 129.021 149.736 128.824C149.974 128.918 150.235 128.939 150.486 128.885C150.736 128.831 150.965 128.704 151.144 128.521C151.704 127.858 151.36 126.979 150.63 126.043C150.74 126.023 150.844 125.976 150.933 125.909C151.023 125.841 151.095 125.753 151.144 125.652C152.301 123.648 145.634 118.456 143.434 118.086C136.896 116.93 130.07 117.891 130.07 117.891C127.659 120.065 127.3 130.782 127.305 130.787Z" fill="#D3766A"/>
<path d="M136.429 124.224C137.982 124.358 139.485 124.837 140.829 125.627C142.396 126.573 143.671 127.914 145.131 128.999C145.172 129.029 145.131 129.091 145.084 129.06C144.396 128.495 143.645 127.996 142.931 127.457C142.216 126.917 141.553 126.377 140.823 125.915C139.504 125.034 138.001 124.468 136.429 124.26C136.429 124.26 136.413 124.218 136.429 124.224Z" fill="#263238"/>
<path d="M137.477 121.417C139.223 121.72 140.934 122.202 142.581 122.856C144.354 123.632 145.788 124.984 147.207 126.285C148.05 127.061 148.878 127.863 149.685 128.68C149.721 128.711 149.685 128.772 149.638 128.736C148.209 127.393 146.743 126.094 145.238 124.84C143.849 123.665 142.24 122.778 140.504 122.229C139.512 121.916 138.5 121.679 137.487 121.443C137.451 121.443 137.456 121.412 137.477 121.417Z" fill="#263238"/>
<path d="M139.146 118.914C140.811 119.156 142.266 119.361 143.772 120.158C145.473 121.158 147.042 122.367 148.444 123.756C149.212 124.486 149.959 125.234 150.685 126.002C150.711 126.033 150.659 126.084 150.629 126.053C148.959 124.382 147.183 122.82 145.314 121.376C144.435 120.672 143.452 120.11 142.399 119.711C141.337 119.365 140.247 119.11 139.141 118.95C139.141 118.95 139.141 118.914 139.146 118.914Z" fill="#263238"/>
<path d="M127.789 122.682V131.934C127.789 131.934 112.184 131.296 107.173 129.132C104.479 127.965 97.6175 110.669 96.682 105.134C95.7619 99.6852 97.9156 96.4573 103.487 102.779C107.759 107.627 114.029 116.37 114.528 116.611C115.027 116.853 127.81 115.912 127.81 115.912V122.671" fill="#E60000"/>
<path d="M97.8748 108.917C97.8748 109.047 97.8314 109.174 97.7514 109.277C97.6538 108.963 97.5561 108.655 97.4688 108.356C97.5871 108.395 97.6903 108.47 97.7633 108.57C97.8363 108.671 97.8754 108.792 97.8748 108.917ZM105.328 108.32C105.21 108.32 105.095 108.355 104.997 108.421C104.899 108.486 104.822 108.58 104.777 108.689C104.732 108.797 104.72 108.917 104.743 109.033C104.766 109.149 104.823 109.255 104.906 109.338C104.99 109.422 105.096 109.478 105.211 109.501C105.327 109.524 105.447 109.513 105.556 109.468C105.665 109.422 105.758 109.346 105.824 109.248C105.889 109.15 105.924 109.035 105.924 108.917C105.923 108.759 105.859 108.608 105.748 108.497C105.636 108.385 105.486 108.322 105.328 108.32ZM101.303 102.152C101.185 102.152 101.07 102.187 100.972 102.253C100.874 102.318 100.797 102.412 100.752 102.521C100.707 102.629 100.695 102.749 100.718 102.865C100.741 102.981 100.798 103.087 100.882 103.17C100.965 103.254 101.071 103.31 101.187 103.333C101.303 103.356 101.422 103.345 101.531 103.3C101.64 103.254 101.733 103.178 101.799 103.08C101.864 102.982 101.899 102.867 101.899 102.749C101.895 102.593 101.831 102.446 101.719 102.337C101.608 102.229 101.459 102.168 101.303 102.168V102.152ZM105.328 120.276C105.208 120.275 105.091 120.31 104.992 120.375C104.892 120.441 104.814 120.535 104.768 120.645C104.722 120.755 104.71 120.876 104.733 120.994C104.756 121.111 104.813 121.218 104.897 121.303C104.982 121.387 105.089 121.444 105.207 121.468C105.324 121.491 105.445 121.478 105.555 121.432C105.665 121.386 105.759 121.308 105.825 121.208C105.891 121.109 105.925 120.992 105.924 120.872C105.923 120.715 105.859 120.564 105.748 120.452C105.636 120.341 105.486 120.277 105.328 120.276ZM113.372 120.276C113.253 120.276 113.136 120.312 113.037 120.378C112.938 120.444 112.861 120.538 112.816 120.649C112.77 120.759 112.759 120.88 112.782 120.997C112.806 121.114 112.864 121.221 112.949 121.305C113.033 121.388 113.141 121.445 113.258 121.468C113.375 121.491 113.496 121.478 113.606 121.432C113.715 121.385 113.809 121.307 113.874 121.208C113.94 121.108 113.974 120.992 113.973 120.872C113.973 120.794 113.958 120.716 113.927 120.643C113.897 120.57 113.853 120.504 113.797 120.449C113.741 120.393 113.675 120.35 113.602 120.32C113.529 120.29 113.451 120.275 113.372 120.276ZM121.421 120.276C121.302 120.275 121.185 120.31 121.085 120.375C120.985 120.441 120.908 120.535 120.861 120.645C120.815 120.755 120.803 120.876 120.826 120.994C120.849 121.111 120.906 121.218 120.991 121.303C121.075 121.387 121.183 121.444 121.3 121.468C121.417 121.491 121.538 121.478 121.649 121.432C121.759 121.386 121.852 121.308 121.918 121.208C121.984 121.109 122.018 120.992 122.017 120.872C122.017 120.714 121.955 120.563 121.843 120.451C121.731 120.339 121.579 120.276 121.421 120.276ZM101.303 114.108C101.184 114.107 101.067 114.142 100.967 114.207C100.867 114.273 100.79 114.367 100.743 114.477C100.697 114.587 100.685 114.708 100.708 114.826C100.731 114.943 100.788 115.05 100.873 115.135C100.957 115.219 101.065 115.276 101.182 115.3C101.299 115.323 101.42 115.31 101.531 115.264C101.641 115.218 101.735 115.14 101.8 115.04C101.866 114.941 101.9 114.824 101.899 114.704C101.899 114.546 101.837 114.395 101.725 114.283C101.613 114.171 101.461 114.108 101.303 114.108ZM109.352 114.108C109.233 114.107 109.116 114.142 109.016 114.207C108.917 114.273 108.839 114.367 108.793 114.477C108.747 114.587 108.734 114.708 108.757 114.826C108.78 114.943 108.838 115.05 108.922 115.135C109.006 115.219 109.114 115.276 109.231 115.3C109.348 115.323 109.47 115.31 109.58 115.264C109.69 115.218 109.784 115.14 109.849 115.04C109.915 114.941 109.95 114.824 109.949 114.704C109.949 114.546 109.886 114.395 109.774 114.283C109.662 114.171 109.511 114.108 109.352 114.108ZM109.352 126.053C109.233 126.052 109.116 126.087 109.017 126.152C108.917 126.218 108.839 126.311 108.793 126.421C108.747 126.531 108.734 126.652 108.757 126.769C108.779 126.886 108.836 126.994 108.92 127.078C109.004 127.163 109.111 127.221 109.228 127.244C109.345 127.268 109.466 127.256 109.576 127.211C109.686 127.166 109.781 127.088 109.847 126.989C109.913 126.89 109.949 126.774 109.949 126.655C109.947 126.497 109.884 126.346 109.773 126.235C109.661 126.123 109.51 126.06 109.352 126.059V126.053ZM117.397 126.053C117.278 126.053 117.161 126.089 117.062 126.155C116.964 126.221 116.886 126.315 116.841 126.425C116.795 126.535 116.784 126.656 116.807 126.772C116.83 126.889 116.887 126.996 116.971 127.08C117.055 127.164 117.163 127.221 117.279 127.245C117.396 127.268 117.517 127.256 117.627 127.21C117.737 127.165 117.83 127.088 117.897 126.989C117.963 126.89 117.998 126.774 117.998 126.655C117.998 126.576 117.982 126.498 117.952 126.425C117.922 126.353 117.877 126.287 117.821 126.231C117.766 126.176 117.699 126.132 117.626 126.103C117.553 126.073 117.475 126.058 117.397 126.059V126.053ZM125.446 126.053C125.327 126.052 125.21 126.087 125.11 126.152C125.011 126.218 124.933 126.311 124.887 126.421C124.84 126.531 124.828 126.652 124.85 126.769C124.873 126.886 124.93 126.994 125.014 127.078C125.097 127.163 125.205 127.221 125.321 127.244C125.438 127.268 125.559 127.256 125.67 127.211C125.78 127.166 125.874 127.088 125.94 126.989C126.007 126.89 126.042 126.774 126.042 126.655C126.042 126.497 125.979 126.345 125.867 126.233C125.756 126.121 125.604 126.059 125.446 126.059V126.053Z" fill="white"/>
<path d="M124.459 123.633C124.459 122.502 124.495 121.376 124.521 120.245C124.546 119.114 124.521 117.984 124.644 116.863C124.644 116.812 124.731 116.807 124.737 116.863C124.834 117.948 124.808 119.053 124.829 120.142C124.85 121.232 124.829 122.45 124.86 123.602C124.86 125.884 124.793 128.161 124.675 130.438C124.675 130.494 124.593 130.484 124.593 130.438C124.495 128.161 124.433 125.899 124.459 123.633Z" fill="#263238"/>
<path opacity="0.1" d="M119.211 131.337C114.718 130.906 109.645 130.212 107.168 129.143C104.469 127.976 97.6125 110.68 96.6822 105.139C96.1682 102.086 96.6102 99.7264 98.0957 99.3717L119.211 131.337Z" fill="black"/>
<path d="M105.19 124.27L105.704 133.825H72.8438C72.8438 133.825 82.2088 106.809 88.5259 101.099C92.7972 97.2386 97.3307 97.9736 99.9675 101.191C100.636 102.003 107.503 111.579 108.022 116.097C108.485 120.065 105.19 124.27 105.19 124.27Z" fill="#E60000"/>
<path d="M105.48 129.528C105.306 127.78 105.162 126.028 105.038 124.28V124.224L105.079 124.167C105.971 122.98 106.691 121.674 107.218 120.286C107.474 119.594 107.658 118.878 107.768 118.148C107.892 117.426 107.9 116.689 107.793 115.964C107.693 115.231 107.521 114.509 107.279 113.81C107.048 113.101 106.78 112.405 106.477 111.723C105.858 110.355 105.161 109.024 104.391 107.734C105.279 108.956 106.061 110.251 106.729 111.605C107.439 112.953 107.938 114.403 108.21 115.902C108.419 117.437 108.217 118.999 107.624 120.43C107.076 121.856 106.304 123.186 105.336 124.368L105.372 124.26C105.413 126.017 105.465 127.77 105.48 129.528Z" fill="#263238"/>
<path d="M105.953 109.097C106.271 109.642 106.528 110.222 106.719 110.824C106.816 111.125 106.895 111.433 106.955 111.744C107.022 112.056 107.048 112.376 107.033 112.695C106.842 112.088 106.632 111.507 106.441 110.916C106.244 110.319 106.081 109.712 105.953 109.097Z" fill="#263238"/>
<path d="M89.8288 108.917C89.8298 109.036 89.7954 109.153 89.7299 109.252C89.6645 109.352 89.5709 109.43 89.4611 109.476C89.3513 109.522 89.2302 109.535 89.1132 109.512C88.9963 109.49 88.8886 109.433 88.804 109.349C88.7194 109.265 88.6616 109.158 88.638 109.041C88.6143 108.924 88.626 108.803 88.6713 108.693C88.7167 108.583 88.7938 108.488 88.8928 108.422C88.9918 108.356 89.1082 108.32 89.2274 108.32C89.3061 108.32 89.3842 108.335 89.4571 108.364C89.5301 108.394 89.5964 108.438 89.6523 108.493C89.7082 108.549 89.7526 108.615 89.7829 108.687C89.8132 108.76 89.8288 108.838 89.8288 108.917ZM97.2766 108.32C97.1587 108.32 97.0434 108.355 96.9454 108.421C96.8473 108.486 96.7709 108.58 96.7258 108.689C96.6806 108.797 96.6688 108.917 96.6918 109.033C96.7149 109.149 96.7716 109.255 96.855 109.338C96.9384 109.422 97.0446 109.478 97.1603 109.501C97.276 109.524 97.3959 109.513 97.5048 109.468C97.6138 109.422 97.7069 109.346 97.7724 109.248C97.8379 109.15 97.8729 109.035 97.8729 108.917C97.8729 108.838 97.8574 108.761 97.8275 108.689C97.7975 108.616 97.7536 108.55 97.6982 108.495C97.6429 108.44 97.5771 108.396 97.5048 108.366C97.4325 108.336 97.3549 108.32 97.2766 108.32ZM104.848 108.557C104.768 108.66 104.724 108.786 104.724 108.917C104.726 109.075 104.79 109.227 104.902 109.339C105.015 109.45 105.167 109.513 105.326 109.513H105.367C105.213 109.189 105.033 108.87 104.853 108.557H104.848ZM93.252 102.168C93.1343 102.169 93.0195 102.205 92.9222 102.271C92.8248 102.337 92.7492 102.43 92.7048 102.539C92.6605 102.649 92.6494 102.768 92.673 102.884C92.6966 102.999 92.7538 103.105 92.8374 103.187C92.9209 103.27 93.0272 103.327 93.1427 103.349C93.2582 103.372 93.3778 103.36 93.4865 103.314C93.5951 103.269 93.688 103.193 93.7533 103.095C93.8185 102.997 93.8534 102.882 93.8534 102.764C93.8534 102.685 93.8378 102.607 93.8075 102.535C93.7772 102.462 93.7329 102.396 93.6769 102.341C93.621 102.285 93.5547 102.241 93.4818 102.212C93.4088 102.182 93.3307 102.167 93.252 102.168ZM100.859 102.368C100.759 102.475 100.704 102.617 100.705 102.764C100.705 102.922 100.768 103.074 100.88 103.186C100.991 103.298 101.143 103.36 101.301 103.36C101.377 103.36 101.452 103.346 101.522 103.319C101.281 102.965 101.06 102.646 100.859 102.368ZM81.209 120.276C81.0896 120.275 80.9726 120.31 80.873 120.375C80.7733 120.441 80.6954 120.535 80.6493 120.645C80.6031 120.755 80.5908 120.876 80.6138 120.994C80.6368 121.111 80.6942 121.218 80.7786 121.303C80.8631 121.387 80.9707 121.444 81.0878 121.468C81.2049 121.491 81.3263 121.478 81.4364 121.432C81.5465 121.386 81.6403 121.308 81.706 121.208C81.7717 121.109 81.8062 120.992 81.8052 120.872C81.8052 120.714 81.7424 120.563 81.6306 120.451C81.5188 120.339 81.3671 120.276 81.209 120.276ZM89.2531 120.276C89.1339 120.276 89.0175 120.311 88.9185 120.378C88.8195 120.444 88.7424 120.538 88.697 120.649C88.6516 120.759 88.64 120.88 88.6637 120.997C88.6873 121.113 88.7451 121.221 88.8297 121.305C88.9143 121.388 89.022 121.445 89.1389 121.468C89.2559 121.491 89.377 121.478 89.4868 121.432C89.5966 121.385 89.6902 121.307 89.7556 121.208C89.8211 121.108 89.8555 120.991 89.8545 120.872C89.8546 120.791 89.8382 120.711 89.8063 120.637C89.7745 120.562 89.7278 120.495 89.6691 120.439C89.6104 120.384 89.541 120.34 89.465 120.312C89.3891 120.284 89.3083 120.272 89.2274 120.276H89.2531ZM97.3023 120.276C97.183 120.275 97.066 120.31 96.9663 120.375C96.8666 120.441 96.7888 120.535 96.7426 120.645C96.6964 120.755 96.6841 120.876 96.7071 120.994C96.7302 121.111 96.7876 121.218 96.872 121.303C96.9564 121.387 97.064 121.444 97.1811 121.468C97.2983 121.491 97.4196 121.478 97.5297 121.432C97.6398 121.386 97.7337 121.308 97.7994 121.208C97.8651 121.109 97.8996 120.992 97.8986 120.872C97.8986 120.792 97.8824 120.712 97.8509 120.638C97.8193 120.564 97.7731 120.497 97.715 120.441C97.6568 120.386 97.588 120.342 97.5127 120.314C97.4374 120.285 97.3571 120.273 97.2766 120.276H97.3023ZM105.352 120.276C105.232 120.275 105.115 120.31 105.016 120.375C104.916 120.441 104.838 120.535 104.792 120.645C104.746 120.755 104.733 120.876 104.756 120.994C104.779 121.111 104.837 121.218 104.921 121.303C105.006 121.387 105.113 121.444 105.23 121.468C105.348 121.491 105.469 121.478 105.579 121.432C105.689 121.386 105.783 121.308 105.849 121.208C105.914 121.109 105.949 120.992 105.948 120.872C105.947 120.792 105.93 120.713 105.899 120.639C105.867 120.565 105.821 120.499 105.763 120.443C105.705 120.387 105.636 120.344 105.561 120.315C105.486 120.287 105.406 120.273 105.326 120.276H105.352ZM85.2336 114.108C85.1142 114.107 84.9973 114.142 84.8976 114.207C84.7979 114.273 84.72 114.367 84.6739 114.477C84.6277 114.587 84.6154 114.708 84.6384 114.826C84.6615 114.943 84.7188 115.05 84.8033 115.135C84.8877 115.219 84.9953 115.276 85.1124 115.3C85.2296 115.323 85.3509 115.31 85.461 115.264C85.5711 115.218 85.665 115.14 85.7306 115.04C85.7963 114.941 85.8309 114.824 85.8299 114.704C85.8299 114.624 85.8137 114.544 85.7821 114.47C85.7506 114.396 85.7044 114.329 85.6462 114.273C85.5881 114.218 85.5193 114.174 85.444 114.146C85.3687 114.117 85.2883 114.105 85.2079 114.108H85.2336ZM93.2777 114.108C93.1586 114.108 93.0421 114.143 92.9431 114.21C92.8441 114.276 92.767 114.37 92.7216 114.481C92.6763 114.591 92.6647 114.712 92.6883 114.829C92.7119 114.945 92.7697 115.053 92.8543 115.137C92.9389 115.22 93.0466 115.277 93.1636 115.3C93.2806 115.323 93.4016 115.31 93.5114 115.264C93.6212 115.217 93.7148 115.139 93.7803 115.04C93.8457 114.94 93.8801 114.823 93.8791 114.704C93.8792 114.623 93.8628 114.543 93.8309 114.469C93.7991 114.394 93.7524 114.327 93.6937 114.271C93.635 114.216 93.5656 114.172 93.4897 114.144C93.4137 114.116 93.3329 114.104 93.252 114.108H93.2777ZM101.327 114.108C101.208 114.107 101.091 114.142 100.991 114.207C100.891 114.273 100.813 114.367 100.767 114.477C100.721 114.587 100.709 114.708 100.732 114.826C100.755 114.943 100.812 115.05 100.897 115.135C100.981 115.219 101.089 115.276 101.206 115.3C101.323 115.323 101.444 115.31 101.554 115.264C101.664 115.218 101.758 115.14 101.824 115.04C101.89 114.941 101.924 114.824 101.923 114.704C101.923 114.624 101.907 114.544 101.875 114.47C101.844 114.396 101.798 114.329 101.74 114.273C101.681 114.218 101.613 114.174 101.537 114.146C101.462 114.117 101.382 114.105 101.301 114.108H101.327ZM73.427 132.273L73.0312 133.388C73.0739 133.394 73.1171 133.394 73.1597 133.388C73.2946 133.389 73.4257 133.344 73.5317 133.261C73.6376 133.177 73.7122 133.06 73.7432 132.929C73.7742 132.798 73.7598 132.66 73.7024 132.538C73.645 132.416 73.5479 132.317 73.427 132.257V132.273ZM81.209 132.206C81.0896 132.205 80.9726 132.24 80.873 132.305C80.7733 132.371 80.6954 132.465 80.6493 132.575C80.6031 132.685 80.5908 132.806 80.6138 132.923C80.6368 133.041 80.6942 133.148 80.7786 133.233C80.8631 133.317 80.9707 133.374 81.0878 133.397C81.2049 133.42 81.3263 133.408 81.4364 133.362C81.5465 133.316 81.6403 133.238 81.706 133.138C81.7717 133.039 81.8062 132.922 81.8052 132.802C81.8039 132.645 81.7405 132.495 81.6288 132.384C81.5171 132.273 81.3662 132.211 81.209 132.211V132.206ZM89.2531 132.206C89.1339 132.206 89.0175 132.241 88.9185 132.308C88.8195 132.374 88.7424 132.468 88.697 132.578C88.6516 132.689 88.64 132.81 88.6637 132.927C88.6873 133.043 88.7451 133.151 88.8297 133.234C88.9143 133.318 89.022 133.375 89.1389 133.398C89.2559 133.42 89.377 133.408 89.4868 133.362C89.5966 133.315 89.6902 133.237 89.7556 133.138C89.8211 133.038 89.8555 132.921 89.8545 132.802C89.8539 132.722 89.837 132.642 89.8048 132.568C89.7726 132.495 89.7258 132.428 89.6672 132.373C89.6086 132.317 89.5394 132.275 89.4638 132.247C89.3883 132.219 89.3078 132.207 89.2274 132.211L89.2531 132.206ZM97.3023 132.206C97.183 132.205 97.066 132.24 96.9663 132.305C96.8666 132.371 96.7888 132.465 96.7426 132.575C96.6964 132.685 96.6841 132.806 96.7071 132.923C96.7302 133.041 96.7876 133.148 96.872 133.233C96.9564 133.317 97.064 133.374 97.1811 133.397C97.2983 133.42 97.4196 133.408 97.5297 133.362C97.6398 133.316 97.7337 133.238 97.7994 133.138C97.8651 133.039 97.8996 132.922 97.8986 132.802C97.898 132.722 97.8812 132.643 97.8493 132.57C97.8175 132.496 97.7711 132.43 97.7131 132.375C97.6551 132.319 97.5865 132.277 97.5115 132.248C97.4365 132.22 97.3566 132.208 97.2766 132.211L97.3023 132.206ZM105.665 132.299C105.572 132.237 105.463 132.205 105.352 132.206C105.268 132.198 105.184 132.208 105.105 132.235C105.026 132.261 104.953 132.304 104.891 132.36C104.829 132.417 104.78 132.485 104.746 132.562C104.712 132.638 104.695 132.721 104.695 132.805C104.695 132.888 104.712 132.971 104.746 133.048C104.78 133.124 104.829 133.193 104.891 133.249C104.953 133.306 105.026 133.348 105.105 133.375C105.184 133.402 105.268 133.411 105.352 133.404C105.485 133.405 105.614 133.36 105.717 133.275L105.665 132.299ZM77.1844 126.053C77.0652 126.052 76.9484 126.087 76.8489 126.152C76.7493 126.218 76.6714 126.311 76.6251 126.421C76.5788 126.531 76.5662 126.652 76.5888 126.769C76.6114 126.886 76.6683 126.994 76.7522 127.078C76.8361 127.163 76.9432 127.221 77.06 127.244C77.1768 127.268 77.298 127.256 77.4082 127.211C77.5184 127.166 77.6126 127.088 77.6789 126.989C77.7452 126.89 77.7806 126.774 77.7806 126.655C77.7807 126.574 77.7645 126.495 77.7329 126.421C77.7013 126.346 77.6551 126.28 77.597 126.224C77.5389 126.168 77.4701 126.125 77.3947 126.096C77.3194 126.068 77.2391 126.055 77.1587 126.059L77.1844 126.053ZM85.2336 126.053C85.1145 126.052 84.9977 126.087 84.8981 126.152C84.7985 126.218 84.7207 126.311 84.6744 126.421C84.6281 126.531 84.6154 126.652 84.638 126.769C84.6607 126.886 84.7175 126.994 84.8014 127.078C84.8853 127.163 84.9925 127.221 85.1092 127.244C85.226 127.268 85.3472 127.256 85.4574 127.211C85.5676 127.166 85.6618 127.088 85.7281 126.989C85.7944 126.89 85.8299 126.774 85.8299 126.655C85.8292 126.575 85.8125 126.495 85.7807 126.421C85.7489 126.348 85.7026 126.281 85.6447 126.226C85.5867 126.17 85.5182 126.127 85.4432 126.098C85.3682 126.069 85.2882 126.056 85.2079 126.059L85.2336 126.053ZM93.2777 126.053C93.1588 126.053 93.0425 126.089 92.9436 126.155C92.8447 126.221 92.7676 126.315 92.7221 126.425C92.6766 126.535 92.6647 126.655 92.6879 126.772C92.7111 126.889 92.7684 126.996 92.8525 127.08C92.9366 127.164 93.0437 127.221 93.1604 127.245C93.277 127.268 93.398 127.256 93.5078 127.21C93.6177 127.165 93.7117 127.088 93.7777 126.989C93.8438 126.89 93.8791 126.774 93.8791 126.655C93.8792 126.574 93.8628 126.494 93.8309 126.419C93.7991 126.345 93.7524 126.278 93.6937 126.222C93.635 126.166 93.5656 126.123 93.4897 126.095C93.4137 126.067 93.3329 126.054 93.252 126.059L93.2777 126.053ZM101.327 126.053C101.208 126.052 101.091 126.087 100.991 126.152C100.892 126.218 100.814 126.311 100.768 126.421C100.721 126.531 100.709 126.652 100.731 126.769C100.754 126.886 100.811 126.994 100.895 127.078C100.979 127.163 101.086 127.221 101.203 127.244C101.319 127.268 101.441 127.256 101.551 127.211C101.661 127.166 101.755 127.088 101.821 126.989C101.888 126.89 101.923 126.774 101.923 126.655C101.923 126.574 101.907 126.495 101.875 126.421C101.844 126.346 101.798 126.28 101.74 126.224C101.681 126.168 101.613 126.125 101.537 126.096C101.462 126.068 101.382 126.055 101.301 126.059L101.327 126.053Z" fill="white"/>
<path d="M100.092 122.286C98.5333 122.423 96.987 122.675 95.4658 123.041C94.7205 123.232 93.9855 123.458 93.2505 123.699C92.8856 123.823 92.5155 123.931 92.1454 124.033C91.7615 124.155 91.3647 124.23 90.9632 124.26C90.9564 124.26 90.9498 124.262 90.945 124.267C90.9402 124.272 90.9375 124.278 90.9375 124.285C90.9375 124.292 90.9402 124.299 90.945 124.303C90.9498 124.308 90.9564 124.311 90.9632 124.311C91.343 124.339 91.7244 124.339 92.1043 124.311C92.4706 124.271 92.8332 124.202 93.1888 124.105C93.9547 123.92 94.7051 123.699 95.4658 123.504C97.0078 123.108 98.5498 122.718 100.092 122.435C100.179 122.399 100.164 122.275 100.092 122.286Z" fill="#263238"/>
<path d="M103.915 123.658C102.639 123.525 101.357 123.463 100.075 123.473C99.4325 123.473 98.7952 123.525 98.1578 123.586L97.2429 123.689C96.9088 123.73 96.5798 123.823 96.2457 123.859C96.2098 123.859 96.2098 123.915 96.2457 123.915C96.5644 123.889 96.8882 123.915 97.2069 123.915L98.1681 123.874C98.8055 123.874 99.448 123.874 100.085 123.828C101.365 123.787 102.655 123.756 103.925 123.756C103.987 123.761 103.981 123.663 103.915 123.658Z" fill="#263238"/>
<path d="M89.5978 99.6492C77.6936 104.748 63.61 117.094 64.0983 121.54C64.6431 126.49 81.7388 119.299 81.6154 118.549C81.5126 117.917 85.3368 112.895 90.8006 105.699C96.3569 98.3436 92.5431 98.3899 89.5978 99.6492Z" fill="#E60000"/>
<path d="M81.7784 108.917C81.7784 109.035 81.7435 109.15 81.6779 109.248C81.6124 109.346 81.5193 109.422 81.4103 109.468C81.3014 109.513 81.1815 109.524 81.0659 109.501C80.9502 109.478 80.844 109.422 80.7606 109.338C80.6772 109.255 80.6204 109.149 80.5974 109.033C80.5744 108.917 80.5862 108.797 80.6313 108.688C80.6765 108.58 80.7529 108.486 80.8509 108.421C80.949 108.355 81.0643 108.32 81.1822 108.32C81.3403 108.32 81.492 108.383 81.6038 108.495C81.7156 108.607 81.7784 108.759 81.7784 108.917Z" fill="white"/>
<path d="M85.8043 102.764C85.8053 102.883 85.7708 103 85.7051 103.1C85.6394 103.2 85.5455 103.278 85.4354 103.324C85.3253 103.37 85.204 103.382 85.0869 103.359C84.9697 103.336 84.8621 103.279 84.7777 103.194C84.6933 103.11 84.6359 103.002 84.6129 102.885C84.5898 102.768 84.6022 102.647 84.6483 102.537C84.6945 102.427 84.7724 102.333 84.872 102.267C84.9717 102.201 85.0887 102.167 85.2081 102.168C85.3662 102.168 85.5179 102.231 85.6297 102.343C85.7415 102.454 85.8043 102.606 85.8043 102.764Z" fill="white"/>
<path d="M93.0314 102.204C92.9234 102.425 92.8001 102.656 92.6561 102.903C92.6232 102.761 92.6431 102.611 92.7121 102.483C92.7812 102.354 92.8946 102.255 93.0314 102.204Z" fill="white"/>
<path d="M65.6871 120.862C65.6881 120.981 65.6537 121.098 65.5883 121.197C65.5228 121.297 65.4292 121.375 65.3195 121.421C65.2097 121.468 65.0886 121.48 64.9716 121.458C64.8546 121.435 64.747 121.378 64.6623 121.294C64.5777 121.21 64.5199 121.103 64.4963 120.986C64.4727 120.87 64.4843 120.748 64.5297 120.638C64.575 120.528 64.6521 120.434 64.7511 120.367C64.8501 120.301 64.9666 120.266 65.0857 120.266C65.2443 120.266 65.3965 120.328 65.5092 120.44C65.6218 120.552 65.6858 120.703 65.6871 120.862Z" fill="white"/>
<path d="M73.7315 120.862C73.7315 120.98 73.6966 121.095 73.6311 121.193C73.5655 121.291 73.4724 121.368 73.3635 121.413C73.2545 121.458 73.1346 121.47 73.019 121.447C72.9033 121.424 72.7971 121.367 72.7137 121.284C72.6303 121.2 72.5735 121.094 72.5505 120.978C72.5275 120.863 72.5393 120.743 72.5844 120.634C72.6296 120.525 72.706 120.432 72.8041 120.366C72.9021 120.301 73.0174 120.266 73.1353 120.266C73.293 120.267 73.4439 120.33 73.5554 120.442C73.667 120.553 73.7302 120.704 73.7315 120.862Z" fill="white"/>
<path d="M69.7106 114.709C69.7116 114.829 69.6772 114.945 69.6117 115.045C69.5463 115.144 69.4527 115.222 69.3429 115.269C69.2331 115.315 69.112 115.328 68.995 115.305C68.878 115.282 68.7704 115.226 68.6858 115.142C68.6012 115.058 68.5434 114.951 68.5197 114.834C68.4961 114.717 68.5077 114.596 68.5531 114.486C68.5985 114.375 68.6755 114.281 68.7745 114.215C68.8735 114.149 68.99 114.113 69.1092 114.113C69.2678 114.113 69.42 114.176 69.5326 114.287C69.6452 114.399 69.7092 114.551 69.7106 114.709Z" fill="white"/>
<path d="M77.755 114.709C77.755 114.827 77.72 114.943 77.6545 115.041C77.589 115.139 77.4959 115.215 77.3869 115.26C77.278 115.305 77.1581 115.317 77.0424 115.294C76.9268 115.271 76.8205 115.214 76.7371 115.131C76.6538 115.048 76.597 114.941 76.574 114.826C76.551 114.71 76.5628 114.59 76.6079 114.481C76.653 114.372 76.7294 114.279 76.8275 114.214C76.9255 114.148 77.0408 114.113 77.1587 114.113C77.3169 114.113 77.4685 114.176 77.5803 114.288C77.6922 114.4 77.755 114.551 77.755 114.709Z" fill="white"/>
<path d="M64.096 121.541C64.8824 125.02 69.8322 127.647 81.6696 135.419C83.3093 136.493 94.0056 126.973 92.3197 125.735C90.1918 124.193 81.5874 118.585 80.9089 118.251C75.1675 115.475 63.5614 119.176 64.096 121.541Z" fill="#D3766A"/>
<path d="M89.9885 124.095C89.9885 124.095 95.1028 127.143 97.2924 129.579C99.507 132.167 101.059 135.254 101.816 138.574C102.648 142.172 102.181 151.389 99.4975 151.717C97.0714 152.016 98.0223 142.604 98.0223 142.604C98.0223 142.604 98.6339 152.37 95.6425 152.18C92.651 151.99 94.3832 141.139 94.3832 141.139C94.3832 141.139 94.7892 151.178 91.7309 150.504C89.4231 149.99 90.4356 140.07 90.4356 140.07C90.4356 140.07 90.7235 148.7 88.3282 148.294C85.6811 147.826 86.0409 138.605 86.0409 138.605C80.1299 136.513 78.1716 133.1 77.0665 130.505C76.7992 129.867 89.9885 124.095 89.9885 124.095Z" fill="#D3766A"/>
<path d="M98.0276 139.212C98.1355 140.358 98.2589 141.515 98.2692 142.666C98.2794 143.817 98.2692 144.963 98.1561 146.11C98.0585 147.61 97.7912 149.095 97.3594 150.535C97.9453 147.924 97.9659 143.807 97.9556 142.656C97.9453 141.504 97.9916 140.363 97.9556 139.212C97.9813 139.186 98.0224 139.186 98.0276 139.212Z" fill="#263238"/>
<path d="M93.8801 139.181C93.9572 140.646 94.096 142.095 94.1114 143.571C94.1268 145.046 94.0138 146.423 93.9315 147.883C93.9315 147.996 93.8647 147.955 93.8647 147.842C93.8955 146.377 93.803 145.025 93.8133 143.56C93.8236 142.095 93.8853 140.636 93.8441 139.176C93.8441 139.155 93.875 139.155 93.8801 139.181Z" fill="#263238"/>
<path d="M90.3175 138.508C90.4984 140.753 90.445 143.012 90.1581 145.246C90.1581 145.359 90.081 145.298 90.0862 145.184C90.1787 142.943 90.2712 141.186 90.2404 138.502C90.2404 138.472 90.3123 138.461 90.3175 138.508Z" fill="#263238"/>
<path d="M92.6002 124.563C92.6002 124.563 77.7405 134.421 77.5965 134.329C77.4526 134.236 64.0783 125.195 64.0938 121.515C64.1092 117.834 75.8027 115.835 80.8964 118.199C85.9902 120.564 92.6002 124.563 92.6002 124.563Z" fill="#E60000"/>
<path d="M87.8927 122.687C87.317 122.985 82.6139 126.285 81.6065 127.035C80.5991 127.786 76.4665 130.767 75.4848 131.615C75.4779 131.617 75.4716 131.621 75.4665 131.626C75.4615 131.631 75.4576 131.638 75.4554 131.644C75.4532 131.651 75.4526 131.659 75.4537 131.666C75.4548 131.673 75.4575 131.68 75.4617 131.686C75.4659 131.692 75.4715 131.696 75.4779 131.7C75.4843 131.703 75.4914 131.705 75.4987 131.705C75.5059 131.705 75.513 131.704 75.5196 131.7C75.5261 131.697 75.5318 131.693 75.5362 131.687C76.6464 131.034 80.8355 128.032 81.8789 127.297C82.9223 126.562 87.4969 123.185 87.9493 122.748C88.0058 122.712 87.9544 122.666 87.8927 122.687Z" fill="#263238"/>
<path d="M65.6871 120.862C65.6881 120.981 65.6537 121.098 65.5883 121.197C65.5228 121.297 65.4292 121.375 65.3195 121.421C65.2097 121.468 65.0886 121.48 64.9716 121.458C64.8546 121.435 64.747 121.378 64.6623 121.294C64.5777 121.21 64.5199 121.103 64.4963 120.986C64.4727 120.87 64.4843 120.748 64.5297 120.638C64.575 120.528 64.6521 120.434 64.7511 120.367C64.8501 120.301 64.9666 120.266 65.0857 120.266C65.2443 120.266 65.3965 120.328 65.5092 120.44C65.6218 120.552 65.6858 120.703 65.6871 120.862ZM73.135 120.276C73.0156 120.275 72.8986 120.31 72.7989 120.375C72.6993 120.441 72.6214 120.535 72.5752 120.645C72.5291 120.755 72.5167 120.876 72.5398 120.993C72.5628 121.111 72.6202 121.218 72.7046 121.303C72.789 121.387 72.8967 121.444 73.0138 121.467C73.1309 121.491 73.2523 121.478 73.3624 121.432C73.4724 121.386 73.5663 121.308 73.632 121.208C73.6977 121.109 73.7322 120.992 73.7312 120.872C73.7312 120.714 73.6684 120.562 73.5566 120.451C73.4448 120.339 73.2931 120.276 73.135 120.276ZM81.2099 120.276C81.0905 120.275 80.9736 120.31 80.8739 120.375C80.7742 120.441 80.6963 120.535 80.6502 120.645C80.604 120.755 80.5917 120.876 80.6147 120.993C80.6378 121.111 80.6951 121.218 80.7796 121.303C80.864 121.387 80.9716 121.444 81.0887 121.467C81.2059 121.491 81.3272 121.478 81.4373 121.432C81.5474 121.386 81.6413 121.308 81.7069 121.208C81.7726 121.109 81.8072 120.992 81.8062 120.872C81.8062 120.714 81.7433 120.562 81.6315 120.451C81.5197 120.339 81.368 120.276 81.2099 120.276ZM69.1361 126.069C69.0171 126.069 68.9008 126.104 68.8019 126.17C68.703 126.236 68.626 126.33 68.5805 126.44C68.5349 126.55 68.523 126.671 68.5462 126.788C68.5694 126.904 68.6267 127.011 68.7108 127.095C68.7949 127.18 68.9021 127.237 69.0187 127.26C69.1354 127.283 69.2563 127.271 69.3662 127.226C69.4761 127.18 69.57 127.103 69.6361 127.004C69.7022 126.905 69.7374 126.789 69.7374 126.67C69.7397 126.588 69.7249 126.506 69.6939 126.43C69.663 126.354 69.6166 126.285 69.5577 126.227C69.4988 126.17 69.4287 126.125 69.3517 126.096C69.2747 126.067 69.1925 126.054 69.1104 126.059L69.1361 126.069ZM77.1853 126.069C77.0661 126.068 76.9494 126.102 76.8498 126.168C76.7502 126.233 76.6723 126.327 76.626 126.436C76.5797 126.546 76.5671 126.667 76.5897 126.784C76.6123 126.901 76.6692 127.009 76.7531 127.094C76.837 127.178 76.9441 127.236 77.0609 127.26C77.1777 127.283 77.2989 127.272 77.4091 127.226C77.5193 127.181 77.6135 127.104 77.6798 127.005C77.7461 126.906 77.7815 126.789 77.7815 126.67C77.7837 126.588 77.7691 126.507 77.7384 126.431C77.7078 126.355 77.6619 126.286 77.6036 126.229C77.5452 126.172 77.4757 126.127 77.3993 126.098C77.323 126.068 77.2413 126.055 77.1596 126.059L77.1853 126.069ZM85.2345 126.069C85.1154 126.068 84.9986 126.102 84.899 126.168C84.7995 126.233 84.7216 126.327 84.6753 126.436C84.629 126.546 84.6163 126.667 84.639 126.784C84.6616 126.901 84.7184 127.009 84.8023 127.094C84.8862 127.178 84.9934 127.236 85.1102 127.26C85.227 127.283 85.3481 127.272 85.4583 127.226C85.5685 127.181 85.6627 127.104 85.7291 127.005C85.7954 126.906 85.8308 126.789 85.8308 126.67C85.8322 126.589 85.817 126.508 85.7862 126.432C85.7553 126.356 85.7094 126.288 85.6512 126.231C85.593 126.174 85.5238 126.129 85.4477 126.099C85.3717 126.07 85.2904 126.056 85.2088 126.059L85.2345 126.069Z" fill="white"/>
<path d="M74.6367 117.269C75.8651 117.156 79.2267 117.094 81.8327 118.631C81.8635 118.631 81.8327 118.688 81.8327 118.672C79.5505 117.686 75.8548 117.295 74.6367 117.315C74.6161 117.315 74.6058 117.274 74.6367 117.269Z" fill="#263238"/>
<path d="M91.6912 125.169L92.5855 124.532V124.594C91.6912 124.049 90.7763 123.535 89.8768 123.005C88.9773 122.476 88.0572 121.977 87.1423 121.463C85.3176 120.435 83.4672 119.459 81.5859 118.559L81.3906 118.467L81.5037 118.287C82.7065 116.39 83.9452 114.524 85.2662 112.71C86.5665 110.89 87.9578 109.137 89.4347 107.457C88.0641 109.225 86.7482 111.034 85.4872 112.885C84.2279 114.73 82.984 116.591 81.8121 118.492L81.735 118.22C83.6265 119.135 85.4666 120.142 87.2811 121.191C88.1857 121.705 89.0801 122.265 89.9744 122.82C90.8688 123.375 91.7374 123.946 92.6112 124.532L92.6575 124.563L92.6112 124.594L91.6912 125.169Z" fill="#263238"/>
<path d="M86.3516 111.456C86.5417 111.25 86.7268 111.045 86.9272 110.849C87.1277 110.654 87.323 110.469 87.5338 110.284C87.9486 109.913 88.3939 109.578 88.865 109.282C88.5124 109.713 88.1238 110.114 87.7034 110.479C87.4926 110.659 87.2768 110.839 87.0557 110.993C86.8357 111.169 86.6 111.324 86.3516 111.456Z" fill="#263238"/>
<path d="M73.6641 131.553C74.8045 132.16 75.8561 132.921 76.7892 133.815C76.2204 133.512 75.6741 133.168 75.1547 132.787C74.628 132.413 74.1298 132.001 73.6641 131.553Z" fill="#263238"/>
<path d="M93.4376 100.05C93.4736 100.924 94.9796 105.067 97.601 105.324C98.9477 105.457 99.5953 100.77 99.5953 100.77L99.7033 100.43L101.245 95.7274L95.2058 90.978C95.2058 90.978 93.4222 99.7983 93.4376 100.05Z" fill="#D3766A"/>
<path d="M94.5703 94.2625C94.9505 95.5918 95.6041 96.827 96.4892 97.8891C97.3743 98.9512 98.4714 99.8168 99.7103 100.43L101.252 95.7274L95.2025 90.978C95.2025 90.978 94.8993 92.4738 94.5703 94.2625Z" fill="#263238"/>
<path d="M108.735 88.9888C108.493 97.6857 103.256 98.5184 101.38 98.467C99.6783 98.4156 93.8855 98.0301 93.2328 89.3538C92.58 80.6774 96.6971 78.0458 100.598 77.9481C104.5 77.8504 108.966 80.2919 108.735 88.9888Z" fill="#D3766A"/>
<path d="M107.481 86.8661C107.286 86.818 107.094 86.7597 106.906 86.6913C106.695 86.6575 106.501 86.5544 106.356 86.3984C106.318 86.3415 106.3 86.2735 106.306 86.2054C106.311 86.1373 106.34 86.0731 106.386 86.0231C106.494 85.9385 106.621 85.8835 106.757 85.8636C106.892 85.8438 107.03 85.8598 107.157 85.9101C107.428 85.977 107.665 86.1395 107.826 86.3675C107.86 86.4221 107.878 86.4856 107.877 86.5503C107.876 86.6149 107.855 86.6778 107.819 86.7309C107.782 86.7841 107.73 86.8253 107.67 86.8494C107.61 86.8734 107.545 86.8792 107.481 86.8661Z" fill="#263238"/>
<path d="M101.926 86.424C102.126 86.4104 102.325 86.3864 102.523 86.352C102.737 86.3561 102.947 86.2892 103.119 86.1618C103.166 86.1119 103.194 86.0477 103.2 85.9796C103.205 85.9115 103.188 85.8435 103.15 85.7866C103.06 85.6842 102.945 85.6075 102.815 85.5641C102.686 85.5208 102.548 85.5124 102.415 85.5399C102.135 85.5581 101.871 85.6789 101.675 85.8791C101.633 85.927 101.606 85.9858 101.597 86.0486C101.588 86.1114 101.597 86.1755 101.624 86.2331C101.651 86.2906 101.693 86.3393 101.747 86.3732C101.801 86.407 101.863 86.4247 101.926 86.424Z" fill="#263238"/>
<path d="M102.891 88.7113C102.891 88.7113 102.845 88.7113 102.845 88.7627C102.845 89.3538 102.701 90.0323 102.156 90.1916V90.2276C102.794 90.1762 102.968 89.2767 102.891 88.7113Z" fill="#263238"/>
<path d="M102.405 88.0636C101.459 87.93 101.264 89.8318 102.138 89.9551C103.012 90.0785 103.197 88.1715 102.405 88.0636Z" fill="#263238"/>
<path d="M102.017 88.1253C101.843 88.2127 101.658 88.3874 101.457 88.3874C101.257 88.3874 101.066 88.1716 100.943 87.9608H100.907C100.866 88.3258 100.964 88.7113 101.349 88.8089C101.735 88.9066 101.992 88.5982 102.12 88.2384C102.141 88.1921 102.089 88.0893 102.017 88.1253Z" fill="#263238"/>
<path d="M106.147 88.9478C106.147 88.9478 106.188 88.9786 106.188 89.0043C106.101 89.5903 106.106 90.279 106.615 90.5463C106.615 90.5463 106.615 90.5823 106.615 90.5771C105.967 90.4024 105.973 89.4875 106.147 88.9478Z" fill="#263238"/>
<path d="M106.746 88.408C107.697 88.444 107.564 90.351 106.68 90.3201C105.795 90.2893 105.944 88.3618 106.746 88.408Z" fill="#263238"/>
<path d="M107.133 88.5417C107.276 88.6548 107.415 88.8501 107.59 88.8758C107.765 88.9015 107.97 88.7062 108.104 88.5211H108.135C108.135 88.8861 107.97 89.2561 107.621 89.3024C107.271 89.3487 107.107 89.0146 107.025 88.6445C107.014 88.5982 107.076 88.5006 107.133 88.5417Z" fill="#263238"/>
<path d="M105.066 91.4921C105.066 91.4921 105.107 92.3865 105.066 92.8028C104.669 92.8602 104.263 92.8098 103.891 92.657C103.52 92.5043 103.196 92.2546 102.954 91.9341C102.923 91.893 102.985 91.8519 103.02 91.8776C103.517 92.2891 104.134 92.5289 104.778 92.5612C104.814 92.4481 104.655 91.0192 104.722 91.0192C105.042 91.0811 105.353 91.1829 105.647 91.3225C105.611 89.4618 105.282 87.6165 105.277 85.7661C105.277 85.7511 105.283 85.7368 105.294 85.7262C105.304 85.7155 105.319 85.7096 105.333 85.7096C105.348 85.7096 105.363 85.7155 105.373 85.7262C105.384 85.7368 105.39 85.7511 105.39 85.7661C105.804 87.7288 106.021 89.7279 106.038 91.7337C106.053 91.9701 105.226 91.5795 105.066 91.4921Z" fill="#263238"/>
<path d="M104.503 92.7051C104.246 92.9713 103.926 93.1676 103.573 93.2756C103.378 93.3287 103.171 93.3197 102.981 93.2499C102.57 93.0906 102.601 92.6999 102.714 92.3761C102.776 92.2039 102.859 92.0399 102.961 91.8878C103.374 92.3181 103.915 92.6045 104.503 92.7051Z" fill="#263238"/>
<path d="M103.573 93.2756C103.378 93.3287 103.171 93.3197 102.981 93.2499C102.57 93.0906 102.601 92.6999 102.714 92.3761C102.936 92.4117 103.14 92.5189 103.295 92.6814C103.45 92.8438 103.547 93.0525 103.573 93.2756Z" fill="#FF9BBC"/>
<path d="M95.721 78.4776C96.5074 78.3439 98.0032 74.3656 95.685 71.9035C93.3669 69.4414 89.4811 70.9834 90.2778 74.6277C90.7815 76.9304 94.0608 78.7551 95.721 78.4776Z" fill="#263238"/>
<path d="M91.9622 70.932C91.0381 71.4451 90.3139 72.2545 89.9062 73.2296C89.707 73.6825 89.6307 74.1798 89.6848 74.6716C89.739 75.1633 89.9217 75.6322 90.2146 76.0309C90.8407 76.8491 91.6775 77.4816 92.6355 77.8607C93.1196 78.0695 93.6221 78.233 94.1364 78.349C94.6526 78.4936 95.1916 78.5389 95.7247 78.4827C95.1997 78.6545 94.6431 78.7072 94.0953 78.6369C93.5424 78.5878 92.9973 78.474 92.471 78.2976C91.3783 77.9583 90.4187 77.2862 89.7263 76.3753C89.3764 75.8982 89.1681 75.3322 89.1254 74.7421C89.0827 74.152 89.2072 73.5619 89.4847 73.0394C89.7326 72.5381 90.0802 72.0927 90.5062 71.7303C90.9322 71.368 91.4276 71.0963 91.9622 70.932Z" fill="#263238"/>
<path d="M93.7364 89.1687C95.3195 89.5851 96.2241 85.9511 96.2241 85.9511C96.2241 85.9511 103.24 85.7044 104.566 80.1943C105.126 82.5844 106.589 84.6654 108.648 86.0025C108.648 86.0025 109.223 79.8345 104.536 78.0098C104.536 78.0098 98.8044 75.0132 94.7695 79.3462C90.7346 83.6792 92.6775 88.886 93.7364 89.1687Z" fill="#263238"/>
<path d="M104.643 79.7882C104.609 80.6604 104.39 81.5153 104.001 82.2965C103.615 83.0845 103.071 83.7844 102.402 84.3525C102.24 84.4971 102.068 84.631 101.888 84.7534L101.621 84.9488C101.528 85.0053 101.431 85.0567 101.333 85.1081C101.138 85.2109 100.947 85.324 100.752 85.4165L100.135 85.6478L99.827 85.7609L99.5083 85.838L98.8761 85.987C98.4443 86.0487 98.0126 86.0847 97.5859 86.1155C98.0023 85.9973 98.4238 85.9202 98.8298 85.802L99.4363 85.5964L99.7396 85.4987L100.027 85.3702C100.218 85.2777 100.408 85.1904 100.603 85.1081C100.798 85.0259 100.963 84.8922 101.143 84.7894L101.415 84.6301L101.667 84.445C101.845 84.3259 102.017 84.1972 102.181 84.0595C102.819 83.513 103.357 82.8589 103.769 82.1269C103.983 81.7626 104.165 81.3808 104.314 80.9858C104.458 80.5969 104.569 80.1962 104.643 79.7882Z" fill="#263238"/>
<path d="M100.836 91.6874C100.323 91.5745 99.8522 91.3199 99.4767 90.9526C99.1012 90.5852 98.8363 90.1198 98.7122 89.6093C98.5881 89.0989 98.6098 88.5638 98.7748 88.0651C98.9398 87.5663 99.2415 87.1239 99.6455 86.7881C100.05 86.4523 100.54 86.2367 101.06 86.1657C101.581 86.0948 102.111 86.1713 102.59 86.3867C103.069 86.6021 103.478 86.9477 103.771 87.3841C104.063 87.8205 104.227 88.3302 104.244 88.8552C104.256 89.2819 104.171 89.7056 103.995 90.0944C103.819 90.4833 103.557 90.8271 103.229 91.0999C102.901 91.3727 102.515 91.5673 102.1 91.6691C101.686 91.7708 101.254 91.7771 100.836 91.6874ZM101.962 86.5474C101.765 86.5043 101.563 86.4871 101.361 86.496C100.748 86.5207 100.168 86.7779 99.738 87.2153C99.3083 87.6527 99.0614 88.2374 99.0476 88.8504C99.0338 89.4635 99.2542 90.0587 99.6638 90.515C100.073 90.9713 100.641 91.2544 101.252 91.3066C101.863 91.3588 102.471 91.1763 102.952 90.7961C103.433 90.4159 103.752 89.8667 103.842 89.2602C103.932 88.6537 103.788 88.0356 103.439 87.5316C103.09 87.0276 102.562 86.6757 101.962 86.5474Z" fill="#E60000"/>
<path d="M107.248 92.2939C106.22 92.0626 105.479 90.7776 105.628 89.3229C105.685 88.6248 105.958 87.9617 106.41 87.4263C106.591 87.1858 106.831 86.996 107.107 86.8753C107.382 86.7545 107.685 86.7068 107.984 86.7367C108.284 86.7667 108.571 86.8733 108.817 87.0463C109.063 87.2193 109.261 87.4528 109.391 87.7244C109.729 88.3387 109.867 89.0429 109.787 89.7393C109.633 91.2813 108.574 92.4378 107.427 92.3093L107.248 92.2939ZM108.091 87.1539C108.043 87.1485 107.994 87.1485 107.947 87.1539C107.707 87.14 107.469 87.1842 107.25 87.2826C107.032 87.3811 106.84 87.5309 106.692 87.7193C106.292 88.1936 106.049 88.7812 105.999 89.4C105.865 90.7364 106.513 91.8981 107.463 91.97C108.414 92.042 109.278 91.0551 109.412 89.7187C109.485 89.1028 109.365 88.4793 109.067 87.9351C108.97 87.7401 108.833 87.5678 108.665 87.4296C108.496 87.2914 108.301 87.1904 108.091 87.1333V87.1539Z" fill="#E60000"/>
<path d="M104.114 89.1688L103.898 88.8553C104.361 88.5417 105.389 88.1614 105.996 88.9632L105.697 89.1894C105.153 88.4749 104.155 89.138 104.114 89.1688Z" fill="#E60000"/>
<path d="M91.6026 88.6393L91.2891 88.4388C91.3816 88.2898 92.2451 87.0048 93.0932 86.9482C93.9413 86.8917 98.8397 87.894 99.0505 87.894L98.9785 88.2641C97.5599 87.9814 93.7254 87.2669 93.1138 87.3029C92.5021 87.3389 91.8339 88.2846 91.6026 88.6393Z" fill="#E60000"/>
<path d="M94.805 88.9838C94.805 88.9838 93.2271 86.0643 91.9266 86.5988C90.6262 87.1334 91.5925 91.2248 92.9546 91.9033C93.1249 92.0073 93.3146 92.0755 93.5122 92.1035C93.7097 92.1316 93.911 92.119 94.1035 92.0666C94.296 92.0141 94.4757 91.9229 94.6317 91.7985C94.7877 91.674 94.9167 91.5191 95.0106 91.343L94.805 88.9838Z" fill="#D3766A"/>
<path d="M92.2344 87.7604V87.7964C93.1956 88.3104 93.617 89.3384 93.8792 90.3304C93.833 90.2221 93.7636 90.1252 93.676 90.0465C93.5883 89.9679 93.4846 89.9093 93.3719 89.8751C93.2592 89.8408 93.1405 89.8316 93.0239 89.8481C92.9073 89.8646 92.7957 89.9064 92.697 89.9706C92.6661 89.9706 92.697 90.0271 92.697 90.0271C92.8809 89.9903 93.0717 90.0116 93.243 90.0881C93.4143 90.1645 93.5576 90.2923 93.653 90.4537C93.8078 90.7248 93.9353 91.0106 94.0334 91.307C94.0694 91.4046 94.239 91.3738 94.2133 91.2659C94.388 89.95 93.5965 88.0482 92.2344 87.7604Z" fill="#263238"/>
<path d="M93.1684 91.6051C93.1834 91.7026 93.2365 91.7901 93.316 91.8484C93.3955 91.9068 93.495 91.9311 93.5924 91.9161C93.6899 91.9011 93.7774 91.848 93.8357 91.7685C93.8941 91.689 93.9184 91.5895 93.9034 91.492C93.896 91.4438 93.8791 91.3975 93.8538 91.3557C93.8285 91.314 93.7952 91.2776 93.7558 91.2487C93.7164 91.2199 93.6717 91.199 93.6243 91.1874C93.5769 91.1758 93.5276 91.1737 93.4794 91.1811C93.4311 91.1885 93.3848 91.2054 93.343 91.2307C93.3013 91.256 93.2649 91.2893 93.236 91.3287C93.2072 91.3681 93.1863 91.4128 93.1747 91.4602C93.1631 91.5076 93.161 91.5569 93.1684 91.6051Z" fill="#455A64"/>
<path d="M93.3603 91.5743C93.3679 91.6213 93.3938 91.6634 93.4323 91.6913C93.4709 91.7192 93.5189 91.7308 93.5659 91.7234C93.6109 91.7146 93.6509 91.689 93.6777 91.6517C93.7044 91.6144 93.7159 91.5684 93.7099 91.5229C93.7067 91.4998 93.699 91.4777 93.6872 91.4576C93.6754 91.4376 93.6596 91.4201 93.641 91.4062C93.6223 91.3923 93.601 91.3823 93.5784 91.3768C93.5558 91.3712 93.5324 91.3702 93.5094 91.3738C93.464 91.3826 93.4235 91.408 93.3959 91.4451C93.3683 91.4822 93.3556 91.5283 93.3603 91.5743Z" fill="#263238"/>
<path d="M92.5646 91.0757C92.576 91.145 92.6142 91.207 92.671 91.2484C92.7277 91.2897 92.7984 91.3071 92.8679 91.2967C92.902 91.2917 92.9348 91.28 92.9643 91.2623C92.9939 91.2446 93.0197 91.2212 93.0402 91.1935C93.0608 91.1658 93.0756 91.1343 93.084 91.1009C93.0923 91.0675 93.094 91.0327 93.0889 90.9986C93.0845 90.9642 93.0733 90.931 93.0558 90.9011C93.0383 90.8712 93.0149 90.8451 92.987 90.8245C92.9592 90.8038 92.9274 90.789 92.8937 90.781C92.86 90.7729 92.825 90.7718 92.7908 90.7776C92.7216 90.7878 92.6591 90.8247 92.6168 90.8805C92.5746 90.9362 92.5558 91.0063 92.5646 91.0757Z" fill="#455A64"/>
<path d="M41.9473 138.173L215.062 138.173V132.016L41.9473 132.016V138.173Z" fill="#37474F"/>
<path d="M48.1367 144.331L208.859 144.331V138.179L48.1367 138.179V144.331Z" fill="#455A64"/>
<path d="M208.85 230.709H211.337L204.095 144.331H197.742L208.85 230.709Z" fill="#455A64"/>
<path d="M197.742 144.331L198.487 150.109H204.578L204.095 144.331H197.742Z" fill="#263238"/>
<path d="M48.1518 230.709H45.6641L52.9063 144.331H59.2594L48.1518 230.709Z" fill="#455A64"/>
<path d="M59.2581 144.331L58.5128 150.109H52.4219L52.905 144.331H59.2581Z" fill="#263238"/>
<path d="M141.191 130.5H107.406V132.016H141.191V130.5Z" fill="#C7C7C7"/>
<path d="M141.183 130.5H124.18V132.016H141.183V130.5Z" fill="#A6A6A6"/>
<path d="M126.016 132.016H158.942L163.245 109.652H130.323L126.016 132.016Z" fill="#C7C7C7"/>
<path d="M142.629 120.836C142.6 121.09 142.625 121.348 142.703 121.591C142.781 121.835 142.909 122.059 143.08 122.249C143.252 122.439 143.461 122.591 143.695 122.693C143.929 122.796 144.183 122.848 144.438 122.846C144.983 122.836 145.505 122.628 145.907 122.259C146.308 121.891 146.561 121.388 146.618 120.847C146.645 120.591 146.618 120.333 146.539 120.089C146.459 119.845 146.328 119.621 146.155 119.431C145.982 119.242 145.771 119.091 145.535 118.989C145.299 118.888 145.044 118.838 144.788 118.842C144.247 118.856 143.731 119.067 143.333 119.433C142.936 119.8 142.686 120.299 142.629 120.836Z" fill="#A6A6A6"/>
<circle cx="200" cy="41" r="25" fill="#E60000"/>
<path d="M195.964 51.0937L186.266 41.3958L188.878 38.7833L195.964 45.9083L211.084 30.7875L213.697 33.3604L195.964 51.0937Z" fill="white"/>
</svg>
