<svg width="68" height="68" viewBox="0 0 68 68" fill="none" xmlns="http://www.w3.org/2000/svg">
<path d="M33.9959 50.6665C34.7747 50.6665 35.4279 50.4031 35.9557 49.8763C36.4835 49.3495 36.7474 48.6967 36.7474 47.918C36.7474 47.1392 36.484 46.4859 35.9572 45.9582C35.4304 45.4304 34.7776 45.1665 33.9989 45.1665C33.2201 45.1665 32.5668 45.4299 32.0391 45.9567C31.5113 46.4835 31.2474 47.1363 31.2474 47.915C31.2474 48.6938 31.5108 49.3471 32.0376 49.8748C32.5644 50.4026 33.2172 50.6665 33.9959 50.6665ZM31.7474 37.9165H36.7474V16.8332H31.7474V37.9165ZM34.0196 67.3332C29.4232 67.3332 25.1038 66.4582 21.0612 64.7082C17.0187 62.9582 13.4835 60.5693 10.4557 57.5415C7.42795 54.5137 5.03906 50.9765 3.28906 46.9298C1.53906 42.8831 0.664062 38.5592 0.664062 33.9582C0.664062 29.3571 1.53906 25.0333 3.28906 20.9866C5.03906 16.9399 7.42795 13.4165 10.4557 10.4165C13.4835 7.4165 17.0208 5.0415 21.0675 3.2915C25.1141 1.5415 29.438 0.666504 34.0391 0.666504C38.6401 0.666504 42.964 1.5415 47.0106 3.2915C51.0574 5.0415 54.5807 7.4165 57.5807 10.4165C60.5807 13.4165 62.9557 16.9443 64.7057 20.9998C66.4557 25.0554 67.3307 29.3813 67.3307 33.9777C67.3307 38.574 66.4557 42.8934 64.7057 46.936C62.9557 50.9786 60.5807 54.5086 57.5807 57.5262C54.5807 60.5437 51.0529 62.9326 46.9974 64.6928C42.9418 66.4531 38.6159 67.3332 34.0196 67.3332Z" fill="#E60000"/>
</svg>
