<svg width="18" height="18" viewBox="0 0 18 18" fill="none" xmlns="http://www.w3.org/2000/svg">
<path d="M8.375 13.2295H9.75V9.77116H13.2292V8.39616H9.75V4.77116H8.375V8.39616H4.77083V9.77116H8.375V13.2295ZM9 17.6253C7.80556 17.6253 6.6875 17.3996 5.64583 16.9482C4.60417 16.4969 3.69097 15.8788 2.90625 15.0941C2.12153 14.3094 1.50347 13.3962 1.05208 12.3545C0.600695 11.3128 0.375 10.1948 0.375 9.00033C0.375 7.79199 0.600695 6.66699 1.05208 5.62533C1.50347 4.58366 2.11806 3.67394 2.89583 2.89616C3.67361 2.11838 4.58681 1.50033 5.63542 1.04199C6.68403 0.583659 7.80556 0.354492 9 0.354492C10.2083 0.354492 11.3368 0.583659 12.3854 1.04199C13.434 1.50033 14.3438 2.11491 15.1146 2.88574C15.8854 3.65658 16.5 4.5663 16.9583 5.61491C17.4167 6.66352 17.6458 7.79199 17.6458 9.00033C17.6458 10.1948 17.4167 11.3163 16.9583 12.3649C16.5 13.4135 15.8819 14.3267 15.1042 15.1045C14.3264 15.8823 13.4167 16.4969 12.375 16.9482C11.3333 17.3996 10.2083 17.6253 9 17.6253Z" fill="white"/>
</svg>
