<svg width="14" height="15" viewBox="0 0 14 15" fill="none" xmlns="http://www.w3.org/2000/svg">
<path d="M2.229 15C1.854 15 1.53117 14.8612 1.2605 14.5835C0.9895 14.3055 0.854 13.979 0.854 13.604V2.0835H0V0.6875H4V0H9.333V0.6875H13.333V2.0835H12.479V13.604C12.479 13.979 12.3435 14.3055 12.0725 14.5835C11.8018 14.8612 11.479 15 11.104 15H2.229ZM11.104 2.0835H2.229V13.604H11.104V2.0835ZM4.2705 11.854H5.6455V3.8125H4.2705V11.854ZM7.6875 11.854H9.0625V3.8125H7.6875V11.854ZM2.229 2.0835V13.604V2.0835Z" fill="black"/>
</svg>
