<svg width="18" height="18" viewBox="0 0 18 18" fill="none" xmlns="http://www.w3.org/2000/svg">
<path d="M10.2474 9.00008C10.928 9.00008 11.5078 8.7605 11.987 8.28133C12.4661 7.80216 12.7057 7.2223 12.7057 6.54175C12.7057 5.86119 12.4661 5.28133 11.987 4.80216C11.5078 4.323 10.928 4.08341 10.2474 4.08341C9.56684 4.08341 8.98698 4.323 8.50781 4.80216C8.02865 5.28133 7.78906 5.86119 7.78906 6.54175C7.78906 7.2223 8.02865 7.80216 8.50781 8.28133C8.98698 8.7605 9.56684 9.00008 10.2474 9.00008ZM4.41406 14.8334C4.06684 14.8334 3.7717 14.7119 3.52865 14.4688C3.28559 14.2258 3.16406 13.9306 3.16406 13.5834V1.91675C3.16406 1.56953 3.28559 1.27439 3.52865 1.03133C3.7717 0.788276 4.06684 0.666748 4.41406 0.666748H16.0807C16.428 0.666748 16.7231 0.788276 16.9661 1.03133C17.2092 1.27439 17.3307 1.56953 17.3307 1.91675V13.5834C17.3307 13.9306 17.2092 14.2258 16.9661 14.4688C16.7231 14.7119 16.428 14.8334 16.0807 14.8334H4.41406ZM1.91406 17.3334C1.56684 17.3334 1.2717 17.2119 1.02865 16.9688C0.78559 16.7258 0.664062 16.4306 0.664062 16.0834V4.20841H1.91406V16.0834H13.7891V17.3334H1.91406ZM4.41406 13.5834H16.0807C15.3724 12.6806 14.5113 11.9688 13.4974 11.448C12.4835 10.9272 11.4002 10.6667 10.2474 10.6667C9.09462 10.6667 8.01128 10.9272 6.9974 11.448C5.98351 11.9688 5.1224 12.6806 4.41406 13.5834Z" fill="#E60000"/>
</svg>
