<?xml version="1.0" encoding="UTF-8"?>
<svg width="48px" height="48px" viewBox="0 0 48 48" version="1.1" xmlns="http://www.w3.org/2000/svg" xmlns:xlink="http://www.w3.org/1999/xlink">
    <title>7F747EAD-34E2-48E4-847A-21E18613697F</title>
    <g id="Ticket-routen-final" stroke="none" stroke-width="1" fill="none" fill-rule="evenodd">
        <g id="1.1" transform="translate(-25.000000, -12.000000)">
            <g id="Logos-/-Vodafone-Logo-/-Red" transform="translate(25.000000, 12.000000)">
                <g id="Vodafone-Logo" transform="translate(0.000000, 0.000000)">
                    <path d="M48.000169,24 C48.000169,37.2549296 37.2549296,48 24.000169,48 C10.7452394,48 1.92146768e-14,37.2549296 1.92146768e-14,24 C1.92146768e-14,10.7450704 10.7452394,0 24.000169,0 C37.2549296,0 48.000169,10.7450704 48.000169,24" id="Oval" fill="#E60000"></path>
                    <path d="M24.1903099,37.382869 C17.5960563,37.4046592 10.7357577,31.7766761 10.7056823,22.739662 C10.6857972,16.7633239 13.9100789,11.0107606 18.0314366,7.59785915 C22.0514366,4.26912676 27.5587606,2.13295775 32.5534648,2.11632968 C33.1963944,2.11419718 33.8687324,2.16777465 34.2804507,2.30704225 C29.9132958,3.21278873 26.4375211,7.27707042 26.4527324,11.8881127 C26.4532394,12.0405634 26.4670986,12.2033239 26.4821408,12.2792113 C33.7899718,14.0590986 37.1073803,18.468507 37.1278937,24.5699155 C37.1479437,30.6709859 32.3312113,37.3557127 24.1903099,37.382869" id="Speechmark" fill="#FFFFFF"></path>
                </g>
            </g>
        </g>
    </g>
</svg>