<svg width="71" height="63" viewBox="0 0 71 63" fill="none" xmlns="http://www.w3.org/2000/svg">
<path d="M3.92727 62.6663C2.42727 62.6663 1.30227 62.0136 0.552273 60.708C-0.197727 59.4025 -0.183838 58.1108 0.593939 56.833L31.9273 2.74967C32.7051 1.4719 33.8162 0.833008 35.2606 0.833008C36.7051 0.833008 37.8162 1.4719 38.5939 2.74967L69.9273 56.833C70.7051 58.1108 70.7189 59.4025 69.9689 60.708C69.2189 62.0136 68.1217 62.6663 66.6773 62.6663H3.92727ZM35.5939 24.9997C34.9273 24.9997 34.3578 25.2358 33.8856 25.708C33.4134 26.1802 33.1773 26.7219 33.1773 27.333V40.583C33.1773 41.2497 33.4134 41.8191 33.8856 42.2913C34.3578 42.7636 34.9273 42.9997 35.5939 42.9997C36.2606 42.9997 36.8162 42.7636 37.2606 42.2913C37.7051 41.8191 37.9273 41.2497 37.9273 40.583V27.333C37.9273 26.7219 37.6912 26.1802 37.2189 25.708C36.7467 25.2358 36.2051 24.9997 35.5939 24.9997ZM35.5939 51.7497C36.3717 51.7497 37.0106 51.4858 37.5106 50.958C38.0106 50.4302 38.2606 49.8052 38.2606 49.083C38.2606 48.3608 37.9967 47.7358 37.4689 47.208C36.9412 46.6802 36.3162 46.4163 35.5939 46.4163C34.8717 46.4163 34.2328 46.6941 33.6773 47.2497C33.1217 47.8052 32.8439 48.4163 32.8439 49.083C32.8439 49.8608 33.1356 50.4997 33.7189 50.9997C34.3023 51.4997 34.9273 51.7497 35.5939 51.7497Z" fill="#E60000"/>
</svg>
