<svg width="24" height="14" viewBox="0 0 24 14" fill="none" xmlns="http://www.w3.org/2000/svg">
<path d="M-0.078125 13.0748V11.6748C-0.078125 10.9915 0.280208 10.4456 0.996875 10.0373C1.71354 9.62897 2.63021 9.4248 3.74688 9.4248C3.93021 9.4248 4.10521 9.42897 4.27188 9.4373C4.43854 9.44564 4.59688 9.45814 4.74688 9.4748C4.61354 9.77481 4.51354 10.079 4.44688 10.3873C4.38021 10.6956 4.34688 11.0248 4.34688 11.3748V13.0748H-0.078125ZM5.92188 13.0748V11.3748C5.92188 10.2748 6.48438 9.38314 7.60938 8.6998C8.73438 8.01647 10.1969 7.6748 11.9969 7.6748C13.8135 7.6748 15.2802 8.01647 16.3969 8.6998C17.5135 9.38314 18.0719 10.2748 18.0719 11.3748V13.0748H5.92188ZM19.6469 13.0748V11.3748C19.6469 11.0248 19.6177 10.6956 19.5594 10.3873C19.501 10.079 19.4052 9.77481 19.2719 9.4748C19.4219 9.45814 19.5802 9.44564 19.7469 9.4373C19.9135 9.42897 20.0802 9.4248 20.2469 9.4248C21.3969 9.4248 22.3219 9.62897 23.0219 10.0373C23.7219 10.4456 24.0719 10.9915 24.0719 11.6748V13.0748H19.6469ZM3.74688 8.6998C3.24688 8.6998 2.82188 8.5248 2.47188 8.1748C2.12188 7.8248 1.94688 7.3998 1.94688 6.8998C1.94688 6.3998 2.12188 5.9748 2.47188 5.6248C2.82188 5.2748 3.24688 5.0998 3.74688 5.0998C4.24688 5.0998 4.67188 5.2748 5.02188 5.6248C5.37188 5.9748 5.54688 6.3998 5.54688 6.8998C5.54688 7.3998 5.37188 7.8248 5.02188 8.1748C4.67188 8.5248 4.24688 8.6998 3.74688 8.6998ZM20.2469 8.6998C19.7469 8.6998 19.3219 8.5248 18.9719 8.1748C18.6219 7.8248 18.4469 7.3998 18.4469 6.8998C18.4469 6.3998 18.6219 5.9748 18.9719 5.6248C19.3219 5.2748 19.7469 5.0998 20.2469 5.0998C20.7469 5.0998 21.1719 5.2748 21.5219 5.6248C21.8719 5.9748 22.0469 6.3998 22.0469 6.8998C22.0469 7.3998 21.8719 7.8248 21.5219 8.1748C21.1719 8.5248 20.7469 8.6998 20.2469 8.6998ZM11.9969 6.9248C11.1469 6.9248 10.4219 6.62897 9.82188 6.0373C9.22188 5.44564 8.92188 4.71647 8.92188 3.8498C8.92188 2.98314 9.22188 2.25814 9.82188 1.6748C10.4219 1.09147 11.1469 0.799805 11.9969 0.799805C12.8635 0.799805 13.5927 1.09147 14.1844 1.6748C14.776 2.25814 15.0719 2.98314 15.0719 3.8498C15.0719 4.71647 14.776 5.44564 14.1844 6.0373C13.5927 6.62897 12.8635 6.9248 11.9969 6.9248Z" fill="#999999"/>
</svg>
