<svg width="19" height="13" viewBox="0 0 19 13" fill="none" xmlns="http://www.w3.org/2000/svg">
<path d="M0 13V11.0322C0 10.5437 0.128959 10.1006 0.386878 9.7029C0.644796 9.30515 1.00302 9.00859 1.46154 8.8132C2.50754 8.36661 3.44966 8.04563 4.2879 7.85024C5.12613 7.65486 5.98944 7.55717 6.87783 7.55717C7.76621 7.55717 8.62594 7.65486 9.45701 7.85024C10.2881 8.04563 11.2266 8.36661 12.2726 8.8132C12.7311 9.00859 13.0929 9.30515 13.358 9.7029C13.6231 10.1006 13.7557 10.5437 13.7557 11.0322V13H0ZM15.0452 13V11.0322C15.0452 10.153 14.816 9.43076 14.3575 8.86554C13.8989 8.30032 13.2971 7.84326 12.552 7.49436C13.5407 7.60601 14.4721 7.77 15.3462 7.98631C16.2202 8.20263 16.9295 8.45035 17.474 8.72947C17.9468 8.99463 18.3194 9.3226 18.5916 9.71337C18.8639 10.1041 19 10.5437 19 11.0322V13H15.0452ZM6.87783 6.28019C5.93213 6.28019 5.15837 5.98712 4.55656 5.40097C3.95475 4.81482 3.65385 4.06119 3.65385 3.1401C3.65385 2.219 3.95475 1.46538 4.55656 0.879227C5.15837 0.293076 5.93213 0 6.87783 0C7.82353 0 8.59729 0.293076 9.1991 0.879227C9.80091 1.46538 10.1018 2.219 10.1018 3.1401C10.1018 4.06119 9.80091 4.81482 9.1991 5.40097C8.59729 5.98712 7.82353 6.28019 6.87783 6.28019ZM14.6154 3.1401C14.6154 4.06119 14.3145 4.81482 13.7127 5.40097C13.1109 5.98712 12.3371 6.28019 11.3914 6.28019C11.2338 6.28019 11.0583 6.26973 10.8648 6.24879C10.6714 6.22786 10.4959 6.18948 10.3382 6.13366C10.6821 5.78476 10.9436 5.35561 11.1227 4.84622C11.3018 4.33682 11.3914 3.76812 11.3914 3.1401C11.3914 2.51208 11.3018 1.95733 11.1227 1.47585C10.9436 0.994364 10.6821 0.551262 10.3382 0.146538C10.4959 0.10467 10.6714 0.0697801 10.8648 0.0418681C11.0583 0.0139561 11.2338 0 11.3914 0C12.3371 0 13.1109 0.293076 13.7127 0.879227C14.3145 1.46538 14.6154 2.219 14.6154 3.1401Z" fill="#999999"/>
</svg>
