<svg width="17" height="18" viewBox="0 0 17 18" fill="none" xmlns="http://www.w3.org/2000/svg">
<path d="M12.0058 3.71289H15.7555C15.8217 3.71275 15.8852 3.68905 15.9321 3.64694C15.979 3.60484 16.0055 3.54776 16.0058 3.48815C16.0052 3.33575 15.9676 3.18532 15.8956 3.04737C15.8236 2.90941 15.7191 2.78727 15.5892 2.68947L12.3767 0.282109C12.1281 0.114763 11.8296 0.0180585 11.5195 0.00439645C11.4789 0.00426048 11.4388 0.0113509 11.4012 0.0252591C11.3637 0.0391673 11.3297 0.0596183 11.301 0.0854334C11.2723 0.111249 11.2496 0.141917 11.2341 0.175672C11.2187 0.209427 11.2108 0.245601 11.2109 0.282109V3.00061C11.2132 3.18942 11.2978 3.36989 11.4464 3.50312C11.5951 3.63635 11.796 3.71169 12.0058 3.71289Z" fill="#999999"/>
<path d="M10.1274 2.99981V0H4.66908C4.31583 0.00094963 3.97736 0.127664 3.72757 0.352469C3.47779 0.577273 3.33699 0.881901 3.33594 1.19982V13.7997C3.33699 14.1177 3.47779 14.4223 3.72757 14.6471C3.97736 14.8719 4.31583 14.9986 4.66908 14.9996H14.6691C15.0223 14.9986 15.3608 14.8719 15.6106 14.6471C15.8604 14.4223 16.0012 14.1177 16.0022 13.7997V4.68769H12.0022C11.5051 4.687 11.0286 4.50894 10.6771 4.19254C10.3257 3.87613 10.128 3.44721 10.1274 2.99981Z" fill="#999999"/>
<path d="M2.16686 14.8501V2.40033H1.33314C0.979896 2.40128 0.641418 2.52799 0.391634 2.7528C0.14185 2.9776 0.00105515 3.28223 0 3.60015V16.8002C0.00105515 17.1182 0.14185 17.4228 0.391634 17.6476C0.641418 17.8724 0.979896 17.9991 1.33314 18.0001H12C12.3532 17.9991 12.6917 17.8724 12.9415 17.6476C13.1913 17.4228 13.3321 17.1182 13.3331 16.8002V16.0504H3.5C3.14665 16.0495 2.80809 15.9227 2.55829 15.6978C2.30849 15.4729 2.16776 15.1681 2.16686 14.8501Z" fill="#999999"/>
</svg>
