<svg width="16" height="18" viewBox="0 0 16 18" fill="none" xmlns="http://www.w3.org/2000/svg">
<path d="M11.9682 3.71289H15.7066C15.7726 3.71275 15.8359 3.68905 15.8826 3.64694C15.9294 3.60484 15.9558 3.54776 15.9561 3.48815C15.9555 3.33575 15.918 3.18532 15.8462 3.04737C15.7745 2.90941 15.6702 2.78727 15.5408 2.68947L12.338 0.282109C12.0901 0.114763 11.7925 0.0180585 11.4834 0.00439645C11.443 0.00426048 11.4029 0.0113509 11.3655 0.0252591C11.3281 0.0391673 11.2941 0.0596183 11.2656 0.0854334C11.237 0.111249 11.2143 0.141917 11.1989 0.175672C11.1835 0.209427 11.1756 0.245601 11.1758 0.282109V3.00061C11.178 3.18942 11.2623 3.36989 11.4106 3.50312C11.5588 3.63635 11.7591 3.71169 11.9682 3.71289Z" fill="#E60000"/>
<path d="M10.095 2.99981V0H4.65332C4.30114 0.00094963 3.96369 0.127664 3.71466 0.352469C3.46564 0.577273 3.32527 0.881901 3.32422 1.19982V13.7997C3.32527 14.1177 3.46564 14.4223 3.71466 14.6471C3.96369 14.8719 4.30114 14.9986 4.65332 14.9996H14.623C14.9751 14.9986 15.3126 14.8719 15.5616 14.6471C15.8106 14.4223 15.951 14.1177 15.9521 13.7997V4.68769H11.9642C11.4686 4.687 10.9935 4.50894 10.6431 4.19254C10.2927 3.87613 10.0956 3.44721 10.095 2.99981Z" fill="#E60000"/>
<path d="M2.16028 14.8501V2.40039H1.3291C0.976922 2.40134 0.639472 2.52805 0.390445 2.75286C0.141419 2.97766 0.00105195 3.28229 0 3.60021V16.8003C0.00105195 17.1182 0.141419 17.4229 0.390445 17.6477C0.639472 17.8725 0.976922 17.9992 1.3291 18.0001H11.9636C12.3158 17.9992 12.6532 17.8725 12.9022 17.6477C13.1513 17.4229 13.2916 17.1182 13.2927 16.8003V16.0505H3.48938C3.1371 16.0495 2.79957 15.9227 2.55053 15.6978C2.30148 15.4729 2.16118 15.1682 2.16028 14.8501Z" fill="#E60000"/>
</svg>
