<svg width="14" height="15" viewBox="0 0 14 15" fill="none" xmlns="http://www.w3.org/2000/svg">
<path d="M8.09955 14.0586H5.54088C5.38056 14.0587 5.22505 14.0039 5.10014 13.9034C4.97523 13.8029 4.88842 13.6627 4.85411 13.5061L4.56802 12.1818C4.18637 12.0146 3.82448 11.8055 3.48902 11.5583L2.19773 11.9695C2.04489 12.0183 1.87997 12.0133 1.73037 11.9553C1.58076 11.8974 1.45547 11.7901 1.3753 11.6511L0.0931534 9.43617C0.0138242 9.29708 -0.0159541 9.13519 0.00869065 8.97698C0.0333354 8.81876 0.110944 8.6736 0.228819 8.56523L1.2305 7.65142C1.18495 7.23747 1.18495 6.81977 1.2305 6.40582L0.228819 5.49412C0.110777 5.38571 0.0330629 5.24041 0.00841412 5.08205C-0.0162346 4.92368 0.0136442 4.76164 0.0931534 4.62248L1.37249 2.40614C1.45266 2.26718 1.57795 2.15982 1.72756 2.1019C1.87716 2.04398 2.04208 2.03897 2.19492 2.08771L3.48621 2.49892C3.65772 2.3724 3.83627 2.2543 4.02044 2.14746C4.19828 2.04764 4.38104 1.95696 4.56802 1.87613L4.85482 0.553208C4.88896 0.396593 4.9756 0.256351 5.10038 0.155734C5.22516 0.0551168 5.38059 0.00016868 5.54088 0H8.09955C8.25985 0.00016868 8.41527 0.0551168 8.54005 0.155734C8.66483 0.256351 8.75147 0.396593 8.78561 0.553208L9.07522 1.87683C9.45639 2.04502 9.81817 2.25408 10.1542 2.50033L11.4462 2.08912C11.599 2.04055 11.7637 2.04565 11.9132 2.10357C12.0626 2.16148 12.1878 2.26873 12.2679 2.40754L13.5473 4.62389C13.7104 4.90998 13.6541 5.27199 13.4116 5.49482L12.4099 6.40864C12.4555 6.82258 12.4555 7.24028 12.4099 7.65423L13.4116 8.56804C13.6541 8.79158 13.7104 9.15288 13.5473 9.43898L12.2679 11.6553C12.1878 11.7943 12.0625 11.9016 11.9129 11.9596C11.7633 12.0175 11.5984 12.0225 11.4455 11.9738L10.1542 11.5625C9.81902 11.8095 9.45736 12.0184 9.07593 12.1853L8.78561 13.5061C8.75133 13.6626 8.66463 13.8027 8.53986 13.9032C8.41509 14.0037 8.25975 14.0585 8.09955 14.0586ZM6.8174 4.2176C6.07169 4.2176 5.35651 4.51383 4.82921 5.04113C4.30191 5.56843 4.00567 6.28361 4.00567 7.02932C4.00567 7.77504 4.30191 8.49022 4.82921 9.01752C5.35651 9.54482 6.07169 9.84105 6.8174 9.84105C7.56312 9.84105 8.2783 9.54482 8.8056 9.01752C9.3329 8.49022 9.62913 7.77504 9.62913 7.02932C9.62913 6.28361 9.3329 5.56843 8.8056 5.04113C8.2783 4.51383 7.56312 4.2176 6.8174 4.2176Z" fill="#E60000"/>
</svg>
