<svg width="17" height="16" viewBox="0 0 17 16" fill="none" xmlns="http://www.w3.org/2000/svg">
<path d="M2.92286 1.23086V13.6143C2.9224 13.7569 2.86555 13.8936 2.7647 13.9944C2.66385 14.0953 2.52719 14.1521 2.38457 14.1526C2.24195 14.1521 2.1053 14.0953 2.00445 13.9944C1.90359 13.8936 1.84674 13.7569 1.84629 13.6143V2.46171H1.23086C1.06918 2.46156 0.909053 2.4933 0.759651 2.5551C0.610249 2.6169 0.4745 2.70756 0.360175 2.82189C0.245849 2.93621 0.155191 3.07196 0.0933877 3.22137C0.0315846 3.37077 -0.000149799 3.53089 5.31611e-07 3.69257V14.7691C-0.000149799 14.9308 0.0315846 15.0909 0.0933877 15.2403C0.155191 15.3898 0.245849 15.5255 0.360175 15.6398C0.4745 15.7542 0.610249 15.8448 0.759651 15.9066C0.909053 15.9684 1.06918 16.0001 1.23086 16H14.8143C15.1295 15.9998 15.4317 15.8746 15.6546 15.6517C15.8774 15.4288 16.0027 15.1266 16.0029 14.8114V1.23086C16.003 1.06918 15.9713 0.909053 15.9095 0.759651C15.8477 0.610249 15.757 0.474501 15.6427 0.360175C15.5284 0.245849 15.3926 0.155191 15.2432 0.0933877C15.0938 0.0315846 14.9337 -0.000149799 14.772 5.31611e-07L4.07714 0.0771434C3.92364 0.0697177 3.77028 0.0944718 3.62692 0.149816C3.48355 0.205161 3.35334 0.289873 3.24464 0.398515C3.13595 0.507156 3.05117 0.637326 2.99575 0.780667C2.94034 0.924008 2.91551 1.07735 2.92286 1.23086ZM5.46114 2.46171H8.692C8.83462 2.46217 8.97127 2.51902 9.07212 2.61987C9.17297 2.72072 9.22983 2.85738 9.23028 3C9.22983 3.14262 9.17297 3.27928 9.07212 3.38013C8.97127 3.48098 8.83462 3.53783 8.692 3.53829H5.46171C5.31909 3.53783 5.18244 3.48098 5.08159 3.38013C4.98074 3.27928 4.92388 3.14262 4.92343 3C4.92388 2.85738 4.98074 2.72072 5.08159 2.61987C5.18244 2.51902 5.31909 2.46217 5.46171 2.46171H5.46114ZM5.46114 8.61543H11.1537C11.2963 8.61588 11.433 8.67274 11.5338 8.77359C11.6347 8.87444 11.6915 9.01109 11.692 9.15371C11.6915 9.29634 11.6347 9.43299 11.5338 9.53384C11.433 9.63469 11.2963 9.69155 11.1537 9.692H5.46171C5.31909 9.69155 5.18244 9.63469 5.08159 9.53384C4.98074 9.43299 4.92388 9.29634 4.92343 9.15371C4.92388 9.01109 4.98074 8.87444 5.08159 8.77359C5.18244 8.67274 5.31909 8.61588 5.46171 8.61543H5.46114ZM12.9994 12.7691H5.46171C5.31909 12.7687 5.18244 12.7118 5.08159 12.611C4.98074 12.5101 4.92388 12.3735 4.92343 12.2309C4.92388 12.0882 4.98074 11.9516 5.08159 11.8507C5.18244 11.7499 5.31909 11.693 5.46171 11.6926H13C13.1426 11.693 13.2793 11.7499 13.3801 11.8507C13.481 11.9516 13.5378 12.0882 13.5383 12.2309C13.5378 12.3735 13.481 12.5101 13.3801 12.611C13.2793 12.7118 13.1426 12.7687 13 12.7691H12.9994ZM12.9994 6.61543H5.46171C5.31909 6.61498 5.18244 6.55812 5.08159 6.45727C4.98074 6.35642 4.92388 6.21977 4.92343 6.07714C4.92388 5.93452 4.98074 5.79787 5.08159 5.69702C5.18244 5.59617 5.31909 5.53931 5.46171 5.53886H13C13.1426 5.53931 13.2793 5.59617 13.3801 5.69702C13.481 5.79787 13.5378 5.93452 13.5383 6.07714C13.5378 6.21977 13.481 6.35642 13.3801 6.45727C13.2793 6.55812 13.1426 6.61498 13 6.61543H12.9994Z" fill="#E60000"/>
</svg>
